<svg xmlns="http://www.w3.org/2000/svg" xmlns:xlink="http://www.w3.org/1999/xlink" width="1600" height="907" viewBox="0 0 1600 907">
	<g transform="translate(0 -1917)">
		<text transform="translate(800 1996)" fill="#494a53" font-size="40"
			font-family="Helvetica-Bold, Helvetica" font-weight="700">
			<tspan x="-116.67" y="0">Product List</tspan>
		</text>
		<g transform="translate(376 2046)" clip-path="url(#a)">
			<rect width="262" height="262" rx="16" fill="#cfd2d6" />
			<rect width="115" height="10" rx="5" transform="translate(0 286)" fill="#969da8" />
			<rect width="68" height="10" rx="5" transform="translate(121 286)" fill="#969da8" />
			<rect width="72" height="16" rx="8" transform="translate(0 322)" fill="#494a53" />
			<g transform="translate(294)">
				<rect width="262" height="262" rx="16" fill="#cfd2d6" />
				<rect width="115" height="10" rx="5" transform="translate(0 286)" fill="#969da8" />
				<rect width="68" height="10" rx="5" transform="translate(121 286)"
					fill="#969da8" />
				<rect width="72" height="16" rx="8" transform="translate(0 322)" fill="#494a53" />
			</g>
			<g transform="translate(588)">
				<rect width="262" height="262" rx="16" fill="#cfd2d6" />
				<rect width="115" height="10" rx="5" transform="translate(0 286)" fill="#969da8" />
				<rect width="68" height="10" rx="5" transform="translate(121 286)"
					fill="#969da8" />
				<rect width="72" height="16" rx="8" transform="translate(0 322)" fill="#494a53" />
			</g>
			<g transform="translate(882)">
				<rect width="262" height="262" rx="16" fill="#cfd2d6" />
				<rect width="115" height="10" rx="5" transform="translate(0 286)" fill="#969da8" />
				<rect width="68" height="10" rx="5" transform="translate(121 286)"
					fill="#969da8" />
				<rect width="72" height="16" rx="8" transform="translate(0 322)" fill="#494a53" />
			</g>
			<g transform="translate(0 388)">
				<rect width="262" height="262" rx="16" fill="#cfd2d6" />
				<rect width="115" height="10" rx="5" transform="translate(0 286)" fill="#969da8" />
				<rect width="68" height="10" rx="5" transform="translate(121 286)"
					fill="#969da8" />
				<rect width="72" height="16" rx="8" transform="translate(0 322)" fill="#494a53" />
			</g>
			<g transform="translate(294 388)">
				<rect width="262" height="262" rx="16" fill="#cfd2d6" />
				<rect width="115" height="10" rx="5" transform="translate(0 286)" fill="#969da8" />
				<rect width="68" height="10" rx="5" transform="translate(121 286)"
					fill="#969da8" />
				<rect width="72" height="16" rx="8" transform="translate(0 322)" fill="#494a53" />
			</g>
			<g transform="translate(588 388)">
				<rect width="262" height="262" rx="16" fill="#cfd2d6" />
				<rect width="115" height="10" rx="5" transform="translate(0 286)" fill="#969da8" />
				<rect width="68" height="10" rx="5" transform="translate(121 286)"
					fill="#969da8" />
				<rect width="72" height="16" rx="8" transform="translate(0 322)" fill="#494a53" />
			</g>
			<g transform="translate(882 388)">
				<rect width="262" height="262" rx="16" fill="#cfd2d6" />
				<rect width="115" height="10" rx="5" transform="translate(0 286)" fill="#969da8" />
				<rect width="68" height="10" rx="5" transform="translate(121 286)"
					fill="#969da8" />
				<rect width="72" height="16" rx="8" transform="translate(0 322)" fill="#494a53" />
			</g>
		</g>
		<rect width="1600" height="907" transform="translate(0 1917)" fill="none" />
		<rect width="115" height="10" rx="5" transform="translate(80 2082)" fill="#969da8" />
		<rect width="115" height="10" rx="5" transform="translate(80 2498)" fill="#969da8" />
		<rect width="115" height="10" rx="5" transform="translate(80 2342)" fill="#969da8" />
		<rect width="90" height="10" rx="5" transform="translate(80 2732)" fill="#969da8" />
		<rect width="115" height="10" rx="5" transform="translate(80 2186)" fill="#969da8" />
		<rect width="115" height="10" rx="5" transform="translate(80 2394)" fill="#969da8" />
		<rect width="90" height="10" rx="5" transform="translate(80 2134)" fill="#969da8" />
		<rect width="90" height="10" rx="5" transform="translate(80 2550)" fill="#969da8" />
		<rect width="90" height="10" rx="5" transform="translate(80 2368)" fill="#969da8" />
		<rect width="122" height="10" rx="5" transform="translate(80 2758)" fill="#969da8" />
		<rect width="90" height="10" rx="5" transform="translate(80 2212)" fill="#969da8" />
		<rect width="90" height="10" rx="5" transform="translate(80 2602)" fill="#969da8" />
		<rect width="51" height="10" rx="5" transform="translate(176 2134)" fill="#969da8" />
		<rect width="51" height="10" rx="5" transform="translate(176 2212)" fill="#969da8" />
		<rect width="77" height="10" rx="5" transform="translate(80 2108)" fill="#969da8" />
		<rect width="77" height="10" rx="5" transform="translate(80 2524)" fill="#969da8" />
		<rect width="77" height="10" rx="5" transform="translate(80 2316)" fill="#969da8" />
		<rect width="77" height="10" rx="5" transform="translate(80 2706)" fill="#969da8" />
		<rect width="77" height="10" rx="5" transform="translate(80 2160)" fill="#969da8" />
		<rect width="77" height="10" rx="5" transform="translate(80 2576)" fill="#969da8" />
		<rect width="77" height="10" rx="5" transform="translate(80 2420)" fill="#969da8" />
		<rect width="68" height="10" rx="5" transform="translate(201 2082)" fill="#969da8" />
		<rect width="68" height="10" rx="5" transform="translate(201 2186)" fill="#969da8" />
		<rect width="68" height="10" rx="5" transform="translate(201 2394)" fill="#969da8" />
		<rect width="39" height="10" rx="5" transform="translate(163 2108)" fill="#969da8" />
		<rect width="39" height="10" rx="5" transform="translate(163 2524)" fill="#969da8" />
		<rect width="39" height="10" rx="5" transform="translate(163 2316)" fill="#969da8" />
		<rect width="39" height="10" rx="5" transform="translate(163 2706)" fill="#969da8" />
		<rect width="39" height="10" rx="5" transform="translate(163 2160)" fill="#969da8" />
		<rect width="39" height="10" rx="5" transform="translate(163 2576)" fill="#969da8" />
		<rect width="39" height="10" rx="5" transform="translate(163 2420)" fill="#969da8" />
		<rect width="72" height="16" rx="8" transform="translate(80 2046)" fill="#494a53" />
		<rect width="72" height="16" rx="8" transform="translate(80 2462)" fill="#494a53" />
		<rect width="115" height="16" rx="8" transform="translate(80 2254)" fill="#494a53" />
		<rect width="115" height="16" rx="8" transform="translate(80 2644)" fill="#494a53" />
		<rect width="90" height="10" rx="5" transform="translate(80 2290)" fill="#969da8" />
		<rect width="90" height="10" rx="5" transform="translate(80 2680)" fill="#969da8" />
		<rect width="51" height="10" rx="5" transform="translate(176 2290)" fill="#969da8" />
	</g>
</svg>