<svg xmlns="http://www.w3.org/2000/svg" width="1344" height="733" viewBox="0 0 1344 733">
  <g id="Group_6959" data-name="Group 6959" transform="translate(-288 -7841)">
    <g id="Group_6943" data-name="Group 6943">
      <g id="Rectangle_3580" data-name="Rectangle 3580" transform="translate(288 7841)" fill="#fff" stroke="#ddd" stroke-width="1">
        <rect width="1344" height="733" rx="15" stroke="none"/>
        <rect x="0.5" y="0.5" width="1343" height="732" rx="14.5" fill="none"/>
      </g>
      <text id="Quick_Order" data-name="Quick Order" transform="translate(843 7960)" fill="#111" font-size="40" font-family="Helvetica-Bold, Helvetica" font-weight="700"><tspan x="0" y="0">Quick Order</tspan></text>
      <text id="Bulk_IMport" data-name="Bulk IMport" transform="translate(871 8002)" fill="#111" font-size="14" font-family="Helvetica" text-decoration="underline"><tspan x="0" y="0">Bulk Import</tspan></text>
      <text id="CSV_Import" data-name="CSV Import" transform="translate(972 8002)" fill="#111" font-size="14" font-family="Helvetica" text-decoration="underline"><tspan x="0" y="0">CSV Import</tspan></text>
      <text id="Add_Row" data-name="Add Row" transform="translate(942.369 8459)" fill="#111" font-size="14" font-family="Helvetica" text-decoration="underline"><tspan x="0" y="0">Add Row</tspan></text>
      <g id="Rectangle_3602" data-name="Rectangle 3602" transform="translate(328 8045)" fill="#fff" stroke="#ccc" stroke-width="1">
        <rect width="1264" height="60" rx="4" stroke="none"/>
        <rect x="0.5" y="0.5" width="1263" height="59" rx="3.5" fill="none"/>
      </g>
      <g id="Rectangle_3605" data-name="Rectangle 3605" transform="translate(328 8125)" fill="#fff" stroke="#ccc" stroke-width="1">
        <rect width="1264" height="60" rx="4" stroke="none"/>
        <rect x="0.5" y="0.5" width="1263" height="59" rx="3.5" fill="none"/>
      </g>
      <g id="Rectangle_3609" data-name="Rectangle 3609" transform="translate(328 8205)" fill="#fff" stroke="#ccc" stroke-width="1">
        <rect width="1264" height="60" rx="4" stroke="none"/>
        <rect x="0.5" y="0.5" width="1263" height="59" rx="3.5" fill="none"/>
      </g>
      <g id="Rectangle_3613" data-name="Rectangle 3613" transform="translate(328 8285)" fill="#fff" stroke="#ccc" stroke-width="1">
        <rect width="1264" height="60" rx="4" stroke="none"/>
        <rect x="0.5" y="0.5" width="1263" height="59" rx="3.5" fill="none"/>
      </g>
      <g id="Rectangle_3617" data-name="Rectangle 3617" transform="translate(328 8365)" fill="#fff" stroke="#ccc" stroke-width="1">
        <rect width="1264" height="60" rx="4" stroke="none"/>
        <rect x="0.5" y="0.5" width="1263" height="59" rx="3.5" fill="none"/>
      </g>
      <g id="Rectangle_3601" data-name="Rectangle 3601" transform="translate(334 8051)" fill="#fff" stroke="#ccc" stroke-width="1">
        <rect width="1078" height="48" rx="4" stroke="none"/>
        <rect x="0.5" y="0.5" width="1077" height="47" rx="3.5" fill="none"/>
      </g>
      <g id="Rectangle_3606" data-name="Rectangle 3606" transform="translate(334 8131)" fill="#fff" stroke="#ccc" stroke-width="1">
        <rect width="1078" height="48" rx="4" stroke="none"/>
        <rect x="0.5" y="0.5" width="1077" height="47" rx="3.5" fill="none"/>
      </g>
      <g id="Rectangle_3610" data-name="Rectangle 3610" transform="translate(334 8211)" fill="#fff" stroke="#ccc" stroke-width="1">
        <rect width="1078" height="48" rx="4" stroke="none"/>
        <rect x="0.5" y="0.5" width="1077" height="47" rx="3.5" fill="none"/>
      </g>
      <g id="Rectangle_3614" data-name="Rectangle 3614" transform="translate(334 8291)" fill="#fff" stroke="#ccc" stroke-width="1">
        <rect width="1078" height="48" rx="4" stroke="none"/>
        <rect x="0.5" y="0.5" width="1077" height="47" rx="3.5" fill="none"/>
      </g>
      <g id="Rectangle_3618" data-name="Rectangle 3618" transform="translate(334 8371)" fill="#fff" stroke="#ccc" stroke-width="1">
        <rect width="1078" height="48" rx="4" stroke="none"/>
        <rect x="0.5" y="0.5" width="1077" height="47" rx="3.5" fill="none"/>
      </g>
      <g id="Rectangle_3603" data-name="Rectangle 3603" transform="translate(1422 8051)" fill="#fff" stroke="#ccc" stroke-width="1">
        <rect width="101" height="48" rx="4" stroke="none"/>
        <rect x="0.5" y="0.5" width="100" height="47" rx="3.5" fill="none"/>
      </g>
      <g id="Rectangle_3607" data-name="Rectangle 3607" transform="translate(1422 8131)" fill="#fff" stroke="#ccc" stroke-width="1">
        <rect width="101" height="48" rx="4" stroke="none"/>
        <rect x="0.5" y="0.5" width="100" height="47" rx="3.5" fill="none"/>
      </g>
      <g id="Rectangle_3611" data-name="Rectangle 3611" transform="translate(1422 8211)" fill="#fff" stroke="#ccc" stroke-width="1">
        <rect width="101" height="48" rx="4" stroke="none"/>
        <rect x="0.5" y="0.5" width="100" height="47" rx="3.5" fill="none"/>
      </g>
      <g id="Rectangle_3615" data-name="Rectangle 3615" transform="translate(1422 8291)" fill="#fff" stroke="#ccc" stroke-width="1">
        <rect width="101" height="48" rx="4" stroke="none"/>
        <rect x="0.5" y="0.5" width="100" height="47" rx="3.5" fill="none"/>
      </g>
      <g id="Rectangle_3619" data-name="Rectangle 3619" transform="translate(1422 8371)" fill="#fff" stroke="#ccc" stroke-width="1">
        <rect width="101" height="48" rx="4" stroke="none"/>
        <rect x="0.5" y="0.5" width="100" height="47" rx="3.5" fill="none"/>
      </g>
      <g id="Rectangle_3604" data-name="Rectangle 3604" transform="translate(1533 8051)" fill="#fff" stroke="#000" stroke-width="1">
        <rect width="49" height="48" rx="4" stroke="none"/>
        <rect x="0.5" y="0.5" width="48" height="47" rx="3.5" fill="none"/>
      </g>
      <g id="Rectangle_3608" data-name="Rectangle 3608" transform="translate(1533 8131)" fill="#fff" stroke="#000" stroke-width="1">
        <rect width="49" height="48" rx="4" stroke="none"/>
        <rect x="0.5" y="0.5" width="48" height="47" rx="3.5" fill="none"/>
      </g>
      <g id="Rectangle_3612" data-name="Rectangle 3612" transform="translate(1533 8211)" fill="#fff" stroke="#000" stroke-width="1">
        <rect width="49" height="48" rx="4" stroke="none"/>
        <rect x="0.5" y="0.5" width="48" height="47" rx="3.5" fill="none"/>
      </g>
      <g id="Rectangle_3616" data-name="Rectangle 3616" transform="translate(1533 8291)" fill="#fff" stroke="#000" stroke-width="1">
        <rect width="49" height="48" rx="4" stroke="none"/>
        <rect x="0.5" y="0.5" width="48" height="47" rx="3.5" fill="none"/>
      </g>
      <g id="Rectangle_3620" data-name="Rectangle 3620" transform="translate(1533 8371)" fill="#fff" stroke="#000" stroke-width="1">
        <rect width="49" height="48" rx="4" stroke="none"/>
        <rect x="0.5" y="0.5" width="48" height="47" rx="3.5" fill="none"/>
      </g>
      <text id="Search_for_a_product_" data-name="Search for a product…" transform="translate(348 8080)" fill="#a5a5a5" font-size="13" font-family="Helvetica"><tspan x="0" y="0">Search for a product…</tspan></text>
      <text id="Search_for_a_product_2" data-name="Search for a product…" transform="translate(348 8160)" fill="#a5a5a5" font-size="13" font-family="Helvetica"><tspan x="0" y="0">Search for a product…</tspan></text>
      <text id="Search_for_a_product_3" data-name="Search for a product…" transform="translate(348 8240)" fill="#a5a5a5" font-size="13" font-family="Helvetica"><tspan x="0" y="0">Search for a product…</tspan></text>
      <text id="Search_for_a_product_4" data-name="Search for a product…" transform="translate(348 8320)" fill="#a5a5a5" font-size="13" font-family="Helvetica"><tspan x="0" y="0">Search for a product…</tspan></text>
      <text id="Search_for_a_product_5" data-name="Search for a product…" transform="translate(348 8400)" fill="#a5a5a5" font-size="13" font-family="Helvetica"><tspan x="0" y="0">Search for a product…</tspan></text>
      <text id="_1" data-name="1" transform="translate(1438 8080)" fill="#111" font-size="13" font-family="Helvetica"><tspan x="0" y="0">1</tspan></text>
      <text id="_1-2" data-name="1" transform="translate(1438 8160)" fill="#111" font-size="13" font-family="Helvetica"><tspan x="0" y="0">1</tspan></text>
      <text id="_1-3" data-name="1" transform="translate(1438 8240)" fill="#111" font-size="13" font-family="Helvetica"><tspan x="0" y="0">1</tspan></text>
      <text id="_1-4" data-name="1" transform="translate(1438 8320)" fill="#111" font-size="13" font-family="Helvetica"><tspan x="0" y="0">1</tspan></text>
      <text id="_1-5" data-name="1" transform="translate(1438 8400)" fill="#111" font-size="13" font-family="Helvetica"><tspan x="0" y="0">1</tspan></text>
      <path id="exit-circle" d="M18278,20775.012a9.006,9.006,0,1,1,9.012,9.008A9.02,9.02,0,0,1,18278,20775.012Zm.9,0a8.107,8.107,0,1,0,8.113-8.113A8.121,8.121,0,0,0,18278.9,20775.012Zm8.273.672-2.191,2.191-.672-.672,2.191-2.191-2.191-2.191.672-.672,2.191,2.191,2.191-2.191.676.672-2.191,2.191,2.191,2.191-.676.672Z" transform="translate(-17360.375 -12321)" fill="#111"/>
      <path id="remove" d="M18281.2,20781.477a2.1,2.1,0,0,1-1.406-.535,1.785,1.785,0,0,1-.578-1.3v-9.064h-.422a.822.822,0,0,1-.559-.217.7.7,0,0,1-.234-.518v-1.137a.765.765,0,0,1,.793-.732h2.742v-1.061a.957.957,0,0,1,.99-.916h3.24a1.031,1.031,0,0,1,.7.268.888.888,0,0,1,.289.648v1.061h2.746a.827.827,0,0,1,.559.215.7.7,0,0,1,.23.518v1.137a.7.7,0,0,1-.23.518.829.829,0,0,1-.559.217h-.426v9.064a1.76,1.76,0,0,1-.582,1.3,2.072,2.072,0,0,1-1.4.535Zm-1.191-1.832a1.148,1.148,0,0,0,1.191,1.1h5.891a1.147,1.147,0,0,0,1.188-1.1l.01-9.064h-8.279Zm-1.215-9.8h10.711v-1.137h-10.711Zm3.535-2.93v1.061h3.641v-1.061a.169.169,0,0,0-.061-.129.212.212,0,0,0-.143-.055h-3.24A.193.193,0,0,0,18282.328,20766.916Zm3.719,12.211a.348.348,0,0,1-.115-.258v-6.213a.4.4,0,0,1,.793,0v6.213a.356.356,0,0,1-.115.258.422.422,0,0,1-.562,0Zm-2.18,0a.348.348,0,0,1-.115-.258v-6.213a.4.4,0,0,1,.789,0v6.213a.359.359,0,0,1-.111.258.422.422,0,0,1-.283.107A.412.412,0,0,1,18283.867,20779.127Zm-2.18,0a.343.343,0,0,1-.117-.258v-6.213a.4.4,0,0,1,.789,0v6.213a.352.352,0,0,1-.111.258.418.418,0,0,1-.283.107A.411.411,0,0,1,18281.688,20779.127Z" transform="translate(-16726.648 -12698.738)"/>
      <path id="remove-2" data-name="remove" d="M18281.2,20781.477a2.1,2.1,0,0,1-1.406-.535,1.785,1.785,0,0,1-.578-1.3v-9.064h-.422a.822.822,0,0,1-.559-.217.7.7,0,0,1-.234-.518v-1.137a.765.765,0,0,1,.793-.732h2.742v-1.061a.957.957,0,0,1,.99-.916h3.24a1.031,1.031,0,0,1,.7.268.888.888,0,0,1,.289.648v1.061h2.746a.827.827,0,0,1,.559.215.7.7,0,0,1,.23.518v1.137a.7.7,0,0,1-.23.518.829.829,0,0,1-.559.217h-.426v9.064a1.76,1.76,0,0,1-.582,1.3,2.072,2.072,0,0,1-1.4.535Zm-1.191-1.832a1.148,1.148,0,0,0,1.191,1.1h5.891a1.147,1.147,0,0,0,1.188-1.1l.01-9.064h-8.279Zm-1.215-9.8h10.711v-1.137h-10.711Zm3.535-2.93v1.061h3.641v-1.061a.169.169,0,0,0-.061-.129.212.212,0,0,0-.143-.055h-3.24A.193.193,0,0,0,18282.328,20766.916Zm3.719,12.211a.348.348,0,0,1-.115-.258v-6.213a.4.4,0,0,1,.793,0v6.213a.356.356,0,0,1-.115.258.422.422,0,0,1-.562,0Zm-2.18,0a.348.348,0,0,1-.115-.258v-6.213a.4.4,0,0,1,.789,0v6.213a.359.359,0,0,1-.111.258.422.422,0,0,1-.283.107A.412.412,0,0,1,18283.867,20779.127Zm-2.18,0a.343.343,0,0,1-.117-.258v-6.213a.4.4,0,0,1,.789,0v6.213a.352.352,0,0,1-.111.258.418.418,0,0,1-.283.107A.411.411,0,0,1,18281.688,20779.127Z" transform="translate(-16726.648 -12619)"/>
      <path id="remove-3" data-name="remove" d="M18281.2,20781.477a2.1,2.1,0,0,1-1.406-.535,1.785,1.785,0,0,1-.578-1.3v-9.064h-.422a.822.822,0,0,1-.559-.217.7.7,0,0,1-.234-.518v-1.137a.765.765,0,0,1,.793-.732h2.742v-1.061a.957.957,0,0,1,.99-.916h3.24a1.031,1.031,0,0,1,.7.268.888.888,0,0,1,.289.648v1.061h2.746a.827.827,0,0,1,.559.215.7.7,0,0,1,.23.518v1.137a.7.7,0,0,1-.23.518.829.829,0,0,1-.559.217h-.426v9.064a1.76,1.76,0,0,1-.582,1.3,2.072,2.072,0,0,1-1.4.535Zm-1.191-1.832a1.148,1.148,0,0,0,1.191,1.1h5.891a1.147,1.147,0,0,0,1.188-1.1l.01-9.064h-8.279Zm-1.215-9.8h10.711v-1.137h-10.711Zm3.535-2.93v1.061h3.641v-1.061a.169.169,0,0,0-.061-.129.212.212,0,0,0-.143-.055h-3.24A.193.193,0,0,0,18282.328,20766.916Zm3.719,12.211a.348.348,0,0,1-.115-.258v-6.213a.4.4,0,0,1,.793,0v6.213a.356.356,0,0,1-.115.258.422.422,0,0,1-.562,0Zm-2.18,0a.348.348,0,0,1-.115-.258v-6.213a.4.4,0,0,1,.789,0v6.213a.359.359,0,0,1-.111.258.422.422,0,0,1-.283.107A.412.412,0,0,1,18283.867,20779.127Zm-2.18,0a.343.343,0,0,1-.117-.258v-6.213a.4.4,0,0,1,.789,0v6.213a.352.352,0,0,1-.111.258.418.418,0,0,1-.283.107A.411.411,0,0,1,18281.688,20779.127Z" transform="translate(-16726.648 -12538.477)"/>
      <path id="remove-4" data-name="remove" d="M18281.2,20781.477a2.1,2.1,0,0,1-1.406-.535,1.785,1.785,0,0,1-.578-1.3v-9.064h-.422a.822.822,0,0,1-.559-.217.7.7,0,0,1-.234-.518v-1.137a.765.765,0,0,1,.793-.732h2.742v-1.061a.957.957,0,0,1,.99-.916h3.24a1.031,1.031,0,0,1,.7.268.888.888,0,0,1,.289.648v1.061h2.746a.827.827,0,0,1,.559.215.7.7,0,0,1,.23.518v1.137a.7.7,0,0,1-.23.518.829.829,0,0,1-.559.217h-.426v9.064a1.76,1.76,0,0,1-.582,1.3,2.072,2.072,0,0,1-1.4.535Zm-1.191-1.832a1.148,1.148,0,0,0,1.191,1.1h5.891a1.147,1.147,0,0,0,1.188-1.1l.01-9.064h-8.279Zm-1.215-9.8h10.711v-1.137h-10.711Zm3.535-2.93v1.061h3.641v-1.061a.169.169,0,0,0-.061-.129.212.212,0,0,0-.143-.055h-3.24A.193.193,0,0,0,18282.328,20766.916Zm3.719,12.211a.348.348,0,0,1-.115-.258v-6.213a.4.4,0,0,1,.793,0v6.213a.356.356,0,0,1-.115.258.422.422,0,0,1-.562,0Zm-2.18,0a.348.348,0,0,1-.115-.258v-6.213a.4.4,0,0,1,.789,0v6.213a.359.359,0,0,1-.111.258.422.422,0,0,1-.283.107A.412.412,0,0,1,18283.867,20779.127Zm-2.18,0a.343.343,0,0,1-.117-.258v-6.213a.4.4,0,0,1,.789,0v6.213a.352.352,0,0,1-.111.258.418.418,0,0,1-.283.107A.411.411,0,0,1,18281.688,20779.127Z" transform="translate(-16726.648 -12458.738)"/>
      <path id="remove-5" data-name="remove" d="M18281.2,20781.477a2.1,2.1,0,0,1-1.406-.535,1.785,1.785,0,0,1-.578-1.3v-9.064h-.422a.822.822,0,0,1-.559-.217.7.7,0,0,1-.234-.518v-1.137a.765.765,0,0,1,.793-.732h2.742v-1.061a.957.957,0,0,1,.99-.916h3.24a1.031,1.031,0,0,1,.7.268.888.888,0,0,1,.289.648v1.061h2.746a.827.827,0,0,1,.559.215.7.7,0,0,1,.23.518v1.137a.7.7,0,0,1-.23.518.829.829,0,0,1-.559.217h-.426v9.064a1.76,1.76,0,0,1-.582,1.3,2.072,2.072,0,0,1-1.4.535Zm-1.191-1.832a1.148,1.148,0,0,0,1.191,1.1h5.891a1.147,1.147,0,0,0,1.188-1.1l.01-9.064h-8.279Zm-1.215-9.8h10.711v-1.137h-10.711Zm3.535-2.93v1.061h3.641v-1.061a.169.169,0,0,0-.061-.129.212.212,0,0,0-.143-.055h-3.24A.193.193,0,0,0,18282.328,20766.916Zm3.719,12.211a.348.348,0,0,1-.115-.258v-6.213a.4.4,0,0,1,.793,0v6.213a.356.356,0,0,1-.115.258.422.422,0,0,1-.562,0Zm-2.18,0a.348.348,0,0,1-.115-.258v-6.213a.4.4,0,0,1,.789,0v6.213a.359.359,0,0,1-.111.258.422.422,0,0,1-.283.107A.412.412,0,0,1,18283.867,20779.127Zm-2.18,0a.343.343,0,0,1-.117-.258v-6.213a.4.4,0,0,1,.789,0v6.213a.352.352,0,0,1-.111.258.418.418,0,0,1-.283.107A.411.411,0,0,1,18281.688,20779.127Z" transform="translate(-16726.648 -12379)"/>
      <g id="Group_6807" data-name="Group 6807" transform="translate(345 6828)">
        <rect id="Rectangle_3237" data-name="Rectangle 3237" width="114" height="40" rx="4" transform="translate(1133 1626)" fill="#111"/>
        <text id="Add_to_Cart" data-name="Add to Cart" transform="translate(1228 1651)" fill="#fff" font-size="13" font-family="Helvetica"><tspan x="-68.415" y="0">Add To Cart</tspan></text>
      </g>
    </g>
  </g>
</svg>