<svg xmlns="http://www.w3.org/2000/svg" xmlns:xlink="http://www.w3.org/1999/xlink" width="1546" height="673" viewBox="0 0 1546 673">
  <defs>
    <clipPath id="clip-Web_1920_1">
      <rect width="1546" height="673"/>
    </clipPath>
  </defs>
  <g id="Web_1920_1" data-name="Web 1920 – 1" clip-path="url(#clip-Web_1920_1)">
    <rect width="1546" height="673" fill="#fff"/>
    <text id="Quick_Order" data-name="Quick Order" transform="translate(656 62)" fill="#494a53" font-size="40" font-family="Helvetica-Bold, Helvetica" font-weight="700"><tspan x="0" y="0">Quick Order</tspan></text>
    <g id="Group_1" data-name="Group 1" transform="translate(-223 -1319)">
      <rect id="Rectangle_1" data-name="Rectangle 1" width="72" height="16" rx="8" transform="translate(910 1420)" fill="#494a53"/>
      <rect id="Rectangle_2" data-name="Rectangle 2" width="72" height="16" rx="8" transform="translate(1007 1420)" fill="#494a53"/>
    </g>
    <g id="Group_2" data-name="Group 2" transform="translate(-978 -221)">
      <g id="Rectangle_3" data-name="Rectangle 3" transform="translate(1030 357)" fill="#fff" stroke="#cfd2d6" stroke-width="2">
        <rect width="1207" height="58" rx="4" stroke="none"/>
        <rect x="1" y="1" width="1205" height="56" rx="3" fill="none"/>
      </g>
      <rect id="Rectangle_4" data-name="Rectangle 4" width="140" height="10" rx="5" transform="translate(1047 381)" fill="#969da8"/>
    </g>
    <g id="Group_3" data-name="Group 3" transform="translate(252 -221)">
      <g id="Rectangle_5" data-name="Rectangle 5" transform="translate(1030 357)" fill="#fff" stroke="#cfd2d6" stroke-width="2">
        <rect width="114" height="58" rx="4" stroke="none"/>
        <rect x="1" y="1" width="112" height="56" rx="3" fill="none"/>
      </g>
    </g>
    <g id="Rectangle_6" data-name="Rectangle 6" transform="translate(1418 136)" fill="none" stroke="#494a53" stroke-width="3">
      <rect width="72" height="58" rx="8" stroke="none"/>
      <rect x="1.5" y="1.5" width="69" height="55" rx="6.5" fill="none"/>
    </g>
    <g id="Group_4" data-name="Group 4" transform="translate(-978 -144)">
      <g id="Rectangle_7" data-name="Rectangle 7" transform="translate(1030 357)" fill="#fff" stroke="#cfd2d6" stroke-width="2">
        <rect width="1207" height="58" rx="4" stroke="none"/>
        <rect x="1" y="1" width="1205" height="56" rx="3" fill="none"/>
      </g>
      <rect id="Rectangle_8" data-name="Rectangle 8" width="140" height="10" rx="5" transform="translate(1047 381)" fill="#969da8"/>
    </g>
    <g id="Group_5" data-name="Group 5" transform="translate(252 -144)">
      <g id="Rectangle_9" data-name="Rectangle 9" transform="translate(1030 357)" fill="#fff" stroke="#cfd2d6" stroke-width="2">
        <rect width="114" height="58" rx="4" stroke="none"/>
        <rect x="1" y="1" width="112" height="56" rx="3" fill="none"/>
      </g>
    </g>
    <g id="Rectangle_10" data-name="Rectangle 10" transform="translate(1418 213)" fill="none" stroke="#494a53" stroke-width="3">
      <rect width="72" height="58" rx="8" stroke="none"/>
      <rect x="1.5" y="1.5" width="69" height="55" rx="6.5" fill="none"/>
    </g>
    <g id="Group_7" data-name="Group 7" transform="translate(-978 -67)">
      <g id="Rectangle_11" data-name="Rectangle 11" transform="translate(1030 357)" fill="#fff" stroke="#cfd2d6" stroke-width="2">
        <rect width="1207" height="58" rx="4" stroke="none"/>
        <rect x="1" y="1" width="1205" height="56" rx="3" fill="none"/>
      </g>
      <rect id="Rectangle_12" data-name="Rectangle 12" width="140" height="10" rx="5" transform="translate(1047 381)" fill="#969da8"/>
    </g>
    <g id="Group_8" data-name="Group 8" transform="translate(252 -67)">
      <g id="Rectangle_13" data-name="Rectangle 13" transform="translate(1030 357)" fill="#fff" stroke="#cfd2d6" stroke-width="2">
        <rect width="114" height="58" rx="4" stroke="none"/>
        <rect x="1" y="1" width="112" height="56" rx="3" fill="none"/>
      </g>
    </g>
    <g id="Rectangle_14" data-name="Rectangle 14" transform="translate(1418 290)" fill="none" stroke="#494a53" stroke-width="3">
      <rect width="72" height="58" rx="8" stroke="none"/>
      <rect x="1.5" y="1.5" width="69" height="55" rx="6.5" fill="none"/>
    </g>
    <g id="Group_10" data-name="Group 10" transform="translate(-978 10)">
      <g id="Rectangle_15" data-name="Rectangle 15" transform="translate(1030 357)" fill="#fff" stroke="#cfd2d6" stroke-width="2">
        <rect width="1207" height="58" rx="4" stroke="none"/>
        <rect x="1" y="1" width="1205" height="56" rx="3" fill="none"/>
      </g>
      <rect id="Rectangle_16" data-name="Rectangle 16" width="140" height="10" rx="5" transform="translate(1047 381)" fill="#969da8"/>
    </g>
    <g id="Group_11" data-name="Group 11" transform="translate(252 10)">
      <g id="Rectangle_17" data-name="Rectangle 17" transform="translate(1030 357)" fill="#fff" stroke="#cfd2d6" stroke-width="2">
        <rect width="114" height="58" rx="4" stroke="none"/>
        <rect x="1" y="1" width="112" height="56" rx="3" fill="none"/>
      </g>
    </g>
    <g id="Rectangle_18" data-name="Rectangle 18" transform="translate(1418 367)" fill="none" stroke="#494a53" stroke-width="3">
      <rect width="72" height="58" rx="8" stroke="none"/>
      <rect x="1.5" y="1.5" width="69" height="55" rx="6.5" fill="none"/>
    </g>
    <g id="Group_13" data-name="Group 13" transform="translate(-978 80)">
      <g id="Rectangle_19" data-name="Rectangle 19" transform="translate(1030 357)" fill="#fff" stroke="#cfd2d6" stroke-width="2">
        <rect width="1207" height="58" rx="4" stroke="none"/>
        <rect x="1" y="1" width="1205" height="56" rx="3" fill="none"/>
      </g>
      <rect id="Rectangle_20" data-name="Rectangle 20" width="140" height="10" rx="5" transform="translate(1047 381)" fill="#969da8"/>
    </g>
    <g id="Group_14" data-name="Group 14" transform="translate(252 80)">
      <g id="Rectangle_21" data-name="Rectangle 21" transform="translate(1030 357)" fill="#fff" stroke="#cfd2d6" stroke-width="2">
        <rect width="114" height="58" rx="4" stroke="none"/>
        <rect x="1" y="1" width="112" height="56" rx="3" fill="none"/>
      </g>
    </g>
    <g id="Rectangle_22" data-name="Rectangle 22" transform="translate(1418 437)" fill="none" stroke="#494a53" stroke-width="3">
      <rect width="72" height="58" rx="8" stroke="none"/>
      <rect x="1.5" y="1.5" width="69" height="55" rx="6.5" fill="none"/>
    </g>
    <rect id="Rectangle_23" data-name="Rectangle 23" width="72" height="16" rx="8" transform="translate(735 525)" fill="#494a53"/>
    <g id="Group_17" data-name="Group 17" transform="translate(340 36)">
      <g id="Group_16" data-name="Group 16" transform="translate(1030 541)">
        <rect id="Rectangle_24" data-name="Rectangle 24" width="120" height="48" rx="4" fill="#494a53"/>
      </g>
      <rect id="Rectangle_25" data-name="Rectangle 25" width="64" height="10" rx="5" transform="translate(1058 560)" fill="#fff"/>
    </g>
  </g>
</svg>