<svg xmlns="http://www.w3.org/2000/svg" xmlns:xlink="http://www.w3.org/1999/xlink" width="1344" height="634" viewBox="0 0 1344 634">
  <defs>
    <clipPath id="clip-path">
      <rect id="Rectangle_3704" data-name="Rectangle 3704" width="395" height="276" transform="translate(1188 5066)" fill="#eaeaea"/>
    </clipPath>
    <linearGradient id="linear-gradient" x1="0.408" y1="1.091" x2="0.334" y2="0.431" gradientUnits="objectBoundingBox">
      <stop offset="0" stop-color="#ababab"/>
      <stop offset="1" stop-color="#d5d5d5"/>
    </linearGradient>
    <linearGradient id="linear-gradient-2" x1="0.659" y1="1.841" x2="0.252" y2="2.645" gradientUnits="objectBoundingBox">
      <stop offset="0" stop-color="#939393"/>
      <stop offset="1" stop-color="#bebebe"/>
    </linearGradient>
    <linearGradient id="linear-gradient-3" x1="0.381" y1="0.033" x2="0.253" y2="-0.477" gradientUnits="objectBoundingBox">
      <stop offset="0" stop-color="#6a6a6a"/>
      <stop offset="1" stop-color="#6a6a6a"/>
    </linearGradient>
    <linearGradient id="linear-gradient-4" x1="0.151" y1="-0.165" x2="0.167" y2="0.296" gradientUnits="objectBoundingBox">
      <stop offset="0" stop-color="#c7c7c7"/>
      <stop offset="1" stop-color="#747474"/>
    </linearGradient>
  </defs>
  <g id="Group_6955" data-name="Group 6955" transform="translate(-288 -4897)">
    <g id="Group_6933" data-name="Group 6933">
      <g id="Rectangle_3576" data-name="Rectangle 3576" transform="translate(288 4897)" fill="#fff" stroke="#ddd" stroke-width="1">
        <rect width="1344" height="634" rx="15" stroke="none"/>
        <rect x="0.5" y="0.5" width="1343" height="633" rx="14.5" fill="none"/>
      </g>
      <text id="Image_Across_Heading" data-name="Image Across Heading" transform="translate(741 5016)" fill="#111" font-size="40" font-family="Helvetica-Bold, Helvetica" font-weight="700"><tspan x="0" y="0">Image Across Heading</tspan></text>
      <g id="Group_6883" data-name="Group 6883" transform="translate(-12)">
        <text id="Section_Title_Here" data-name="Section Title Here" transform="translate(340 5385)" fill="#575a5d" font-size="20" font-family="Helvetica"><tspan x="0" y="0">Section Title Here</tspan></text>
        <text id="Lorem_ipsum_dolor_sit_amet_consectetur_adipiscing" data-name="Lorem ipsum dolor sit amet, consectetur adipiscing" transform="translate(340 5412)" fill="#575a5d" font-size="14" font-family="Helvetica"><tspan x="0" y="0">Lorem ipsum dolor sit amet, consectetur adipiscing</tspan></text>
        <text id="Shop_Now" data-name="Shop Now" transform="translate(340 5448)" fill="#111" font-size="13" font-family="Helvetica" text-decoration="underline"><tspan x="0" y="0">Shop Now</tspan></text>
        <g id="Mask_Group_52" data-name="Mask Group 52" transform="translate(-848)" clip-path="url(#clip-path)">
          <g id="Group_6932" data-name="Group 6932" transform="translate(17512 21291)">
            <rect id="Rectangle_3702" data-name="Rectangle 3702" width="491" height="276" transform="translate(-16372 -16225)" fill="#fff"/>
            <g id="Background-2" transform="translate(-16372 -16225)" opacity="0.35">
              <rect id="Rectangle_3703" data-name="Rectangle 3703" width="491" height="276" fill="#b5b5b5"/>
              <path id="Path_18088" data-name="Path 18088" d="M2818.6,961.405c0-4.125,9.77-7.088,12.541-7.93,4.61-1.4,15.835-3.844,17.878-.013,1.967,3.665-4.393,13.23-12.987,15.171C2827.974,970.459,2818.613,965.441,2818.6,961.405Z" transform="translate(-2458.651 -829.907)" fill="#929292"/>
              <path id="Path_18089" data-name="Path 18089" d="M2911.659,1022.115c.587-.7,2.018-.345,1.634.7-.958,2.324-4.022,8.2-6.959,6.347-1.328-1.047-3.154-2.094-4.457-2.963-1.137-1.3,1.315-2.2,2-2.158C2907.891,1023.468,2910.522,1022.957,2911.659,1022.115Z" transform="translate(-2531.034 -891.268)" fill="#545454"/>
              <path id="Path_18090" data-name="Path 18090" d="M2246.2,858.624a1.464,1.464,0,0,1,.587.485,1.3,1.3,0,0,1-.255,1.737c-5.428,4.508-19.577,18.134-22.374,19.373-6.794,3.027-28.044-1.558-39.946-3.052-9.156-1.149-20.6-24.085-22.3-33.8-.306-1.788,2.095-2.733,4.138-3.933,12.4-7.279,28.121-3.371,39.908-.447,25.9,6.424,38.005,18.7,40.214,19.628Z" transform="translate(-1885.807 -728.608)" fill="#a1a1a1"/>
              <path id="Path_18091" data-name="Path 18091" d="M2287.6,1041.377c.409-.549,3.256.74,3.844.932,2.222.881,5.185,2.043,7.586,2.988a60.266,60.266,0,0,0,16.793,4.393,48.611,48.611,0,0,0,20.777-3.078,20.187,20.187,0,0,1,2.414-.766c1.443-.281.192,1.086-.2,1.545a21.842,21.842,0,0,0-4.457,6.794c-.472,1.085-.753,2.235-1.136,3.371-.243.7-.5,1.545-1.213,1.775a5.5,5.5,0,0,1-2.018-.077c-9.463-1.009-18.747-3.346-28.274-3.755a60.25,60.25,0,0,0-8.722.064c-.459.038-1.035.026-1.264-.255a3.171,3.171,0,0,1-.46-1.507c-.217-1.086-.523-2.133-.779-3.205a59.894,59.894,0,0,0-2.58-8.071c-.166-.345-.421-.843-.306-1.137h0Z" transform="translate(-1995.44 -908.271)" fill="#929292"/>
              <path id="Path_18092" data-name="Path 18092" d="M1398.034,755.081a64.364,64.364,0,0,1,42.308-15.146c3.04.064,20.561.626,35.949,12.132a55.8,55.8,0,0,1,14.2,15.146,54.122,54.122,0,0,1,5.07,10.319,56.617,56.617,0,0,1,3.371,11.685c.217,1.239.383,2.439.511,3.6a190.3,190.3,0,0,1-75.934,24.813,21.665,21.665,0,0,0-5.7-8.773c-9.335-8.505-21.761-3.052-31.582-11.353a23.307,23.307,0,0,1-6.934-10.638C1381.216,774.378,1388.559,763.178,1398.034,755.081Z" transform="translate(-1203.156 -645.434)" fill="#e5e5e5"/>
              <path id="Path_18093" data-name="Path 18093" d="M1380.026,1042.563c16.116-14.622,30.956-7.624,47.059,2.375,13.779,7.088,30.483,2.58,41.721-7.19a37.113,37.113,0,0,1,4.086-2.3,42.687,42.687,0,0,1,4.342-1.763c3.269-1.073,10.382-1.443,19.3.166a55.6,55.6,0,0,1,4.1,14.316,90.38,90.38,0,0,0-12.783,2.069c-17.993,4.265-25.094,11.813-42.551,17.853a107.529,107.529,0,0,1-21.186,4.968,21.615,21.615,0,0,0-5.7-8.773c-9.323-8.492-21.786-3.039-31.594-11.353a23.335,23.335,0,0,1-6.82-10.37Z" transform="translate(-1203.767 -900.874)" fill="url(#linear-gradient)"/>
              <path id="Path_18094" data-name="Path 18094" d="M2418.361,193.864a122.875,122.875,0,0,1-66,4.329,120.785,120.785,0,0,1-41.836-17.789c-3.435-5.108-3.282-8.058-2.567-9.782,4.674-11.315,43.458-1.52,52.474-14.75a4.133,4.133,0,0,0,.868-3.027c-3.422-6.934-15.388-3.129-21.25-1.75,24.66-17.521,55.973-15.669,84.528-19.973,27.725-8.441,78-43.113,78.181-10.612.1,17.968.4,36.2.537,54.121-6.283-.843-12.387,3.333-14.443,9.284-15.733,3.857-37.839,11.889-58.233,29.7a130.448,130.448,0,0,0-12.4,12.4,18.477,18.477,0,0,0-6.513-.332,17.3,17.3,0,0,0-6.347,2c-2.95,1.647-4.725,3.946-8.262,8.518-.651.843-1.175,1.558-1.52,2.043l-5.057-7.011a20.223,20.223,0,0,1,26.588-14.456,21.68,21.68,0,0,1,1.238-22.91Z" transform="translate(-2012.859 -93.22)" fill="#cecece"/>
              <path id="Path_18095" data-name="Path 18095" d="M3272.029,268.228c-14.418-2.771-31.185-.4-41.312,11.213a23.872,23.872,0,0,1-8.556,5.019c-9.757,3.18-19.284-2-29.245,3.55-3.972,1.877-5.389,5.619-2.542,9.233,5.9,7.982,22.6,8.135,20.752,21.454a7.04,7.04,0,0,1-2.694,4.776,25.278,25.278,0,0,1,5.708,1.6c-2.58-31.543,27.418-55.424,57.876-48.132v-8.722Z" transform="translate(-2781.642 -233.058)" fill="#b5b5b5"/>
              <path id="Path_18096" data-name="Path 18096" d="M3068.194,333.06a46.1,46.1,0,0,0-15.963-1.354,46.993,46.993,0,0,0-25.579,10.766c-2.733,2.286-12.617,10.791-15.682,25.426a43.668,43.668,0,0,0-.664,13.307,26.153,26.153,0,0,0-5.708-1.6c-9.833-1.06-16.282,3.295-21.761,10.983a21.4,21.4,0,0,0-3.384,8.02,22.215,22.215,0,0,0,1.9,13.843,21.66,21.66,0,0,0-17.368,2.465,21.3,21.3,0,0,0-8.787,12.3c.869,1.034,1.762,2.171,2.644,3.4q1.514,2.088,2.682,4.023a21.607,21.607,0,0,1,4.188-6.577c1.213-1.3,6.411-6.858,13.754-6.475a14.645,14.645,0,0,1,5.516,1.43c2.261-3.652,5.083-8.16,8.377-13.32,6.053-9.437,7.586-11.647,10.012-14.111a44.188,44.188,0,0,1,13.039-9.067c-.281-3.474-1.686-24.519,12.6-37.418a43.677,43.677,0,0,1,14.546-8.314,50.7,50.7,0,0,1,25.618-2.12v-5.619Z" transform="translate(-2577.806 -289.18)" fill="#e5e5e5"/>
              <path id="Path_18097" data-name="Path 18097" d="M3171.875,789.481a17.842,17.842,0,0,1-2.209-5.926,20.224,20.224,0,0,1,.817-9.5c1.239-4.2,3.128-10.638,8.991-14.661,9.028-6.194,20.266-1.711,21.263-1.29a40.448,40.448,0,0,0-8.1,5.108,45.864,45.864,0,0,0-8.339,9.144c-4.15,5.913-4.252,8.735-8.837,13.728a37.361,37.361,0,0,1-3.576,3.41Z" transform="translate(-2764.675 -659.579)" fill="#cecece"/>
              <path id="Path_18098" data-name="Path 18098" d="M3476.04,377.939c-3.883-.83-24.379-4.24-40.087,10.842-15.427,14.814-13.141,34.927-12.86,37.047a57.429,57.429,0,0,1,38.005-6.053,13.771,13.771,0,0,1,14.941-9.093V377.939Z" transform="translate(-2985.704 -328.875)" fill="#cecece"/>
              <path id="Path_18099" data-name="Path 18099" d="M0,0H470.171a55.208,55.208,0,0,1-13.141,6.526,54.785,54.785,0,0,1-16.078,2.912c-11.557.536-23.357-1-34.519,2.924-7.65,2.758-14.162,7.522-20.037,13.064-3.435,3.231-6.7,6.96-11.046,8.978-7.471,3.474-16.563,2.171-24.609,2.912a85.676,85.676,0,0,0-23.076,5.261c-23.281,8.429-41.491,27.674-65.806,33.523-40.265,6-43.458-25.873-105.459-2,11,5.836-3.742,10.791-9.348,11.583-10.778,2.388-22.3,2.171-33.2.6-2.976-.306-13.843-1.839-16.959-2.337C80.518,83.1,65.245,88.563,51.095,96.4A58.123,58.123,0,0,0,31.467,69.1,58.222,58.222,0,0,0,0,57.327Z" transform="translate(0)" fill="url(#linear-gradient-2)"/>
              <path id="Path_18100" data-name="Path 18100" d="M0,142.96c21.582-12.094,47.966-14.316,71.834-8.543,10.536,3.269,45.872,11.4,49.051,22.361-.856,2.477-4.444,2.286-6.6,2.465-26.1-.383-52.666-17.649-78.449-5.683-5.874,2.516-11.889,9.961-2.426,12.5,3.461.792,7.484,0,10.97-.294,13.652-1.469,27.329,3.41,37.532,12.464,6.7,6.143,13.179,13.728,22.821,14.763,17.777,3.844,34.353-11.966,51.593-4.316,10.983,5.823-3.729,10.8-9.361,11.583-10.778,2.4-22.323,2.171-33.229.6-2.835-.179-13.958-1.928-16.972-2.337-16.385-.843-31.671,4.623-45.833,12.464C43.152,189.6,23.255,172.575,0,171.923Z" transform="translate(0 -114.597)" fill="#cecece"/>
              <path id="Path_18101" data-name="Path 18101" d="M310.5,578.188c18.607-9.029,39.32.1,57.1,6.794-16.385-.856-31.671,4.623-45.833,12.464A64.9,64.9,0,0,0,310.5,578.188Z" transform="translate(-270.848 -501.054)" fill="#b5b5b5"/>
              <path id="Path_18102" data-name="Path 18102" d="M826.4,0h311.383c-18.134,5.147-32.552,10.382-42.653,14.354-18.7,7.356-27.623,12.336-39.984,9.872-10.842-2.171-13.83-8.084-21.339-11.008-29.551-11.506-47.123,22.642-69.893,33.714-13.677,4.968-28.159-1.686-42.168,1.085-23.115,3.831-46.153,21.3-69.829,10.153,13.281-2.222,20.816-5.7,31.045-14.495,12.732-10.7,27.367-18.632,44.314-19.335,3.984-.358,18.121.051,20.714-2.49.754-.8.217-2-.562-2.592-15.21,4.074-46.293,10.012-82.1-.792A144.689,144.689,0,0,1,826.4,0Z" transform="translate(-720.865)" fill="#7e7e7e"/>
              <path id="Path_18103" data-name="Path 18103" d="M0,837.717a135.408,135.408,0,0,1,20.8-3.32c82.944-6.641,175.773,63.482,168.89,106.289C183.908,976.673,105.612,1005.866,0,1003.3Z" transform="translate(0 -727.457)" fill="#7a7a7a"/>
              <path id="Path_18104" data-name="Path 18104" d="M234.1,1142.635c23.089-11.9,35.617-10.242,42.858-6.117,11.481,6.538,9.195,19.015,25.464,33.446,3.576,3.167,13.562,11.838,28.453,15.478,18.07,4.419,28.938-2.107,39.448,5.862,5.453,4.15,7.931,10.012,9.131,13.869a176.465,176.465,0,0,1-45.629-3.589c-51.835-11.034-85.23-42.985-99.725-58.961Z" transform="translate(-204.204 -988.699)" fill="#5a5a5a"/>
              <path id="Path_18105" data-name="Path 18105" d="M0,448.9c23.255.651,43.152,17.674,50.916,39.065,28.121-.741,52.231,23.932,57.582,50.405a26.826,26.826,0,0,1,42.973,24.481,36.493,36.493,0,0,1,50.75,39.665q-8.314,1.877-16.64,3.754c-14.443-18.262-28.223-25-38.311-27.737-8.748-2.363-16.512-1.877-25.03-8.326-8.965-6.794-11.672-14.443-15.861-21.863-19.041-33.689-65.372-42.82-74.12-44.544A122.69,122.69,0,0,0,0,501.846V448.9Z" transform="translate(0 -391.573)" fill="#a5a5a5"/>
              <path id="Path_18106" data-name="Path 18106" d="M731.313,862.12c30.33-12.311,60.034-9.463,74.337,7.139a38.891,38.891,0,0,1,8.416,17.559,36.3,36.3,0,0,0,9.3,11.532,20.469,20.469,0,0,0,3.039,2.069c4.01,2.2,7.3,2.082,11.136,2.5,4.751.524,8.939,1,12.8,3.371,1.009.613,6.96,4.291,7.943,11.289a15.349,15.349,0,0,1-1.622,9.016,24.576,24.576,0,0,1,18.39-.536c12.119,4.751,14.712,17.764,14.852,18.581a12.911,12.911,0,0,1-.868,1.328,13.28,13.28,0,0,1-1.073,1.2c-10.944,1.89-36.677,6.934-47.813,9.169,2.324-26.856-24.762-50.827-50.75-39.652,3.614-22.783-25.2-35.745-42.985-24.481a71.658,71.658,0,0,0-6.679-17.7,70.8,70.8,0,0,0-8.428-12.375Z" transform="translate(-637.909 -745.398)" fill="#7e7e7e"/>
              <path id="Path_18107" data-name="Path 18107" d="M835.3,1094.318c34.327-2.708,48.387,3.422,54.722,9.974a41.6,41.6,0,0,0,11.174,9.093c6.155,3.333,12.617,4.355,21.62,6.028,7.777,1.928,14.967,7.241,17.764,14.929,2.707,6.347-2.005,15.3,5.645,19.156,4.738,2.12,11.774-.409,14.38,5.568l-29.73,5.862c.115-1.188,1.775-21.467-14.75-34.084-16.1-12.311-34.685-6.028-35.987-5.568-.064-1.277-1.149-17.508-14.124-24.9a29.444,29.444,0,0,0-16.512-3.448,29.826,29.826,0,0,0-12.336,3.882q-.92-3.237-1.826-6.475Z" transform="translate(-728.628 -953.996)" fill="#545454"/>
              <path id="Path_18108" data-name="Path 18108" d="M398.7,682.109c17.138-9.029,31.134-10.74,40.763-10.638,21.633.243,32.488,9.821,62.409,17.47a218.1,218.1,0,0,0,40.8,6.411,58.668,58.668,0,0,0-18.619,32.041,25.078,25.078,0,0,0-11.57-13.2,24.34,24.34,0,0,0-12.362-2.682,81.583,81.583,0,0,0-58.949-9.08,61.765,61.765,0,0,0-7.943-7.765,58.427,58.427,0,0,0-11.11-7.19,54.792,54.792,0,0,0-13.869-4.482,56.163,56.163,0,0,0-9.552-.907Z" transform="translate(-347.784 -585.717)" fill="#a1a1a1"/>
              <path id="Path_18109" data-name="Path 18109" d="M667.4,825.858a60.94,60.94,0,0,1,67.1,17.01c-6.373,4.393-11.481,5.108-15.005,4.917-11.315-.626-15.759-11.085-29.615-14.035a35.116,35.116,0,0,0-14.316.051c-1.124-1.29-2.388-2.643-3.793-4.023C670.273,828.31,668.792,827.008,667.4,825.858Z" transform="translate(-582.17 -717.079)" fill="#b5b5b5"/>
              <path id="Path_18110" data-name="Path 18110" d="M0,1167c75.755,2.222,76.036,69.791,175.25,67.467C122.009,1245.9,0,1293.939,0,1293.939Z" transform="translate(0 -1017.968)" fill="#848484"/>
              <path id="Path_18111" data-name="Path 18111" d="M0,1373.794c24.315-2.146,40.968,3,51.9,8.39,20.331,10.025,27.661,24.213,52.921,34.2a109.444,109.444,0,0,0,30.1,7.126q-19.4,5.842-38.822,11.685a155.09,155.09,0,0,0-61.592-37.366A150.776,150.776,0,0,0,0,1391.225Z" transform="translate(0 -1197.918)" fill="#757575"/>
              <path id="Path_18112" data-name="Path 18112" d="M0,1513.8a141.059,141.059,0,0,1,47.366,10.446A141.431,141.431,0,0,1,96.1,1557.769q-14.616,5.574-29.219,11.136A94.634,94.634,0,0,0,50.9,1553.2a101.889,101.889,0,0,0-24.085-13.6A130.754,130.754,0,0,0,0,1531.449v-17.636Z" transform="translate(0 -1320.48)" fill="#5a5a5a"/>
              <path id="Path_18113" data-name="Path 18113" d="M0,1651.9a119.069,119.069,0,0,1,36.255,12.349,118.9,118.9,0,0,1,31.735,24.6c-8.939,4.061-18.377,8.76-28.184,14.214-8.2,4.559-15.823,9.182-22.859,13.741H0v-64.9Z" transform="translate(0 -1440.944)" fill="#393939"/>
              <path id="Path_18114" data-name="Path 18114" d="M0,1811.3a83.6,83.6,0,0,1,24,10.421,83.969,83.969,0,0,1,20.228,18.109c-5.479,2.733-11.212,5.875-17.138,9.476-3.576,2.171-6.973,4.368-10.178,6.539H0V1811.3Z" transform="translate(0 -1579.988)" fill="#242424"/>
              <path id="Path_18115" data-name="Path 18115" d="M1765.6,1191.765V1305.3H1461.9c13.281-21.4,47.672-70.263,112.483-100.644C1662.6,1163.287,1744.7,1185.444,1765.6,1191.765Z" transform="translate(-1275.208 -1029.452)" fill="url(#linear-gradient-3)"/>
              <path id="Path_18116" data-name="Path 18116" d="M2319.59,1143.661v7.292c-16.474-.8-38.541,1.009-57.3,14.482-20.79,14.929-18.479,30.534-37.941,40.444-19.6,9.974-33.408-.038-68.9,1A187.251,187.251,0,0,0,2097,1218.152c9.4-13.448,46.638-63.316,115.943-79.675C2261.535,1127.009,2301.75,1137.7,2319.59,1143.661Z" transform="translate(-1829.203 -988.653)" fill="#7e7e7e"/>
              <path id="Path_18117" data-name="Path 18117" d="M1426.272,1161.842c-7.994-1.813-36.37-7.241-65.462,8.4A92.438,92.438,0,0,0,1327.1,1201.6c-10.357,20.918-38.72,8.761-56.816,8.556-24.775-2.452-49.652,8.326-66.6,26.167a175.467,175.467,0,0,0-81.105,46.344H1072.9c2.311-16.768,14.6-28.516,27.393-28.823,10.766-.268,18.4,7.637,20.063,9.45.6-2.324,4.955-18.236,21.2-26.256,17.393-8.582,33.778-.894,35.693.038,2.222-6.768,9.271-25.145,27.968-36.983a69.278,69.278,0,0,1,30.355-10.114c11.889-1.2,15.746,1.469,32.08,2.605,11.519.8,23.651,1.66,36.089-1.3,20.956-4.993,20.2-15.452,47.43-27.048,15.976-6.807,28.07-8.237,37.865-9.323,14.341-1.583,24.1-.447,32.846,4.227a40.56,40.56,0,0,1,4.393,2.707Z" transform="translate(-935.885 -1006.833)" fill="#9d9d9d"/>
              <path id="Path_18118" data-name="Path 18118" d="M2641.912,665.926c19.667-15.772,42.245-14.15,47.43-13.652q6.7-5.881,13.4-11.775.019,36.894.051,73.8c-26.358-8.007-45.258-5.606-57.671-1.9-25.107,7.484-33.37,23.153-60.417,30.917-19.283,5.53-36.779,3.793-48.4,1.52a34.9,34.9,0,0,1,14.916-11.851c10.868-4.265,15.286,1.367,24.966-3,11.034-4.968,18.121-18.057,19.973-21.467,2.286-4.227,2.529-5.964,4.994-8.492,5.683-5.823,14.3-6.717,20.969-6.487a64.053,64.053,0,0,1,19.807-27.623Z" transform="translate(-2212.402 -558.705)" fill="#7a7a7a"/>
              <path id="Path_18119" data-name="Path 18119" d="M2687.8,648.733a13.814,13.814,0,0,1,14.992-9.105v9.284a9.911,9.911,0,0,0-4.457,2.95,10.158,10.158,0,0,0-2.2,4.355c-29.589-1.711-42.539,6.168-48.9,13.664-7.663,9.016-7.267,19.258-18.978,26.958-9.092,5.99-12.77,2.056-22.795,8.16-14.252,8.658-10.229,18.645-22.259,24.66-12.349,6.168-22.731-1.3-33.433,7.458a25.307,25.307,0,0,0-6.4,8.02,27.837,27.837,0,0,1-3.933-.409,24.109,24.109,0,0,1-3.142-.766,24.388,24.388,0,0,1,2.529-8.773c10.459-20.331,44.9-12.528,56.024-32.348,1.558-2.771,3.014-6.743,7.471-10.165,5.76-4.444,12.694-5.044,17.3-4.942,1.609-4.406,8.76-22.463,28.631-33a61.5,61.5,0,0,1,39.563-6Z" transform="translate(-2212.401 -557.833)" fill="#a5a5a5"/>
              <path id="Path_18120" data-name="Path 18120" d="M3340.2,901.672c.37-3.346,2.886-22.872,20.509-36.192,19-14.354,40.291-9.935,43.317-9.259v45.233a110.346,110.346,0,0,0-63.827.2Z" transform="translate(-2913.64 -745.859)" fill="#a6a6a6"/>
              <path id="Path_18121" data-name="Path 18121" d="M3484.713,1030.292a35.452,35.452,0,0,1,45.36-21.186v24.915a110.371,110.371,0,0,0-45.373-3.742Z" transform="translate(-3039.687 -878.438)" fill="#a5a5a5"/>
              <path id="Path_18122" data-name="Path 18122" d="M2124.981,1475.336H1873.9c32.744-32.705,56.356-37.788,72.664-35.093,20.854,3.448,35.31,20.522,50.226,13.422,11.979-5.708,9.156-19.833,22.719-25.464,13.652-5.67,24.251,5.415,34.455-1.494,7.317-4.955,6.181-13.6,9.731-21.965,4.7-11.072,18.632-24.073,61.3-29.64" transform="translate(-1634.594 -1199.493)" fill="#4c4c4c"/>
              <path id="Path_18123" data-name="Path 18123" d="M2567,1874.453a219.625,219.625,0,0,0,43.854-13.677c16.219-7.049,23.8-12.809,36.933-11.787,12.477.97,14.469,6.858,24.289,5.351,12.285-1.89,14.3-11.915,28.146-18.032,5.938-2.618,15.35-5.1,29.346-2.669v40.815Z" transform="translate(-2239.182 -1598.61)" fill="#393939"/>
              <path id="Path_18124" data-name="Path 18124" d="M3114.4,1980.307a74.738,74.738,0,0,1,27.38-9.067c13.485-1.635,19.7,1.583,30.7.37,8.467-.932,20.586-4.585,34.583-17.61v26.294H3114.4Z" transform="translate(-2716.676 -1704.465)" fill="#242424"/>
              <path id="Path_18125" data-name="Path 18125" d="M1035.879,1035.987c-5.172,15.2-12.081,20.369-17.3,22.361-9.655,3.678-17.266-2.2-27.086,2.12-7.931,3.486-12.106,11.328-14.341,16.959-4.981-1.239-27.354-6.232-50.571,6.564a70.837,70.837,0,0,0-31.952,37.545c-2.5-1.009-17.866-6.858-34.519,1.047-16.155,7.662-21.48,22.54-22.374,25.171-1.788-.855-15.4-7.075-29.909-.153a35.256,35.256,0,0,0-17.547,19.539H748.9a135.549,135.549,0,0,1,22.2-22.834c15.861-12.847,31.377-19.335,82.613-35.783,13.409-4.3,30.177-9.591,49.6-15.465.434-.587,1.124-1.456,1.941-2.516,10.74-13.894,22.872-21.046,31.2-26.077,21.237-12.822,43.777-19.449,53.278-21.991.153-.881,2.81-14.456,14.584-19.156C1015.088,1019,1028.906,1023.97,1035.879,1035.987Z" transform="translate(-653.262 -891.298)" fill="#cecece"/>
              <path id="Path_18126" data-name="Path 18126" d="M2125.1,1271.276a20.39,20.39,0,0,1,13.064,4.533,24.334,24.334,0,0,1,4.572-10.944c.562-.74,8.518-10.906,19.4-9.233a17.712,17.712,0,0,1,8.007,3.5c-1.073-.294-13.371-3.5-22.9,4.725a24.331,24.331,0,0,0-7.892,14.405c-2.554-1.111-12.068-4.853-22.246-.83a26.729,26.729,0,0,0-8.109,5.1,11.906,11.906,0,0,1,.983-2.976c2.8-5.721,9.923-8.109,15.108-8.262Z" transform="translate(-1839.67 -1095.12)" fill="#e5e5e5"/>
              <path id="Path_18127" data-name="Path 18127" d="M2281.172,1146.37a78.007,78.007,0,0,1,39.614,3.793c-.115,2.976-.243,5.951-.357,8.939a5.479,5.479,0,0,0-5.658,4,20.663,20.663,0,0,0-11.634-2.912c-8.02.46-12.975,5.657-14.431,7.241a23.77,23.77,0,0,0-5.913,12.349,21.273,21.273,0,0,0-4.125-2.452,20.535,20.535,0,0,0-3.87-1.3,44.8,44.8,0,0,0,3.461-6.985,48.1,48.1,0,0,0,2.9-22.655Z" transform="translate(-1984.297 -999.075)" fill="#545454"/>
              <path id="Path_18128" data-name="Path 18128" d="M1714.522,1178.29a93.718,93.718,0,0,0,19.884-4.636c14.9-5.249,20.1-11.378,34.2-16.1a83.021,83.021,0,0,1,22.425-4.15,46.265,46.265,0,0,1-6.372,29.64,19.843,19.843,0,0,0-11.851,1.507,20.053,20.053,0,0,0-9.31,8.965,24.341,24.341,0,0,0-17.355,11.838c-2.809-2.976-5.989-8.493-7.573-11a19.286,19.286,0,0,0-6.641-6.768c-6.513-4.1-15.006-1.737-19.028-.281a17.907,17.907,0,0,0,1.443-4.61A17.321,17.321,0,0,0,1714.522,1178.29Z" transform="translate(-1494.154 -1006.105)" fill="url(#linear-gradient-4)"/>
              <path id="Path_18129" data-name="Path 18129" d="M1953.313,1460.379a14.655,14.655,0,0,1,20.42-9.667c-.179.332-.37.664-.549,1a36.976,36.976,0,0,0-17.355,11.838,6.226,6.226,0,0,1-2.528-3.154Z" transform="translate(-1703.854 -1264.288)" fill="#e5e5e5"/>
              <path id="Path_18130" data-name="Path 18130" d="M365.525,1579.9a43.047,43.047,0,0,0-11.264,19.309c-2.184-1.111-17.687-8.62-35-1.264-15.874,6.73-21.569,20.982-22.527,23.5a87.583,87.583,0,0,0-85.588,32.539H132.4c78-42.092,114.258-53.815,132.685-55.781,3.486-.37,12.681-1.085,25.656-3.563,19.986-3.831,27.329-7.739,45.91-11.251a222.078,222.078,0,0,1,28.887-3.486Z" transform="translate(-115.492 -1378.139)" fill="#cecece"/>
              <path id="Path_18131" data-name="Path 18131" d="M290.829,1695.2a286.1,286.1,0,0,0-126.453,59.357H132.5A273.467,273.467,0,0,1,290.829,1695.2Z" transform="translate(-115.579 -1478.714)" fill="#b5b5b5"/>
            </g>
          </g>
        </g>
      </g>
      <g id="Group_6884" data-name="Group 6884" transform="translate(-1)">
        <text id="Section_Title_Here-2" data-name="Section Title Here" transform="translate(764 5385)" fill="#575a5d" font-size="20" font-family="Helvetica"><tspan x="0" y="0">Section Title Here</tspan></text>
        <text id="Lorem_ipsum_dolor_sit_amet_consectetur_adipiscing-2" data-name="Lorem ipsum dolor sit amet, consectetur adipiscing" transform="translate(764 5412)" fill="#575a5d" font-size="14" font-family="Helvetica"><tspan x="0" y="0">Lorem ipsum dolor sit amet, consectetur adipiscing</tspan></text>
        <text id="Shop_Now-2" data-name="Shop Now" transform="translate(764 5448)" fill="#111" font-size="13" font-family="Helvetica" text-decoration="underline"><tspan x="0" y="0">Shop Now</tspan></text>
        <g id="Mask_Group_51" data-name="Mask Group 51" transform="translate(-424)" clip-path="url(#clip-path)">
          <g id="Group_6931" data-name="Group 6931" transform="translate(17512 21291)">
            <rect id="Rectangle_3699" data-name="Rectangle 3699" width="491" height="276" transform="translate(-16372 -16225)" fill="#fff"/>
            <g id="Background-2-2" data-name="Background-2" transform="translate(-16372 -16225)" opacity="0.35">
              <rect id="Rectangle_3700" data-name="Rectangle 3700" width="491" height="276" fill="#b5b5b5"/>
              <path id="Path_18044" data-name="Path 18044" d="M2818.6,961.405c0-4.125,9.77-7.088,12.541-7.93,4.61-1.4,15.835-3.844,17.878-.013,1.967,3.665-4.393,13.23-12.987,15.171C2827.974,970.459,2818.613,965.441,2818.6,961.405Z" transform="translate(-2458.651 -829.907)" fill="#929292"/>
              <path id="Path_18045" data-name="Path 18045" d="M2911.659,1022.115c.587-.7,2.018-.345,1.634.7-.958,2.324-4.022,8.2-6.959,6.347-1.328-1.047-3.154-2.094-4.457-2.963-1.137-1.3,1.315-2.2,2-2.158C2907.891,1023.468,2910.522,1022.957,2911.659,1022.115Z" transform="translate(-2531.034 -891.268)" fill="#545454"/>
              <path id="Path_18046" data-name="Path 18046" d="M2246.2,858.624a1.464,1.464,0,0,1,.587.485,1.3,1.3,0,0,1-.255,1.737c-5.428,4.508-19.577,18.134-22.374,19.373-6.794,3.027-28.044-1.558-39.946-3.052-9.156-1.149-20.6-24.085-22.3-33.8-.306-1.788,2.095-2.733,4.138-3.933,12.4-7.279,28.121-3.371,39.908-.447,25.9,6.424,38.005,18.7,40.214,19.628Z" transform="translate(-1885.807 -728.608)" fill="#a1a1a1"/>
              <path id="Path_18047" data-name="Path 18047" d="M2287.6,1041.377c.409-.549,3.256.74,3.844.932,2.222.881,5.185,2.043,7.586,2.988a60.266,60.266,0,0,0,16.793,4.393,48.611,48.611,0,0,0,20.777-3.078,20.187,20.187,0,0,1,2.414-.766c1.443-.281.192,1.086-.2,1.545a21.842,21.842,0,0,0-4.457,6.794c-.472,1.085-.753,2.235-1.136,3.371-.243.7-.5,1.545-1.213,1.775a5.5,5.5,0,0,1-2.018-.077c-9.463-1.009-18.747-3.346-28.274-3.755a60.25,60.25,0,0,0-8.722.064c-.459.038-1.035.026-1.264-.255a3.171,3.171,0,0,1-.46-1.507c-.217-1.086-.523-2.133-.779-3.205a59.894,59.894,0,0,0-2.58-8.071c-.166-.345-.421-.843-.306-1.137h0Z" transform="translate(-1995.44 -908.271)" fill="#929292"/>
              <path id="Path_18048" data-name="Path 18048" d="M1398.034,755.081a64.364,64.364,0,0,1,42.308-15.146c3.04.064,20.561.626,35.949,12.132a55.8,55.8,0,0,1,14.2,15.146,54.122,54.122,0,0,1,5.07,10.319,56.617,56.617,0,0,1,3.371,11.685c.217,1.239.383,2.439.511,3.6a190.3,190.3,0,0,1-75.934,24.813,21.665,21.665,0,0,0-5.7-8.773c-9.335-8.505-21.761-3.052-31.582-11.353a23.307,23.307,0,0,1-6.934-10.638C1381.216,774.378,1388.559,763.178,1398.034,755.081Z" transform="translate(-1203.156 -645.434)" fill="#e5e5e5"/>
              <path id="Path_18049" data-name="Path 18049" d="M1380.026,1042.563c16.116-14.622,30.956-7.624,47.059,2.375,13.779,7.088,30.483,2.58,41.721-7.19a37.113,37.113,0,0,1,4.086-2.3,42.687,42.687,0,0,1,4.342-1.763c3.269-1.073,10.382-1.443,19.3.166a55.6,55.6,0,0,1,4.1,14.316,90.38,90.38,0,0,0-12.783,2.069c-17.993,4.265-25.094,11.813-42.551,17.853a107.529,107.529,0,0,1-21.186,4.968,21.615,21.615,0,0,0-5.7-8.773c-9.323-8.492-21.786-3.039-31.594-11.353a23.335,23.335,0,0,1-6.82-10.37Z" transform="translate(-1203.767 -900.874)" fill="url(#linear-gradient)"/>
              <path id="Path_18050" data-name="Path 18050" d="M2418.361,193.864a122.875,122.875,0,0,1-66,4.329,120.785,120.785,0,0,1-41.836-17.789c-3.435-5.108-3.282-8.058-2.567-9.782,4.674-11.315,43.458-1.52,52.474-14.75a4.133,4.133,0,0,0,.868-3.027c-3.422-6.934-15.388-3.129-21.25-1.75,24.66-17.521,55.973-15.669,84.528-19.973,27.725-8.441,78-43.113,78.181-10.612.1,17.968.4,36.2.537,54.121-6.283-.843-12.387,3.333-14.443,9.284-15.733,3.857-37.839,11.889-58.233,29.7a130.448,130.448,0,0,0-12.4,12.4,18.477,18.477,0,0,0-6.513-.332,17.3,17.3,0,0,0-6.347,2c-2.95,1.647-4.725,3.946-8.262,8.518-.651.843-1.175,1.558-1.52,2.043l-5.057-7.011a20.223,20.223,0,0,1,26.588-14.456,21.68,21.68,0,0,1,1.238-22.91Z" transform="translate(-2012.859 -93.22)" fill="#cecece"/>
              <path id="Path_18051" data-name="Path 18051" d="M3272.029,268.228c-14.418-2.771-31.185-.4-41.312,11.213a23.872,23.872,0,0,1-8.556,5.019c-9.757,3.18-19.284-2-29.245,3.55-3.972,1.877-5.389,5.619-2.542,9.233,5.9,7.982,22.6,8.135,20.752,21.454a7.04,7.04,0,0,1-2.694,4.776,25.278,25.278,0,0,1,5.708,1.6c-2.58-31.543,27.418-55.424,57.876-48.132v-8.722Z" transform="translate(-2781.642 -233.058)" fill="#b5b5b5"/>
              <path id="Path_18052" data-name="Path 18052" d="M3068.194,333.06a46.1,46.1,0,0,0-15.963-1.354,46.993,46.993,0,0,0-25.579,10.766c-2.733,2.286-12.617,10.791-15.682,25.426a43.668,43.668,0,0,0-.664,13.307,26.153,26.153,0,0,0-5.708-1.6c-9.833-1.06-16.282,3.295-21.761,10.983a21.4,21.4,0,0,0-3.384,8.02,22.215,22.215,0,0,0,1.9,13.843,21.66,21.66,0,0,0-17.368,2.465,21.3,21.3,0,0,0-8.787,12.3c.869,1.034,1.762,2.171,2.644,3.4q1.514,2.088,2.682,4.023a21.607,21.607,0,0,1,4.188-6.577c1.213-1.3,6.411-6.858,13.754-6.475a14.645,14.645,0,0,1,5.516,1.43c2.261-3.652,5.083-8.16,8.377-13.32,6.053-9.437,7.586-11.647,10.012-14.111a44.188,44.188,0,0,1,13.039-9.067c-.281-3.474-1.686-24.519,12.6-37.418a43.677,43.677,0,0,1,14.546-8.314,50.7,50.7,0,0,1,25.618-2.12v-5.619Z" transform="translate(-2577.806 -289.18)" fill="#e5e5e5"/>
              <path id="Path_18053" data-name="Path 18053" d="M3171.875,789.481a17.842,17.842,0,0,1-2.209-5.926,20.224,20.224,0,0,1,.817-9.5c1.239-4.2,3.128-10.638,8.991-14.661,9.028-6.194,20.266-1.711,21.263-1.29a40.448,40.448,0,0,0-8.1,5.108,45.864,45.864,0,0,0-8.339,9.144c-4.15,5.913-4.252,8.735-8.837,13.728a37.361,37.361,0,0,1-3.576,3.41Z" transform="translate(-2764.675 -659.579)" fill="#cecece"/>
              <path id="Path_18054" data-name="Path 18054" d="M3476.04,377.939c-3.883-.83-24.379-4.24-40.087,10.842-15.427,14.814-13.141,34.927-12.86,37.047a57.429,57.429,0,0,1,38.005-6.053,13.771,13.771,0,0,1,14.941-9.093V377.939Z" transform="translate(-2985.704 -328.875)" fill="#cecece"/>
              <path id="Path_18055" data-name="Path 18055" d="M0,0H470.171a55.208,55.208,0,0,1-13.141,6.526,54.785,54.785,0,0,1-16.078,2.912c-11.557.536-23.357-1-34.519,2.924-7.65,2.758-14.162,7.522-20.037,13.064-3.435,3.231-6.7,6.96-11.046,8.978-7.471,3.474-16.563,2.171-24.609,2.912a85.676,85.676,0,0,0-23.076,5.261c-23.281,8.429-41.491,27.674-65.806,33.523-40.265,6-43.458-25.873-105.459-2,11,5.836-3.742,10.791-9.348,11.583-10.778,2.388-22.3,2.171-33.2.6-2.976-.306-13.843-1.839-16.959-2.337C80.518,83.1,65.245,88.563,51.095,96.4A58.123,58.123,0,0,0,31.467,69.1,58.222,58.222,0,0,0,0,57.327Z" transform="translate(0)" fill="url(#linear-gradient-2)"/>
              <path id="Path_18056" data-name="Path 18056" d="M0,142.96c21.582-12.094,47.966-14.316,71.834-8.543,10.536,3.269,45.872,11.4,49.051,22.361-.856,2.477-4.444,2.286-6.6,2.465-26.1-.383-52.666-17.649-78.449-5.683-5.874,2.516-11.889,9.961-2.426,12.5,3.461.792,7.484,0,10.97-.294,13.652-1.469,27.329,3.41,37.532,12.464,6.7,6.143,13.179,13.728,22.821,14.763,17.777,3.844,34.353-11.966,51.593-4.316,10.983,5.823-3.729,10.8-9.361,11.583-10.778,2.4-22.323,2.171-33.229.6-2.835-.179-13.958-1.928-16.972-2.337-16.385-.843-31.671,4.623-45.833,12.464C43.152,189.6,23.255,172.575,0,171.923Z" transform="translate(0 -114.597)" fill="#cecece"/>
              <path id="Path_18057" data-name="Path 18057" d="M310.5,578.188c18.607-9.029,39.32.1,57.1,6.794-16.385-.856-31.671,4.623-45.833,12.464A64.9,64.9,0,0,0,310.5,578.188Z" transform="translate(-270.848 -501.054)" fill="#b5b5b5"/>
              <path id="Path_18058" data-name="Path 18058" d="M826.4,0h311.383c-18.134,5.147-32.552,10.382-42.653,14.354-18.7,7.356-27.623,12.336-39.984,9.872-10.842-2.171-13.83-8.084-21.339-11.008-29.551-11.506-47.123,22.642-69.893,33.714-13.677,4.968-28.159-1.686-42.168,1.085-23.115,3.831-46.153,21.3-69.829,10.153,13.281-2.222,20.816-5.7,31.045-14.495,12.732-10.7,27.367-18.632,44.314-19.335,3.984-.358,18.121.051,20.714-2.49.754-.8.217-2-.562-2.592-15.21,4.074-46.293,10.012-82.1-.792A144.689,144.689,0,0,1,826.4,0Z" transform="translate(-720.865)" fill="#7e7e7e"/>
              <path id="Path_18059" data-name="Path 18059" d="M0,837.717a135.408,135.408,0,0,1,20.8-3.32c82.944-6.641,175.773,63.482,168.89,106.289C183.908,976.673,105.612,1005.866,0,1003.3Z" transform="translate(0 -727.457)" fill="#7a7a7a"/>
              <path id="Path_18060" data-name="Path 18060" d="M234.1,1142.635c23.089-11.9,35.617-10.242,42.858-6.117,11.481,6.538,9.195,19.015,25.464,33.446,3.576,3.167,13.562,11.838,28.453,15.478,18.07,4.419,28.938-2.107,39.448,5.862,5.453,4.15,7.931,10.012,9.131,13.869a176.465,176.465,0,0,1-45.629-3.589c-51.835-11.034-85.23-42.985-99.725-58.961Z" transform="translate(-204.204 -988.699)" fill="#5a5a5a"/>
              <path id="Path_18061" data-name="Path 18061" d="M0,448.9c23.255.651,43.152,17.674,50.916,39.065,28.121-.741,52.231,23.932,57.582,50.405a26.826,26.826,0,0,1,42.973,24.481,36.493,36.493,0,0,1,50.75,39.665q-8.314,1.877-16.64,3.754c-14.443-18.262-28.223-25-38.311-27.737-8.748-2.363-16.512-1.877-25.03-8.326-8.965-6.794-11.672-14.443-15.861-21.863-19.041-33.689-65.372-42.82-74.12-44.544A122.69,122.69,0,0,0,0,501.846V448.9Z" transform="translate(0 -391.573)" fill="#a5a5a5"/>
              <path id="Path_18062" data-name="Path 18062" d="M731.313,862.12c30.33-12.311,60.034-9.463,74.337,7.139a38.891,38.891,0,0,1,8.416,17.559,36.3,36.3,0,0,0,9.3,11.532,20.469,20.469,0,0,0,3.039,2.069c4.01,2.2,7.3,2.082,11.136,2.5,4.751.524,8.939,1,12.8,3.371,1.009.613,6.96,4.291,7.943,11.289a15.349,15.349,0,0,1-1.622,9.016,24.576,24.576,0,0,1,18.39-.536c12.119,4.751,14.712,17.764,14.852,18.581a12.911,12.911,0,0,1-.868,1.328,13.28,13.28,0,0,1-1.073,1.2c-10.944,1.89-36.677,6.934-47.813,9.169,2.324-26.856-24.762-50.827-50.75-39.652,3.614-22.783-25.2-35.745-42.985-24.481a71.658,71.658,0,0,0-6.679-17.7,70.8,70.8,0,0,0-8.428-12.375Z" transform="translate(-637.909 -745.398)" fill="#7e7e7e"/>
              <path id="Path_18063" data-name="Path 18063" d="M835.3,1094.318c34.327-2.708,48.387,3.422,54.722,9.974a41.6,41.6,0,0,0,11.174,9.093c6.155,3.333,12.617,4.355,21.62,6.028,7.777,1.928,14.967,7.241,17.764,14.929,2.707,6.347-2.005,15.3,5.645,19.156,4.738,2.12,11.774-.409,14.38,5.568l-29.73,5.862c.115-1.188,1.775-21.467-14.75-34.084-16.1-12.311-34.685-6.028-35.987-5.568-.064-1.277-1.149-17.508-14.124-24.9a29.444,29.444,0,0,0-16.512-3.448,29.826,29.826,0,0,0-12.336,3.882q-.92-3.237-1.826-6.475Z" transform="translate(-728.628 -953.996)" fill="#545454"/>
              <path id="Path_18064" data-name="Path 18064" d="M398.7,682.109c17.138-9.029,31.134-10.74,40.763-10.638,21.633.243,32.488,9.821,62.409,17.47a218.1,218.1,0,0,0,40.8,6.411,58.668,58.668,0,0,0-18.619,32.041,25.078,25.078,0,0,0-11.57-13.2,24.34,24.34,0,0,0-12.362-2.682,81.583,81.583,0,0,0-58.949-9.08,61.765,61.765,0,0,0-7.943-7.765,58.427,58.427,0,0,0-11.11-7.19,54.792,54.792,0,0,0-13.869-4.482,56.163,56.163,0,0,0-9.552-.907Z" transform="translate(-347.784 -585.717)" fill="#a1a1a1"/>
              <path id="Path_18065" data-name="Path 18065" d="M667.4,825.858a60.94,60.94,0,0,1,67.1,17.01c-6.373,4.393-11.481,5.108-15.005,4.917-11.315-.626-15.759-11.085-29.615-14.035a35.116,35.116,0,0,0-14.316.051c-1.124-1.29-2.388-2.643-3.793-4.023C670.273,828.31,668.792,827.008,667.4,825.858Z" transform="translate(-582.17 -717.079)" fill="#b5b5b5"/>
              <path id="Path_18066" data-name="Path 18066" d="M0,1167c75.755,2.222,76.036,69.791,175.25,67.467C122.009,1245.9,0,1293.939,0,1293.939Z" transform="translate(0 -1017.968)" fill="#848484"/>
              <path id="Path_18067" data-name="Path 18067" d="M0,1373.794c24.315-2.146,40.968,3,51.9,8.39,20.331,10.025,27.661,24.213,52.921,34.2a109.444,109.444,0,0,0,30.1,7.126q-19.4,5.842-38.822,11.685a155.09,155.09,0,0,0-61.592-37.366A150.776,150.776,0,0,0,0,1391.225Z" transform="translate(0 -1197.918)" fill="#757575"/>
              <path id="Path_18068" data-name="Path 18068" d="M0,1513.8a141.059,141.059,0,0,1,47.366,10.446A141.431,141.431,0,0,1,96.1,1557.769q-14.616,5.574-29.219,11.136A94.634,94.634,0,0,0,50.9,1553.2a101.889,101.889,0,0,0-24.085-13.6A130.754,130.754,0,0,0,0,1531.449v-17.636Z" transform="translate(0 -1320.48)" fill="#5a5a5a"/>
              <path id="Path_18069" data-name="Path 18069" d="M0,1651.9a119.069,119.069,0,0,1,36.255,12.349,118.9,118.9,0,0,1,31.735,24.6c-8.939,4.061-18.377,8.76-28.184,14.214-8.2,4.559-15.823,9.182-22.859,13.741H0v-64.9Z" transform="translate(0 -1440.944)" fill="#393939"/>
              <path id="Path_18070" data-name="Path 18070" d="M0,1811.3a83.6,83.6,0,0,1,24,10.421,83.969,83.969,0,0,1,20.228,18.109c-5.479,2.733-11.212,5.875-17.138,9.476-3.576,2.171-6.973,4.368-10.178,6.539H0V1811.3Z" transform="translate(0 -1579.988)" fill="#242424"/>
              <path id="Path_18071" data-name="Path 18071" d="M1765.6,1191.765V1305.3H1461.9c13.281-21.4,47.672-70.263,112.483-100.644C1662.6,1163.287,1744.7,1185.444,1765.6,1191.765Z" transform="translate(-1275.208 -1029.452)" fill="url(#linear-gradient-3)"/>
              <path id="Path_18072" data-name="Path 18072" d="M2319.59,1143.661v7.292c-16.474-.8-38.541,1.009-57.3,14.482-20.79,14.929-18.479,30.534-37.941,40.444-19.6,9.974-33.408-.038-68.9,1A187.251,187.251,0,0,0,2097,1218.152c9.4-13.448,46.638-63.316,115.943-79.675C2261.535,1127.009,2301.75,1137.7,2319.59,1143.661Z" transform="translate(-1829.203 -988.653)" fill="#7e7e7e"/>
              <path id="Path_18073" data-name="Path 18073" d="M1426.272,1161.842c-7.994-1.813-36.37-7.241-65.462,8.4A92.438,92.438,0,0,0,1327.1,1201.6c-10.357,20.918-38.72,8.761-56.816,8.556-24.775-2.452-49.652,8.326-66.6,26.167a175.467,175.467,0,0,0-81.105,46.344H1072.9c2.311-16.768,14.6-28.516,27.393-28.823,10.766-.268,18.4,7.637,20.063,9.45.6-2.324,4.955-18.236,21.2-26.256,17.393-8.582,33.778-.894,35.693.038,2.222-6.768,9.271-25.145,27.968-36.983a69.278,69.278,0,0,1,30.355-10.114c11.889-1.2,15.746,1.469,32.08,2.605,11.519.8,23.651,1.66,36.089-1.3,20.956-4.993,20.2-15.452,47.43-27.048,15.976-6.807,28.07-8.237,37.865-9.323,14.341-1.583,24.1-.447,32.846,4.227a40.56,40.56,0,0,1,4.393,2.707Z" transform="translate(-935.885 -1006.833)" fill="#9d9d9d"/>
              <path id="Path_18074" data-name="Path 18074" d="M2641.912,665.926c19.667-15.772,42.245-14.15,47.43-13.652q6.7-5.881,13.4-11.775.019,36.894.051,73.8c-26.358-8.007-45.258-5.606-57.671-1.9-25.107,7.484-33.37,23.153-60.417,30.917-19.283,5.53-36.779,3.793-48.4,1.52a34.9,34.9,0,0,1,14.916-11.851c10.868-4.265,15.286,1.367,24.966-3,11.034-4.968,18.121-18.057,19.973-21.467,2.286-4.227,2.529-5.964,4.994-8.492,5.683-5.823,14.3-6.717,20.969-6.487a64.053,64.053,0,0,1,19.807-27.623Z" transform="translate(-2212.402 -558.705)" fill="#7a7a7a"/>
              <path id="Path_18075" data-name="Path 18075" d="M2687.8,648.733a13.814,13.814,0,0,1,14.992-9.105v9.284a9.911,9.911,0,0,0-4.457,2.95,10.158,10.158,0,0,0-2.2,4.355c-29.589-1.711-42.539,6.168-48.9,13.664-7.663,9.016-7.267,19.258-18.978,26.958-9.092,5.99-12.77,2.056-22.795,8.16-14.252,8.658-10.229,18.645-22.259,24.66-12.349,6.168-22.731-1.3-33.433,7.458a25.307,25.307,0,0,0-6.4,8.02,27.837,27.837,0,0,1-3.933-.409,24.109,24.109,0,0,1-3.142-.766,24.388,24.388,0,0,1,2.529-8.773c10.459-20.331,44.9-12.528,56.024-32.348,1.558-2.771,3.014-6.743,7.471-10.165,5.76-4.444,12.694-5.044,17.3-4.942,1.609-4.406,8.76-22.463,28.631-33a61.5,61.5,0,0,1,39.563-6Z" transform="translate(-2212.401 -557.833)" fill="#a5a5a5"/>
              <path id="Path_18076" data-name="Path 18076" d="M3340.2,901.672c.37-3.346,2.886-22.872,20.509-36.192,19-14.354,40.291-9.935,43.317-9.259v45.233a110.346,110.346,0,0,0-63.827.2Z" transform="translate(-2913.64 -745.859)" fill="#a6a6a6"/>
              <path id="Path_18077" data-name="Path 18077" d="M3484.713,1030.292a35.452,35.452,0,0,1,45.36-21.186v24.915a110.371,110.371,0,0,0-45.373-3.742Z" transform="translate(-3039.687 -878.438)" fill="#a5a5a5"/>
              <path id="Path_18078" data-name="Path 18078" d="M2124.981,1475.336H1873.9c32.744-32.705,56.356-37.788,72.664-35.093,20.854,3.448,35.31,20.522,50.226,13.422,11.979-5.708,9.156-19.833,22.719-25.464,13.652-5.67,24.251,5.415,34.455-1.494,7.317-4.955,6.181-13.6,9.731-21.965,4.7-11.072,18.632-24.073,61.3-29.64" transform="translate(-1634.594 -1199.493)" fill="#4c4c4c"/>
              <path id="Path_18079" data-name="Path 18079" d="M2567,1874.453a219.625,219.625,0,0,0,43.854-13.677c16.219-7.049,23.8-12.809,36.933-11.787,12.477.97,14.469,6.858,24.289,5.351,12.285-1.89,14.3-11.915,28.146-18.032,5.938-2.618,15.35-5.1,29.346-2.669v40.815Z" transform="translate(-2239.182 -1598.61)" fill="#393939"/>
              <path id="Path_18080" data-name="Path 18080" d="M3114.4,1980.307a74.738,74.738,0,0,1,27.38-9.067c13.485-1.635,19.7,1.583,30.7.37,8.467-.932,20.586-4.585,34.583-17.61v26.294H3114.4Z" transform="translate(-2716.676 -1704.465)" fill="#242424"/>
              <path id="Path_18081" data-name="Path 18081" d="M1035.879,1035.987c-5.172,15.2-12.081,20.369-17.3,22.361-9.655,3.678-17.266-2.2-27.086,2.12-7.931,3.486-12.106,11.328-14.341,16.959-4.981-1.239-27.354-6.232-50.571,6.564a70.837,70.837,0,0,0-31.952,37.545c-2.5-1.009-17.866-6.858-34.519,1.047-16.155,7.662-21.48,22.54-22.374,25.171-1.788-.855-15.4-7.075-29.909-.153a35.256,35.256,0,0,0-17.547,19.539H748.9a135.549,135.549,0,0,1,22.2-22.834c15.861-12.847,31.377-19.335,82.613-35.783,13.409-4.3,30.177-9.591,49.6-15.465.434-.587,1.124-1.456,1.941-2.516,10.74-13.894,22.872-21.046,31.2-26.077,21.237-12.822,43.777-19.449,53.278-21.991.153-.881,2.81-14.456,14.584-19.156C1015.088,1019,1028.906,1023.97,1035.879,1035.987Z" transform="translate(-653.262 -891.298)" fill="#cecece"/>
              <path id="Path_18082" data-name="Path 18082" d="M2125.1,1271.276a20.39,20.39,0,0,1,13.064,4.533,24.334,24.334,0,0,1,4.572-10.944c.562-.74,8.518-10.906,19.4-9.233a17.712,17.712,0,0,1,8.007,3.5c-1.073-.294-13.371-3.5-22.9,4.725a24.331,24.331,0,0,0-7.892,14.405c-2.554-1.111-12.068-4.853-22.246-.83a26.729,26.729,0,0,0-8.109,5.1,11.906,11.906,0,0,1,.983-2.976c2.8-5.721,9.923-8.109,15.108-8.262Z" transform="translate(-1839.67 -1095.12)" fill="#e5e5e5"/>
              <path id="Path_18083" data-name="Path 18083" d="M2281.172,1146.37a78.007,78.007,0,0,1,39.614,3.793c-.115,2.976-.243,5.951-.357,8.939a5.479,5.479,0,0,0-5.658,4,20.663,20.663,0,0,0-11.634-2.912c-8.02.46-12.975,5.657-14.431,7.241a23.77,23.77,0,0,0-5.913,12.349,21.273,21.273,0,0,0-4.125-2.452,20.535,20.535,0,0,0-3.87-1.3,44.8,44.8,0,0,0,3.461-6.985,48.1,48.1,0,0,0,2.9-22.655Z" transform="translate(-1984.297 -999.075)" fill="#545454"/>
              <path id="Path_18084" data-name="Path 18084" d="M1714.522,1178.29a93.718,93.718,0,0,0,19.884-4.636c14.9-5.249,20.1-11.378,34.2-16.1a83.021,83.021,0,0,1,22.425-4.15,46.265,46.265,0,0,1-6.372,29.64,19.843,19.843,0,0,0-11.851,1.507,20.053,20.053,0,0,0-9.31,8.965,24.341,24.341,0,0,0-17.355,11.838c-2.809-2.976-5.989-8.493-7.573-11a19.286,19.286,0,0,0-6.641-6.768c-6.513-4.1-15.006-1.737-19.028-.281a17.907,17.907,0,0,0,1.443-4.61A17.321,17.321,0,0,0,1714.522,1178.29Z" transform="translate(-1494.154 -1006.105)" fill="url(#linear-gradient-4)"/>
              <path id="Path_18085" data-name="Path 18085" d="M1953.313,1460.379a14.655,14.655,0,0,1,20.42-9.667c-.179.332-.37.664-.549,1a36.976,36.976,0,0,0-17.355,11.838,6.226,6.226,0,0,1-2.528-3.154Z" transform="translate(-1703.854 -1264.288)" fill="#e5e5e5"/>
              <path id="Path_18086" data-name="Path 18086" d="M365.525,1579.9a43.047,43.047,0,0,0-11.264,19.309c-2.184-1.111-17.687-8.62-35-1.264-15.874,6.73-21.569,20.982-22.527,23.5a87.583,87.583,0,0,0-85.588,32.539H132.4c78-42.092,114.258-53.815,132.685-55.781,3.486-.37,12.681-1.085,25.656-3.563,19.986-3.831,27.329-7.739,45.91-11.251a222.078,222.078,0,0,1,28.887-3.486Z" transform="translate(-115.492 -1378.139)" fill="#cecece"/>
              <path id="Path_18087" data-name="Path 18087" d="M290.829,1695.2a286.1,286.1,0,0,0-126.453,59.357H132.5A273.467,273.467,0,0,1,290.829,1695.2Z" transform="translate(-115.579 -1478.714)" fill="#b5b5b5"/>
            </g>
          </g>
        </g>
      </g>
      <g id="Group_6885" data-name="Group 6885" transform="translate(9)">
        <text id="Section_Title_Here-3" data-name="Section Title Here" transform="translate(1188 5385)" fill="#575a5d" font-size="20" font-family="Helvetica"><tspan x="0" y="0">Section Title Here</tspan></text>
        <text id="Lorem_ipsum_dolor_sit_amet_consectetur_adipiscing-3" data-name="Lorem ipsum dolor sit amet, consectetur adipiscing" transform="translate(1188 5412)" fill="#575a5d" font-size="14" font-family="Helvetica"><tspan x="0" y="0">Lorem ipsum dolor sit amet, consectetur adipiscing</tspan></text>
        <text id="Shop_Now-3" data-name="Shop Now" transform="translate(1188 5448)" fill="#111" font-size="13" font-family="Helvetica" text-decoration="underline"><tspan x="0" y="0">Shop Now</tspan></text>
        <g id="Mask_Group_50" data-name="Mask Group 50" clip-path="url(#clip-path)">
          <g id="Group_6930" data-name="Group 6930" transform="translate(17512 21291)">
            <rect id="Rectangle_3665" data-name="Rectangle 3665" width="491" height="276" transform="translate(-16372 -16225)" fill="#fff"/>
            <g id="Background-2-3" data-name="Background-2" transform="translate(-16372 -16225)" opacity="0.35">
              <rect id="Rectangle_3663" data-name="Rectangle 3663" width="491" height="276" fill="#b5b5b5"/>
              <path id="Path_8722" data-name="Path 8722" d="M2818.6,961.405c0-4.125,9.77-7.088,12.541-7.93,4.61-1.4,15.835-3.844,17.878-.013,1.967,3.665-4.393,13.23-12.987,15.171C2827.974,970.459,2818.613,965.441,2818.6,961.405Z" transform="translate(-2458.651 -829.907)" fill="#929292"/>
              <path id="Path_8723" data-name="Path 8723" d="M2911.659,1022.115c.587-.7,2.018-.345,1.634.7-.958,2.324-4.022,8.2-6.959,6.347-1.328-1.047-3.154-2.094-4.457-2.963-1.137-1.3,1.315-2.2,2-2.158C2907.891,1023.468,2910.522,1022.957,2911.659,1022.115Z" transform="translate(-2531.034 -891.268)" fill="#545454"/>
              <path id="Path_8724" data-name="Path 8724" d="M2246.2,858.624a1.464,1.464,0,0,1,.587.485,1.3,1.3,0,0,1-.255,1.737c-5.428,4.508-19.577,18.134-22.374,19.373-6.794,3.027-28.044-1.558-39.946-3.052-9.156-1.149-20.6-24.085-22.3-33.8-.306-1.788,2.095-2.733,4.138-3.933,12.4-7.279,28.121-3.371,39.908-.447,25.9,6.424,38.005,18.7,40.214,19.628Z" transform="translate(-1885.807 -728.608)" fill="#a1a1a1"/>
              <path id="Path_8725" data-name="Path 8725" d="M2287.6,1041.377c.409-.549,3.256.74,3.844.932,2.222.881,5.185,2.043,7.586,2.988a60.266,60.266,0,0,0,16.793,4.393,48.611,48.611,0,0,0,20.777-3.078,20.187,20.187,0,0,1,2.414-.766c1.443-.281.192,1.086-.2,1.545a21.842,21.842,0,0,0-4.457,6.794c-.472,1.085-.753,2.235-1.136,3.371-.243.7-.5,1.545-1.213,1.775a5.5,5.5,0,0,1-2.018-.077c-9.463-1.009-18.747-3.346-28.274-3.755a60.25,60.25,0,0,0-8.722.064c-.459.038-1.035.026-1.264-.255a3.171,3.171,0,0,1-.46-1.507c-.217-1.086-.523-2.133-.779-3.205a59.894,59.894,0,0,0-2.58-8.071c-.166-.345-.421-.843-.306-1.137h0Z" transform="translate(-1995.44 -908.271)" fill="#929292"/>
              <path id="Path_8726" data-name="Path 8726" d="M1398.034,755.081a64.364,64.364,0,0,1,42.308-15.146c3.04.064,20.561.626,35.949,12.132a55.8,55.8,0,0,1,14.2,15.146,54.122,54.122,0,0,1,5.07,10.319,56.617,56.617,0,0,1,3.371,11.685c.217,1.239.383,2.439.511,3.6a190.3,190.3,0,0,1-75.934,24.813,21.665,21.665,0,0,0-5.7-8.773c-9.335-8.505-21.761-3.052-31.582-11.353a23.307,23.307,0,0,1-6.934-10.638C1381.216,774.378,1388.559,763.178,1398.034,755.081Z" transform="translate(-1203.156 -645.434)" fill="#e5e5e5"/>
              <path id="Path_8727" data-name="Path 8727" d="M1380.026,1042.563c16.116-14.622,30.956-7.624,47.059,2.375,13.779,7.088,30.483,2.58,41.721-7.19a37.113,37.113,0,0,1,4.086-2.3,42.687,42.687,0,0,1,4.342-1.763c3.269-1.073,10.382-1.443,19.3.166a55.6,55.6,0,0,1,4.1,14.316,90.38,90.38,0,0,0-12.783,2.069c-17.993,4.265-25.094,11.813-42.551,17.853a107.529,107.529,0,0,1-21.186,4.968,21.615,21.615,0,0,0-5.7-8.773c-9.323-8.492-21.786-3.039-31.594-11.353a23.335,23.335,0,0,1-6.82-10.37Z" transform="translate(-1203.767 -900.874)" fill="url(#linear-gradient)"/>
              <path id="Path_8728" data-name="Path 8728" d="M2418.361,193.864a122.875,122.875,0,0,1-66,4.329,120.785,120.785,0,0,1-41.836-17.789c-3.435-5.108-3.282-8.058-2.567-9.782,4.674-11.315,43.458-1.52,52.474-14.75a4.133,4.133,0,0,0,.868-3.027c-3.422-6.934-15.388-3.129-21.25-1.75,24.66-17.521,55.973-15.669,84.528-19.973,27.725-8.441,78-43.113,78.181-10.612.1,17.968.4,36.2.537,54.121-6.283-.843-12.387,3.333-14.443,9.284-15.733,3.857-37.839,11.889-58.233,29.7a130.448,130.448,0,0,0-12.4,12.4,18.477,18.477,0,0,0-6.513-.332,17.3,17.3,0,0,0-6.347,2c-2.95,1.647-4.725,3.946-8.262,8.518-.651.843-1.175,1.558-1.52,2.043l-5.057-7.011a20.223,20.223,0,0,1,26.588-14.456,21.68,21.68,0,0,1,1.238-22.91Z" transform="translate(-2012.859 -93.22)" fill="#cecece"/>
              <path id="Path_8729" data-name="Path 8729" d="M3272.029,268.228c-14.418-2.771-31.185-.4-41.312,11.213a23.872,23.872,0,0,1-8.556,5.019c-9.757,3.18-19.284-2-29.245,3.55-3.972,1.877-5.389,5.619-2.542,9.233,5.9,7.982,22.6,8.135,20.752,21.454a7.04,7.04,0,0,1-2.694,4.776,25.278,25.278,0,0,1,5.708,1.6c-2.58-31.543,27.418-55.424,57.876-48.132v-8.722Z" transform="translate(-2781.642 -233.058)" fill="#b5b5b5"/>
              <path id="Path_8730" data-name="Path 8730" d="M3068.194,333.06a46.1,46.1,0,0,0-15.963-1.354,46.993,46.993,0,0,0-25.579,10.766c-2.733,2.286-12.617,10.791-15.682,25.426a43.668,43.668,0,0,0-.664,13.307,26.153,26.153,0,0,0-5.708-1.6c-9.833-1.06-16.282,3.295-21.761,10.983a21.4,21.4,0,0,0-3.384,8.02,22.215,22.215,0,0,0,1.9,13.843,21.66,21.66,0,0,0-17.368,2.465,21.3,21.3,0,0,0-8.787,12.3c.869,1.034,1.762,2.171,2.644,3.4q1.514,2.088,2.682,4.023a21.607,21.607,0,0,1,4.188-6.577c1.213-1.3,6.411-6.858,13.754-6.475a14.645,14.645,0,0,1,5.516,1.43c2.261-3.652,5.083-8.16,8.377-13.32,6.053-9.437,7.586-11.647,10.012-14.111a44.188,44.188,0,0,1,13.039-9.067c-.281-3.474-1.686-24.519,12.6-37.418a43.677,43.677,0,0,1,14.546-8.314,50.7,50.7,0,0,1,25.618-2.12v-5.619Z" transform="translate(-2577.806 -289.18)" fill="#e5e5e5"/>
              <path id="Path_8731" data-name="Path 8731" d="M3171.875,789.481a17.842,17.842,0,0,1-2.209-5.926,20.224,20.224,0,0,1,.817-9.5c1.239-4.2,3.128-10.638,8.991-14.661,9.028-6.194,20.266-1.711,21.263-1.29a40.448,40.448,0,0,0-8.1,5.108,45.864,45.864,0,0,0-8.339,9.144c-4.15,5.913-4.252,8.735-8.837,13.728a37.361,37.361,0,0,1-3.576,3.41Z" transform="translate(-2764.675 -659.579)" fill="#cecece"/>
              <path id="Path_8732" data-name="Path 8732" d="M3476.04,377.939c-3.883-.83-24.379-4.24-40.087,10.842-15.427,14.814-13.141,34.927-12.86,37.047a57.429,57.429,0,0,1,38.005-6.053,13.771,13.771,0,0,1,14.941-9.093V377.939Z" transform="translate(-2985.704 -328.875)" fill="#cecece"/>
              <path id="Path_8733" data-name="Path 8733" d="M0,0H470.171a55.208,55.208,0,0,1-13.141,6.526,54.785,54.785,0,0,1-16.078,2.912c-11.557.536-23.357-1-34.519,2.924-7.65,2.758-14.162,7.522-20.037,13.064-3.435,3.231-6.7,6.96-11.046,8.978-7.471,3.474-16.563,2.171-24.609,2.912a85.676,85.676,0,0,0-23.076,5.261c-23.281,8.429-41.491,27.674-65.806,33.523-40.265,6-43.458-25.873-105.459-2,11,5.836-3.742,10.791-9.348,11.583-10.778,2.388-22.3,2.171-33.2.6-2.976-.306-13.843-1.839-16.959-2.337C80.518,83.1,65.245,88.563,51.095,96.4A58.123,58.123,0,0,0,31.467,69.1,58.222,58.222,0,0,0,0,57.327Z" transform="translate(0)" fill="url(#linear-gradient-2)"/>
              <path id="Path_8734" data-name="Path 8734" d="M0,142.96c21.582-12.094,47.966-14.316,71.834-8.543,10.536,3.269,45.872,11.4,49.051,22.361-.856,2.477-4.444,2.286-6.6,2.465-26.1-.383-52.666-17.649-78.449-5.683-5.874,2.516-11.889,9.961-2.426,12.5,3.461.792,7.484,0,10.97-.294,13.652-1.469,27.329,3.41,37.532,12.464,6.7,6.143,13.179,13.728,22.821,14.763,17.777,3.844,34.353-11.966,51.593-4.316,10.983,5.823-3.729,10.8-9.361,11.583-10.778,2.4-22.323,2.171-33.229.6-2.835-.179-13.958-1.928-16.972-2.337-16.385-.843-31.671,4.623-45.833,12.464C43.152,189.6,23.255,172.575,0,171.923Z" transform="translate(0 -114.597)" fill="#cecece"/>
              <path id="Path_8735" data-name="Path 8735" d="M310.5,578.188c18.607-9.029,39.32.1,57.1,6.794-16.385-.856-31.671,4.623-45.833,12.464A64.9,64.9,0,0,0,310.5,578.188Z" transform="translate(-270.848 -501.054)" fill="#b5b5b5"/>
              <path id="Path_8736" data-name="Path 8736" d="M826.4,0h311.383c-18.134,5.147-32.552,10.382-42.653,14.354-18.7,7.356-27.623,12.336-39.984,9.872-10.842-2.171-13.83-8.084-21.339-11.008-29.551-11.506-47.123,22.642-69.893,33.714-13.677,4.968-28.159-1.686-42.168,1.085-23.115,3.831-46.153,21.3-69.829,10.153,13.281-2.222,20.816-5.7,31.045-14.495,12.732-10.7,27.367-18.632,44.314-19.335,3.984-.358,18.121.051,20.714-2.49.754-.8.217-2-.562-2.592-15.21,4.074-46.293,10.012-82.1-.792A144.689,144.689,0,0,1,826.4,0Z" transform="translate(-720.865)" fill="#7e7e7e"/>
              <path id="Path_8737" data-name="Path 8737" d="M0,837.717a135.408,135.408,0,0,1,20.8-3.32c82.944-6.641,175.773,63.482,168.89,106.289C183.908,976.673,105.612,1005.866,0,1003.3Z" transform="translate(0 -727.457)" fill="#7a7a7a"/>
              <path id="Path_8738" data-name="Path 8738" d="M234.1,1142.635c23.089-11.9,35.617-10.242,42.858-6.117,11.481,6.538,9.195,19.015,25.464,33.446,3.576,3.167,13.562,11.838,28.453,15.478,18.07,4.419,28.938-2.107,39.448,5.862,5.453,4.15,7.931,10.012,9.131,13.869a176.465,176.465,0,0,1-45.629-3.589c-51.835-11.034-85.23-42.985-99.725-58.961Z" transform="translate(-204.204 -988.699)" fill="#5a5a5a"/>
              <path id="Path_8739" data-name="Path 8739" d="M0,448.9c23.255.651,43.152,17.674,50.916,39.065,28.121-.741,52.231,23.932,57.582,50.405a26.826,26.826,0,0,1,42.973,24.481,36.493,36.493,0,0,1,50.75,39.665q-8.314,1.877-16.64,3.754c-14.443-18.262-28.223-25-38.311-27.737-8.748-2.363-16.512-1.877-25.03-8.326-8.965-6.794-11.672-14.443-15.861-21.863-19.041-33.689-65.372-42.82-74.12-44.544A122.69,122.69,0,0,0,0,501.846V448.9Z" transform="translate(0 -391.573)" fill="#a5a5a5"/>
              <path id="Path_8740" data-name="Path 8740" d="M731.313,862.12c30.33-12.311,60.034-9.463,74.337,7.139a38.891,38.891,0,0,1,8.416,17.559,36.3,36.3,0,0,0,9.3,11.532,20.469,20.469,0,0,0,3.039,2.069c4.01,2.2,7.3,2.082,11.136,2.5,4.751.524,8.939,1,12.8,3.371,1.009.613,6.96,4.291,7.943,11.289a15.349,15.349,0,0,1-1.622,9.016,24.576,24.576,0,0,1,18.39-.536c12.119,4.751,14.712,17.764,14.852,18.581a12.911,12.911,0,0,1-.868,1.328,13.28,13.28,0,0,1-1.073,1.2c-10.944,1.89-36.677,6.934-47.813,9.169,2.324-26.856-24.762-50.827-50.75-39.652,3.614-22.783-25.2-35.745-42.985-24.481a71.658,71.658,0,0,0-6.679-17.7,70.8,70.8,0,0,0-8.428-12.375Z" transform="translate(-637.909 -745.398)" fill="#7e7e7e"/>
              <path id="Path_8741" data-name="Path 8741" d="M835.3,1094.318c34.327-2.708,48.387,3.422,54.722,9.974a41.6,41.6,0,0,0,11.174,9.093c6.155,3.333,12.617,4.355,21.62,6.028,7.777,1.928,14.967,7.241,17.764,14.929,2.707,6.347-2.005,15.3,5.645,19.156,4.738,2.12,11.774-.409,14.38,5.568l-29.73,5.862c.115-1.188,1.775-21.467-14.75-34.084-16.1-12.311-34.685-6.028-35.987-5.568-.064-1.277-1.149-17.508-14.124-24.9a29.444,29.444,0,0,0-16.512-3.448,29.826,29.826,0,0,0-12.336,3.882q-.92-3.237-1.826-6.475Z" transform="translate(-728.628 -953.996)" fill="#545454"/>
              <path id="Path_8742" data-name="Path 8742" d="M398.7,682.109c17.138-9.029,31.134-10.74,40.763-10.638,21.633.243,32.488,9.821,62.409,17.47a218.1,218.1,0,0,0,40.8,6.411,58.668,58.668,0,0,0-18.619,32.041,25.078,25.078,0,0,0-11.57-13.2,24.34,24.34,0,0,0-12.362-2.682,81.583,81.583,0,0,0-58.949-9.08,61.765,61.765,0,0,0-7.943-7.765,58.427,58.427,0,0,0-11.11-7.19,54.792,54.792,0,0,0-13.869-4.482,56.163,56.163,0,0,0-9.552-.907Z" transform="translate(-347.784 -585.717)" fill="#a1a1a1"/>
              <path id="Path_8743" data-name="Path 8743" d="M667.4,825.858a60.94,60.94,0,0,1,67.1,17.01c-6.373,4.393-11.481,5.108-15.005,4.917-11.315-.626-15.759-11.085-29.615-14.035a35.116,35.116,0,0,0-14.316.051c-1.124-1.29-2.388-2.643-3.793-4.023C670.273,828.31,668.792,827.008,667.4,825.858Z" transform="translate(-582.17 -717.079)" fill="#b5b5b5"/>
              <path id="Path_8744" data-name="Path 8744" d="M0,1167c75.755,2.222,76.036,69.791,175.25,67.467C122.009,1245.9,0,1293.939,0,1293.939Z" transform="translate(0 -1017.968)" fill="#848484"/>
              <path id="Path_8745" data-name="Path 8745" d="M0,1373.794c24.315-2.146,40.968,3,51.9,8.39,20.331,10.025,27.661,24.213,52.921,34.2a109.444,109.444,0,0,0,30.1,7.126q-19.4,5.842-38.822,11.685a155.09,155.09,0,0,0-61.592-37.366A150.776,150.776,0,0,0,0,1391.225Z" transform="translate(0 -1197.918)" fill="#757575"/>
              <path id="Path_8746" data-name="Path 8746" d="M0,1513.8a141.059,141.059,0,0,1,47.366,10.446A141.431,141.431,0,0,1,96.1,1557.769q-14.616,5.574-29.219,11.136A94.634,94.634,0,0,0,50.9,1553.2a101.889,101.889,0,0,0-24.085-13.6A130.754,130.754,0,0,0,0,1531.449v-17.636Z" transform="translate(0 -1320.48)" fill="#5a5a5a"/>
              <path id="Path_8747" data-name="Path 8747" d="M0,1651.9a119.069,119.069,0,0,1,36.255,12.349,118.9,118.9,0,0,1,31.735,24.6c-8.939,4.061-18.377,8.76-28.184,14.214-8.2,4.559-15.823,9.182-22.859,13.741H0v-64.9Z" transform="translate(0 -1440.944)" fill="#393939"/>
              <path id="Path_8748" data-name="Path 8748" d="M0,1811.3a83.6,83.6,0,0,1,24,10.421,83.969,83.969,0,0,1,20.228,18.109c-5.479,2.733-11.212,5.875-17.138,9.476-3.576,2.171-6.973,4.368-10.178,6.539H0V1811.3Z" transform="translate(0 -1579.988)" fill="#242424"/>
              <path id="Path_8749" data-name="Path 8749" d="M1765.6,1191.765V1305.3H1461.9c13.281-21.4,47.672-70.263,112.483-100.644C1662.6,1163.287,1744.7,1185.444,1765.6,1191.765Z" transform="translate(-1275.208 -1029.452)" fill="url(#linear-gradient-3)"/>
              <path id="Path_8750" data-name="Path 8750" d="M2319.59,1143.661v7.292c-16.474-.8-38.541,1.009-57.3,14.482-20.79,14.929-18.479,30.534-37.941,40.444-19.6,9.974-33.408-.038-68.9,1A187.251,187.251,0,0,0,2097,1218.152c9.4-13.448,46.638-63.316,115.943-79.675C2261.535,1127.009,2301.75,1137.7,2319.59,1143.661Z" transform="translate(-1829.203 -988.653)" fill="#7e7e7e"/>
              <path id="Path_8751" data-name="Path 8751" d="M1426.272,1161.842c-7.994-1.813-36.37-7.241-65.462,8.4A92.438,92.438,0,0,0,1327.1,1201.6c-10.357,20.918-38.72,8.761-56.816,8.556-24.775-2.452-49.652,8.326-66.6,26.167a175.467,175.467,0,0,0-81.105,46.344H1072.9c2.311-16.768,14.6-28.516,27.393-28.823,10.766-.268,18.4,7.637,20.063,9.45.6-2.324,4.955-18.236,21.2-26.256,17.393-8.582,33.778-.894,35.693.038,2.222-6.768,9.271-25.145,27.968-36.983a69.278,69.278,0,0,1,30.355-10.114c11.889-1.2,15.746,1.469,32.08,2.605,11.519.8,23.651,1.66,36.089-1.3,20.956-4.993,20.2-15.452,47.43-27.048,15.976-6.807,28.07-8.237,37.865-9.323,14.341-1.583,24.1-.447,32.846,4.227a40.56,40.56,0,0,1,4.393,2.707Z" transform="translate(-935.885 -1006.833)" fill="#9d9d9d"/>
              <path id="Path_8752" data-name="Path 8752" d="M2641.912,665.926c19.667-15.772,42.245-14.15,47.43-13.652q6.7-5.881,13.4-11.775.019,36.894.051,73.8c-26.358-8.007-45.258-5.606-57.671-1.9-25.107,7.484-33.37,23.153-60.417,30.917-19.283,5.53-36.779,3.793-48.4,1.52a34.9,34.9,0,0,1,14.916-11.851c10.868-4.265,15.286,1.367,24.966-3,11.034-4.968,18.121-18.057,19.973-21.467,2.286-4.227,2.529-5.964,4.994-8.492,5.683-5.823,14.3-6.717,20.969-6.487a64.053,64.053,0,0,1,19.807-27.623Z" transform="translate(-2212.402 -558.705)" fill="#7a7a7a"/>
              <path id="Path_8753" data-name="Path 8753" d="M2687.8,648.733a13.814,13.814,0,0,1,14.992-9.105v9.284a9.911,9.911,0,0,0-4.457,2.95,10.158,10.158,0,0,0-2.2,4.355c-29.589-1.711-42.539,6.168-48.9,13.664-7.663,9.016-7.267,19.258-18.978,26.958-9.092,5.99-12.77,2.056-22.795,8.16-14.252,8.658-10.229,18.645-22.259,24.66-12.349,6.168-22.731-1.3-33.433,7.458a25.307,25.307,0,0,0-6.4,8.02,27.837,27.837,0,0,1-3.933-.409,24.109,24.109,0,0,1-3.142-.766,24.388,24.388,0,0,1,2.529-8.773c10.459-20.331,44.9-12.528,56.024-32.348,1.558-2.771,3.014-6.743,7.471-10.165,5.76-4.444,12.694-5.044,17.3-4.942,1.609-4.406,8.76-22.463,28.631-33a61.5,61.5,0,0,1,39.563-6Z" transform="translate(-2212.401 -557.833)" fill="#a5a5a5"/>
              <path id="Path_8754" data-name="Path 8754" d="M3340.2,901.672c.37-3.346,2.886-22.872,20.509-36.192,19-14.354,40.291-9.935,43.317-9.259v45.233a110.346,110.346,0,0,0-63.827.2Z" transform="translate(-2913.64 -745.859)" fill="#a6a6a6"/>
              <path id="Path_8755" data-name="Path 8755" d="M3484.713,1030.292a35.452,35.452,0,0,1,45.36-21.186v24.915a110.371,110.371,0,0,0-45.373-3.742Z" transform="translate(-3039.687 -878.438)" fill="#a5a5a5"/>
              <path id="Path_8756" data-name="Path 8756" d="M2124.981,1475.336H1873.9c32.744-32.705,56.356-37.788,72.664-35.093,20.854,3.448,35.31,20.522,50.226,13.422,11.979-5.708,9.156-19.833,22.719-25.464,13.652-5.67,24.251,5.415,34.455-1.494,7.317-4.955,6.181-13.6,9.731-21.965,4.7-11.072,18.632-24.073,61.3-29.64" transform="translate(-1634.594 -1199.493)" fill="#4c4c4c"/>
              <path id="Path_8757" data-name="Path 8757" d="M2567,1874.453a219.625,219.625,0,0,0,43.854-13.677c16.219-7.049,23.8-12.809,36.933-11.787,12.477.97,14.469,6.858,24.289,5.351,12.285-1.89,14.3-11.915,28.146-18.032,5.938-2.618,15.35-5.1,29.346-2.669v40.815Z" transform="translate(-2239.182 -1598.61)" fill="#393939"/>
              <path id="Path_8758" data-name="Path 8758" d="M3114.4,1980.307a74.738,74.738,0,0,1,27.38-9.067c13.485-1.635,19.7,1.583,30.7.37,8.467-.932,20.586-4.585,34.583-17.61v26.294H3114.4Z" transform="translate(-2716.676 -1704.465)" fill="#242424"/>
              <path id="Path_8759" data-name="Path 8759" d="M1035.879,1035.987c-5.172,15.2-12.081,20.369-17.3,22.361-9.655,3.678-17.266-2.2-27.086,2.12-7.931,3.486-12.106,11.328-14.341,16.959-4.981-1.239-27.354-6.232-50.571,6.564a70.837,70.837,0,0,0-31.952,37.545c-2.5-1.009-17.866-6.858-34.519,1.047-16.155,7.662-21.48,22.54-22.374,25.171-1.788-.855-15.4-7.075-29.909-.153a35.256,35.256,0,0,0-17.547,19.539H748.9a135.549,135.549,0,0,1,22.2-22.834c15.861-12.847,31.377-19.335,82.613-35.783,13.409-4.3,30.177-9.591,49.6-15.465.434-.587,1.124-1.456,1.941-2.516,10.74-13.894,22.872-21.046,31.2-26.077,21.237-12.822,43.777-19.449,53.278-21.991.153-.881,2.81-14.456,14.584-19.156C1015.088,1019,1028.906,1023.97,1035.879,1035.987Z" transform="translate(-653.262 -891.298)" fill="#cecece"/>
              <path id="Path_8760" data-name="Path 8760" d="M2125.1,1271.276a20.39,20.39,0,0,1,13.064,4.533,24.334,24.334,0,0,1,4.572-10.944c.562-.74,8.518-10.906,19.4-9.233a17.712,17.712,0,0,1,8.007,3.5c-1.073-.294-13.371-3.5-22.9,4.725a24.331,24.331,0,0,0-7.892,14.405c-2.554-1.111-12.068-4.853-22.246-.83a26.729,26.729,0,0,0-8.109,5.1,11.906,11.906,0,0,1,.983-2.976c2.8-5.721,9.923-8.109,15.108-8.262Z" transform="translate(-1839.67 -1095.12)" fill="#e5e5e5"/>
              <path id="Path_8761" data-name="Path 8761" d="M2281.172,1146.37a78.007,78.007,0,0,1,39.614,3.793c-.115,2.976-.243,5.951-.357,8.939a5.479,5.479,0,0,0-5.658,4,20.663,20.663,0,0,0-11.634-2.912c-8.02.46-12.975,5.657-14.431,7.241a23.77,23.77,0,0,0-5.913,12.349,21.273,21.273,0,0,0-4.125-2.452,20.535,20.535,0,0,0-3.87-1.3,44.8,44.8,0,0,0,3.461-6.985,48.1,48.1,0,0,0,2.9-22.655Z" transform="translate(-1984.297 -999.075)" fill="#545454"/>
              <path id="Path_8762" data-name="Path 8762" d="M1714.522,1178.29a93.718,93.718,0,0,0,19.884-4.636c14.9-5.249,20.1-11.378,34.2-16.1a83.021,83.021,0,0,1,22.425-4.15,46.265,46.265,0,0,1-6.372,29.64,19.843,19.843,0,0,0-11.851,1.507,20.053,20.053,0,0,0-9.31,8.965,24.341,24.341,0,0,0-17.355,11.838c-2.809-2.976-5.989-8.493-7.573-11a19.286,19.286,0,0,0-6.641-6.768c-6.513-4.1-15.006-1.737-19.028-.281a17.907,17.907,0,0,0,1.443-4.61A17.321,17.321,0,0,0,1714.522,1178.29Z" transform="translate(-1494.154 -1006.105)" fill="url(#linear-gradient-4)"/>
              <path id="Path_8763" data-name="Path 8763" d="M1953.313,1460.379a14.655,14.655,0,0,1,20.42-9.667c-.179.332-.37.664-.549,1a36.976,36.976,0,0,0-17.355,11.838,6.226,6.226,0,0,1-2.528-3.154Z" transform="translate(-1703.854 -1264.288)" fill="#e5e5e5"/>
              <path id="Path_8764" data-name="Path 8764" d="M365.525,1579.9a43.047,43.047,0,0,0-11.264,19.309c-2.184-1.111-17.687-8.62-35-1.264-15.874,6.73-21.569,20.982-22.527,23.5a87.583,87.583,0,0,0-85.588,32.539H132.4c78-42.092,114.258-53.815,132.685-55.781,3.486-.37,12.681-1.085,25.656-3.563,19.986-3.831,27.329-7.739,45.91-11.251a222.078,222.078,0,0,1,28.887-3.486Z" transform="translate(-115.492 -1378.139)" fill="#cecece"/>
              <path id="Path_8765" data-name="Path 8765" d="M290.829,1695.2a286.1,286.1,0,0,0-126.453,59.357H132.5A273.467,273.467,0,0,1,290.829,1695.2Z" transform="translate(-115.579 -1478.714)" fill="#b5b5b5"/>
            </g>
          </g>
        </g>
      </g>
    </g>
  </g>
</svg>