<svg xmlns="http://www.w3.org/2000/svg" xmlns:xlink="http://www.w3.org/1999/xlink" width="1600" height="597" viewBox="0 0 1600 597">
  <defs>
    <clipPath id="clip-path">
      <rect width="1441" height="428" fill="none"/>
    </clipPath>
    <clipPath id="clip-path-2">
      <rect id="Rectangle_3173" data-name="Rectangle 3173" width="100" height="100" fill="#bbbec3"/>
    </clipPath>
  </defs>
  <g id="Image_Across" data-name="Image Across" transform="translate(0 -1320)">
    <g id="Image_Across-2" data-name="Image Across" transform="translate(-2 -286)">
      <g id="Repeat_Grid_185" data-name="Repeat Grid 185" transform="translate(82 1735)" clip-path="url(#clip-path)">
        <g id="Group_4399" data-name="Group 4399" transform="translate(0 -1714)">
          <rect id="_06-photo-1606417460325-bd75c8324ddc" data-name="06-photo-1606417460325-bd75c8324ddc" width="459" height="320" rx="16" transform="translate(0 1714)" fill="#cfd2d6"/>
          <g id="Group_6135" data-name="Group 6135" transform="translate(180 1824)">
            <g id="Group_6082" data-name="Group 6082" clip-path="url(#clip-path-2)">
              <path id="Path_5614" data-name="Path 5614" d="M92.62,0H7.253A7.345,7.345,0,0,0,0,7.283V92.729A7.319,7.319,0,0,0,7.26,100l85.46-.026A7.343,7.343,0,0,0,100,92.692V7.272A7.392,7.392,0,0,0,92.62,0M7.272,96.125a3.49,3.49,0,0,1-3.485-3.47V88.049L28.537,63.274,61.373,96.125Zm88.786-3.218a3.488,3.488,0,0,1-3.5,3.205H66.717L41.975,71.337,65.921,47.392,96.067,77.544ZM96.082,71.9,67.29,43.253a1.92,1.92,0,0,0-2.7,0l-25.3,25.276L30,59.246a1.9,1.9,0,0,0-2.673,0L3.787,82.667V8.262l-.124-.082L3.777,6.94A3.452,3.452,0,0,1,7.289,3.8h85.4a3.374,3.374,0,0,1,3.388,3.281V71.9Z" fill="#bbbec3"/>
              <path id="Path_5615" data-name="Path 5615" d="M52.138,28.164h-.021A14.3,14.3,0,0,0,37.827,42.49v.671a14.32,14.32,0,1,0,14.309-15m.281,25.395c-.106,0-.212,0-.317,0A11.3,11.3,0,0,1,40.814,42.548v-.014c0-.194,0-.388,0-.568a11.31,11.31,0,1,1,11.6,11.592" transform="translate(-15.273 -11.365)" fill="#bbbec3"/>
            </g>
          </g>
          <rect id="Rectangle_3467" data-name="Rectangle 3467" width="169" height="16" rx="8" transform="translate(0 2062)" fill="#494a53"/>
          <rect id="Rectangle_3468" data-name="Rectangle 3468" width="145" height="10" rx="5" transform="translate(0 2094)" fill="#969da8"/>
          <rect id="Rectangle_3471" data-name="Rectangle 3471" width="72" height="10" rx="5" transform="translate(0 2132)" fill="#494a53"/>
          <rect id="Rectangle_3469" data-name="Rectangle 3469" width="109" height="10" rx="5" transform="translate(151 2094)" fill="#969da8"/>
          <rect id="Rectangle_3470" data-name="Rectangle 3470" width="72" height="10" rx="5" transform="translate(266 2094)" fill="#969da8"/>
        </g>
        <g id="Group_4399-2" data-name="Group 4399" transform="translate(491 -1714)">
          <rect id="_06-photo-1606417460325-bd75c8324ddc-2" data-name="06-photo-1606417460325-bd75c8324ddc" width="459" height="320" rx="16" transform="translate(0 1714)" fill="#cfd2d6"/>
          <g id="Group_6135-2" data-name="Group 6135" transform="translate(180 1824)">
            <g id="Group_6082-2" data-name="Group 6082" clip-path="url(#clip-path-2)">
              <path id="Path_5614-2" data-name="Path 5614" d="M92.62,0H7.253A7.345,7.345,0,0,0,0,7.283V92.729A7.319,7.319,0,0,0,7.26,100l85.46-.026A7.343,7.343,0,0,0,100,92.692V7.272A7.392,7.392,0,0,0,92.62,0M7.272,96.125a3.49,3.49,0,0,1-3.485-3.47V88.049L28.537,63.274,61.373,96.125Zm88.786-3.218a3.488,3.488,0,0,1-3.5,3.205H66.717L41.975,71.337,65.921,47.392,96.067,77.544ZM96.082,71.9,67.29,43.253a1.92,1.92,0,0,0-2.7,0l-25.3,25.276L30,59.246a1.9,1.9,0,0,0-2.673,0L3.787,82.667V8.262l-.124-.082L3.777,6.94A3.452,3.452,0,0,1,7.289,3.8h85.4a3.374,3.374,0,0,1,3.388,3.281V71.9Z" fill="#bbbec3"/>
              <path id="Path_5615-2" data-name="Path 5615" d="M52.138,28.164h-.021A14.3,14.3,0,0,0,37.827,42.49v.671a14.32,14.32,0,1,0,14.309-15m.281,25.395c-.106,0-.212,0-.317,0A11.3,11.3,0,0,1,40.814,42.548v-.014c0-.194,0-.388,0-.568a11.31,11.31,0,1,1,11.6,11.592" transform="translate(-15.273 -11.365)" fill="#bbbec3"/>
            </g>
          </g>
          <rect id="Rectangle_3467-2" data-name="Rectangle 3467" width="169" height="16" rx="8" transform="translate(0 2062)" fill="#494a53"/>
          <rect id="Rectangle_3468-2" data-name="Rectangle 3468" width="145" height="10" rx="5" transform="translate(0 2094)" fill="#969da8"/>
          <rect id="Rectangle_3471-2" data-name="Rectangle 3471" width="72" height="10" rx="5" transform="translate(0 2132)" fill="#494a53"/>
          <rect id="Rectangle_3469-2" data-name="Rectangle 3469" width="109" height="10" rx="5" transform="translate(151 2094)" fill="#969da8"/>
          <rect id="Rectangle_3470-2" data-name="Rectangle 3470" width="72" height="10" rx="5" transform="translate(266 2094)" fill="#969da8"/>
        </g>
        <g id="Group_4399-3" data-name="Group 4399" transform="translate(982 -1714)">
          <rect id="_06-photo-1606417460325-bd75c8324ddc-3" data-name="06-photo-1606417460325-bd75c8324ddc" width="459" height="320" rx="16" transform="translate(0 1714)" fill="#cfd2d6"/>
          <g id="Group_6135-3" data-name="Group 6135" transform="translate(180 1824)">
            <g id="Group_6082-3" data-name="Group 6082" clip-path="url(#clip-path-2)">
              <path id="Path_5614-3" data-name="Path 5614" d="M92.62,0H7.253A7.345,7.345,0,0,0,0,7.283V92.729A7.319,7.319,0,0,0,7.26,100l85.46-.026A7.343,7.343,0,0,0,100,92.692V7.272A7.392,7.392,0,0,0,92.62,0M7.272,96.125a3.49,3.49,0,0,1-3.485-3.47V88.049L28.537,63.274,61.373,96.125Zm88.786-3.218a3.488,3.488,0,0,1-3.5,3.205H66.717L41.975,71.337,65.921,47.392,96.067,77.544ZM96.082,71.9,67.29,43.253a1.92,1.92,0,0,0-2.7,0l-25.3,25.276L30,59.246a1.9,1.9,0,0,0-2.673,0L3.787,82.667V8.262l-.124-.082L3.777,6.94A3.452,3.452,0,0,1,7.289,3.8h85.4a3.374,3.374,0,0,1,3.388,3.281V71.9Z" fill="#bbbec3"/>
              <path id="Path_5615-3" data-name="Path 5615" d="M52.138,28.164h-.021A14.3,14.3,0,0,0,37.827,42.49v.671a14.32,14.32,0,1,0,14.309-15m.281,25.395c-.106,0-.212,0-.317,0A11.3,11.3,0,0,1,40.814,42.548v-.014c0-.194,0-.388,0-.568a11.31,11.31,0,1,1,11.6,11.592" transform="translate(-15.273 -11.365)" fill="#bbbec3"/>
            </g>
          </g>
          <rect id="Rectangle_3467-3" data-name="Rectangle 3467" width="169" height="16" rx="8" transform="translate(0 2062)" fill="#494a53"/>
          <rect id="Rectangle_3468-3" data-name="Rectangle 3468" width="145" height="10" rx="5" transform="translate(0 2094)" fill="#969da8"/>
          <rect id="Rectangle_3471-3" data-name="Rectangle 3471" width="72" height="10" rx="5" transform="translate(0 2132)" fill="#494a53"/>
          <rect id="Rectangle_3469-3" data-name="Rectangle 3469" width="109" height="10" rx="5" transform="translate(151 2094)" fill="#969da8"/>
          <rect id="Rectangle_3470-3" data-name="Rectangle 3470" width="72" height="10" rx="5" transform="translate(266 2094)" fill="#969da8"/>
        </g>
      </g>
      <text id="Image_Across_Heading" data-name="Image Across Heading" transform="translate(800 1685)" fill="#494a53" font-size="40" font-family="Helvetica-Bold, Helvetica" font-weight="700"><tspan x="-214.893" y="0">Image Across Heading</tspan></text>
    </g>
    <rect id="Rectangle_3498" data-name="Rectangle 3498" width="1600" height="597" transform="translate(0 1320)" fill="none"/>
  </g>
</svg>