<svg xmlns="http://www.w3.org/2000/svg" xmlns:xlink="http://www.w3.org/1999/xlink" width="1344" height="668" viewBox="0 0 1344 668">
  <defs>
    <clipPath id="clip-path">
      <rect id="Rectangle_3559" data-name="Rectangle 3559" width="194.481" height="209.691" fill="none"/>
    </clipPath>
  </defs>
  <g id="Group_6957" data-name="Group 6957" transform="translate(-288 -6191)">
    <g id="Group_6941" data-name="Group 6941">
      <g id="Rectangle_3578" data-name="Rectangle 3578" transform="translate(288 6191)" fill="#fff" stroke="#ddd" stroke-width="1">
        <rect width="1344" height="668" rx="15" stroke="none"/>
        <rect x="0.5" y="0.5" width="1343" height="667" rx="14.5" fill="none"/>
      </g>
      <g id="Group_6886" data-name="Group 6886" transform="translate(-12)">
        <rect id="_06-photo-1606417460325-bd75c8324ddc" data-name="06-photo-1606417460325-bd75c8324ddc" width="300" height="357" transform="translate(340 6360)" fill="#f5f5f5"/>
        <text id="Section_Title_Here" data-name="Section Title Here" transform="translate(490 6756)" fill="#575a5d" font-size="20" font-family="Helvetica"><tspan x="-78.936" y="0">Section Title Here</tspan></text>
        <g id="Group_6756" data-name="Group 6756" transform="translate(392.76 6433.654)">
          <g id="Group_6742" data-name="Group 6742" clip-path="url(#clip-path)">
            <path id="Path_6820" data-name="Path 6820" d="M61.941,93.169c2.147-3.924,6.809-5.832,9.366-9.5,2.423-3.482,2.61-7.963,3.068-12.173s1.517-8.8,4.94-11.286c4.159-3.023,10.13-1.77,14.758-4.016,4.275-2.076,6.574-6.676,8.952-10.8s5.642-8.424,10.36-9.02c3.8-.478,7.6,1.634,11.38.981,3.663-.633,6.343-3.657,9.258-5.966s7.245-3.949,10.2-1.689c3.455,2.642,2.013,8.373-1.048,11.465s-7.291,4.951-9.928,8.411-3.427,8.161-6.657,11.026c-4.8,4.256-13.378,3.012-16.979,8.318-3.038,4.491-.566,11.165-3.64,15.636-3.69,5.367-13.23,4.516-16,10.41-1.45,3.086-.326,6.737-.888,10.095-.749,4.466-4.332,7.835-7.709,10.853a33.88,33.88,0,0,1-7.737,5.678c-6.059,2.877-13.9.71-13.083-6.725.718-6.547-1.821-15.832,1.389-21.714" transform="translate(20.592 9.779)" fill="#eaeaea"/>
            <path id="Path_6821" data-name="Path 6821" d="M64.328,112.644a.245.245,0,0,1-.082-.015.214.214,0,0,1-.123-.278l0-.007a148.361,148.361,0,0,1,73.7-78.278.219.219,0,0,1,.3.055.223.223,0,0,1-.054.3.37.37,0,0,1-.056.028A147.929,147.929,0,0,0,64.528,112.5a.214.214,0,0,1-.192.134" transform="translate(21.905 11.627)" fill="#fff"/>
            <path id="Path_6822" data-name="Path 6822" d="M74.808,76.982a.219.219,0,0,1-.1-.413,52.875,52.875,0,0,1,16.01-5.31.219.219,0,0,1,.083.429h-.013a52.406,52.406,0,0,0-15.876,5.263.251.251,0,0,1-.1.027" transform="translate(25.485 24.347)" fill="#fff"/>
            <path id="Path_6823" data-name="Path 6823" d="M77.771,69.734H77.73a.217.217,0,0,1-.172-.255v0a39.38,39.38,0,0,0,.364-13.484.219.219,0,1,1,.433-.064,39.756,39.756,0,0,1-.368,13.635.219.219,0,0,1-.215.176" transform="translate(26.499 19.045)" fill="#fff"/>
            <path id="Path_6824" data-name="Path 6824" d="M85.181,62.183a.218.218,0,0,1-.1-.412,25.167,25.167,0,0,1,12.7-2.854.219.219,0,0,1,.208.227.222.222,0,0,1-.227.207,24.684,24.684,0,0,0-12.478,2.8.228.228,0,0,1-.1.024" transform="translate(29.03 20.124)" fill="#fff"/>
            <path id="Path_6825" data-name="Path 6825" d="M92.909,53.543a.222.222,0,0,1-.087-.019.219.219,0,0,1-.107-.288h0a59.957,59.957,0,0,0,4.012-13.173.22.22,0,0,1,.267-.16h0a.217.217,0,0,1,.165.236,60.281,60.281,0,0,1-4.044,13.268.219.219,0,0,1-.193.134" transform="translate(31.672 13.631)" fill="#fff"/>
            <path id="Path_6826" data-name="Path 6826" d="M114.14,49.115a.216.216,0,0,1-.118-.034,17.235,17.235,0,0,0-12.589-2.395.219.219,0,0,1-.086-.429,17.677,17.677,0,0,1,12.91,2.461.216.216,0,0,1,.068.3h0a.216.216,0,0,1-.193.1" transform="translate(34.568 15.694)" fill="#fff"/>
            <path id="Path_6827" data-name="Path 6827" d="M106.005,41.994a.216.216,0,0,1-.22-.212v0a.2.2,0,0,1,.05-.142,23.093,23.093,0,0,0,3.093-4.949.219.219,0,1,1,.4.174v.009a23.458,23.458,0,0,1-3.152,5.042.213.213,0,0,1-.169.082" transform="translate(36.145 12.49)" fill="#fff"/>
            <path id="Path_6828" data-name="Path 6828" d="M117.379,39.156a.209.209,0,0,1-.086-.017,7.617,7.617,0,0,0-4.087-.486.216.216,0,0,1-.255-.168v0a.219.219,0,0,1,.172-.256h.013a7.945,7.945,0,0,1,4.323.51.219.219,0,0,1-.086.423" transform="translate(38.592 13.026)" fill="#fff"/>
            <path id="Path_6829" data-name="Path 6829" d="M53.268,109.469c1.512-3.731,4.209-7.288,3.817-11.294-.537-5.474-6.534-8.9-8-14.2-1.432-5.153,1.77-10.369,5.029-14.6s6.965-8.855,6.652-14.194c-.29-4.988-4.081-9.326-4.1-14.316-.019-4.377,2.87-8.215,6-11.27s6.708-5.82,8.795-9.674c2.168-3.983,2.482-8.7,4.226-12.863S81.636-1,85.982.231c3.676,1.034,5.53,5.233,5.691,9.043s-.877,7.587-.73,11.395c.3,7.7,5.345,15.564,2.242,22.633-2.538,5.769-10,9.15-10.292,15.444-.217,4.776,3.966,8.62,5,13.283,2.029,9.158-8.332,16.949-8.359,26.333-.013,5.545,3.6,10.446,4.642,15.886A17.9,17.9,0,0,1,78,131.193c-14.961,12.137-30.951-6.362-24.737-21.735" transform="translate(16.65 0)" fill="#ddd"/>
            <path id="Path_6830" data-name="Path 6830" d="M61.21,119.059H61.2a.221.221,0,0,1-.207-.235A549.421,549.421,0,0,1,80.3,7.529a.224.224,0,0,1,.268-.152.218.218,0,0,1,.15.268A548.832,548.832,0,0,0,61.43,118.854a.219.219,0,0,1-.22.2" transform="translate(20.839 2.519)" fill="#fff"/>
            <path id="Path_6831" data-name="Path 6831" d="M63.761,85.113a.221.221,0,0,1-.1-.027.218.218,0,0,1-.091-.294,61.531,61.531,0,0,1,8.926-12.5.222.222,0,0,1,.309-.031.219.219,0,0,1,.027.309l-.013.017A61.006,61.006,0,0,0,63.949,85a.226.226,0,0,1-.193.114" transform="translate(21.711 24.674)" fill="#fff"/>
            <path id="Path_6832" data-name="Path 6832" d="M63.1,73.11a.219.219,0,0,1-.215-.176A54.394,54.394,0,0,0,55.846,54.9a.219.219,0,0,1,.373-.227,54.861,54.861,0,0,1,7.093,18.182.217.217,0,0,1-.17.256H63.1" transform="translate(19.073 18.65)" fill="#fff"/>
            <path id="Path_6833" data-name="Path 6833" d="M65.552,66.12a.222.222,0,0,1-.22-.223.234.234,0,0,1,.032-.113A66.931,66.931,0,0,1,77.033,51.524a.218.218,0,0,1,.309.011.222.222,0,0,1-.011.313A66.655,66.655,0,0,0,65.745,66.014a.222.222,0,0,1-.193.1" transform="translate(22.323 17.585)" fill="#fff"/>
            <path id="Path_6834" data-name="Path 6834" d="M66.971,49.958a.219.219,0,0,1-.215-.176A67.4,67.4,0,0,0,60.3,31.542a.219.219,0,1,1,.35-.262.188.188,0,0,1,.032.06A67.9,67.9,0,0,1,67.178,49.7a.219.219,0,0,1-.17.258h-.043" transform="translate(20.59 10.658)" fill="#fff"/>
            <path id="Path_6835" data-name="Path 6835" d="M69.836,41.148a.218.218,0,0,1-.22-.215v0a.231.231,0,0,1,.038-.125A36.343,36.343,0,0,1,80.79,30.147a.219.219,0,0,1,.227.373,35.906,35.906,0,0,0-11,10.523.212.212,0,0,1-.182.1" transform="translate(23.786 10.292)" fill="#fff"/>
            <path id="Path_6836" data-name="Path 6836" d="M68.911,31.623a.218.218,0,0,1-.22-.211,32.378,32.378,0,0,0-2.677-11.8.22.22,0,1,1,.4-.176A32.851,32.851,0,0,1,69.123,31.4a.217.217,0,0,1-.209.225h0Z" transform="translate(22.55 6.595)" fill="#fff"/>
            <path id="Path_6837" data-name="Path 6837" d="M74,20.347a.219.219,0,0,1-.192-.326,14.919,14.919,0,0,1,6.239-6.081.22.22,0,0,1,.193.388,14.455,14.455,0,0,0-6.055,5.9.215.215,0,0,1-.193.114" transform="translate(25.211 4.76)" fill="#fff"/>
            <path id="Path_6838" data-name="Path 6838" d="M85.88,93.745c-2.25-3.869-6.965-5.642-9.625-9.239-2.516-3.4-2.828-7.889-3.4-12.082S71.1,63.671,67.6,61.276c-4.241-2.9-10.173-1.489-14.856-3.606-4.332-1.959-6.771-6.492-9.246-10.55s-5.874-8.266-10.6-8.728c-3.81-.373-7.559,1.843-11.349,1.293-3.675-.537-6.44-3.482-9.419-5.709S4.784,30.22,1.894,32.565C-1.5,35.3.106,40.991,3.241,44s7.421,4.747,10.154,8.124,3.652,8.064,6.962,10.834c4.915,4.126,13.457,2.644,17.2,7.857,3.164,4.407.875,11.144,4.061,15.527,3.837,5.266,13.347,4.15,16.287,9.966,1.536,3.04.51,6.727,1.161,10.063.871,4.449,4.546,7.715,8,10.64a33.724,33.724,0,0,0,7.885,5.462c6.136,2.709,13.911.33,12.891-7.081-.9-6.527,1.385-15.881-1.98-21.668" transform="translate(0 10.725)" fill="#ccc"/>
            <path id="Path_6839" data-name="Path 6839" d="M81.021,113.318a.222.222,0,0,1-.193-.134,147.917,147.917,0,0,0-75.6-75.989.22.22,0,0,1-.111-.288.217.217,0,0,1,.286-.113h0a148.375,148.375,0,0,1,75.828,76.217.219.219,0,0,1-.111.288.2.2,0,0,1-.087.019" transform="translate(1.741 12.565)" fill="#fff"/>
            <path id="Path_6840" data-name="Path 6840" d="M57.46,83.358h-.023a.218.218,0,0,1-.195-.236l.839-8.05a.22.22,0,0,1,.437.046l-.843,8.05a.219.219,0,0,1-.217.193" transform="translate(19.558 25.586)" fill="#fff"/>
            <path id="Path_6841" data-name="Path 6841" d="M54.891,78.37a.212.212,0,0,1-.1-.023,52.417,52.417,0,0,0-16.024-4.821.221.221,0,0,1,.059-.437A52.947,52.947,0,0,1,54.98,77.954a.216.216,0,0,1,.1.287v0a.213.213,0,0,1-.2.127" transform="translate(13.188 24.973)" fill="#fff"/>
            <path id="Path_6842" data-name="Path 6842" d="M47.84,71.318a.218.218,0,0,1-.215-.17,39.857,39.857,0,0,1-.745-13.622.223.223,0,0,1,.244-.193.219.219,0,0,1,.192.244,39.381,39.381,0,0,0,.735,13.47.22.22,0,0,1-.158.267h0a.327.327,0,0,1-.051,0" transform="translate(15.925 19.589)" fill="#fff"/>
            <path id="Path_6843" data-name="Path 6843" d="M43.263,63.894a.228.228,0,0,1-.1-.023A24.653,24.653,0,0,0,30.62,61.413a.221.221,0,0,1-.235-.2.218.218,0,0,1,.2-.233h0a25.11,25.11,0,0,1,12.767,2.5.219.219,0,0,1-.1.417" transform="translate(10.382 20.814)" fill="#fff"/>
            <path id="Path_6844" data-name="Path 6844" d="M33.117,55.528a.223.223,0,0,1-.193-.125,60.438,60.438,0,0,1-4.406-13.148.22.22,0,0,1,.423-.122l.007.031a59.933,59.933,0,0,0,4.374,13.057.214.214,0,0,1-.1.287h0a.223.223,0,0,1-.093.021" transform="translate(9.741 14.342)" fill="#fff"/>
            <path id="Path_6845" data-name="Path 6845" d="M13.976,51.688a.219.219,0,0,1-.217-.22.214.214,0,0,1,.1-.178,17.67,17.67,0,0,1,12.839-2.818.219.219,0,0,1-.035.436.182.182,0,0,1-.039-.007A17.232,17.232,0,0,0,14.1,51.652a.236.236,0,0,1-.123.036" transform="translate(4.701 16.48)" fill="#fff"/>
            <path id="Path_6846" data-name="Path 6846" d="M19.491,44.351a.222.222,0,0,1-.165-.075,23.473,23.473,0,0,1-3.288-4.955.219.219,0,1,1,.386-.2,23.153,23.153,0,0,0,3.229,4.864.218.218,0,0,1-.023.307.215.215,0,0,1-.144.055" transform="translate(5.466 13.317)" fill="#fff"/>
            <path id="Path_6847" data-name="Path 6847" d="M8.309,41.83a.219.219,0,0,1-.224-.213.216.216,0,0,1,.133-.207,7.948,7.948,0,0,1,4.305-.629.22.22,0,0,1-.056.436h0a7.6,7.6,0,0,0-4.063.6.241.241,0,0,1-.091.019" transform="translate(2.762 13.91)" fill="#fff"/>
            <path id="Path_6848" data-name="Path 6848" d="M71.128,129.656h0a32.409,32.409,0,0,1-32.41-32.408V83.186h64.819V97.251a32.41,32.41,0,0,1-32.41,32.41" transform="translate(13.229 28.423)" fill="#fff"/>
            <path id="Path_6849" data-name="Path 6849" d="M130.922,74.628A.924.924,0,0,1,130,73.7V56.864a20.245,20.245,0,1,0-40.489,0V73.7a.924.924,0,1,1-1.847,0V56.864a22.093,22.093,0,1,1,44.186,0V73.7a.924.924,0,0,1-.924.924" transform="translate(29.952 11.878)" fill="#767676"/>
            <path id="Path_6850" data-name="Path 6850" d="M152.965,56.857H51.993L42.511,190.264H143.485Z" transform="translate(14.525 19.427)" fill="#ddd"/>
            <path id="Path_6851" data-name="Path 6851" d="M117.77,190.264h36.472L147.21,56.857H125.271Z" transform="translate(40.24 19.427)" fill="#ccc"/>
            <path id="Path_6852" data-name="Path 6852" d="M154.242,162.145l-19.658-22.991L117.77,162.145Z" transform="translate(40.24 47.546)" fill="#ccc"/>
            <path id="Path_6853" data-name="Path 6853" d="M130.3,167.273V56.857h12.627l7.032,133.407Z" transform="translate(44.522 19.427)" fill="#ddd"/>
            <path id="Path_6854" data-name="Path 6854" d="M77.213,64.894a4.355,4.355,0,1,1-4.355-4.355,4.355,4.355,0,0,1,4.355,4.355" transform="translate(23.406 20.685)" fill="#fff"/>
            <path id="Path_6855" data-name="Path 6855" d="M108.776,64.894a4.355,4.355,0,1,1-4.355-4.355,4.355,4.355,0,0,1,4.355,4.355" transform="translate(34.191 20.685)" fill="#fff"/>
            <path id="Path_6856" data-name="Path 6856" d="M114.325,74.628a.924.924,0,0,1-.924-.924V56.864a20.245,20.245,0,1,0-40.489,0V73.7a.924.924,0,1,1-1.847,0V56.864a22.093,22.093,0,1,1,44.186,0V73.7a.924.924,0,0,1-.924.924" transform="translate(24.281 11.878)" fill="#767676"/>
            <path id="Path_6857" data-name="Path 6857" d="M115.388,115.04v50.9a4.427,4.427,0,0,1-4.418,4.44h-71.9a4.43,4.43,0,0,1-4.44-4.44v-50.9Z" transform="translate(11.831 39.307)" fill="#ccc"/>
            <path id="Path_6858" data-name="Path 6858" d="M107.077,113.473l8.312,3.028H34.626l8.335-3.028-8.335-2.71h80.763Z" transform="translate(11.831 37.845)" fill="#b9b9b9"/>
            <path id="Path_6859" data-name="Path 6859" d="M42.951,112.789V115.8H34.627Z" transform="translate(11.832 38.538)" fill="#767676"/>
            <path id="Path_6860" data-name="Path 6860" d="M34.624,110.766V116.5l8.326-3.021Z" transform="translate(11.83 37.847)" fill="#b9b9b9"/>
            <path id="Path_6861" data-name="Path 6861" d="M88.62,112.789v3.021h8.326Z" transform="translate(30.28 38.538)" fill="#767676"/>
            <path id="Path_6862" data-name="Path 6862" d="M96.947,110.766V116.5L88.62,113.48Z" transform="translate(30.28 37.847)" fill="#b9b9b9"/>
            <path id="Path_6863" data-name="Path 6863" d="M52.663,122.66a3.321,3.321,0,1,1-3.321-3.321,3.321,3.321,0,0,1,3.321,3.321" transform="translate(15.725 40.776)" fill="#fff"/>
            <path id="Path_6864" data-name="Path 6864" d="M85.116,122.66a3.321,3.321,0,1,1-3.321-3.321,3.321,3.321,0,0,1,3.321,3.321" transform="translate(26.813 40.776)" fill="#fff"/>
            <path id="Path_6865" data-name="Path 6865" d="M92.3,131.334a1.017,1.017,0,0,1-1.017-1.017v-10.6a20.754,20.754,0,1,0-41.508,0v10.6a1.016,1.016,0,1,1-2.033,0v-10.6a22.787,22.787,0,0,1,45.574,0v10.6a1.017,1.017,0,0,1-1.017,1.017" transform="translate(16.312 33.118)" fill="#767676"/>
          </g>
        </g>
      </g>
      <text id="Category_Carousel_Heading" data-name="Category Carousel Heading" transform="translate(691 6310)" fill="#111" font-size="40" font-family="Helvetica-Bold, Helvetica" font-weight="700"><tspan x="0" y="0">Category Carousel Heading</tspan></text>
      <g id="Group_6887" data-name="Group 6887" transform="translate(-5)">
        <text id="Section_Title_Here-2" data-name="Section Title Here" transform="translate(804 6756)" fill="#575a5d" font-size="20" font-family="Helvetica"><tspan x="-78.936" y="0">Section Title Here</tspan></text>
        <rect id="_06-photo-1606417460325-bd75c8324ddc-2" data-name="06-photo-1606417460325-bd75c8324ddc" width="300" height="357" transform="translate(654 6360)" fill="#f5f5f5"/>
        <g id="Group_6850" data-name="Group 6850" transform="translate(706.76 6433.654)">
          <g id="Group_6742-2" data-name="Group 6742" clip-path="url(#clip-path)">
            <path id="Path_6820-2" data-name="Path 6820" d="M61.941,93.169c2.147-3.924,6.809-5.832,9.366-9.5,2.423-3.482,2.61-7.963,3.068-12.173s1.517-8.8,4.94-11.286c4.159-3.023,10.13-1.77,14.758-4.016,4.275-2.076,6.574-6.676,8.952-10.8s5.642-8.424,10.36-9.02c3.8-.478,7.6,1.634,11.38.981,3.663-.633,6.343-3.657,9.258-5.966s7.245-3.949,10.2-1.689c3.455,2.642,2.013,8.373-1.048,11.465s-7.291,4.951-9.928,8.411-3.427,8.161-6.657,11.026c-4.8,4.256-13.378,3.012-16.979,8.318-3.038,4.491-.566,11.165-3.64,15.636-3.69,5.367-13.23,4.516-16,10.41-1.45,3.086-.326,6.737-.888,10.095-.749,4.466-4.332,7.835-7.709,10.853a33.88,33.88,0,0,1-7.737,5.678c-6.059,2.877-13.9.71-13.083-6.725.718-6.547-1.821-15.832,1.389-21.714" transform="translate(20.592 9.779)" fill="#eaeaea"/>
            <path id="Path_6821-2" data-name="Path 6821" d="M64.328,112.644a.245.245,0,0,1-.082-.015.214.214,0,0,1-.123-.278l0-.007a148.361,148.361,0,0,1,73.7-78.278.219.219,0,0,1,.3.055.223.223,0,0,1-.054.3.37.37,0,0,1-.056.028A147.929,147.929,0,0,0,64.528,112.5a.214.214,0,0,1-.192.134" transform="translate(21.905 11.627)" fill="#fff"/>
            <path id="Path_6822-2" data-name="Path 6822" d="M74.808,76.982a.219.219,0,0,1-.1-.413,52.875,52.875,0,0,1,16.01-5.31.219.219,0,0,1,.083.429h-.013a52.406,52.406,0,0,0-15.876,5.263.251.251,0,0,1-.1.027" transform="translate(25.485 24.347)" fill="#fff"/>
            <path id="Path_6823-2" data-name="Path 6823" d="M77.771,69.734H77.73a.217.217,0,0,1-.172-.255v0a39.38,39.38,0,0,0,.364-13.484.219.219,0,1,1,.433-.064,39.756,39.756,0,0,1-.368,13.635.219.219,0,0,1-.215.176" transform="translate(26.499 19.045)" fill="#fff"/>
            <path id="Path_6824-2" data-name="Path 6824" d="M85.181,62.183a.218.218,0,0,1-.1-.412,25.167,25.167,0,0,1,12.7-2.854.219.219,0,0,1,.208.227.222.222,0,0,1-.227.207,24.684,24.684,0,0,0-12.478,2.8.228.228,0,0,1-.1.024" transform="translate(29.03 20.124)" fill="#fff"/>
            <path id="Path_6825-2" data-name="Path 6825" d="M92.909,53.543a.222.222,0,0,1-.087-.019.219.219,0,0,1-.107-.288h0a59.957,59.957,0,0,0,4.012-13.173.22.22,0,0,1,.267-.16h0a.217.217,0,0,1,.165.236,60.281,60.281,0,0,1-4.044,13.268.219.219,0,0,1-.193.134" transform="translate(31.672 13.631)" fill="#fff"/>
            <path id="Path_6826-2" data-name="Path 6826" d="M114.14,49.115a.216.216,0,0,1-.118-.034,17.235,17.235,0,0,0-12.589-2.395.219.219,0,0,1-.086-.429,17.677,17.677,0,0,1,12.91,2.461.216.216,0,0,1,.068.3h0a.216.216,0,0,1-.193.1" transform="translate(34.568 15.694)" fill="#fff"/>
            <path id="Path_6827-2" data-name="Path 6827" d="M106.005,41.994a.216.216,0,0,1-.22-.212v0a.2.2,0,0,1,.05-.142,23.093,23.093,0,0,0,3.093-4.949.219.219,0,1,1,.4.174v.009a23.458,23.458,0,0,1-3.152,5.042.213.213,0,0,1-.169.082" transform="translate(36.145 12.49)" fill="#fff"/>
            <path id="Path_6828-2" data-name="Path 6828" d="M117.379,39.156a.209.209,0,0,1-.086-.017,7.617,7.617,0,0,0-4.087-.486.216.216,0,0,1-.255-.168v0a.219.219,0,0,1,.172-.256h.013a7.945,7.945,0,0,1,4.323.51.219.219,0,0,1-.086.423" transform="translate(38.592 13.026)" fill="#fff"/>
            <path id="Path_6829-2" data-name="Path 6829" d="M53.268,109.469c1.512-3.731,4.209-7.288,3.817-11.294-.537-5.474-6.534-8.9-8-14.2-1.432-5.153,1.77-10.369,5.029-14.6s6.965-8.855,6.652-14.194c-.29-4.988-4.081-9.326-4.1-14.316-.019-4.377,2.87-8.215,6-11.27s6.708-5.82,8.795-9.674c2.168-3.983,2.482-8.7,4.226-12.863S81.636-1,85.982.231c3.676,1.034,5.53,5.233,5.691,9.043s-.877,7.587-.73,11.395c.3,7.7,5.345,15.564,2.242,22.633-2.538,5.769-10,9.15-10.292,15.444-.217,4.776,3.966,8.62,5,13.283,2.029,9.158-8.332,16.949-8.359,26.333-.013,5.545,3.6,10.446,4.642,15.886A17.9,17.9,0,0,1,78,131.193c-14.961,12.137-30.951-6.362-24.737-21.735" transform="translate(16.65 0)" fill="#ddd"/>
            <path id="Path_6830-2" data-name="Path 6830" d="M61.21,119.059H61.2a.221.221,0,0,1-.207-.235A549.421,549.421,0,0,1,80.3,7.529a.224.224,0,0,1,.268-.152.218.218,0,0,1,.15.268A548.832,548.832,0,0,0,61.43,118.854a.219.219,0,0,1-.22.2" transform="translate(20.839 2.519)" fill="#fff"/>
            <path id="Path_6831-2" data-name="Path 6831" d="M63.761,85.113a.221.221,0,0,1-.1-.027.218.218,0,0,1-.091-.294,61.531,61.531,0,0,1,8.926-12.5.222.222,0,0,1,.309-.031.219.219,0,0,1,.027.309l-.013.017A61.006,61.006,0,0,0,63.949,85a.226.226,0,0,1-.193.114" transform="translate(21.711 24.674)" fill="#fff"/>
            <path id="Path_6832-2" data-name="Path 6832" d="M63.1,73.11a.219.219,0,0,1-.215-.176A54.394,54.394,0,0,0,55.846,54.9a.219.219,0,0,1,.373-.227,54.861,54.861,0,0,1,7.093,18.182.217.217,0,0,1-.17.256H63.1" transform="translate(19.073 18.65)" fill="#fff"/>
            <path id="Path_6833-2" data-name="Path 6833" d="M65.552,66.12a.222.222,0,0,1-.22-.223.234.234,0,0,1,.032-.113A66.931,66.931,0,0,1,77.033,51.524a.218.218,0,0,1,.309.011.222.222,0,0,1-.011.313A66.655,66.655,0,0,0,65.745,66.014a.222.222,0,0,1-.193.1" transform="translate(22.323 17.585)" fill="#fff"/>
            <path id="Path_6834-2" data-name="Path 6834" d="M66.971,49.958a.219.219,0,0,1-.215-.176A67.4,67.4,0,0,0,60.3,31.542a.219.219,0,1,1,.35-.262.188.188,0,0,1,.032.06A67.9,67.9,0,0,1,67.178,49.7a.219.219,0,0,1-.17.258h-.043" transform="translate(20.59 10.658)" fill="#fff"/>
            <path id="Path_6835-2" data-name="Path 6835" d="M69.836,41.148a.218.218,0,0,1-.22-.215v0a.231.231,0,0,1,.038-.125A36.343,36.343,0,0,1,80.79,30.147a.219.219,0,0,1,.227.373,35.906,35.906,0,0,0-11,10.523.212.212,0,0,1-.182.1" transform="translate(23.786 10.292)" fill="#fff"/>
            <path id="Path_6836-2" data-name="Path 6836" d="M68.911,31.623a.218.218,0,0,1-.22-.211,32.378,32.378,0,0,0-2.677-11.8.22.22,0,1,1,.4-.176A32.851,32.851,0,0,1,69.123,31.4a.217.217,0,0,1-.209.225h0Z" transform="translate(22.55 6.595)" fill="#fff"/>
            <path id="Path_6837-2" data-name="Path 6837" d="M74,20.347a.219.219,0,0,1-.192-.326,14.919,14.919,0,0,1,6.239-6.081.22.22,0,0,1,.193.388,14.455,14.455,0,0,0-6.055,5.9.215.215,0,0,1-.193.114" transform="translate(25.211 4.76)" fill="#fff"/>
            <path id="Path_6838-2" data-name="Path 6838" d="M85.88,93.745c-2.25-3.869-6.965-5.642-9.625-9.239-2.516-3.4-2.828-7.889-3.4-12.082S71.1,63.671,67.6,61.276c-4.241-2.9-10.173-1.489-14.856-3.606-4.332-1.959-6.771-6.492-9.246-10.55s-5.874-8.266-10.6-8.728c-3.81-.373-7.559,1.843-11.349,1.293-3.675-.537-6.44-3.482-9.419-5.709S4.784,30.22,1.894,32.565C-1.5,35.3.106,40.991,3.241,44s7.421,4.747,10.154,8.124,3.652,8.064,6.962,10.834c4.915,4.126,13.457,2.644,17.2,7.857,3.164,4.407.875,11.144,4.061,15.527,3.837,5.266,13.347,4.15,16.287,9.966,1.536,3.04.51,6.727,1.161,10.063.871,4.449,4.546,7.715,8,10.64a33.724,33.724,0,0,0,7.885,5.462c6.136,2.709,13.911.33,12.891-7.081-.9-6.527,1.385-15.881-1.98-21.668" transform="translate(0 10.725)" fill="#ccc"/>
            <path id="Path_6839-2" data-name="Path 6839" d="M81.021,113.318a.222.222,0,0,1-.193-.134,147.917,147.917,0,0,0-75.6-75.989.22.22,0,0,1-.111-.288.217.217,0,0,1,.286-.113h0a148.375,148.375,0,0,1,75.828,76.217.219.219,0,0,1-.111.288.2.2,0,0,1-.087.019" transform="translate(1.741 12.565)" fill="#fff"/>
            <path id="Path_6840-2" data-name="Path 6840" d="M57.46,83.358h-.023a.218.218,0,0,1-.195-.236l.839-8.05a.22.22,0,0,1,.437.046l-.843,8.05a.219.219,0,0,1-.217.193" transform="translate(19.558 25.586)" fill="#fff"/>
            <path id="Path_6841-2" data-name="Path 6841" d="M54.891,78.37a.212.212,0,0,1-.1-.023,52.417,52.417,0,0,0-16.024-4.821.221.221,0,0,1,.059-.437A52.947,52.947,0,0,1,54.98,77.954a.216.216,0,0,1,.1.287v0a.213.213,0,0,1-.2.127" transform="translate(13.188 24.973)" fill="#fff"/>
            <path id="Path_6842-2" data-name="Path 6842" d="M47.84,71.318a.218.218,0,0,1-.215-.17,39.857,39.857,0,0,1-.745-13.622.223.223,0,0,1,.244-.193.219.219,0,0,1,.192.244,39.381,39.381,0,0,0,.735,13.47.22.22,0,0,1-.158.267h0a.327.327,0,0,1-.051,0" transform="translate(15.925 19.589)" fill="#fff"/>
            <path id="Path_6843-2" data-name="Path 6843" d="M43.263,63.894a.228.228,0,0,1-.1-.023A24.653,24.653,0,0,0,30.62,61.413a.221.221,0,0,1-.235-.2.218.218,0,0,1,.2-.233h0a25.11,25.11,0,0,1,12.767,2.5.219.219,0,0,1-.1.417" transform="translate(10.382 20.814)" fill="#fff"/>
            <path id="Path_6844-2" data-name="Path 6844" d="M33.117,55.528a.223.223,0,0,1-.193-.125,60.438,60.438,0,0,1-4.406-13.148.22.22,0,0,1,.423-.122l.007.031a59.933,59.933,0,0,0,4.374,13.057.214.214,0,0,1-.1.287h0a.223.223,0,0,1-.093.021" transform="translate(9.741 14.342)" fill="#fff"/>
            <path id="Path_6845-2" data-name="Path 6845" d="M13.976,51.688a.219.219,0,0,1-.217-.22.214.214,0,0,1,.1-.178,17.67,17.67,0,0,1,12.839-2.818.219.219,0,0,1-.035.436.182.182,0,0,1-.039-.007A17.232,17.232,0,0,0,14.1,51.652a.236.236,0,0,1-.123.036" transform="translate(4.701 16.48)" fill="#fff"/>
            <path id="Path_6846-2" data-name="Path 6846" d="M19.491,44.351a.222.222,0,0,1-.165-.075,23.473,23.473,0,0,1-3.288-4.955.219.219,0,1,1,.386-.2,23.153,23.153,0,0,0,3.229,4.864.218.218,0,0,1-.023.307.215.215,0,0,1-.144.055" transform="translate(5.466 13.317)" fill="#fff"/>
            <path id="Path_6847-2" data-name="Path 6847" d="M8.309,41.83a.219.219,0,0,1-.224-.213.216.216,0,0,1,.133-.207,7.948,7.948,0,0,1,4.305-.629.22.22,0,0,1-.056.436h0a7.6,7.6,0,0,0-4.063.6.241.241,0,0,1-.091.019" transform="translate(2.762 13.91)" fill="#fff"/>
            <path id="Path_6848-2" data-name="Path 6848" d="M71.128,129.656h0a32.409,32.409,0,0,1-32.41-32.408V83.186h64.819V97.251a32.41,32.41,0,0,1-32.41,32.41" transform="translate(13.229 28.423)" fill="#fff"/>
            <path id="Path_6849-2" data-name="Path 6849" d="M130.922,74.628A.924.924,0,0,1,130,73.7V56.864a20.245,20.245,0,1,0-40.489,0V73.7a.924.924,0,1,1-1.847,0V56.864a22.093,22.093,0,1,1,44.186,0V73.7a.924.924,0,0,1-.924.924" transform="translate(29.952 11.878)" fill="#767676"/>
            <path id="Path_6850-2" data-name="Path 6850" d="M152.965,56.857H51.993L42.511,190.264H143.485Z" transform="translate(14.525 19.427)" fill="#ddd"/>
            <path id="Path_6851-2" data-name="Path 6851" d="M117.77,190.264h36.472L147.21,56.857H125.271Z" transform="translate(40.24 19.427)" fill="#ccc"/>
            <path id="Path_6852-2" data-name="Path 6852" d="M154.242,162.145l-19.658-22.991L117.77,162.145Z" transform="translate(40.24 47.546)" fill="#ccc"/>
            <path id="Path_6853-2" data-name="Path 6853" d="M130.3,167.273V56.857h12.627l7.032,133.407Z" transform="translate(44.522 19.427)" fill="#ddd"/>
            <path id="Path_6854-2" data-name="Path 6854" d="M77.213,64.894a4.355,4.355,0,1,1-4.355-4.355,4.355,4.355,0,0,1,4.355,4.355" transform="translate(23.406 20.685)" fill="#fff"/>
            <path id="Path_6855-2" data-name="Path 6855" d="M108.776,64.894a4.355,4.355,0,1,1-4.355-4.355,4.355,4.355,0,0,1,4.355,4.355" transform="translate(34.191 20.685)" fill="#fff"/>
            <path id="Path_6856-2" data-name="Path 6856" d="M114.325,74.628a.924.924,0,0,1-.924-.924V56.864a20.245,20.245,0,1,0-40.489,0V73.7a.924.924,0,1,1-1.847,0V56.864a22.093,22.093,0,1,1,44.186,0V73.7a.924.924,0,0,1-.924.924" transform="translate(24.281 11.878)" fill="#767676"/>
            <path id="Path_6857-2" data-name="Path 6857" d="M115.388,115.04v50.9a4.427,4.427,0,0,1-4.418,4.44h-71.9a4.43,4.43,0,0,1-4.44-4.44v-50.9Z" transform="translate(11.831 39.307)" fill="#ccc"/>
            <path id="Path_6858-2" data-name="Path 6858" d="M107.077,113.473l8.312,3.028H34.626l8.335-3.028-8.335-2.71h80.763Z" transform="translate(11.831 37.845)" fill="#b9b9b9"/>
            <path id="Path_6859-2" data-name="Path 6859" d="M42.951,112.789V115.8H34.627Z" transform="translate(11.832 38.538)" fill="#767676"/>
            <path id="Path_6860-2" data-name="Path 6860" d="M34.624,110.766V116.5l8.326-3.021Z" transform="translate(11.83 37.847)" fill="#b9b9b9"/>
            <path id="Path_6861-2" data-name="Path 6861" d="M88.62,112.789v3.021h8.326Z" transform="translate(30.28 38.538)" fill="#767676"/>
            <path id="Path_6862-2" data-name="Path 6862" d="M96.947,110.766V116.5L88.62,113.48Z" transform="translate(30.28 37.847)" fill="#b9b9b9"/>
            <path id="Path_6863-2" data-name="Path 6863" d="M52.663,122.66a3.321,3.321,0,1,1-3.321-3.321,3.321,3.321,0,0,1,3.321,3.321" transform="translate(15.725 40.776)" fill="#fff"/>
            <path id="Path_6864-2" data-name="Path 6864" d="M85.116,122.66a3.321,3.321,0,1,1-3.321-3.321,3.321,3.321,0,0,1,3.321,3.321" transform="translate(26.813 40.776)" fill="#fff"/>
            <path id="Path_6865-2" data-name="Path 6865" d="M92.3,131.334a1.017,1.017,0,0,1-1.017-1.017v-10.6a20.754,20.754,0,1,0-41.508,0v10.6a1.016,1.016,0,1,1-2.033,0v-10.6a22.787,22.787,0,0,1,45.574,0v10.6a1.017,1.017,0,0,1-1.017,1.017" transform="translate(16.312 33.118)" fill="#767676"/>
          </g>
        </g>
      </g>
      <g id="Group_6890" data-name="Group 6890" transform="translate(2)">
        <g id="Group_6888" data-name="Group 6888">
          <text id="Section_Title_Here-3" data-name="Section Title Here" transform="translate(1119 6756)" fill="#575a5d" font-size="20" font-family="Helvetica"><tspan x="-78.936" y="0">Section Title Here</tspan></text>
          <rect id="_06-photo-1606417460325-bd75c8324ddc-3" data-name="06-photo-1606417460325-bd75c8324ddc" width="300" height="357" transform="translate(969 6360)" fill="#f5f5f5"/>
        </g>
        <g id="Group_6851" data-name="Group 6851" transform="translate(1021.76 6433.654)">
          <g id="Group_6742-3" data-name="Group 6742" clip-path="url(#clip-path)">
            <path id="Path_6820-3" data-name="Path 6820" d="M61.941,93.169c2.147-3.924,6.809-5.832,9.366-9.5,2.423-3.482,2.61-7.963,3.068-12.173s1.517-8.8,4.94-11.286c4.159-3.023,10.13-1.77,14.758-4.016,4.275-2.076,6.574-6.676,8.952-10.8s5.642-8.424,10.36-9.02c3.8-.478,7.6,1.634,11.38.981,3.663-.633,6.343-3.657,9.258-5.966s7.245-3.949,10.2-1.689c3.455,2.642,2.013,8.373-1.048,11.465s-7.291,4.951-9.928,8.411-3.427,8.161-6.657,11.026c-4.8,4.256-13.378,3.012-16.979,8.318-3.038,4.491-.566,11.165-3.64,15.636-3.69,5.367-13.23,4.516-16,10.41-1.45,3.086-.326,6.737-.888,10.095-.749,4.466-4.332,7.835-7.709,10.853a33.88,33.88,0,0,1-7.737,5.678c-6.059,2.877-13.9.71-13.083-6.725.718-6.547-1.821-15.832,1.389-21.714" transform="translate(20.592 9.779)" fill="#eaeaea"/>
            <path id="Path_6821-3" data-name="Path 6821" d="M64.328,112.644a.245.245,0,0,1-.082-.015.214.214,0,0,1-.123-.278l0-.007a148.361,148.361,0,0,1,73.7-78.278.219.219,0,0,1,.3.055.223.223,0,0,1-.054.3.37.37,0,0,1-.056.028A147.929,147.929,0,0,0,64.528,112.5a.214.214,0,0,1-.192.134" transform="translate(21.905 11.627)" fill="#fff"/>
            <path id="Path_6822-3" data-name="Path 6822" d="M74.808,76.982a.219.219,0,0,1-.1-.413,52.875,52.875,0,0,1,16.01-5.31.219.219,0,0,1,.083.429h-.013a52.406,52.406,0,0,0-15.876,5.263.251.251,0,0,1-.1.027" transform="translate(25.485 24.347)" fill="#fff"/>
            <path id="Path_6823-3" data-name="Path 6823" d="M77.771,69.734H77.73a.217.217,0,0,1-.172-.255v0a39.38,39.38,0,0,0,.364-13.484.219.219,0,1,1,.433-.064,39.756,39.756,0,0,1-.368,13.635.219.219,0,0,1-.215.176" transform="translate(26.499 19.045)" fill="#fff"/>
            <path id="Path_6824-3" data-name="Path 6824" d="M85.181,62.183a.218.218,0,0,1-.1-.412,25.167,25.167,0,0,1,12.7-2.854.219.219,0,0,1,.208.227.222.222,0,0,1-.227.207,24.684,24.684,0,0,0-12.478,2.8.228.228,0,0,1-.1.024" transform="translate(29.03 20.124)" fill="#fff"/>
            <path id="Path_6825-3" data-name="Path 6825" d="M92.909,53.543a.222.222,0,0,1-.087-.019.219.219,0,0,1-.107-.288h0a59.957,59.957,0,0,0,4.012-13.173.22.22,0,0,1,.267-.16h0a.217.217,0,0,1,.165.236,60.281,60.281,0,0,1-4.044,13.268.219.219,0,0,1-.193.134" transform="translate(31.672 13.631)" fill="#fff"/>
            <path id="Path_6826-3" data-name="Path 6826" d="M114.14,49.115a.216.216,0,0,1-.118-.034,17.235,17.235,0,0,0-12.589-2.395.219.219,0,0,1-.086-.429,17.677,17.677,0,0,1,12.91,2.461.216.216,0,0,1,.068.3h0a.216.216,0,0,1-.193.1" transform="translate(34.568 15.694)" fill="#fff"/>
            <path id="Path_6827-3" data-name="Path 6827" d="M106.005,41.994a.216.216,0,0,1-.22-.212v0a.2.2,0,0,1,.05-.142,23.093,23.093,0,0,0,3.093-4.949.219.219,0,1,1,.4.174v.009a23.458,23.458,0,0,1-3.152,5.042.213.213,0,0,1-.169.082" transform="translate(36.145 12.49)" fill="#fff"/>
            <path id="Path_6828-3" data-name="Path 6828" d="M117.379,39.156a.209.209,0,0,1-.086-.017,7.617,7.617,0,0,0-4.087-.486.216.216,0,0,1-.255-.168v0a.219.219,0,0,1,.172-.256h.013a7.945,7.945,0,0,1,4.323.51.219.219,0,0,1-.086.423" transform="translate(38.592 13.026)" fill="#fff"/>
            <path id="Path_6829-3" data-name="Path 6829" d="M53.268,109.469c1.512-3.731,4.209-7.288,3.817-11.294-.537-5.474-6.534-8.9-8-14.2-1.432-5.153,1.77-10.369,5.029-14.6s6.965-8.855,6.652-14.194c-.29-4.988-4.081-9.326-4.1-14.316-.019-4.377,2.87-8.215,6-11.27s6.708-5.82,8.795-9.674c2.168-3.983,2.482-8.7,4.226-12.863S81.636-1,85.982.231c3.676,1.034,5.53,5.233,5.691,9.043s-.877,7.587-.73,11.395c.3,7.7,5.345,15.564,2.242,22.633-2.538,5.769-10,9.15-10.292,15.444-.217,4.776,3.966,8.62,5,13.283,2.029,9.158-8.332,16.949-8.359,26.333-.013,5.545,3.6,10.446,4.642,15.886A17.9,17.9,0,0,1,78,131.193c-14.961,12.137-30.951-6.362-24.737-21.735" transform="translate(16.65 0)" fill="#ddd"/>
            <path id="Path_6830-3" data-name="Path 6830" d="M61.21,119.059H61.2a.221.221,0,0,1-.207-.235A549.421,549.421,0,0,1,80.3,7.529a.224.224,0,0,1,.268-.152.218.218,0,0,1,.15.268A548.832,548.832,0,0,0,61.43,118.854a.219.219,0,0,1-.22.2" transform="translate(20.839 2.519)" fill="#fff"/>
            <path id="Path_6831-3" data-name="Path 6831" d="M63.761,85.113a.221.221,0,0,1-.1-.027.218.218,0,0,1-.091-.294,61.531,61.531,0,0,1,8.926-12.5.222.222,0,0,1,.309-.031.219.219,0,0,1,.027.309l-.013.017A61.006,61.006,0,0,0,63.949,85a.226.226,0,0,1-.193.114" transform="translate(21.711 24.674)" fill="#fff"/>
            <path id="Path_6832-3" data-name="Path 6832" d="M63.1,73.11a.219.219,0,0,1-.215-.176A54.394,54.394,0,0,0,55.846,54.9a.219.219,0,0,1,.373-.227,54.861,54.861,0,0,1,7.093,18.182.217.217,0,0,1-.17.256H63.1" transform="translate(19.073 18.65)" fill="#fff"/>
            <path id="Path_6833-3" data-name="Path 6833" d="M65.552,66.12a.222.222,0,0,1-.22-.223.234.234,0,0,1,.032-.113A66.931,66.931,0,0,1,77.033,51.524a.218.218,0,0,1,.309.011.222.222,0,0,1-.011.313A66.655,66.655,0,0,0,65.745,66.014a.222.222,0,0,1-.193.1" transform="translate(22.323 17.585)" fill="#fff"/>
            <path id="Path_6834-3" data-name="Path 6834" d="M66.971,49.958a.219.219,0,0,1-.215-.176A67.4,67.4,0,0,0,60.3,31.542a.219.219,0,1,1,.35-.262.188.188,0,0,1,.032.06A67.9,67.9,0,0,1,67.178,49.7a.219.219,0,0,1-.17.258h-.043" transform="translate(20.59 10.658)" fill="#fff"/>
            <path id="Path_6835-3" data-name="Path 6835" d="M69.836,41.148a.218.218,0,0,1-.22-.215v0a.231.231,0,0,1,.038-.125A36.343,36.343,0,0,1,80.79,30.147a.219.219,0,0,1,.227.373,35.906,35.906,0,0,0-11,10.523.212.212,0,0,1-.182.1" transform="translate(23.786 10.292)" fill="#fff"/>
            <path id="Path_6836-3" data-name="Path 6836" d="M68.911,31.623a.218.218,0,0,1-.22-.211,32.378,32.378,0,0,0-2.677-11.8.22.22,0,1,1,.4-.176A32.851,32.851,0,0,1,69.123,31.4a.217.217,0,0,1-.209.225h0Z" transform="translate(22.55 6.595)" fill="#fff"/>
            <path id="Path_6837-3" data-name="Path 6837" d="M74,20.347a.219.219,0,0,1-.192-.326,14.919,14.919,0,0,1,6.239-6.081.22.22,0,0,1,.193.388,14.455,14.455,0,0,0-6.055,5.9.215.215,0,0,1-.193.114" transform="translate(25.211 4.76)" fill="#fff"/>
            <path id="Path_6838-3" data-name="Path 6838" d="M85.88,93.745c-2.25-3.869-6.965-5.642-9.625-9.239-2.516-3.4-2.828-7.889-3.4-12.082S71.1,63.671,67.6,61.276c-4.241-2.9-10.173-1.489-14.856-3.606-4.332-1.959-6.771-6.492-9.246-10.55s-5.874-8.266-10.6-8.728c-3.81-.373-7.559,1.843-11.349,1.293-3.675-.537-6.44-3.482-9.419-5.709S4.784,30.22,1.894,32.565C-1.5,35.3.106,40.991,3.241,44s7.421,4.747,10.154,8.124,3.652,8.064,6.962,10.834c4.915,4.126,13.457,2.644,17.2,7.857,3.164,4.407.875,11.144,4.061,15.527,3.837,5.266,13.347,4.15,16.287,9.966,1.536,3.04.51,6.727,1.161,10.063.871,4.449,4.546,7.715,8,10.64a33.724,33.724,0,0,0,7.885,5.462c6.136,2.709,13.911.33,12.891-7.081-.9-6.527,1.385-15.881-1.98-21.668" transform="translate(0 10.725)" fill="#ccc"/>
            <path id="Path_6839-3" data-name="Path 6839" d="M81.021,113.318a.222.222,0,0,1-.193-.134,147.917,147.917,0,0,0-75.6-75.989.22.22,0,0,1-.111-.288.217.217,0,0,1,.286-.113h0a148.375,148.375,0,0,1,75.828,76.217.219.219,0,0,1-.111.288.2.2,0,0,1-.087.019" transform="translate(1.741 12.565)" fill="#fff"/>
            <path id="Path_6840-3" data-name="Path 6840" d="M57.46,83.358h-.023a.218.218,0,0,1-.195-.236l.839-8.05a.22.22,0,0,1,.437.046l-.843,8.05a.219.219,0,0,1-.217.193" transform="translate(19.558 25.586)" fill="#fff"/>
            <path id="Path_6841-3" data-name="Path 6841" d="M54.891,78.37a.212.212,0,0,1-.1-.023,52.417,52.417,0,0,0-16.024-4.821.221.221,0,0,1,.059-.437A52.947,52.947,0,0,1,54.98,77.954a.216.216,0,0,1,.1.287v0a.213.213,0,0,1-.2.127" transform="translate(13.188 24.973)" fill="#fff"/>
            <path id="Path_6842-3" data-name="Path 6842" d="M47.84,71.318a.218.218,0,0,1-.215-.17,39.857,39.857,0,0,1-.745-13.622.223.223,0,0,1,.244-.193.219.219,0,0,1,.192.244,39.381,39.381,0,0,0,.735,13.47.22.22,0,0,1-.158.267h0a.327.327,0,0,1-.051,0" transform="translate(15.925 19.589)" fill="#fff"/>
            <path id="Path_6843-3" data-name="Path 6843" d="M43.263,63.894a.228.228,0,0,1-.1-.023A24.653,24.653,0,0,0,30.62,61.413a.221.221,0,0,1-.235-.2.218.218,0,0,1,.2-.233h0a25.11,25.11,0,0,1,12.767,2.5.219.219,0,0,1-.1.417" transform="translate(10.382 20.814)" fill="#fff"/>
            <path id="Path_6844-3" data-name="Path 6844" d="M33.117,55.528a.223.223,0,0,1-.193-.125,60.438,60.438,0,0,1-4.406-13.148.22.22,0,0,1,.423-.122l.007.031a59.933,59.933,0,0,0,4.374,13.057.214.214,0,0,1-.1.287h0a.223.223,0,0,1-.093.021" transform="translate(9.741 14.342)" fill="#fff"/>
            <path id="Path_6845-3" data-name="Path 6845" d="M13.976,51.688a.219.219,0,0,1-.217-.22.214.214,0,0,1,.1-.178,17.67,17.67,0,0,1,12.839-2.818.219.219,0,0,1-.035.436.182.182,0,0,1-.039-.007A17.232,17.232,0,0,0,14.1,51.652a.236.236,0,0,1-.123.036" transform="translate(4.701 16.48)" fill="#fff"/>
            <path id="Path_6846-3" data-name="Path 6846" d="M19.491,44.351a.222.222,0,0,1-.165-.075,23.473,23.473,0,0,1-3.288-4.955.219.219,0,1,1,.386-.2,23.153,23.153,0,0,0,3.229,4.864.218.218,0,0,1-.023.307.215.215,0,0,1-.144.055" transform="translate(5.466 13.317)" fill="#fff"/>
            <path id="Path_6847-3" data-name="Path 6847" d="M8.309,41.83a.219.219,0,0,1-.224-.213.216.216,0,0,1,.133-.207,7.948,7.948,0,0,1,4.305-.629.22.22,0,0,1-.056.436h0a7.6,7.6,0,0,0-4.063.6.241.241,0,0,1-.091.019" transform="translate(2.762 13.91)" fill="#fff"/>
            <path id="Path_6848-3" data-name="Path 6848" d="M71.128,129.656h0a32.409,32.409,0,0,1-32.41-32.408V83.186h64.819V97.251a32.41,32.41,0,0,1-32.41,32.41" transform="translate(13.229 28.423)" fill="#fff"/>
            <path id="Path_6849-3" data-name="Path 6849" d="M130.922,74.628A.924.924,0,0,1,130,73.7V56.864a20.245,20.245,0,1,0-40.489,0V73.7a.924.924,0,1,1-1.847,0V56.864a22.093,22.093,0,1,1,44.186,0V73.7a.924.924,0,0,1-.924.924" transform="translate(29.952 11.878)" fill="#767676"/>
            <path id="Path_6850-3" data-name="Path 6850" d="M152.965,56.857H51.993L42.511,190.264H143.485Z" transform="translate(14.525 19.427)" fill="#ddd"/>
            <path id="Path_6851-3" data-name="Path 6851" d="M117.77,190.264h36.472L147.21,56.857H125.271Z" transform="translate(40.24 19.427)" fill="#ccc"/>
            <path id="Path_6852-3" data-name="Path 6852" d="M154.242,162.145l-19.658-22.991L117.77,162.145Z" transform="translate(40.24 47.546)" fill="#ccc"/>
            <path id="Path_6853-3" data-name="Path 6853" d="M130.3,167.273V56.857h12.627l7.032,133.407Z" transform="translate(44.522 19.427)" fill="#ddd"/>
            <path id="Path_6854-3" data-name="Path 6854" d="M77.213,64.894a4.355,4.355,0,1,1-4.355-4.355,4.355,4.355,0,0,1,4.355,4.355" transform="translate(23.406 20.685)" fill="#fff"/>
            <path id="Path_6855-3" data-name="Path 6855" d="M108.776,64.894a4.355,4.355,0,1,1-4.355-4.355,4.355,4.355,0,0,1,4.355,4.355" transform="translate(34.191 20.685)" fill="#fff"/>
            <path id="Path_6856-3" data-name="Path 6856" d="M114.325,74.628a.924.924,0,0,1-.924-.924V56.864a20.245,20.245,0,1,0-40.489,0V73.7a.924.924,0,1,1-1.847,0V56.864a22.093,22.093,0,1,1,44.186,0V73.7a.924.924,0,0,1-.924.924" transform="translate(24.281 11.878)" fill="#767676"/>
            <path id="Path_6857-3" data-name="Path 6857" d="M115.388,115.04v50.9a4.427,4.427,0,0,1-4.418,4.44h-71.9a4.43,4.43,0,0,1-4.44-4.44v-50.9Z" transform="translate(11.831 39.307)" fill="#ccc"/>
            <path id="Path_6858-3" data-name="Path 6858" d="M107.077,113.473l8.312,3.028H34.626l8.335-3.028-8.335-2.71h80.763Z" transform="translate(11.831 37.845)" fill="#b9b9b9"/>
            <path id="Path_6859-3" data-name="Path 6859" d="M42.951,112.789V115.8H34.627Z" transform="translate(11.832 38.538)" fill="#767676"/>
            <path id="Path_6860-3" data-name="Path 6860" d="M34.624,110.766V116.5l8.326-3.021Z" transform="translate(11.83 37.847)" fill="#b9b9b9"/>
            <path id="Path_6861-3" data-name="Path 6861" d="M88.62,112.789v3.021h8.326Z" transform="translate(30.28 38.538)" fill="#767676"/>
            <path id="Path_6862-3" data-name="Path 6862" d="M96.947,110.766V116.5L88.62,113.48Z" transform="translate(30.28 37.847)" fill="#b9b9b9"/>
            <path id="Path_6863-3" data-name="Path 6863" d="M52.663,122.66a3.321,3.321,0,1,1-3.321-3.321,3.321,3.321,0,0,1,3.321,3.321" transform="translate(15.725 40.776)" fill="#fff"/>
            <path id="Path_6864-3" data-name="Path 6864" d="M85.116,122.66a3.321,3.321,0,1,1-3.321-3.321,3.321,3.321,0,0,1,3.321,3.321" transform="translate(26.813 40.776)" fill="#fff"/>
            <path id="Path_6865-3" data-name="Path 6865" d="M92.3,131.334a1.017,1.017,0,0,1-1.017-1.017v-10.6a20.754,20.754,0,1,0-41.508,0v10.6a1.016,1.016,0,1,1-2.033,0v-10.6a22.787,22.787,0,0,1,45.574,0v10.6a1.017,1.017,0,0,1-1.017,1.017" transform="translate(16.312 33.118)" fill="#767676"/>
          </g>
        </g>
      </g>
      <g id="Group_6889" data-name="Group 6889" transform="translate(9)">
        <text id="Section_Title_Here-4" data-name="Section Title Here" transform="translate(1433 6756)" fill="#575a5d" font-size="20" font-family="Helvetica"><tspan x="-78.936" y="0">Section Title Here</tspan></text>
        <rect id="_06-photo-1606417460325-bd75c8324ddc-4" data-name="06-photo-1606417460325-bd75c8324ddc" width="300" height="357" transform="translate(1283 6360)" fill="#f5f5f5"/>
        <g id="Group_6852" data-name="Group 6852" transform="translate(1335.76 6433.654)">
          <g id="Group_6742-4" data-name="Group 6742" clip-path="url(#clip-path)">
            <path id="Path_6820-4" data-name="Path 6820" d="M61.941,93.169c2.147-3.924,6.809-5.832,9.366-9.5,2.423-3.482,2.61-7.963,3.068-12.173s1.517-8.8,4.94-11.286c4.159-3.023,10.13-1.77,14.758-4.016,4.275-2.076,6.574-6.676,8.952-10.8s5.642-8.424,10.36-9.02c3.8-.478,7.6,1.634,11.38.981,3.663-.633,6.343-3.657,9.258-5.966s7.245-3.949,10.2-1.689c3.455,2.642,2.013,8.373-1.048,11.465s-7.291,4.951-9.928,8.411-3.427,8.161-6.657,11.026c-4.8,4.256-13.378,3.012-16.979,8.318-3.038,4.491-.566,11.165-3.64,15.636-3.69,5.367-13.23,4.516-16,10.41-1.45,3.086-.326,6.737-.888,10.095-.749,4.466-4.332,7.835-7.709,10.853a33.88,33.88,0,0,1-7.737,5.678c-6.059,2.877-13.9.71-13.083-6.725.718-6.547-1.821-15.832,1.389-21.714" transform="translate(20.592 9.779)" fill="#eaeaea"/>
            <path id="Path_6821-4" data-name="Path 6821" d="M64.328,112.644a.245.245,0,0,1-.082-.015.214.214,0,0,1-.123-.278l0-.007a148.361,148.361,0,0,1,73.7-78.278.219.219,0,0,1,.3.055.223.223,0,0,1-.054.3.37.37,0,0,1-.056.028A147.929,147.929,0,0,0,64.528,112.5a.214.214,0,0,1-.192.134" transform="translate(21.905 11.627)" fill="#fff"/>
            <path id="Path_6822-4" data-name="Path 6822" d="M74.808,76.982a.219.219,0,0,1-.1-.413,52.875,52.875,0,0,1,16.01-5.31.219.219,0,0,1,.083.429h-.013a52.406,52.406,0,0,0-15.876,5.263.251.251,0,0,1-.1.027" transform="translate(25.485 24.347)" fill="#fff"/>
            <path id="Path_6823-4" data-name="Path 6823" d="M77.771,69.734H77.73a.217.217,0,0,1-.172-.255v0a39.38,39.38,0,0,0,.364-13.484.219.219,0,1,1,.433-.064,39.756,39.756,0,0,1-.368,13.635.219.219,0,0,1-.215.176" transform="translate(26.499 19.045)" fill="#fff"/>
            <path id="Path_6824-4" data-name="Path 6824" d="M85.181,62.183a.218.218,0,0,1-.1-.412,25.167,25.167,0,0,1,12.7-2.854.219.219,0,0,1,.208.227.222.222,0,0,1-.227.207,24.684,24.684,0,0,0-12.478,2.8.228.228,0,0,1-.1.024" transform="translate(29.03 20.124)" fill="#fff"/>
            <path id="Path_6825-4" data-name="Path 6825" d="M92.909,53.543a.222.222,0,0,1-.087-.019.219.219,0,0,1-.107-.288h0a59.957,59.957,0,0,0,4.012-13.173.22.22,0,0,1,.267-.16h0a.217.217,0,0,1,.165.236,60.281,60.281,0,0,1-4.044,13.268.219.219,0,0,1-.193.134" transform="translate(31.672 13.631)" fill="#fff"/>
            <path id="Path_6826-4" data-name="Path 6826" d="M114.14,49.115a.216.216,0,0,1-.118-.034,17.235,17.235,0,0,0-12.589-2.395.219.219,0,0,1-.086-.429,17.677,17.677,0,0,1,12.91,2.461.216.216,0,0,1,.068.3h0a.216.216,0,0,1-.193.1" transform="translate(34.568 15.694)" fill="#fff"/>
            <path id="Path_6827-4" data-name="Path 6827" d="M106.005,41.994a.216.216,0,0,1-.22-.212v0a.2.2,0,0,1,.05-.142,23.093,23.093,0,0,0,3.093-4.949.219.219,0,1,1,.4.174v.009a23.458,23.458,0,0,1-3.152,5.042.213.213,0,0,1-.169.082" transform="translate(36.145 12.49)" fill="#fff"/>
            <path id="Path_6828-4" data-name="Path 6828" d="M117.379,39.156a.209.209,0,0,1-.086-.017,7.617,7.617,0,0,0-4.087-.486.216.216,0,0,1-.255-.168v0a.219.219,0,0,1,.172-.256h.013a7.945,7.945,0,0,1,4.323.51.219.219,0,0,1-.086.423" transform="translate(38.592 13.026)" fill="#fff"/>
            <path id="Path_6829-4" data-name="Path 6829" d="M53.268,109.469c1.512-3.731,4.209-7.288,3.817-11.294-.537-5.474-6.534-8.9-8-14.2-1.432-5.153,1.77-10.369,5.029-14.6s6.965-8.855,6.652-14.194c-.29-4.988-4.081-9.326-4.1-14.316-.019-4.377,2.87-8.215,6-11.27s6.708-5.82,8.795-9.674c2.168-3.983,2.482-8.7,4.226-12.863S81.636-1,85.982.231c3.676,1.034,5.53,5.233,5.691,9.043s-.877,7.587-.73,11.395c.3,7.7,5.345,15.564,2.242,22.633-2.538,5.769-10,9.15-10.292,15.444-.217,4.776,3.966,8.62,5,13.283,2.029,9.158-8.332,16.949-8.359,26.333-.013,5.545,3.6,10.446,4.642,15.886A17.9,17.9,0,0,1,78,131.193c-14.961,12.137-30.951-6.362-24.737-21.735" transform="translate(16.65 0)" fill="#ddd"/>
            <path id="Path_6830-4" data-name="Path 6830" d="M61.21,119.059H61.2a.221.221,0,0,1-.207-.235A549.421,549.421,0,0,1,80.3,7.529a.224.224,0,0,1,.268-.152.218.218,0,0,1,.15.268A548.832,548.832,0,0,0,61.43,118.854a.219.219,0,0,1-.22.2" transform="translate(20.839 2.519)" fill="#fff"/>
            <path id="Path_6831-4" data-name="Path 6831" d="M63.761,85.113a.221.221,0,0,1-.1-.027.218.218,0,0,1-.091-.294,61.531,61.531,0,0,1,8.926-12.5.222.222,0,0,1,.309-.031.219.219,0,0,1,.027.309l-.013.017A61.006,61.006,0,0,0,63.949,85a.226.226,0,0,1-.193.114" transform="translate(21.711 24.674)" fill="#fff"/>
            <path id="Path_6832-4" data-name="Path 6832" d="M63.1,73.11a.219.219,0,0,1-.215-.176A54.394,54.394,0,0,0,55.846,54.9a.219.219,0,0,1,.373-.227,54.861,54.861,0,0,1,7.093,18.182.217.217,0,0,1-.17.256H63.1" transform="translate(19.073 18.65)" fill="#fff"/>
            <path id="Path_6833-4" data-name="Path 6833" d="M65.552,66.12a.222.222,0,0,1-.22-.223.234.234,0,0,1,.032-.113A66.931,66.931,0,0,1,77.033,51.524a.218.218,0,0,1,.309.011.222.222,0,0,1-.011.313A66.655,66.655,0,0,0,65.745,66.014a.222.222,0,0,1-.193.1" transform="translate(22.323 17.585)" fill="#fff"/>
            <path id="Path_6834-4" data-name="Path 6834" d="M66.971,49.958a.219.219,0,0,1-.215-.176A67.4,67.4,0,0,0,60.3,31.542a.219.219,0,1,1,.35-.262.188.188,0,0,1,.032.06A67.9,67.9,0,0,1,67.178,49.7a.219.219,0,0,1-.17.258h-.043" transform="translate(20.59 10.658)" fill="#fff"/>
            <path id="Path_6835-4" data-name="Path 6835" d="M69.836,41.148a.218.218,0,0,1-.22-.215v0a.231.231,0,0,1,.038-.125A36.343,36.343,0,0,1,80.79,30.147a.219.219,0,0,1,.227.373,35.906,35.906,0,0,0-11,10.523.212.212,0,0,1-.182.1" transform="translate(23.786 10.292)" fill="#fff"/>
            <path id="Path_6836-4" data-name="Path 6836" d="M68.911,31.623a.218.218,0,0,1-.22-.211,32.378,32.378,0,0,0-2.677-11.8.22.22,0,1,1,.4-.176A32.851,32.851,0,0,1,69.123,31.4a.217.217,0,0,1-.209.225h0Z" transform="translate(22.55 6.595)" fill="#fff"/>
            <path id="Path_6837-4" data-name="Path 6837" d="M74,20.347a.219.219,0,0,1-.192-.326,14.919,14.919,0,0,1,6.239-6.081.22.22,0,0,1,.193.388,14.455,14.455,0,0,0-6.055,5.9.215.215,0,0,1-.193.114" transform="translate(25.211 4.76)" fill="#fff"/>
            <path id="Path_6838-4" data-name="Path 6838" d="M85.88,93.745c-2.25-3.869-6.965-5.642-9.625-9.239-2.516-3.4-2.828-7.889-3.4-12.082S71.1,63.671,67.6,61.276c-4.241-2.9-10.173-1.489-14.856-3.606-4.332-1.959-6.771-6.492-9.246-10.55s-5.874-8.266-10.6-8.728c-3.81-.373-7.559,1.843-11.349,1.293-3.675-.537-6.44-3.482-9.419-5.709S4.784,30.22,1.894,32.565C-1.5,35.3.106,40.991,3.241,44s7.421,4.747,10.154,8.124,3.652,8.064,6.962,10.834c4.915,4.126,13.457,2.644,17.2,7.857,3.164,4.407.875,11.144,4.061,15.527,3.837,5.266,13.347,4.15,16.287,9.966,1.536,3.04.51,6.727,1.161,10.063.871,4.449,4.546,7.715,8,10.64a33.724,33.724,0,0,0,7.885,5.462c6.136,2.709,13.911.33,12.891-7.081-.9-6.527,1.385-15.881-1.98-21.668" transform="translate(0 10.725)" fill="#ccc"/>
            <path id="Path_6839-4" data-name="Path 6839" d="M81.021,113.318a.222.222,0,0,1-.193-.134,147.917,147.917,0,0,0-75.6-75.989.22.22,0,0,1-.111-.288.217.217,0,0,1,.286-.113h0a148.375,148.375,0,0,1,75.828,76.217.219.219,0,0,1-.111.288.2.2,0,0,1-.087.019" transform="translate(1.741 12.565)" fill="#fff"/>
            <path id="Path_6840-4" data-name="Path 6840" d="M57.46,83.358h-.023a.218.218,0,0,1-.195-.236l.839-8.05a.22.22,0,0,1,.437.046l-.843,8.05a.219.219,0,0,1-.217.193" transform="translate(19.558 25.586)" fill="#fff"/>
            <path id="Path_6841-4" data-name="Path 6841" d="M54.891,78.37a.212.212,0,0,1-.1-.023,52.417,52.417,0,0,0-16.024-4.821.221.221,0,0,1,.059-.437A52.947,52.947,0,0,1,54.98,77.954a.216.216,0,0,1,.1.287v0a.213.213,0,0,1-.2.127" transform="translate(13.188 24.973)" fill="#fff"/>
            <path id="Path_6842-4" data-name="Path 6842" d="M47.84,71.318a.218.218,0,0,1-.215-.17,39.857,39.857,0,0,1-.745-13.622.223.223,0,0,1,.244-.193.219.219,0,0,1,.192.244,39.381,39.381,0,0,0,.735,13.47.22.22,0,0,1-.158.267h0a.327.327,0,0,1-.051,0" transform="translate(15.925 19.589)" fill="#fff"/>
            <path id="Path_6843-4" data-name="Path 6843" d="M43.263,63.894a.228.228,0,0,1-.1-.023A24.653,24.653,0,0,0,30.62,61.413a.221.221,0,0,1-.235-.2.218.218,0,0,1,.2-.233h0a25.11,25.11,0,0,1,12.767,2.5.219.219,0,0,1-.1.417" transform="translate(10.382 20.814)" fill="#fff"/>
            <path id="Path_6844-4" data-name="Path 6844" d="M33.117,55.528a.223.223,0,0,1-.193-.125,60.438,60.438,0,0,1-4.406-13.148.22.22,0,0,1,.423-.122l.007.031a59.933,59.933,0,0,0,4.374,13.057.214.214,0,0,1-.1.287h0a.223.223,0,0,1-.093.021" transform="translate(9.741 14.342)" fill="#fff"/>
            <path id="Path_6845-4" data-name="Path 6845" d="M13.976,51.688a.219.219,0,0,1-.217-.22.214.214,0,0,1,.1-.178,17.67,17.67,0,0,1,12.839-2.818.219.219,0,0,1-.035.436.182.182,0,0,1-.039-.007A17.232,17.232,0,0,0,14.1,51.652a.236.236,0,0,1-.123.036" transform="translate(4.701 16.48)" fill="#fff"/>
            <path id="Path_6846-4" data-name="Path 6846" d="M19.491,44.351a.222.222,0,0,1-.165-.075,23.473,23.473,0,0,1-3.288-4.955.219.219,0,1,1,.386-.2,23.153,23.153,0,0,0,3.229,4.864.218.218,0,0,1-.023.307.215.215,0,0,1-.144.055" transform="translate(5.466 13.317)" fill="#fff"/>
            <path id="Path_6847-4" data-name="Path 6847" d="M8.309,41.83a.219.219,0,0,1-.224-.213.216.216,0,0,1,.133-.207,7.948,7.948,0,0,1,4.305-.629.22.22,0,0,1-.056.436h0a7.6,7.6,0,0,0-4.063.6.241.241,0,0,1-.091.019" transform="translate(2.762 13.91)" fill="#fff"/>
            <path id="Path_6848-4" data-name="Path 6848" d="M71.128,129.656h0a32.409,32.409,0,0,1-32.41-32.408V83.186h64.819V97.251a32.41,32.41,0,0,1-32.41,32.41" transform="translate(13.229 28.423)" fill="#fff"/>
            <path id="Path_6849-4" data-name="Path 6849" d="M130.922,74.628A.924.924,0,0,1,130,73.7V56.864a20.245,20.245,0,1,0-40.489,0V73.7a.924.924,0,1,1-1.847,0V56.864a22.093,22.093,0,1,1,44.186,0V73.7a.924.924,0,0,1-.924.924" transform="translate(29.952 11.878)" fill="#767676"/>
            <path id="Path_6850-4" data-name="Path 6850" d="M152.965,56.857H51.993L42.511,190.264H143.485Z" transform="translate(14.525 19.427)" fill="#ddd"/>
            <path id="Path_6851-4" data-name="Path 6851" d="M117.77,190.264h36.472L147.21,56.857H125.271Z" transform="translate(40.24 19.427)" fill="#ccc"/>
            <path id="Path_6852-4" data-name="Path 6852" d="M154.242,162.145l-19.658-22.991L117.77,162.145Z" transform="translate(40.24 47.546)" fill="#ccc"/>
            <path id="Path_6853-4" data-name="Path 6853" d="M130.3,167.273V56.857h12.627l7.032,133.407Z" transform="translate(44.522 19.427)" fill="#ddd"/>
            <path id="Path_6854-4" data-name="Path 6854" d="M77.213,64.894a4.355,4.355,0,1,1-4.355-4.355,4.355,4.355,0,0,1,4.355,4.355" transform="translate(23.406 20.685)" fill="#fff"/>
            <path id="Path_6855-4" data-name="Path 6855" d="M108.776,64.894a4.355,4.355,0,1,1-4.355-4.355,4.355,4.355,0,0,1,4.355,4.355" transform="translate(34.191 20.685)" fill="#fff"/>
            <path id="Path_6856-4" data-name="Path 6856" d="M114.325,74.628a.924.924,0,0,1-.924-.924V56.864a20.245,20.245,0,1,0-40.489,0V73.7a.924.924,0,1,1-1.847,0V56.864a22.093,22.093,0,1,1,44.186,0V73.7a.924.924,0,0,1-.924.924" transform="translate(24.281 11.878)" fill="#767676"/>
            <path id="Path_6857-4" data-name="Path 6857" d="M115.388,115.04v50.9a4.427,4.427,0,0,1-4.418,4.44h-71.9a4.43,4.43,0,0,1-4.44-4.44v-50.9Z" transform="translate(11.831 39.307)" fill="#ccc"/>
            <path id="Path_6858-4" data-name="Path 6858" d="M107.077,113.473l8.312,3.028H34.626l8.335-3.028-8.335-2.71h80.763Z" transform="translate(11.831 37.845)" fill="#b9b9b9"/>
            <path id="Path_6859-4" data-name="Path 6859" d="M42.951,112.789V115.8H34.627Z" transform="translate(11.832 38.538)" fill="#767676"/>
            <path id="Path_6860-4" data-name="Path 6860" d="M34.624,110.766V116.5l8.326-3.021Z" transform="translate(11.83 37.847)" fill="#b9b9b9"/>
            <path id="Path_6861-4" data-name="Path 6861" d="M88.62,112.789v3.021h8.326Z" transform="translate(30.28 38.538)" fill="#767676"/>
            <path id="Path_6862-4" data-name="Path 6862" d="M96.947,110.766V116.5L88.62,113.48Z" transform="translate(30.28 37.847)" fill="#b9b9b9"/>
            <path id="Path_6863-4" data-name="Path 6863" d="M52.663,122.66a3.321,3.321,0,1,1-3.321-3.321,3.321,3.321,0,0,1,3.321,3.321" transform="translate(15.725 40.776)" fill="#fff"/>
            <path id="Path_6864-4" data-name="Path 6864" d="M85.116,122.66a3.321,3.321,0,1,1-3.321-3.321,3.321,3.321,0,0,1,3.321,3.321" transform="translate(26.813 40.776)" fill="#fff"/>
            <path id="Path_6865-4" data-name="Path 6865" d="M92.3,131.334a1.017,1.017,0,0,1-1.017-1.017v-10.6a20.754,20.754,0,1,0-41.508,0v10.6a1.016,1.016,0,1,1-2.033,0v-10.6a22.787,22.787,0,0,1,45.574,0v10.6a1.017,1.017,0,0,1-1.017,1.017" transform="translate(16.312 33.118)" fill="#767676"/>
          </g>
        </g>
      </g>
    </g>
  </g>
</svg>