<svg xmlns="http://www.w3.org/2000/svg" width="1344" height="613" viewBox="0 0 1344 613">
  <g id="Group_6948" data-name="Group 6948" transform="translate(-288 -87)">
    <g id="Group_6939" data-name="Group 6939">
      <g id="Rectangle_3504" data-name="Rectangle 3504" transform="translate(288 87)" fill="#fff" stroke="#ddd" stroke-width="1">
        <rect width="1344" height="613" rx="15" stroke="none"/>
        <rect x="0.5" y="0.5" width="1343" height="612" rx="14.5" fill="none"/>
      </g>
      <text id="Accordion_Heading_Compact_Padding" data-name="Accordion Heading Compact Padding" transform="translate(960 206)" fill="#111" font-size="40" font-family="Helvetica-Bold, Helvetica" font-weight="700"><tspan x="-358.916" y="0">Accordion Heading Compact Padding</tspan></text>
      <g id="Rectangle_3599" data-name="Rectangle 3599" transform="translate(328 276)" fill="#fff" stroke="#ddd" stroke-width="1">
        <rect width="1264" height="48" rx="8" stroke="none"/>
        <rect x="0.5" y="0.5" width="1263" height="47" rx="7.5" fill="none"/>
      </g>
      <text id="When_will_my_order_arrive_" data-name="When will my order arrive?" transform="translate(348 307)" fill="#111" font-size="20" font-family="Helvetica"><tspan x="0" y="0">When will my order arrive?</tspan></text>
      <g id="Group_6789" data-name="Group 6789" transform="translate(371 -242)">
        <rect id="Rectangle_3600" data-name="Rectangle 3600" width="24" height="24" transform="translate(1177 530)" fill="#fff"/>
        <path id="chevron-down" d="M1.31,0,0,1.3,5.916,7.2l5.916-5.9L10.521,0,5.916,4.606Z" transform="translate(1183 538)" fill="#575a5d"/>
      </g>
      <g id="Rectangle_3599-2" data-name="Rectangle 3599" transform="translate(328 512)" fill="#fff" stroke="#ddd" stroke-width="1">
        <rect width="1264" height="48" rx="8" stroke="none"/>
        <rect x="0.5" y="0.5" width="1263" height="47" rx="7.5" fill="none"/>
      </g>
      <text id="Can_I_do_an_in-store_return_for_an_item_bought_online_" data-name="Can I do an in-store return for an item bought online?" transform="translate(348 543)" fill="#111" font-size="20" font-family="Helvetica"><tspan x="0" y="0">Can I do an in-store return for an item bought online?</tspan></text>
      <g id="Group_6789-2" data-name="Group 6789" transform="translate(371 -6)">
        <rect id="Rectangle_3600-2" data-name="Rectangle 3600" width="24" height="24" transform="translate(1177 530)" fill="#fff"/>
        <path id="chevron-down-2" data-name="chevron-down" d="M1.31,0,0,1.3,5.916,7.2l5.916-5.9L10.521,0,5.916,4.606Z" transform="translate(1183 538)" fill="#575a5d"/>
      </g>
      <g id="Rectangle_3599-3" data-name="Rectangle 3599" transform="translate(328 572)" fill="#fff" stroke="#ddd" stroke-width="1">
        <rect width="1264" height="48" rx="8" stroke="none"/>
        <rect x="0.5" y="0.5" width="1263" height="47" rx="7.5" fill="none"/>
      </g>
      <text id="How_long_is_the_warranty_period_on_my_item_" data-name="How long is the warranty period on my item?" transform="translate(348 603)" fill="#111" font-size="20" font-family="Helvetica"><tspan x="0" y="0">How long is the warranty period on my item?</tspan></text>
      <g id="Group_6789-3" data-name="Group 6789" transform="translate(371 54)">
        <rect id="Rectangle_3600-3" data-name="Rectangle 3600" width="24" height="24" transform="translate(1177 530)" fill="#fff"/>
        <path id="chevron-down-3" data-name="chevron-down" d="M1.31,0,0,1.3,5.916,7.2l5.916-5.9L10.521,0,5.916,4.606Z" transform="translate(1183 538)" fill="#575a5d"/>
      </g>
      <g id="Rectangle_3599-4" data-name="Rectangle 3599" transform="translate(328 336)" fill="#fff" stroke="#ddd" stroke-width="1">
        <rect width="1264" height="164" rx="8" stroke="none"/>
        <rect x="0.5" y="0.5" width="1263" height="163" rx="7.5" fill="none"/>
      </g>
      <text id="What_is_the_return_policy_" data-name="What is the return policy?" transform="translate(348 367)" fill="#111" font-size="20" font-family="Helvetica"><tspan x="0" y="0">What is the return policy?</tspan></text>
      <g id="Group_6789-4" data-name="Group 6789" transform="translate(371 -182)">
        <rect id="Rectangle_3600-4" data-name="Rectangle 3600" width="24" height="24" transform="translate(1177 530)" fill="#fff"/>
        <path id="chevron-down-4" data-name="chevron-down" d="M1.31,0,0,1.3,5.916,7.2l5.916-5.9L10.521,0,5.916,4.606Z" transform="translate(1194.832 545.197) rotate(180)" fill="#575a5d"/>
      </g>
      <text id="Lorem_ipsum_dolor_sit_amet_consectetur_adipiscing_elit._Mauris_non_leo_semper_dapibus_tellus_eu_vulputate_lectus._Sed_nunc_libero_pharetra_sed_purus_at_mollis_porttitor_sem._Nunc_ut_est_rutrum_faucibus_purus_non_finibus_ex._Maecenas_tempus_pharetra_" data-name="Lorem ipsum dolor sit amet, consectetur adipiscing elit. Mauris non leo semper, dapibus tellus eu, vulputate lectus. Sed nunc libero, pharetra sed purus at, mollis porttitor sem. Nunc ut est rutrum, faucibus purus non, finibus ex. Maecenas tempus pharetra " transform="translate(348 388)" fill="#575a5d" font-size="16" font-family="Helvetica"><tspan x="0" y="12">Lorem ipsum dolor sit amet, consectetur adipiscing elit. Mauris non leo semper, dapibus tellus eu, vulputate lectus. Sed nunc libero, pharetra sed purus at, mollis </tspan><tspan x="0" y="36">porttitor sem. Nunc ut est rutrum, faucibus purus non, finibus ex. Maecenas tempus pharetra quam eu elementum. Pellentesque habitant morbi tristique senectus et </tspan><tspan x="0" y="60">netus et malesuada fames ac turpis egestas. In sodales purus eget risus auctor, sed semper lorem convallis. Ut a nisl at lacus vehicula rhoncus. Vivamus tincidunt </tspan><tspan x="0" y="84">sapien ut sodales semper. Sed tempor ipsum nec tortor suscipit ornare.</tspan></text>
    </g>
  </g>
</svg>