<svg xmlns="http://www.w3.org/2000/svg" xmlns:xlink="http://www.w3.org/1999/xlink" width="1600" height="666" viewBox="0 0 1600 666">
  <g id="Accordion_Component_Preview" data-name="Accordion Component Preview">
    <g id="Text_Area" data-name="Text Area" transform="translate(0 -3615)">
      <g id="Group_6585" data-name="Group 6585">
        <rect id="Rectangle_3504" data-name="Rectangle 3504" width="1600" height="666" transform="translate(0 3615)" fill="none"/>
        <g id="Text_Area-2" data-name="Text Area" transform="translate(108 -542)">
          <text id="Accordion" transform="translate(692 4236)" fill="#494a53" font-size="40" font-family="Helvetica-Bold, Helvetica" font-weight="700"><tspan x="-98.896" y="0">Accordion</tspan></text>
          <g id="Group_6575" data-name="Group 6575" transform="translate(82 4355)">
            <rect id="Rectangle_3483" data-name="Rectangle 3483" width="1168" height="10" rx="5" fill="#969da8"/>
            <rect id="Rectangle_3484" data-name="Rectangle 3484" width="1148" height="10" rx="5" transform="translate(0 26)" fill="#969da8"/>
            <path id="Path_6875" data-name="Path 6875" d="M5,0H1215a5,5,0,0,1,0,10H5A5,5,0,0,1,5,0Z" transform="translate(0 52)" fill="#969da8"/>
            <rect id="Rectangle_3486" data-name="Rectangle 3486" width="1200" height="10" rx="5" transform="translate(0 78)" fill="#969da8"/>
            <rect id="Rectangle_3487" data-name="Rectangle 3487" width="1200" height="10" rx="5" transform="translate(0 104)" fill="#969da8"/>
            <rect id="Rectangle_3607" data-name="Rectangle 3607" width="582" height="10" rx="5" transform="translate(0 130)" fill="#969da8"/>
            <rect id="Rectangle_3608" data-name="Rectangle 3608" width="294" height="16" rx="8" transform="translate(0 -41)" fill="#494a53"/>
            <path id="chevron-down" d="M2.214,0,0,2.19l10,9.976L20,2.19,17.786,0,10,7.786Z" transform="translate(1220 -26.835) rotate(180)" fill="#969da8"/>
          </g>
          <g id="Group_6574" data-name="Group 6574" transform="translate(82 4278)">
            <rect id="Rectangle_3062" data-name="Rectangle 3062" width="1220" height="4" rx="2" fill="#969da8"/>
            <rect id="Rectangle_3609" data-name="Rectangle 3609" width="1220" height="4" rx="2" transform="translate(0 249)" fill="#969da8"/>
          </g>
          <rect id="Rectangle_3610" data-name="Rectangle 3610" width="209" height="16" rx="8" transform="translate(82 4563)" fill="#494a53"/>
          <rect id="Rectangle_3612" data-name="Rectangle 3612" width="410" height="16" rx="8" transform="translate(82 4647)" fill="#494a53"/>
          <rect id="Rectangle_3614" data-name="Rectangle 3614" width="294" height="16" rx="8" transform="translate(82 4731)" fill="#494a53"/>
          <path id="chevron-down-2" data-name="chevron-down" d="M2.214,0,0,2.19l10,9.976L20,2.19,17.786,0,10,7.786Z" transform="translate(1282 4565)" fill="#969da8"/>
          <path id="chevron-down-3" data-name="chevron-down" d="M2.214,0,0,2.19l10,9.976L20,2.19,17.786,0,10,7.786Z" transform="translate(1282 4649)" fill="#969da8"/>
          <path id="chevron-down-4" data-name="chevron-down" d="M2.214,0,0,2.19l10,9.976L20,2.19,17.786,0,10,7.786Z" transform="translate(1282 4733)" fill="#969da8"/>
          <rect id="Rectangle_3611" data-name="Rectangle 3611" width="1220" height="4" rx="2" transform="translate(82 4611)" fill="#969da8"/>
          <rect id="Rectangle_3613" data-name="Rectangle 3613" width="1220" height="4" rx="2" transform="translate(82 4695)" fill="#969da8"/>
          <rect id="Rectangle_3615" data-name="Rectangle 3615" width="1220" height="4" rx="2" transform="translate(82 4779)" fill="#969da8"/>
        </g>
      </g>
    </g>
  </g>
</svg>