<svg xmlns="http://www.w3.org/2000/svg" xmlns:xlink="http://www.w3.org/1999/xlink" width="1344" height="673" viewBox="0 0 1344 673">
  <defs>
    <clipPath id="clip-path">
      <rect id="Rectangle_3208" data-name="Rectangle 3208" width="1264" height="500" transform="translate(328 10487)" fill="#ddd"/>
    </clipPath>
    <linearGradient id="linear-gradient" x1="0.408" y1="1.091" x2="0.334" y2="0.431" gradientUnits="objectBoundingBox">
      <stop offset="0" stop-color="#ababab"/>
      <stop offset="1" stop-color="#d5d5d5"/>
    </linearGradient>
    <linearGradient id="linear-gradient-2" x1="0.659" y1="1.841" x2="0.252" y2="2.645" gradientUnits="objectBoundingBox">
      <stop offset="0" stop-color="#939393"/>
      <stop offset="1" stop-color="#bebebe"/>
    </linearGradient>
    <linearGradient id="linear-gradient-3" x1="0.381" y1="0.033" x2="0.253" y2="-0.477" gradientUnits="objectBoundingBox">
      <stop offset="0" stop-color="#6a6a6a"/>
      <stop offset="1" stop-color="#6a6a6a"/>
    </linearGradient>
    <linearGradient id="linear-gradient-4" x1="0.151" y1="-0.165" x2="0.167" y2="0.296" gradientUnits="objectBoundingBox">
      <stop offset="0" stop-color="#c7c7c7"/>
      <stop offset="1" stop-color="#747474"/>
    </linearGradient>
  </defs>
  <g id="Group_6963" data-name="Group 6963" transform="translate(-288 -10394)">
    <g id="Group_6928" data-name="Group 6928">
      <g id="Rectangle_3573" data-name="Rectangle 3573" transform="translate(288 10394)" fill="#fff" stroke="#ddd" stroke-width="1">
        <rect width="1344" height="673" rx="15" stroke="none"/>
        <rect x="0.5" y="0.5" width="1343" height="672" rx="14.5" fill="none"/>
      </g>
      <g id="Mask_Group_47" data-name="Mask Group 47" clip-path="url(#clip-path)">
        <g id="Group_6926" data-name="Group 6926" transform="translate(16700.199 26601)">
          <rect id="Rectangle_3665" data-name="Rectangle 3665" width="1264" height="710" transform="translate(-16372.2 -16225)" fill="#fff"/>
          <g id="Background-2" transform="translate(-16372 -16225)" opacity="0.35">
            <rect id="Rectangle_3663" data-name="Rectangle 3663" width="1264" height="710" transform="translate(-0.201)" fill="#b5b5b5"/>
            <path id="Path_8722" data-name="Path 8722" d="M2818.6,977.127c0-10.611,25.132-18.233,32.261-20.4,11.86-3.614,40.736-9.889,45.992-.033,5.059,9.429-11.3,34.034-33.41,39.028C2842.714,1000.419,2818.633,987.508,2818.6,977.127Z" transform="translate(-1892.643 -638.854)" fill="#929292"/>
            <path id="Path_8723" data-name="Path 8723" d="M2927.506,1022.686c1.511-1.807,5.189-.887,4.2,1.807-2.464,5.979-10.348,21.09-17.9,16.327-3.416-2.694-8.115-5.388-11.465-7.622-2.924-3.351,3.384-5.651,5.157-5.552C2917.813,1026.169,2924.582,1024.855,2927.506,1022.686Z" transform="translate(-1948.363 -686.089)" fill="#545454"/>
            <path id="Path_8724" data-name="Path 8724" d="M2378.781,895.337a3.763,3.763,0,0,1,1.512,1.248,3.347,3.347,0,0,1-.657,4.468c-13.962,11.6-50.361,46.649-57.556,49.836-17.478,7.786-72.144-4.008-102.761-7.852-23.555-2.957-52.99-61.958-57.359-86.958-.788-4.6,5.389-7.03,10.645-10.118,31.9-18.726,72.339-8.673,102.661-1.15,66.623,16.524,97.767,48.095,103.45,50.493Z" transform="translate(-1451.674 -560.875)" fill="#a1a1a1"/>
            <path id="Path_8725" data-name="Path 8725" d="M2287.647,1041.59c1.052-1.413,8.377,1.9,9.889,2.4,5.717,2.267,13.338,5.256,19.515,7.688,14.093,5.551,28.152,9.954,43.2,11.3,18.363,1.609,36.267-1.741,53.448-7.917a51.833,51.833,0,0,1,6.209-1.972c3.713-.722.493,2.792-.525,3.975a56.159,56.159,0,0,0-11.465,17.478c-1.216,2.792-1.938,5.749-2.924,8.673-.624,1.807-1.281,3.975-3.121,4.566-1.347.493-3.351-.033-5.189-.2-24.345-2.6-48.228-8.607-72.735-9.659a155.05,155.05,0,0,0-22.437.164c-1.183.1-2.661.066-3.252-.657-.855-.953-.92-2.53-1.184-3.876-.558-2.792-1.346-5.486-2-8.246a153.852,153.852,0,0,0-6.637-20.762c-.426-.887-1.084-2.168-.788-2.924h0Z" transform="translate(-1536.067 -699.177)" fill="#929292"/>
            <path id="Path_8726" data-name="Path 8726" d="M1427.493,778.912c42.214-36.071,89.915-39.323,108.837-38.962,7.819.164,52.891,1.61,92.478,31.209a143.535,143.535,0,0,1,36.531,38.962,139.17,139.17,0,0,1,13.042,26.544,145.6,145.6,0,0,1,8.673,30.059c.558,3.187.986,6.274,1.314,9.264a489.527,489.527,0,0,1-195.336,63.831,55.74,55.74,0,0,0-14.652-22.569c-24.015-21.879-55.979-7.852-81.242-29.205-5.388-4.534-12.747-12.615-17.838-27.365C1384.228,828.551,1403.117,799.74,1427.493,778.912Z" transform="translate(-926.177 -496.848)" fill="#e5e5e5"/>
            <path id="Path_8727" data-name="Path 8727" d="M1380.065,1057.973c41.459-37.616,79.632-19.613,121.059,6.11,35.447,18.232,78.417,6.636,107.326-18.5a95.359,95.359,0,0,1,10.512-5.913,109.789,109.789,0,0,1,11.17-4.534c8.41-2.76,26.708-3.712,49.639.427a143.106,143.106,0,0,1,10.545,36.828,232.5,232.5,0,0,0-32.885,5.321c-46.287,10.973-64.553,30.388-109.461,45.927a276.579,276.579,0,0,1-54.5,12.779,55.605,55.605,0,0,0-14.652-22.569c-23.982-21.846-56.045-7.818-81.275-29.205-5.388-4.566-12.517-12.516-17.543-26.675Z" transform="translate(-926.647 -693.483)" fill="url(#linear-gradient)"/>
            <path id="Path_8728" data-name="Path 8728" d="M2592.614,330.663c-29.073,10.151-92.608,27.727-169.776,11.137a310.71,310.71,0,0,1-107.622-45.762c-8.837-13.141-8.443-20.729-6.6-25.164,12.022-29.107,111.794-3.909,134.986-37.944,1.479-2.168,2.826-5.092,2.234-7.786-8.8-17.839-39.586-8.049-54.665-4.5,63.438-45.072,143.989-40.309,217.445-51.38,71.32-21.715,200.658-110.907,201.117-27.3.263,46.222,1.019,93.134,1.38,139.225-16.163-2.168-31.865,8.574-37.154,23.883-40.474,9.921-97.34,30.585-149.8,76.413a335.632,335.632,0,0,0-31.9,31.9,47.531,47.531,0,0,0-16.754-.854,44.5,44.5,0,0,0-16.327,5.158c-7.589,4.238-12.156,10.151-21.255,21.912-1.676,2.168-3.023,4.008-3.909,5.256q-6.507-9.018-13.01-18.036c.723-3.022,5.946-23.719,26.808-34.494,19.711-10.184,38.468-3.811,41.59-2.694a55.77,55.77,0,0,1,3.186-58.936Z" transform="translate(-1549.476 -71.76)" fill="#cecece"/>
            <path id="Path_8729" data-name="Path 8729" d="M3402.781,269.879c-37.089-7.129-80.224-1.018-106.275,28.844-7.129,5.979-13.14,10.053-22.011,12.911-25.1,8.18-49.606-5.158-75.23,9.133-10.217,4.829-13.862,14.455-6.537,23.752,15.178,20.532,58.147,20.927,53.384,55.191-.656,4.566-2.989,9.658-6.931,12.286a65,65,0,0,1,14.684,4.107c-6.635-81.144,70.533-142.576,148.884-123.818V269.846Z" transform="translate(-2141.278 -179.406)" fill="#b5b5b5"/>
            <path id="Path_8730" data-name="Path 8730" d="M3245.871,335.486A118.6,118.6,0,0,0,3204.807,332c-33.509,3.088-56.439,19.875-65.8,27.694-7.029,5.88-32.458,27.76-40.342,65.408a112.318,112.318,0,0,0-1.708,34.231,67.288,67.288,0,0,0-14.685-4.106c-25.3-2.727-41.886,8.476-55.979,28.252a55.059,55.059,0,0,0-8.705,20.631,57.15,57.15,0,0,0,4.894,35.611c-3.153-.92-24.507-6.8-44.678,6.34-16.722,10.874-21.519,27.563-22.6,31.636,2.234,2.661,4.534,5.585,6.8,8.739q3.894,5.371,6.9,10.348a55.6,55.6,0,0,1,10.774-16.919c3.121-3.351,16.492-17.641,35.383-16.656a37.676,37.676,0,0,1,14.19,3.679c5.814-9.4,13.075-20.992,21.551-34.264,15.571-24.277,19.515-29.961,25.756-36.3A113.652,113.652,0,0,1,3110.095,473c-.722-8.936-4.336-63.075,32.425-96.255,14.356-12.943,30.782-18.988,37.419-21.386a130.414,130.414,0,0,1,65.9-5.453V335.453Z" transform="translate(-1984.367 -222.608)" fill="#e5e5e5"/>
            <path id="Path_8731" data-name="Path 8731" d="M3175.724,841.9a45.9,45.9,0,0,1-5.684-15.243c-.525-2.858-1.773-11.3,2.1-24.441,3.187-10.808,8.049-27.365,23.128-37.714,23.226-15.933,52.135-4.4,54.7-3.318a104.038,104.038,0,0,0-20.829,13.141,118,118,0,0,0-21.452,23.521c-10.677,15.21-10.939,22.471-22.733,35.315a95.8,95.8,0,0,1-9.2,8.771Z" transform="translate(-2128.217 -507.737)" fill="#cecece"/>
            <path id="Path_8732" data-name="Path 8732" d="M3559.734,379.38c-9.988-2.135-62.715-10.907-103.123,27.891-39.684,38.108-33.8,89.849-33.081,95.3A147.737,147.737,0,0,1,3521.3,487a35.426,35.426,0,0,1,38.437-23.391V379.38Z" transform="translate(-2298.362 -253.164)" fill="#cecece"/>
            <path id="Path_8733" data-name="Path 8733" d="M0,0H1209.5a142.02,142.02,0,0,1-33.8,16.787c-15.736,5.355-28.252,6.866-41.36,7.49-29.731,1.38-60.086-2.562-88.8,7.523-19.678,7.1-36.432,19.35-51.544,33.607-8.837,8.311-17.247,17.9-28.417,23.095-19.218,8.936-42.609,5.585-63.305,7.49a220.4,220.4,0,0,0-59.363,13.535c-59.889,21.682-106.735,71.19-169.285,86.236-103.581,15.44-111.794-66.557-271.289-5.158,28.285,15.013-9.626,27.76-24.047,29.8-27.727,6.143-57.359,5.585-85.414,1.544-7.654-.788-35.611-4.731-43.627-6.012C207.13,213.766,167.839,227.826,131.439,248A149.519,149.519,0,0,0,80.947,177.76,149.773,149.773,0,0,0,0,147.471Z" transform="translate(0)" fill="url(#linear-gradient-2)"/>
            <path id="Path_8734" data-name="Path 8734" d="M0,161.179c55.519-31.111,123.391-36.827,184.79-21.978,27.1,8.41,118,29.337,126.183,57.523-2.2,6.373-11.432,5.88-16.984,6.34-67.149-.986-135.48-45.4-201.808-14.619C77.07,194.917,61.6,214.07,85.94,220.607c8.9,2.037,19.251,0,28.22-.756,35.118-3.778,70.3,8.771,96.551,32.063,17.247,15.8,33.9,35.315,58.706,37.976,45.729,9.888,88.371-30.782,132.721-11.1,28.252,14.98-9.593,27.792-24.08,29.8-27.727,6.176-57.425,5.585-85.48,1.544-7.293-.46-35.907-4.961-43.66-6.012-42.149-2.168-81.472,11.892-117.9,32.063C111.006,281.153,59.823,237.362,0,235.686Z" transform="translate(0 -88.215)" fill="#cecece"/>
            <path id="Path_8735" data-name="Path 8735" d="M310.5,584.13c47.865-23.226,101.15.263,146.88,17.477-42.149-2.2-81.472,11.892-117.9,32.063C332.609,615.832,323.082,598.618,310.5,584.13Z" transform="translate(-208.496 -385.706)" fill="#b5b5b5"/>
            <path id="Path_8736" data-name="Path 8736" d="M826.4,0h801.021c-46.649,13.239-83.738,26.708-109.724,36.925C1469.6,55.848,1446.638,68.66,1414.838,62.32c-27.891-5.585-35.578-20.8-54.9-28.318-76.019-29.6-121.223,58.246-179.8,86.728-35.184,12.779-72.438-4.336-108.476,2.792-59.461,9.856-118.726,54.8-179.633,26.117,34.166-5.716,53.548-14.652,79.862-37.287,32.753-27.53,70.4-47.931,114-49.737,10.25-.92,46.617.131,53.286-6.406,1.938-2.07.558-5.158-1.446-6.669-39.126,10.48-119.087,25.756-211.2-2.037A372.205,372.205,0,0,1,826.4,0Z" transform="translate(-554.914)" fill="#7e7e7e"/>
            <path id="Path_8737" data-name="Path 8737" d="M0,843.63a348.342,348.342,0,0,1,53.515-8.542c213.371-17.083,452.17,163.305,434.463,273.424C473.1,1201.088,271.683,1276.187,0,1269.584Z" transform="translate(0 -559.989)" fill="#7a7a7a"/>
            <path id="Path_8738" data-name="Path 8738" d="M234.1,1157.084c59.4-30.618,91.623-26.347,110.25-15.736,29.534,16.82,23.653,48.916,65.506,86.038,9.2,8.147,34.888,30.454,73.193,39.816,46.485,11.366,74.442-5.42,101.479,15.079,14.028,10.677,20.4,25.755,23.489,35.677a453.951,453.951,0,0,1-117.379-9.231c-133.345-28.384-219.252-110.578-256.538-151.676Z" transform="translate(-157.194 -761.09)" fill="#5a5a5a"/>
            <path id="Path_8739" data-name="Path 8739" d="M0,448.9c59.823,1.676,111.006,45.467,130.979,100.493,72.339-1.906,134.363,61.564,148.128,129.666,24.474-17.806,57.129-18.561,81.078-2.168,20.8,14.225,32.1,39.323,29.468,65.145A93.877,93.877,0,0,1,520.206,844.073q-21.386,4.828-42.806,9.658c-37.155-46.978-72.6-64.324-98.555-71.354-22.5-6.078-42.477-4.829-64.389-21.419-23.062-17.477-30.026-37.155-40.8-56.242C224.672,618.053,105.487,594.564,82.983,590.129A315.621,315.621,0,0,0,0,585.1V448.9Z" transform="translate(0 -301.429)" fill="#a5a5a5"/>
            <path id="Path_8740" data-name="Path 8740" d="M731.333,874.063c78.023-31.669,154.436-24.343,191.229,18.364,7.687,8.936,16.885,23.161,21.649,45.171,8.443,15.868,17.937,24.869,23.916,29.665a52.589,52.589,0,0,0,7.819,5.322c10.315,5.65,18.791,5.355,28.647,6.439,12.221,1.347,23,2.563,32.917,8.673,2.6,1.577,17.9,11.038,20.434,29.041a39.484,39.484,0,0,1-4.172,23.193c4.238-1.873,24.606-10.25,47.306-1.38,31.177,12.221,37.845,45.7,38.207,47.8a33.142,33.142,0,0,1-2.234,3.417,34.091,34.091,0,0,1-2.76,3.088c-28.154,4.862-94.35,17.838-123,23.587,5.979-69.087-63.7-130.75-130.552-102,9.3-58.607-64.816-91.952-110.579-62.977a184.325,184.325,0,0,0-17.181-45.532A182.1,182.1,0,0,0,731.3,874.1Z" transform="translate(-491.056 -573.799)" fill="#7e7e7e"/>
            <path id="Path_8741" data-name="Path 8741" d="M835.3,1095.35c88.305-6.965,124.475,8.8,140.769,25.657,4.336,4.5,12.977,14.85,28.745,23.391,15.834,8.574,32.458,11.2,55.618,15.505,20.007,4.961,38.5,18.627,45.7,38.4,6.965,16.327-5.158,39.356,14.521,49.277,12.188,5.454,30.289-1.051,36.991,14.324l-76.479,15.079c.3-3.056,4.566-55.224-37.944-87.681-41.426-31.669-89.225-15.506-92.576-14.323-.164-3.285-2.957-45.04-36.334-64.061-18.3-10.414-37.517-9.3-42.477-8.87a76.736,76.736,0,0,0-31.735,9.987q-2.365-8.328-4.7-16.656Z" transform="translate(-560.89 -734.376)" fill="#545454"/>
            <path id="Path_8742" data-name="Path 8742" d="M398.7,698.843c44.087-23.226,80.092-27.628,104.863-27.365,55.651.624,83.574,25.263,160.546,44.941A561.077,561.077,0,0,0,769.069,732.91a150.922,150.922,0,0,0-47.9,82.425c-1.905-5.027-9.593-23.456-29.763-33.969a62.611,62.611,0,0,0-31.8-6.9A209.871,209.871,0,0,0,507.964,751.11a158.935,158.935,0,0,0-20.434-19.974,150.295,150.295,0,0,0-28.581-18.5,140.945,140.945,0,0,0-35.677-11.531,144.427,144.427,0,0,0-24.573-2.333Z" transform="translate(-267.72 -450.879)" fill="#a1a1a1"/>
            <path id="Path_8743" data-name="Path 8743" d="M667.4,831.83A156.764,156.764,0,0,1,840,875.589c-16.393,11.3-29.534,13.141-38.6,12.648-29.106-1.61-40.539-28.515-76.183-36.1a90.332,90.332,0,0,0-36.826.131c-2.891-3.318-6.143-6.8-9.757-10.348C674.792,838.138,670.981,834.787,667.4,831.83Z" transform="translate(-448.148 -552)" fill="#b5b5b5"/>
            <path id="Path_8744" data-name="Path 8744" d="M0,1167c194.876,5.716,195.6,179.534,450.823,173.555C313.865,1369.957,0,1493.545,0,1493.545Z" transform="translate(0 -783.621)" fill="#848484"/>
            <path id="Path_8745" data-name="Path 8745" d="M0,1374.577c62.55-5.519,105.388,7.721,133.509,21.584,52.3,25.788,71.157,62.287,136.137,87.977a281.533,281.533,0,0,0,77.431,18.331q-49.918,15.029-99.869,30.059c-29.139-28.581-81.6-71.814-158.443-96.124A387.823,387.823,0,0,0,0,1419.42Z" transform="translate(0 -922.145)" fill="#757575"/>
            <path id="Path_8746" data-name="Path 8746" d="M0,1513.8a362.854,362.854,0,0,1,121.847,26.873,363.826,363.826,0,0,1,125.362,86.235q-37.6,14.339-75.165,28.646a243.439,243.439,0,0,0-41.1-40.407c-24.212-18.726-45.894-28.154-61.958-34.987A336.308,336.308,0,0,0,0,1559.2v-45.368Z" transform="translate(0 -1016.492)" fill="#5a5a5a"/>
            <path id="Path_8747" data-name="Path 8747" d="M0,1651.9a306.321,306.321,0,0,1,93.266,31.767A305.877,305.877,0,0,1,174.9,1746.94c-23,10.446-47.274,22.536-72.5,36.563-21.091,11.728-40.7,23.621-58.8,35.349H0V1651.9Z" transform="translate(0 -1109.224)" fill="#393939"/>
            <path id="Path_8748" data-name="Path 8748" d="M0,1811.3a215.054,215.054,0,0,1,61.728,26.808,215.99,215.99,0,0,1,52.037,46.583c-14.093,7.03-28.844,15.112-44.087,24.376-9.2,5.585-17.937,11.235-26.183,16.82H0V1811.3Z" transform="translate(0 -1216.258)" fill="#242424"/>
            <path id="Path_8749" data-name="Path 8749" d="M2243.145,1210.006v292.051H1461.9c34.166-55.059,122.635-180.75,289.357-258.9C1978.2,1136.747,2189.4,1193.744,2243.145,1210.006Z" transform="translate(-981.641 -792.461)" fill="url(#linear-gradient-3)"/>
            <path id="Path_8750" data-name="Path 8750" d="M2669.6,1159.808v18.758c-42.378-2.07-99.146,2.6-147.4,37.253-53.482,38.4-47.537,78.548-97.6,104.042-50.427,25.657-85.939-.1-177.234,2.563A481.7,481.7,0,0,0,2097,1351.432c24.179-34.593,119.974-162.878,298.26-204.961C2520.261,1116.97,2623.71,1144.466,2669.6,1159.808Z" transform="translate(-1408.101 -761.055)" fill="#7e7e7e"/>
            <path id="Path_8751" data-name="Path 8751" d="M1981.938,1173.8c-20.565-4.665-93.562-18.627-168.4,21.616-47.24,25.427-74.146,61.1-86.728,80.651-26.643,53.811-99.606,22.537-146.157,22.011-63.732-6.308-127.727,21.419-171.322,67.313a451.384,451.384,0,0,0-208.641,119.218H1072.9c5.946-43.134,37.55-73.357,70.467-74.146,27.694-.69,47.339,19.645,51.61,24.311,1.544-5.979,12.746-46.912,54.534-67.543,44.744-22.077,86.893-2.3,91.82.1,5.716-17.412,23.851-64.685,71.945-95.139,33.41-21.156,66.525-24.869,78.088-26.019,30.585-3.088,40.506,3.778,82.523,6.7,29.633,2.07,60.841,4.271,92.839-3.352,53.909-12.845,51.971-39.75,122.011-69.58,41.1-17.51,72.208-21.189,97.405-23.981,36.892-4.074,61.991-1.15,84.494,10.874a104.382,104.382,0,0,1,11.3,6.964Z" transform="translate(-720.434 -775.049)" fill="#9d9d9d"/>
            <path id="Path_8752" data-name="Path 8752" d="M2807.982,705.908c50.591-40.572,108.674-36.4,122.011-35.118q17.247-15.128,34.462-30.29.05,94.909.131,189.85c-67.806-20.6-116.426-14.422-148.358-4.895-64.586,19.251-85.841,59.56-155.421,79.534-49.605,14.225-94.612,9.757-124.508,3.909,7.129-9.527,19.449-23.029,38.372-30.486,27.956-10.972,39.322,3.515,64.225-7.72,28.384-12.779,46.615-46.452,51.379-55.224,5.881-10.874,6.5-15.341,12.846-21.846,14.618-14.98,36.794-17.28,53.942-16.688,5.717-15.375,19.612-45.959,50.952-71.058Z" transform="translate(-1703.083 -430.085)" fill="#7a7a7a"/>
            <path id="Path_8753" data-name="Path 8753" d="M2926.02,663.251a35.535,35.535,0,0,1,38.566-23.423v23.883a25.505,25.505,0,0,0-11.465,7.589,26.144,26.144,0,0,0-5.65,11.2c-76.117-4.4-109.429,15.867-125.788,35.151-19.711,23.193-18.693,49.541-48.818,69.35-23.391,15.408-32.852,5.289-58.64,20.992-36.662,22.273-26.314,47.963-57.261,63.437-31.768,15.867-58.476-3.351-86.006,19.185a65.085,65.085,0,0,0-16.458,20.631,71.581,71.581,0,0,1-10.118-1.051,61.983,61.983,0,0,1-8.083-1.971,62.748,62.748,0,0,1,6.5-22.569c26.906-52.3,115.507-32.228,144.121-83.213,4.008-7.129,7.753-17.346,19.218-26.15,14.816-11.432,32.654-12.976,44.515-12.714,4.14-11.334,22.535-57.786,73.653-84.888,45.565-24.146,88.731-17.871,101.773-15.44Z" transform="translate(-1703.083 -429.414)" fill="#a5a5a5"/>
            <path id="Path_8754" data-name="Path 8754" d="M3340.2,974.978c.952-8.607,7.425-58.837,52.76-93.1,48.883-36.925,103.646-25.558,111.432-23.818V974.419a283.854,283.854,0,0,0-164.191.525Z" transform="translate(-2242.888 -574.155)" fill="#a6a6a6"/>
            <path id="Path_8755" data-name="Path 8755" d="M3484.73,1066.851c2.07-5.65,13.93-36.334,47.963-51.774,32.887-14.947,62.781-4.862,68.727-2.727v64.094a283.932,283.932,0,0,0-116.721-9.625Z" transform="translate(-2339.918 -676.212)" fill="#a5a5a5"/>
            <path id="Path_8756" data-name="Path 8756" d="M2519.8,1632.953H1873.9c84.231-84.133,144.974-97.208,186.926-90.277,53.646,8.871,90.834,52.793,129.205,34.527,30.814-14.685,23.555-51.019,58.443-65.506,35.117-14.586,62.385,13.929,88.634-3.844,18.823-12.746,15.9-34.987,25.032-56.5,12.09-28.482,47.931-61.925,157.688-76.249" transform="translate(-1258.293 -923.357)" fill="#4c4c4c"/>
            <path id="Path_8757" data-name="Path 8757" d="M2567,1940.188A564.92,564.92,0,0,0,2679.811,1905c41.723-18.134,61.236-32.949,95.008-30.321,32.1,2.5,37.221,17.642,62.483,13.765,31.6-4.862,36.794-30.65,72.405-46.387,15.275-6.734,39.488-13.107,75.493-6.866v104.994Z" transform="translate(-1723.698 -1230.593)" fill="#393939"/>
            <path id="Path_8758" data-name="Path 8758" d="M3114.4,2021.674a192.266,192.266,0,0,1,70.434-23.325c34.691-4.205,50.69,4.074,78.977.952,21.78-2.4,52.956-11.793,88.961-45.3v67.642H3114.4Z" transform="translate(-2091.268 -1312.079)" fill="#242424"/>
            <path id="Path_8759" data-name="Path 8759" d="M1487.142,1058.32c-13.305,39.094-31.078,52.4-44.514,57.523-24.836,9.461-44.416-5.65-69.678,5.453-20.4,8.969-31.144,29.14-36.893,43.627-12.812-3.187-70.368-16.032-130.093,16.885-57.129,31.5-77.53,83.542-82.195,96.584-6.439-2.6-45.96-17.642-88.8,2.694-41.557,19.711-55.256,57.983-57.556,64.75-4.6-2.2-39.619-18.2-76.939-.394-31.8,15.177-43,44.284-45.138,50.263H748.9a348.7,348.7,0,0,1,57.1-58.739c40.8-33.049,80.717-49.737,212.518-92.05,34.494-11.071,77.628-24.671,127.6-39.783,1.117-1.511,2.891-3.745,4.993-6.472,27.628-35.743,58.837-54.14,80.257-67.083,54.632-32.983,112.615-50.033,137.057-56.57.395-2.267,7.228-37.188,37.517-49.278C1433.659,1014.628,1469.2,1027.407,1487.142,1058.32Z" transform="translate(-502.874 -686.111)" fill="#cecece"/>
            <path id="Path_8760" data-name="Path 8760" d="M2150.425,1296.167c17.115-.525,29.468,8.377,33.607,11.662a62.6,62.6,0,0,1,11.762-28.154c1.444-1.9,21.911-28.055,49.9-23.751a45.556,45.556,0,0,1,20.6,9c-2.76-.756-34.4-9-58.9,12.155-15.735,13.567-19.383,31.374-20.3,37.057-6.57-2.858-31.045-12.484-57.228-2.136a68.761,68.761,0,0,0-20.86,13.108,30.621,30.621,0,0,1,2.529-7.654c7.2-14.717,25.526-20.861,38.864-21.255Z" transform="translate(-1416.159 -843.011)" fill="#e5e5e5"/>
            <path id="Path_8761" data-name="Path 8761" d="M2291.192,1147.988a200.667,200.667,0,0,1,101.906,9.757c-.3,7.655-.624,15.309-.92,23a14.1,14.1,0,0,0-14.554,10.282,53.147,53.147,0,0,0-29.927-7.49c-20.632,1.183-33.378,14.553-37.123,18.627a61.143,61.143,0,0,0-15.21,31.768,54.741,54.741,0,0,0-10.611-6.308,52.829,52.829,0,0,0-9.955-3.351,115.267,115.267,0,0,0,8.9-17.97,123.735,123.735,0,0,0,7.457-58.279Z" transform="translate(-1527.49 -769.077)" fill="#545454"/>
            <path id="Path_8762" data-name="Path 8762" d="M1717.071,1217.427a241.047,241.047,0,0,0,51.15-11.925c38.337-13.5,51.708-29.271,87.976-41.426a213.572,213.572,0,0,1,57.688-10.676,119.008,119.008,0,0,1-16.393,76.248,51.041,51.041,0,0,0-30.486,3.877,51.59,51.59,0,0,0-23.948,23.062,62.619,62.619,0,0,0-44.646,30.454c-7.228-7.655-15.408-21.847-19.481-28.286-6.275-9.823-11.333-13.8-17.083-17.411-16.754-10.545-38.6-4.468-48.949-.723a46.066,46.066,0,0,0,3.711-11.86A44.57,44.57,0,0,0,1717.071,1217.427Z" transform="translate(-1150.184 -774.489)" fill="url(#linear-gradient-4)"/>
            <path id="Path_8763" data-name="Path 8763" d="M1953.332,1477.672c.592-2.267,4.6-16.689,19.284-24.245,16.031-8.246,31.406-1.478,33.246-.624-.46.854-.953,1.708-1.413,2.563a95.117,95.117,0,0,0-44.646,30.454,16.023,16.023,0,0,1-6.5-8.115Z" transform="translate(-1311.609 -973.235)" fill="#e5e5e5"/>
            <path id="Path_8764" data-name="Path 8764" d="M732.107,1579.9a110.742,110.742,0,0,0-28.975,49.672c-5.618-2.858-45.5-22.175-90.046-3.252-40.835,17.313-55.486,53.975-57.95,60.447a225.305,225.305,0,0,0-220.172,83.706H132.4c200.658-108.279,293.924-138.437,341.328-143.5,8.969-.953,32.622-2.793,66-9.166,51.413-9.855,70.3-19.908,118.1-28.942a571.341,571.341,0,0,1,74.31-8.969Z" transform="translate(-88.904 -1060.877)" fill="#cecece"/>
            <path id="Path_8765" data-name="Path 8765" d="M539.795,1695.2a735.979,735.979,0,0,0-325.3,152.694h-82A703.48,703.48,0,0,1,539.795,1695.2Z" transform="translate(-88.972 -1138.299)" fill="#b5b5b5"/>
          </g>
        </g>
      </g>
      <path id="np_video_1569867_000000" d="M23,18A17.028,17.028,0,0,0,6,35V65A17.028,17.028,0,0,0,23,82H77A17.028,17.028,0,0,0,94,65V35A17.028,17.028,0,0,0,77,18Zm0,6H77A10.912,10.912,0,0,1,88,35V65A10.912,10.912,0,0,1,77,76H23A10.912,10.912,0,0,1,12,65V35A10.912,10.912,0,0,1,23,24ZM43,37V63L65,50Z" transform="translate(910 10687)" fill="#767676"/>
    </g>
  </g>
</svg>