<svg xmlns="http://www.w3.org/2000/svg" width="1600" height="660" viewBox="0 0 1600 660">
  <g id="Video" transform="translate(0 -4854)">
    <g id="Video-2" data-name="Video" transform="translate(0 -685)">
      <rect id="Rectangle_3193" data-name="Rectangle 3193" width="1440" height="580" rx="16" transform="translate(80 5579)" fill="#cfd2d6"/>
      <path id="np_1569867_000000" d="M23,18A17.028,17.028,0,0,0,6,35V65A17.028,17.028,0,0,0,23,82H77A17.028,17.028,0,0,0,94,65V35A17.028,17.028,0,0,0,77,18Zm0,6H77A10.912,10.912,0,0,1,88,35V65A10.912,10.912,0,0,1,77,76H23A10.912,10.912,0,0,1,12,65V35A10.912,10.912,0,0,1,23,24ZM43,37V63L65,50Z" transform="translate(750 5819)" fill="#494a53"/>
    </g>
    <rect id="Rectangle_3507" data-name="Rectangle 3507" width="1600" height="660" transform="translate(0 4854)" fill="none"/>
  </g>
</svg>