<svg xmlns="http://www.w3.org/2000/svg" xmlns:xlink="http://www.w3.org/1999/xlink" width="1344" height="803" viewBox="0 0 1344 803">
  <defs>
    <clipPath id="clip-path">
      <rect id="Rectangle_3559" data-name="Rectangle 3559" width="300.707" height="324.226" fill="none"/>
    </clipPath>
    <clipPath id="clip-path-2">
      <rect width="292" height="64" fill="none"/>
    </clipPath>
    <clipPath id="clip-path-3">
      <rect id="Rectangle_3559-2" data-name="Rectangle 3559" width="40" height="43.128" fill="none"/>
    </clipPath>
  </defs>
  <g id="Group_6964" data-name="Group 6964" transform="translate(-288 -11117)">
    <g id="Group_6947" data-name="Group 6947">
      <g id="Rectangle_3658" data-name="Rectangle 3658" transform="translate(288 11117)" fill="#fff" stroke="#ddd" stroke-width="1">
        <rect width="1344" height="803" rx="15" stroke="none"/>
        <rect x="0.5" y="0.5" width="1343" height="802" rx="14.5" fill="none"/>
      </g>
      <rect id="Rectangle_3659" data-name="Rectangle 3659" width="563" height="563" transform="translate(376 11197)" fill="#f5f5f5"/>
      <text id="Product_Name_Goes_In_This_Space" data-name="Product Name Goes 
In This Space" transform="translate(1060 11257)" fill="#111" font-size="40" font-family="Helvetica-Bold, Helvetica" font-weight="700"><tspan x="0" y="0">Product Name Goes </tspan><tspan x="0" y="48">In This Space</tspan></text>
      <text id="SKU_OR_BRAND_NAME" data-name="SKU OR BRAND NAME" transform="translate(1060 11210)" fill="#111" font-size="13" font-family="Helvetica"><tspan x="0" y="0">SKU OR BRAND NAME</tspan></text>
      <text id="_99.00" data-name="$99.00" transform="translate(1060 11358)" fill="#111" font-size="24" font-family="Helvetica-Bold, Helvetica" font-weight="700"><tspan x="0" y="0">$99.00</tspan></text>
      <text id="_149.00" data-name="$149.00" transform="translate(1166 11358)" fill="#ccc" font-size="24" font-family="Helvetica" text-decoration="line-through"><tspan x="0" y="0">$149.00</tspan></text>
      <g id="Group_6897" data-name="Group 6897" transform="translate(1060 11404)">
        <g id="Rectangle_3070" data-name="Rectangle 3070" transform="translate(0 22)" fill="none" stroke="#ccc" stroke-width="1">
          <rect width="456" height="48" rx="4" stroke="none"/>
          <rect x="0.5" y="0.5" width="455" height="47" rx="3.5" fill="none"/>
        </g>
        <text id="Small" transform="translate(17 51)" fill="#111" font-size="13" font-family="Helvetica"><tspan x="0" y="0">Small</tspan></text>
        <g id="Left-arrow" transform="translate(413.796 48.491) rotate(-90)">
          <path id="Icons-07" d="M.817,0,0,.808,3.692,4.492,7.384.808,6.566,0,3.692,2.875Z" transform="translate(4.492) rotate(90)" fill="#2c2a29"/>
        </g>
        <text id="Size" transform="translate(0 13)" fill="#111" font-size="13" font-family="Helvetica"><tspan x="0" y="0">Size</tspan></text>
      </g>
      <g id="Group_6896" data-name="Group 6896" transform="translate(493.551 11297.845)">
        <g id="Group_6742" data-name="Group 6742" transform="translate(-0.001)" clip-path="url(#clip-path)">
          <path id="Path_6820" data-name="Path 6820" d="M62.855,128.425c3.319-6.068,10.528-9.018,14.482-14.69,3.747-5.383,4.035-12.312,4.744-18.822s2.346-13.6,7.638-17.451c6.431-4.674,15.663-2.736,22.82-6.209,6.609-3.209,10.165-10.323,13.841-16.7S135.1,41.532,142.4,40.611c5.871-.739,11.758,2.527,17.6,1.516,5.663-.979,9.808-5.655,14.314-9.225s11.2-6.105,15.766-2.612c5.342,4.085,3.112,12.947-1.62,17.727s-11.273,7.655-15.351,13.005-5.3,12.619-10.294,17.048c-7.425,6.58-20.685,4.657-26.253,12.862-4.7,6.943-.875,17.264-5.628,24.176-5.7,8.3-20.457,6.983-24.745,16.1-2.243,4.771-.5,10.416-1.373,15.609-1.158,6.906-6.7,12.115-11.92,16.781a52.386,52.386,0,0,1-11.964,8.779c-9.369,4.448-21.488,1.1-20.229-10.4,1.11-10.124-2.815-24.479,2.147-33.574" transform="translate(64.756 30.754)" fill="#eaeaea"/>
          <path id="Path_6821" data-name="Path 6821" d="M64.448,155.584a.378.378,0,0,1-.127-.023.331.331,0,0,1-.191-.429l0-.01A229.4,229.4,0,0,1,178.092,34.088a.338.338,0,0,1,.469.085.345.345,0,0,1-.083.471.57.57,0,0,1-.087.044A228.729,228.729,0,0,0,64.757,155.366a.332.332,0,0,1-.3.207" transform="translate(68.885 36.564)" fill="#fff"/>
          <path id="Path_6822" data-name="Path 6822" d="M74.928,80.111a.338.338,0,0,1-.156-.639,81.755,81.755,0,0,1,24.755-8.211.338.338,0,0,1,.129.664h-.021a81.031,81.031,0,0,0-24.548,8.138.388.388,0,0,1-.16.041" transform="translate(80.146 76.565)" fill="#fff"/>
          <path id="Path_6823" data-name="Path 6823" d="M77.89,77.377h-.064a.336.336,0,0,1-.266-.394v0a60.889,60.889,0,0,0,.562-20.849.339.339,0,1,1,.67-.1,61.472,61.472,0,0,1-.568,21.083.338.338,0,0,1-.332.272" transform="translate(83.333 59.894)" fill="#fff"/>
          <path id="Path_6824" data-name="Path 6824" d="M85.3,63.978a.337.337,0,0,1-.158-.637,38.913,38.913,0,0,1,19.641-4.412.339.339,0,0,1,.322.351.343.343,0,0,1-.351.319,38.166,38.166,0,0,0-19.293,4.334.352.352,0,0,1-.158.037" transform="translate(91.292 63.285)" fill="#fff"/>
          <path id="Path_6825" data-name="Path 6825" d="M93.025,61a.343.343,0,0,1-.135-.029.338.338,0,0,1-.166-.446l0,0a92.708,92.708,0,0,0,6.2-20.368.34.34,0,0,1,.413-.247h0a.336.336,0,0,1,.255.365,93.205,93.205,0,0,1-6.253,20.515.338.338,0,0,1-.3.207" transform="translate(99.602 42.868)" fill="#fff"/>
          <path id="Path_6826" data-name="Path 6826" d="M121.223,50.854a.333.333,0,0,1-.183-.052,26.648,26.648,0,0,0-19.465-3.7.338.338,0,1,1-.133-.664,27.332,27.332,0,0,1,19.961,3.8.334.334,0,0,1,.106.463v0a.334.334,0,0,1-.3.156" transform="translate(108.71 49.353)" fill="#fff"/>
          <path id="Path_6827" data-name="Path 6827" d="M106.125,44.966a.334.334,0,0,1-.34-.328v-.006a.314.314,0,0,1,.077-.22,35.706,35.706,0,0,0,4.782-7.653.339.339,0,0,1,.622.27v.015a36.27,36.27,0,0,1-4.873,7.8.329.329,0,0,1-.261.127" transform="translate(113.667 39.278)" fill="#fff"/>
          <path id="Path_6828" data-name="Path 6828" d="M119.8,39.72a.324.324,0,0,1-.133-.027,11.778,11.778,0,0,0-6.319-.751.334.334,0,0,1-.394-.259l0-.006a.339.339,0,0,1,.266-.4h.021a12.284,12.284,0,0,1,6.684.788.338.338,0,0,1-.133.653" transform="translate(121.362 40.964)" fill="#fff"/>
          <path id="Path_6829" data-name="Path 6829" d="M55.747,169.261c2.338-5.769,6.508-11.269,5.9-17.463-.83-8.464-10.1-13.758-12.377-21.952-2.214-7.968,2.736-16.032,7.775-22.579S67.816,93.575,67.333,85.32c-.448-7.713-6.311-14.42-6.346-22.135-.029-6.767,4.437-12.7,9.271-17.426s10.373-9,13.6-14.957c3.352-6.159,3.838-13.453,6.535-19.888S99.61-1.544,106.33.356c5.684,1.6,8.551,8.091,8.8,13.982S113.773,26.07,114,31.958c.463,11.906,8.265,24.064,3.467,35-3.925,8.92-15.47,14.148-15.914,23.88-.336,7.385,6.132,13.329,7.725,20.538,3.137,14.161-12.883,26.207-12.924,40.716-.021,8.574,5.564,16.152,7.178,24.562a27.682,27.682,0,0,1-9.543,26.2c-23.133,18.766-47.857-9.837-38.248-33.607" transform="translate(52.361 0)" fill="#ddd"/>
          <path id="Path_6830" data-name="Path 6830" d="M61.331,180.064H61.31a.342.342,0,0,1-.319-.363A849.519,849.519,0,0,1,90.855,7.616a.347.347,0,0,1,.415-.234A.338.338,0,0,1,91.5,7.8a848.607,848.607,0,0,0-29.832,171.95.338.338,0,0,1-.34.315" transform="translate(65.534 7.92)" fill="#fff"/>
          <path id="Path_6831" data-name="Path 6831" d="M63.882,92.159a.341.341,0,0,1-.162-.041.337.337,0,0,1-.141-.454,95.139,95.139,0,0,1,13.8-19.326.343.343,0,0,1,.477-.048.339.339,0,0,1,.042.477l-.021.027A94.328,94.328,0,0,0,64.172,91.986a.35.35,0,0,1-.3.176" transform="translate(68.275 77.595)" fill="#fff"/>
          <path id="Path_6832" data-name="Path 6832" d="M67.075,83.229a.338.338,0,0,1-.332-.272A84.1,84.1,0,0,0,55.86,55.078a.338.338,0,0,1,.577-.351A84.826,84.826,0,0,1,67.4,82.842a.336.336,0,0,1-.263.4h-.066" transform="translate(59.981 58.651)" fill="#fff"/>
          <path id="Path_6833" data-name="Path 6833" d="M65.672,74.125a.344.344,0,0,1-.34-.344.361.361,0,0,1,.05-.174,103.488,103.488,0,0,1,18.042-22.05.338.338,0,0,1,.477.017.343.343,0,0,1-.017.483,103.062,103.062,0,0,0-17.913,21.9.344.344,0,0,1-.3.162" transform="translate(70.2 55.3)" fill="#fff"/>
          <path id="Path_6834" data-name="Path 6834" d="M70.637,60.208a.338.338,0,0,1-.332-.272,104.206,104.206,0,0,0-9.978-28.2.338.338,0,1,1,.541-.4.291.291,0,0,1,.05.093A104.986,104.986,0,0,1,70.957,59.809a.338.338,0,0,1-.263.4h-.066" transform="translate(64.75 33.517)" fill="#fff"/>
          <path id="Path_6835" data-name="Path 6835" d="M69.956,47.17a.337.337,0,0,1-.34-.332v0a.357.357,0,0,1,.058-.193,56.194,56.194,0,0,1,17.218-16.48.338.338,0,0,1,.351.577,55.518,55.518,0,0,0-17,16.27.328.328,0,0,1-.282.149" transform="translate(74.803 32.367)" fill="#fff"/>
          <path id="Path_6836" data-name="Path 6836" d="M70.5,38.354a.337.337,0,0,1-.34-.326,50.064,50.064,0,0,0-4.139-18.252.34.34,0,1,1,.622-.272,50.794,50.794,0,0,1,4.184,18.509.336.336,0,0,1-.324.349h0Z" transform="translate(70.914 20.739)" fill="#fff"/>
          <path id="Path_6837" data-name="Path 6837" d="M74.124,23.851a.338.338,0,0,1-.3-.5,23.068,23.068,0,0,1,9.646-9.4.34.34,0,0,1,.3.6,22.35,22.35,0,0,0-9.362,9.128.332.332,0,0,1-.3.176" transform="translate(79.284 14.969)" fill="#fff"/>
          <path id="Path_6838" data-name="Path 6838" d="M132.787,127.8c-3.479-5.983-10.769-8.723-14.883-14.285-3.89-5.263-4.373-12.2-5.257-18.681S109.928,81.3,104.53,77.6c-6.558-4.487-15.729-2.3-22.971-5.576-6.7-3.029-10.47-10.039-14.3-16.312S58.182,42.93,50.875,42.217c-5.892-.577-11.688,2.85-17.548,2-5.682-.83-9.958-5.383-14.563-8.827S7.4,29.581,2.929,33.207C-2.313,37.437.164,46.235,5.012,50.886s11.474,7.34,15.7,12.561S26.358,75.915,31.476,80.2c7.6,6.379,20.807,4.089,26.6,12.148,4.892,6.815,1.353,17.231,6.28,24.008,5.933,8.142,20.637,6.416,25.183,15.41,2.375,4.7.788,10.4,1.794,15.559,1.346,6.879,7.028,11.928,12.377,16.451A52.145,52.145,0,0,0,115.9,172.22c9.487,4.188,21.509.51,19.932-10.949-1.388-10.093,2.141-24.556-3.062-33.5" transform="translate(0 33.729)" fill="#ccc"/>
          <path id="Path_6839" data-name="Path 6839" d="M122.493,155.126a.344.344,0,0,1-.3-.207A228.711,228.711,0,0,0,5.295,37.424a.34.34,0,0,1-.172-.446.336.336,0,0,1,.442-.174l0,0A229.418,229.418,0,0,1,122.814,154.653a.339.339,0,0,1-.172.446.3.3,0,0,1-.135.029" transform="translate(5.474 39.516)" fill="#fff"/>
          <path id="Path_6840" data-name="Path 6840" d="M57.579,87.987h-.035a.336.336,0,0,1-.3-.365l1.3-12.447a.34.34,0,0,1,.676.071l-1.3,12.447a.339.339,0,0,1-.336.3" transform="translate(61.507 80.463)" fill="#fff"/>
          <path id="Path_6841" data-name="Path 6841" d="M63.791,81.255a.328.328,0,0,1-.147-.035,81.047,81.047,0,0,0-24.776-7.454.342.342,0,0,1,.091-.676,81.867,81.867,0,0,1,24.969,7.522.334.334,0,0,1,.16.444l0,0a.329.329,0,0,1-.3.2" transform="translate(41.474 78.535)" fill="#fff"/>
          <path id="Path_6842" data-name="Path 6842" d="M48.514,78.958a.338.338,0,0,1-.332-.263,61.627,61.627,0,0,1-1.151-21.063.345.345,0,0,1,.378-.3.339.339,0,0,1,.3.378,60.891,60.891,0,0,0,1.137,20.828.34.34,0,0,1-.245.413l-.006,0a.505.505,0,0,1-.079,0" transform="translate(50.079 61.603)" fill="#fff"/>
          <path id="Path_6843" data-name="Path 6843" d="M50.3,65.52a.352.352,0,0,1-.151-.035,38.119,38.119,0,0,0-19.4-3.8.342.342,0,0,1-.363-.315.337.337,0,0,1,.309-.361H30.7a38.825,38.825,0,0,1,19.741,3.869.338.338,0,0,1-.151.645" transform="translate(32.649 65.456)" fill="#fff"/>
          <path id="Path_6844" data-name="Path 6844" d="M35.634,62.931a.345.345,0,0,1-.3-.193,93.449,93.449,0,0,1-6.813-20.33.34.34,0,0,1,.653-.189l.01.048A92.668,92.668,0,0,0,35.95,62.456a.331.331,0,0,1-.154.444l0,0a.344.344,0,0,1-.143.033" transform="translate(30.634 45.101)" fill="#fff"/>
          <path id="Path_6845" data-name="Path 6845" d="M14.1,53.576a.338.338,0,0,1-.336-.34.331.331,0,0,1,.147-.276A27.321,27.321,0,0,1,33.757,48.6a.338.338,0,0,1-.054.674.28.28,0,0,1-.06-.01A26.644,26.644,0,0,0,14.284,53.52a.366.366,0,0,1-.191.056" transform="translate(14.784 51.826)" fill="#fff"/>
          <path id="Path_6846" data-name="Path 6846" d="M21.4,47.287a.343.343,0,0,1-.255-.116,36.3,36.3,0,0,1-5.085-7.661.339.339,0,1,1,.6-.3,35.8,35.8,0,0,0,4.993,7.52.338.338,0,0,1-.035.475.333.333,0,0,1-.222.085" transform="translate(17.189 41.88)" fill="#fff"/>
          <path id="Path_6847" data-name="Path 6847" d="M8.432,42.441a.338.338,0,0,1-.346-.33.335.335,0,0,1,.205-.319,12.29,12.29,0,0,1,6.657-.973.34.34,0,0,1-.087.674h0a11.744,11.744,0,0,0-6.282.923.373.373,0,0,1-.141.029" transform="translate(8.687 43.745)" fill="#fff"/>
          <path id="Path_6848" data-name="Path 6848" d="M88.83,155.039h0a50.112,50.112,0,0,1-50.112-50.11V83.186H138.942v21.747A50.112,50.112,0,0,1,88.83,155.045" transform="translate(41.603 89.385)" fill="#fff"/>
          <path id="Path_6849" data-name="Path 6849" d="M154.552,96.4a1.429,1.429,0,0,1-1.429-1.429V68.935a31.3,31.3,0,1,0-62.6,0V94.973a1.428,1.428,0,1,1-2.857,0V68.935a34.16,34.16,0,1,1,68.32,0V94.973a1.429,1.429,0,0,1-1.429,1.429" transform="translate(94.193 37.354)" fill="#767676"/>
          <path id="Path_6850" data-name="Path 6850" d="M213.3,56.857H57.172L42.511,263.132H198.637Z" transform="translate(45.679 61.093)" fill="#ddd"/>
          <path id="Path_6851" data-name="Path 6851" d="M117.77,263.132h56.394L163.291,56.857H129.368Z" transform="translate(126.545 61.094)" fill="#ccc"/>
          <path id="Path_6852" data-name="Path 6852" d="M174.163,174.7l-30.4-35.549-26,35.549Z" transform="translate(126.545 149.523)" fill="#ccc"/>
          <path id="Path_6853" data-name="Path 6853" d="M130.3,227.583V56.857h19.523L160.7,263.132Z" transform="translate(140.011 61.093)" fill="#ddd"/>
          <path id="Path_6854" data-name="Path 6854" d="M81.971,67.273a6.734,6.734,0,1,1-6.734-6.734,6.733,6.733,0,0,1,6.734,6.734" transform="translate(73.608 65.05)" fill="#fff"/>
          <path id="Path_6855" data-name="Path 6855" d="M113.534,67.273a6.734,6.734,0,1,1-6.734-6.734,6.733,6.733,0,0,1,6.734,6.734" transform="translate(107.522 65.05)" fill="#fff"/>
          <path id="Path_6856" data-name="Path 6856" d="M137.955,96.4a1.429,1.429,0,0,1-1.429-1.429V68.935a31.3,31.3,0,1,0-62.6,0V94.973a1.428,1.428,0,1,1-2.857,0V68.935a34.16,34.16,0,1,1,68.32,0V94.973a1.429,1.429,0,0,1-1.429,1.429" transform="translate(76.359 37.354)" fill="#767676"/>
          <path id="Path_6857" data-name="Path 6857" d="M159.5,115.04v78.709a6.844,6.844,0,0,1-6.831,6.865H41.492a6.85,6.85,0,0,1-6.865-6.865V115.04Z" transform="translate(37.207 123.612)" fill="#ccc"/>
          <path id="Path_6858" data-name="Path 6858" d="M146.65,114.953l12.852,4.682H34.626l12.887-4.682-12.887-4.191H159.5Z" transform="translate(37.206 119.016)" fill="#b9b9b9"/>
          <path id="Path_6859" data-name="Path 6859" d="M47.5,112.789v4.657H34.627Z" transform="translate(37.208 121.194)" fill="#767676"/>
          <path id="Path_6860" data-name="Path 6860" d="M34.624,110.766v8.869L47.5,114.963Z" transform="translate(37.204 119.02)" fill="#b9b9b9"/>
          <path id="Path_6861" data-name="Path 6861" d="M88.62,112.789v4.672h12.874Z" transform="translate(95.224 121.194)" fill="#767676"/>
          <path id="Path_6862" data-name="Path 6862" d="M101.495,110.766v8.869L88.62,114.963Z" transform="translate(95.224 119.02)" fill="#b9b9b9"/>
          <path id="Path_6863" data-name="Path 6863" d="M56.291,124.473a5.134,5.134,0,1,1-5.134-5.134,5.134,5.134,0,0,1,5.134,5.134" transform="translate(49.451 128.232)" fill="#fff"/>
          <path id="Path_6864" data-name="Path 6864" d="M88.744,124.473a5.134,5.134,0,1,1-5.134-5.134,5.134,5.134,0,0,1,5.134,5.134" transform="translate(84.323 128.232)" fill="#fff"/>
          <path id="Path_6865" data-name="Path 6865" d="M116.635,150.127a1.573,1.573,0,0,1-1.572-1.572V132.162a32.09,32.09,0,1,0-64.179,0v16.393a1.571,1.571,0,1,1-3.143,0V132.162a35.234,35.234,0,1,1,70.467,0v16.393a1.573,1.573,0,0,1-1.572,1.572" transform="translate(51.297 104.151)" fill="#767676"/>
        </g>
      </g>
      <g id="Group_6488" data-name="Group 6488" transform="translate(544 10966)">
        <g id="Group_5084" data-name="Group 5084" transform="translate(500 127)">
          <text id="Color:_White" data-name="Color:  White" transform="translate(16 418)" fill="#111" font-size="13" font-family="Helvetica"><tspan x="0" y="0" xml:space="preserve">Color:  White</tspan></text>
          <g id="Ellipse_258" data-name="Ellipse 258" transform="translate(60 433)" fill="#fff" stroke="#111" stroke-width="1">
            <circle cx="20" cy="20" r="20" stroke="none"/>
            <circle cx="20" cy="20" r="19.5" fill="none"/>
          </g>
          <circle id="Ellipse_257" data-name="Ellipse 257" cx="16" cy="16" r="16" transform="translate(16 437)"/>
          <g id="Ellipse_260" data-name="Ellipse 260" transform="translate(64 437)" fill="#fff" stroke="#ccc" stroke-width="1">
            <circle cx="16" cy="16" r="16" stroke="none"/>
            <circle cx="16" cy="16" r="15.5" fill="none"/>
          </g>
          <circle id="Ellipse_263" data-name="Ellipse 263" cx="16" cy="16" r="16" transform="translate(112 437)" fill="#c3c3c3"/>
        </g>
      </g>
      <g id="Group_6528" data-name="Group 6528" transform="translate(248 9745)">
        <rect id="Rectangle_3403" data-name="Rectangle 3403" width="320" height="48" rx="4" transform="translate(948 1871)" fill="#111"/>
        <text id="Add_to_Cart" data-name="Add to Cart" transform="translate(1108 1900)" fill="#fff" font-size="13" font-family="Helvetica"><tspan x="-34.208" y="0">Add To Cart</tspan></text>
        <text id="Add_to_Wishlist" data-name="Add to Wishlist" transform="translate(1108 1952)" fill="#111" font-size="13" font-family="Helvetica" text-decoration="underline"><tspan x="-42.986" y="0">Add to Wishlist</tspan></text>
        <text id="Qty" transform="translate(812 1862)" fill="#111" font-size="13" font-family="Helvetica"><tspan x="0" y="0">Qty</tspan></text>
        <g id="Rectangle_3404" data-name="Rectangle 3404" transform="translate(812 1871)" fill="#fff" stroke="#ccc" stroke-width="1">
          <rect width="120" height="48" rx="4" stroke="none"/>
          <rect x="0.5" y="0.5" width="119" height="47" rx="3.5" fill="none"/>
        </g>
        <text id="_1" data-name="1" transform="translate(872 1900)" fill="#111" font-size="13" font-family="Helvetica"><tspan x="-3.615" y="0">1</tspan></text>
        <path id="np_plus_2310574_000000" d="M16.53,12v4.53H12v1.7h4.53v4.53h1.7v-4.53h4.53v-1.7h-4.53V12Z" transform="translate(894 1878)" fill="#575a5d"/>
        <path id="Icons-03" d="M33.923,35.156H29.3v1.705H39.641V35.11H34.989Z" transform="translate(798.7 1858.891)" fill="#575a5d"/>
      </g>
      <g id="Repeat_Grid_226" data-name="Repeat Grid 226" transform="translate(512 11776)" clip-path="url(#clip-path-2)">
        <g transform="translate(-20 -498)">
          <rect id="Rectangle_3406" data-name="Rectangle 3406" width="64" height="64" transform="translate(20 498)" fill="#f5f5f5"/>
          <g id="Group_6743" data-name="Group 6743" transform="translate(32 508)">
            <g id="Group_6742-2" data-name="Group 6742" clip-path="url(#clip-path-3)">
              <path id="Path_6820-2" data-name="Path 6820" d="M60.61,41.9c.442-.807,1.4-1.2,1.926-1.954a5.267,5.267,0,0,0,.631-2.5,3.186,3.186,0,0,1,1.016-2.321c.855-.622,2.083-.364,3.035-.826a4.98,4.98,0,0,0,1.841-2.221,3.242,3.242,0,0,1,2.131-1.855c.781-.1,1.564.336,2.341.2a4.653,4.653,0,0,0,1.9-1.227,1.793,1.793,0,0,1,2.1-.347c.711.543.414,1.722-.216,2.358a20.947,20.947,0,0,0-2.042,1.73c-.543.712-.7,1.679-1.369,2.268-.988.875-2.752.62-3.492,1.711-.625.924-.116,2.3-.749,3.216-.759,1.1-2.721.929-3.292,2.141-.3.635-.067,1.386-.183,2.076a4.188,4.188,0,0,1-1.586,2.232,6.969,6.969,0,0,1-1.591,1.168c-1.246.592-2.858.146-2.691-1.383.148-1.347-.374-3.256.286-4.466" transform="translate(-43.635 -20.723)" fill="#eaeaea"/>
              <path id="Path_6821-2" data-name="Path 6821" d="M64.153,50.2a.051.051,0,0,1-.017,0,.044.044,0,0,1-.025-.057h0a30.514,30.514,0,0,1,15.159-16.1.045.045,0,0,1,.062.011.046.046,0,0,1-.011.063l-.012.006A30.425,30.425,0,0,0,64.194,50.169a.044.044,0,0,1-.039.028" transform="translate(-46.417 -24.638)" fill="#fff"/>
              <path id="Path_6822-2" data-name="Path 6822" d="M74.633,72.433a.045.045,0,0,1-.021-.085,10.875,10.875,0,0,1,3.293-1.092.045.045,0,0,1,.017.088h0a10.779,10.779,0,0,0-3.265,1.083.052.052,0,0,1-.021.006" transform="translate(-54.005 -51.592)" fill="#fff"/>
              <path id="Path_6823-2" data-name="Path 6823" d="M77.6,58.618H77.59a.045.045,0,0,1-.035-.052h0a8.1,8.1,0,0,0,.075-2.773.045.045,0,1,1,.089-.013,8.177,8.177,0,0,1-.076,2.8.045.045,0,0,1-.044.036" transform="translate(-56.153 -40.359)" fill="#fff"/>
              <path id="Path_6824-2" data-name="Path 6824" d="M85.006,59.572a.045.045,0,0,1-.021-.085A5.176,5.176,0,0,1,87.6,58.9a.045.045,0,0,1,.043.047.046.046,0,0,1-.047.042,5.077,5.077,0,0,0-2.566.576.047.047,0,0,1-.021,0" transform="translate(-61.516 -42.644)" fill="#fff"/>
              <path id="Path_6825-2" data-name="Path 6825" d="M92.738,42.7a.046.046,0,0,1-.018,0,.045.045,0,0,1-.022-.059h0a12.332,12.332,0,0,0,.825-2.709.045.045,0,0,1,.055-.033h0a.045.045,0,0,1,.034.049,12.4,12.4,0,0,1-.832,2.729.045.045,0,0,1-.04.028" transform="translate(-67.115 -28.886)" fill="#fff"/>
              <path id="Path_6826-2" data-name="Path 6826" d="M103.838,46.586a.044.044,0,0,1-.024-.007,3.545,3.545,0,0,0-2.589-.493.045.045,0,0,1-.018-.088,3.636,3.636,0,0,1,2.655.506.044.044,0,0,1,.014.062h0a.044.044,0,0,1-.04.021" transform="translate(-73.253 -33.256)" fill="#fff"/>
              <path id="Path_6827-2" data-name="Path 6827" d="M105.83,37.673a.044.044,0,0,1-.045-.044h0a.042.042,0,0,1,.01-.029,4.75,4.75,0,0,0,.636-1.018.045.045,0,1,1,.083.036v0a4.825,4.825,0,0,1-.648,1.037.044.044,0,0,1-.035.017" transform="translate(-76.593 -26.467)" fill="#fff"/>
              <path id="Path_6828-2" data-name="Path 6828" d="M113.858,38.336a.043.043,0,0,1-.018,0,1.567,1.567,0,0,0-.841-.1.044.044,0,0,1-.052-.034h0a.045.045,0,0,1,.035-.053h0a1.634,1.634,0,0,1,.889.1.045.045,0,0,1-.018.087" transform="translate(-81.778 -27.603)" fill="#fff"/>
              <path id="Path_6829-2" data-name="Path 6829" d="M49.663,22.515a5.222,5.222,0,0,0,.785-2.323c-.11-1.126-1.344-1.83-1.646-2.92a3.634,3.634,0,0,1,1.034-3A4.69,4.69,0,0,0,51.2,11.35c-.06-1.026-.839-1.918-.844-2.944a3.419,3.419,0,0,1,1.233-2.318A9.02,9.02,0,0,0,53.4,4.1a27.427,27.427,0,0,0,.869-2.646C54.63.6,55.5-.205,56.391.048a1.928,1.928,0,0,1,1.171,1.86c.033.784-.18,1.561-.15,2.344.062,1.584,1.1,3.2.461,4.655-.522,1.187-2.058,1.882-2.117,3.176-.045.982.816,1.773,1.028,2.732C57.2,16.7,55.07,18.3,55.065,20.231c0,1.141.74,2.149.955,3.267a3.682,3.682,0,0,1-1.269,3.486c-3.077,2.5-6.366-1.309-5.088-4.47" transform="translate(-35.282 0)" fill="#ddd"/>
              <path id="Path_6830-2" data-name="Path 6830" d="M61.035,30.343h0a.045.045,0,0,1-.042-.048A113,113,0,0,1,64.962,7.4a.046.046,0,0,1,.055-.031.045.045,0,0,1,.031.055A112.882,112.882,0,0,0,61.08,30.3a.045.045,0,0,1-.045.042" transform="translate(-44.159 -5.337)" fill="#fff"/>
              <path id="Path_6831-2" data-name="Path 6831" d="M63.586,74.867a.045.045,0,0,1-.022-.006.045.045,0,0,1-.019-.06,12.655,12.655,0,0,1,1.836-2.571.046.046,0,0,1,.063-.006.045.045,0,0,1,.006.063l0,0a12.548,12.548,0,0,0-1.823,2.553.047.047,0,0,1-.04.023" transform="translate(-46.006 -52.286)" fill="#fff"/>
              <path id="Path_6832-2" data-name="Path 6832" d="M57.318,58.394a.045.045,0,0,1-.044-.036,11.187,11.187,0,0,0-1.448-3.709A.045.045,0,0,1,55.9,54.6a11.284,11.284,0,0,1,1.459,3.74.045.045,0,0,1-.035.053h-.009" transform="translate(-40.417 -39.521)" fill="#fff"/>
              <path id="Path_6833-2" data-name="Path 6833" d="M65.377,54.479a.046.046,0,0,1-.045-.046.048.048,0,0,1,.007-.023,13.766,13.766,0,0,1,2.4-2.933.045.045,0,0,1,.063,0,.046.046,0,0,1,0,.064,13.709,13.709,0,0,0-2.383,2.914.046.046,0,0,1-.04.022" transform="translate(-47.304 -37.263)" fill="#fff"/>
              <path id="Path_6834-2" data-name="Path 6834" d="M61.64,35.052a.045.045,0,0,1-.044-.036,13.861,13.861,0,0,0-1.327-3.752.045.045,0,0,1,.072-.054.039.039,0,0,1,.007.012A13.965,13.965,0,0,1,61.682,35a.045.045,0,0,1-.035.053h-.009" transform="translate(-43.631 -22.585)" fill="#fff"/>
              <path id="Path_6835-2" data-name="Path 6835" d="M69.661,32.39a.045.045,0,0,1-.045-.044h0a.047.047,0,0,1,.008-.026,7.475,7.475,0,0,1,2.29-2.192.045.045,0,0,1,.047.077A7.385,7.385,0,0,0,69.7,32.368a.044.044,0,0,1-.038.02" transform="translate(-50.405 -21.81)" fill="#fff"/>
              <path id="Path_6836-2" data-name="Path 6836" d="M66.6,21.835a.045.045,0,0,1-.045-.043A6.66,6.66,0,0,0,66,19.364a.045.045,0,1,1,.083-.036,6.757,6.757,0,0,1,.557,2.462.045.045,0,0,1-.043.046h0Z" transform="translate(-47.785 -13.974)" fill="#fff"/>
              <path id="Path_6837-2" data-name="Path 6837" d="M73.831,15.251a.045.045,0,0,1-.039-.067,3.068,3.068,0,0,1,1.283-1.251.045.045,0,0,1,.04.08,2.973,2.973,0,0,0-1.245,1.214.044.044,0,0,1-.04.023" transform="translate(-53.425 -10.087)" fill="#fff"/>
              <path id="Path_6838-2" data-name="Path 6838" d="M17.664,44.215c-.463-.8-1.432-1.16-1.98-1.9a5.259,5.259,0,0,1-.7-2.485,3.185,3.185,0,0,0-1.08-2.293c-.872-.6-2.092-.306-3.056-.742a4.957,4.957,0,0,1-1.9-2.17,3.232,3.232,0,0,0-2.18-1.8c-.784-.077-1.555.379-2.334.266A4.671,4.671,0,0,1,2.5,31.922a1.793,1.793,0,0,0-2.106-.29c-.7.563-.368,1.733.277,2.352a21.506,21.506,0,0,1,2.088,1.671c.562.695.751,1.658,1.432,2.228,1.011.849,2.768.544,3.538,1.616.651.906.18,2.292.835,3.194.789,1.083,2.745.854,3.35,2.05.316.625.1,1.384.239,2.07A4.186,4.186,0,0,0,13.8,49a6.936,6.936,0,0,0,1.622,1.123c1.262.557,2.861.068,2.651-1.456-.185-1.343.285-3.266-.407-4.457" transform="translate(0 -22.728)" fill="#ccc"/>
              <path id="Path_6839-2" data-name="Path 6839" d="M20.711,52.518a.046.046,0,0,1-.04-.028A30.423,30.423,0,0,0,5.121,36.862.045.045,0,0,1,5.1,36.8a.045.045,0,0,1,.059-.023h0a30.517,30.517,0,0,1,15.6,15.676.045.045,0,0,1-.023.059.04.04,0,0,1-.018,0" transform="translate(-3.688 -26.627)" fill="#fff"/>
              <path id="Path_6840-2" data-name="Path 6840" d="M57.286,76.626h0a.045.045,0,0,1-.04-.049l.172-1.656a.045.045,0,0,1,.09.009l-.173,1.656a.045.045,0,0,1-.045.04" transform="translate(-41.446 -54.219)" fill="#fff"/>
              <path id="Path_6841-2" data-name="Path 6841" d="M41.949,74.175a.044.044,0,0,1-.02,0,10.781,10.781,0,0,0-3.3-.991.046.046,0,0,1,.012-.09,10.89,10.89,0,0,1,3.321,1,.044.044,0,0,1,.021.059h0a.044.044,0,0,1-.041.026" transform="translate(-27.947 -52.92)" fill="#fff"/>
              <path id="Path_6842-2" data-name="Path 6842" d="M46.86,60.208a.045.045,0,0,1-.044-.035,8.2,8.2,0,0,1-.153-2.8.046.046,0,0,1,.05-.04.045.045,0,0,1,.039.05,8.1,8.1,0,0,0,.151,2.771.045.045,0,0,1-.033.055H46.86" transform="translate(-33.745 -41.511)" fill="#fff"/>
              <path id="Path_6843-2" data-name="Path 6843" d="M33.033,61.529a.047.047,0,0,1-.02,0,5.07,5.07,0,0,0-2.58-.506.046.046,0,0,1-.048-.042.045.045,0,0,1,.041-.048h0a5.165,5.165,0,0,1,2.626.515.045.045,0,0,1-.02.086" transform="translate(-22 -44.107)" fill="#fff"/>
              <path id="Path_6844-2" data-name="Path 6844" d="M29.457,44.761a.046.046,0,0,1-.04-.026,12.431,12.431,0,0,1-.906-2.7.045.045,0,1,1,.087-.025v.006a12.327,12.327,0,0,0,.9,2.686.044.044,0,0,1-.02.059h0a.046.046,0,0,1-.019,0" transform="translate(-20.642 -30.391)" fill="#fff"/>
              <path id="Path_6845-2" data-name="Path 6845" d="M13.8,48.943a.045.045,0,0,1-.045-.045.044.044,0,0,1,.02-.037,3.634,3.634,0,0,1,2.641-.579.045.045,0,0,1-.007.09H16.4a3.544,3.544,0,0,0-2.575.566.049.049,0,0,1-.025.007" transform="translate(-9.962 -34.922)" fill="#fff"/>
              <path id="Path_6846-2" data-name="Path 6846" d="M16.716,40.081a.046.046,0,0,1-.034-.015,4.828,4.828,0,0,1-.676-1.019.045.045,0,1,1,.079-.04,4.762,4.762,0,0,0,.664,1,.045.045,0,0,1,0,.063.044.044,0,0,1-.03.011" transform="translate(-11.583 -28.22)" fill="#fff"/>
              <path id="Path_6847-2" data-name="Path 6847" d="M8.131,40.941a.045.045,0,0,1-.046-.044.044.044,0,0,1,.027-.042A1.635,1.635,0,0,1,9,40.726a.045.045,0,0,1-.012.09h0a1.562,1.562,0,0,0-.836.123.05.05,0,0,1-.019,0" transform="translate(-5.854 -29.477)" fill="#fff"/>
              <path id="Path_6848-2" data-name="Path 6848" d="M45.384,92.744h0a6.666,6.666,0,0,1-6.666-6.666V83.186H52.05v2.893a6.666,6.666,0,0,1-6.666,6.666" transform="translate(-28.034 -60.231)" fill="#fff"/>
              <path id="Path_6849-2" data-name="Path 6849" d="M96.559,42.963a.19.19,0,0,1-.19-.19V39.309a4.164,4.164,0,1,0-8.328,0v3.463a.19.19,0,1,1-.38,0V39.309a4.544,4.544,0,1,1,9.088,0v3.463a.19.19,0,0,1-.19.19" transform="translate(-63.471 -25.171)" fill="#767676"/>
              <path id="Path_6850-2" data-name="Path 6850" d="M65.229,56.857H44.461L42.511,84.3H63.279Z" transform="translate(-30.78 -41.167)" fill="#ddd"/>
              <path id="Path_6851-2" data-name="Path 6851" d="M117.77,84.3h7.5l-1.446-27.439h-4.512Z" transform="translate(-85.271 -41.167)" fill="#ccc"/>
              <path id="Path_6852-2" data-name="Path 6852" d="M125.271,143.883l-4.043-4.729-3.458,4.729Z" transform="translate(-85.271 -100.754)" fill="#ccc"/>
              <path id="Path_6853-2" data-name="Path 6853" d="M130.3,79.567V56.857h2.6L134.345,84.3Z" transform="translate(-94.345 -41.167)" fill="#ddd"/>
              <path id="Path_6854-2" data-name="Path 6854" d="M70.294,61.435a.9.9,0,1,1-.9-.9.9.9,0,0,1,.9.9" transform="translate(-49.599 -43.833)" fill="#fff"/>
              <path id="Path_6855-2" data-name="Path 6855" d="M101.857,61.435a.9.9,0,1,1-.9-.9.9.9,0,0,1,.9.9" transform="translate(-72.453 -43.833)" fill="#fff"/>
              <path id="Path_6856-2" data-name="Path 6856" d="M79.962,42.963a.19.19,0,0,1-.19-.19V39.309a4.164,4.164,0,1,0-8.328,0v3.463a.19.19,0,1,1-.38,0V39.309a4.544,4.544,0,1,1,9.088,0v3.463a.19.19,0,0,1-.19.19" transform="translate(-51.454 -25.171)" fill="#767676"/>
              <path id="Path_6857-2" data-name="Path 6857" d="M51.238,115.04v10.47a.91.91,0,0,1-.909.913H35.54a.911.911,0,0,1-.913-.913V115.04Z" transform="translate(-25.072 -83.295)" fill="#ccc"/>
              <path id="Path_6858-2" data-name="Path 6858" d="M49.527,111.32l1.71.623H34.626l1.714-.623-1.714-.557H51.237Z" transform="translate(-25.071 -80.197)" fill="#b9b9b9"/>
              <path id="Path_6859-2" data-name="Path 6859" d="M36.339,112.789v.62H34.627Z" transform="translate(-25.072 -81.665)" fill="#767676"/>
              <path id="Path_6860-2" data-name="Path 6860" d="M34.624,110.766v1.18l1.713-.621Z" transform="translate(-25.07 -80.2)" fill="#b9b9b9"/>
              <path id="Path_6861-2" data-name="Path 6861" d="M88.62,112.79v.621h1.713Z" transform="translate(-64.165 -81.665)" fill="#767676"/>
              <path id="Path_6862-2" data-name="Path 6862" d="M90.333,110.766v1.18l-1.713-.621Z" transform="translate(-64.165 -80.2)" fill="#b9b9b9"/>
              <path id="Path_6863-2" data-name="Path 6863" d="M47.388,120.022a.683.683,0,1,1-.683-.683.683.683,0,0,1,.683.683" transform="translate(-33.322 -86.407)" fill="#fff"/>
              <path id="Path_6864-2" data-name="Path 6864" d="M79.841,120.022a.683.683,0,1,1-.683-.683.683.683,0,0,1,.683.683" transform="translate(-56.82 -86.407)" fill="#fff"/>
              <path id="Path_6865-2" data-name="Path 6865" d="M56.9,104a.209.209,0,0,1-.209-.209v-2.181a4.269,4.269,0,1,0-8.537,0V103.8a.209.209,0,1,1-.418,0v-2.181a4.687,4.687,0,0,1,9.374,0V103.8A.209.209,0,0,1,56.9,104" transform="translate(-34.566 -70.181)" fill="#767676"/>
            </g>
          </g>
        </g>
        <g transform="translate(56 -498)">
          <rect id="Rectangle_3406-2" data-name="Rectangle 3406" width="64" height="64" transform="translate(20 498)" fill="#f5f5f5"/>
          <g id="Group_6743-2" data-name="Group 6743" transform="translate(32 508)">
            <g id="Group_6742-3" data-name="Group 6742" clip-path="url(#clip-path-3)">
              <path id="Path_6820-3" data-name="Path 6820" d="M60.61,41.9c.442-.807,1.4-1.2,1.926-1.954a5.267,5.267,0,0,0,.631-2.5,3.186,3.186,0,0,1,1.016-2.321c.855-.622,2.083-.364,3.035-.826a4.98,4.98,0,0,0,1.841-2.221,3.242,3.242,0,0,1,2.131-1.855c.781-.1,1.564.336,2.341.2a4.653,4.653,0,0,0,1.9-1.227,1.793,1.793,0,0,1,2.1-.347c.711.543.414,1.722-.216,2.358a20.947,20.947,0,0,0-2.042,1.73c-.543.712-.7,1.679-1.369,2.268-.988.875-2.752.62-3.492,1.711-.625.924-.116,2.3-.749,3.216-.759,1.1-2.721.929-3.292,2.141-.3.635-.067,1.386-.183,2.076a4.188,4.188,0,0,1-1.586,2.232,6.969,6.969,0,0,1-1.591,1.168c-1.246.592-2.858.146-2.691-1.383.148-1.347-.374-3.256.286-4.466" transform="translate(-43.635 -20.723)" fill="#eaeaea"/>
              <path id="Path_6821-3" data-name="Path 6821" d="M64.153,50.2a.051.051,0,0,1-.017,0,.044.044,0,0,1-.025-.057h0a30.514,30.514,0,0,1,15.159-16.1.045.045,0,0,1,.062.011.046.046,0,0,1-.011.063l-.012.006A30.425,30.425,0,0,0,64.194,50.169a.044.044,0,0,1-.039.028" transform="translate(-46.417 -24.638)" fill="#fff"/>
              <path id="Path_6822-3" data-name="Path 6822" d="M74.633,72.433a.045.045,0,0,1-.021-.085,10.875,10.875,0,0,1,3.293-1.092.045.045,0,0,1,.017.088h0a10.779,10.779,0,0,0-3.265,1.083.052.052,0,0,1-.021.006" transform="translate(-54.005 -51.592)" fill="#fff"/>
              <path id="Path_6823-3" data-name="Path 6823" d="M77.6,58.618H77.59a.045.045,0,0,1-.035-.052h0a8.1,8.1,0,0,0,.075-2.773.045.045,0,1,1,.089-.013,8.177,8.177,0,0,1-.076,2.8.045.045,0,0,1-.044.036" transform="translate(-56.153 -40.359)" fill="#fff"/>
              <path id="Path_6824-3" data-name="Path 6824" d="M85.006,59.572a.045.045,0,0,1-.021-.085A5.176,5.176,0,0,1,87.6,58.9a.045.045,0,0,1,.043.047.046.046,0,0,1-.047.042,5.077,5.077,0,0,0-2.566.576.047.047,0,0,1-.021,0" transform="translate(-61.516 -42.644)" fill="#fff"/>
              <path id="Path_6825-3" data-name="Path 6825" d="M92.738,42.7a.046.046,0,0,1-.018,0,.045.045,0,0,1-.022-.059h0a12.332,12.332,0,0,0,.825-2.709.045.045,0,0,1,.055-.033h0a.045.045,0,0,1,.034.049,12.4,12.4,0,0,1-.832,2.729.045.045,0,0,1-.04.028" transform="translate(-67.115 -28.886)" fill="#fff"/>
              <path id="Path_6826-3" data-name="Path 6826" d="M103.838,46.586a.044.044,0,0,1-.024-.007,3.545,3.545,0,0,0-2.589-.493.045.045,0,0,1-.018-.088,3.636,3.636,0,0,1,2.655.506.044.044,0,0,1,.014.062h0a.044.044,0,0,1-.04.021" transform="translate(-73.253 -33.256)" fill="#fff"/>
              <path id="Path_6827-3" data-name="Path 6827" d="M105.83,37.673a.044.044,0,0,1-.045-.044h0a.042.042,0,0,1,.01-.029,4.75,4.75,0,0,0,.636-1.018.045.045,0,1,1,.083.036v0a4.825,4.825,0,0,1-.648,1.037.044.044,0,0,1-.035.017" transform="translate(-76.593 -26.467)" fill="#fff"/>
              <path id="Path_6828-3" data-name="Path 6828" d="M113.858,38.336a.043.043,0,0,1-.018,0,1.567,1.567,0,0,0-.841-.1.044.044,0,0,1-.052-.034h0a.045.045,0,0,1,.035-.053h0a1.634,1.634,0,0,1,.889.1.045.045,0,0,1-.018.087" transform="translate(-81.778 -27.603)" fill="#fff"/>
              <path id="Path_6829-3" data-name="Path 6829" d="M49.663,22.515a5.222,5.222,0,0,0,.785-2.323c-.11-1.126-1.344-1.83-1.646-2.92a3.634,3.634,0,0,1,1.034-3A4.69,4.69,0,0,0,51.2,11.35c-.06-1.026-.839-1.918-.844-2.944a3.419,3.419,0,0,1,1.233-2.318A9.02,9.02,0,0,0,53.4,4.1a27.427,27.427,0,0,0,.869-2.646C54.63.6,55.5-.205,56.391.048a1.928,1.928,0,0,1,1.171,1.86c.033.784-.18,1.561-.15,2.344.062,1.584,1.1,3.2.461,4.655-.522,1.187-2.058,1.882-2.117,3.176-.045.982.816,1.773,1.028,2.732C57.2,16.7,55.07,18.3,55.065,20.231c0,1.141.74,2.149.955,3.267a3.682,3.682,0,0,1-1.269,3.486c-3.077,2.5-6.366-1.309-5.088-4.47" transform="translate(-35.282 0)" fill="#ddd"/>
              <path id="Path_6830-3" data-name="Path 6830" d="M61.035,30.343h0a.045.045,0,0,1-.042-.048A113,113,0,0,1,64.962,7.4a.046.046,0,0,1,.055-.031.045.045,0,0,1,.031.055A112.882,112.882,0,0,0,61.08,30.3a.045.045,0,0,1-.045.042" transform="translate(-44.159 -5.337)" fill="#fff"/>
              <path id="Path_6831-3" data-name="Path 6831" d="M63.586,74.867a.045.045,0,0,1-.022-.006.045.045,0,0,1-.019-.06,12.655,12.655,0,0,1,1.836-2.571.046.046,0,0,1,.063-.006.045.045,0,0,1,.006.063l0,0a12.548,12.548,0,0,0-1.823,2.553.047.047,0,0,1-.04.023" transform="translate(-46.006 -52.286)" fill="#fff"/>
              <path id="Path_6832-3" data-name="Path 6832" d="M57.318,58.394a.045.045,0,0,1-.044-.036,11.187,11.187,0,0,0-1.448-3.709A.045.045,0,0,1,55.9,54.6a11.284,11.284,0,0,1,1.459,3.74.045.045,0,0,1-.035.053h-.009" transform="translate(-40.417 -39.521)" fill="#fff"/>
              <path id="Path_6833-3" data-name="Path 6833" d="M65.377,54.479a.046.046,0,0,1-.045-.046.048.048,0,0,1,.007-.023,13.766,13.766,0,0,1,2.4-2.933.045.045,0,0,1,.063,0,.046.046,0,0,1,0,.064,13.709,13.709,0,0,0-2.383,2.914.046.046,0,0,1-.04.022" transform="translate(-47.304 -37.263)" fill="#fff"/>
              <path id="Path_6834-3" data-name="Path 6834" d="M61.64,35.052a.045.045,0,0,1-.044-.036,13.861,13.861,0,0,0-1.327-3.752.045.045,0,0,1,.072-.054.039.039,0,0,1,.007.012A13.965,13.965,0,0,1,61.682,35a.045.045,0,0,1-.035.053h-.009" transform="translate(-43.631 -22.585)" fill="#fff"/>
              <path id="Path_6835-3" data-name="Path 6835" d="M69.661,32.39a.045.045,0,0,1-.045-.044h0a.047.047,0,0,1,.008-.026,7.475,7.475,0,0,1,2.29-2.192.045.045,0,0,1,.047.077A7.385,7.385,0,0,0,69.7,32.368a.044.044,0,0,1-.038.02" transform="translate(-50.405 -21.81)" fill="#fff"/>
              <path id="Path_6836-3" data-name="Path 6836" d="M66.6,21.835a.045.045,0,0,1-.045-.043A6.66,6.66,0,0,0,66,19.364a.045.045,0,1,1,.083-.036,6.757,6.757,0,0,1,.557,2.462.045.045,0,0,1-.043.046h0Z" transform="translate(-47.785 -13.974)" fill="#fff"/>
              <path id="Path_6837-3" data-name="Path 6837" d="M73.831,15.251a.045.045,0,0,1-.039-.067,3.068,3.068,0,0,1,1.283-1.251.045.045,0,0,1,.04.08,2.973,2.973,0,0,0-1.245,1.214.044.044,0,0,1-.04.023" transform="translate(-53.425 -10.087)" fill="#fff"/>
              <path id="Path_6838-3" data-name="Path 6838" d="M17.664,44.215c-.463-.8-1.432-1.16-1.98-1.9a5.259,5.259,0,0,1-.7-2.485,3.185,3.185,0,0,0-1.08-2.293c-.872-.6-2.092-.306-3.056-.742a4.957,4.957,0,0,1-1.9-2.17,3.232,3.232,0,0,0-2.18-1.8c-.784-.077-1.555.379-2.334.266A4.671,4.671,0,0,1,2.5,31.922a1.793,1.793,0,0,0-2.106-.29c-.7.563-.368,1.733.277,2.352a21.506,21.506,0,0,1,2.088,1.671c.562.695.751,1.658,1.432,2.228,1.011.849,2.768.544,3.538,1.616.651.906.18,2.292.835,3.194.789,1.083,2.745.854,3.35,2.05.316.625.1,1.384.239,2.07A4.186,4.186,0,0,0,13.8,49a6.936,6.936,0,0,0,1.622,1.123c1.262.557,2.861.068,2.651-1.456-.185-1.343.285-3.266-.407-4.457" transform="translate(0 -22.728)" fill="#ccc"/>
              <path id="Path_6839-3" data-name="Path 6839" d="M20.711,52.518a.046.046,0,0,1-.04-.028A30.423,30.423,0,0,0,5.121,36.862.045.045,0,0,1,5.1,36.8a.045.045,0,0,1,.059-.023h0a30.517,30.517,0,0,1,15.6,15.676.045.045,0,0,1-.023.059.04.04,0,0,1-.018,0" transform="translate(-3.688 -26.627)" fill="#fff"/>
              <path id="Path_6840-3" data-name="Path 6840" d="M57.286,76.626h0a.045.045,0,0,1-.04-.049l.172-1.656a.045.045,0,0,1,.09.009l-.173,1.656a.045.045,0,0,1-.045.04" transform="translate(-41.446 -54.219)" fill="#fff"/>
              <path id="Path_6841-3" data-name="Path 6841" d="M41.949,74.175a.044.044,0,0,1-.02,0,10.781,10.781,0,0,0-3.3-.991.046.046,0,0,1,.012-.09,10.89,10.89,0,0,1,3.321,1,.044.044,0,0,1,.021.059h0a.044.044,0,0,1-.041.026" transform="translate(-27.947 -52.92)" fill="#fff"/>
              <path id="Path_6842-3" data-name="Path 6842" d="M46.86,60.208a.045.045,0,0,1-.044-.035,8.2,8.2,0,0,1-.153-2.8.046.046,0,0,1,.05-.04.045.045,0,0,1,.039.05,8.1,8.1,0,0,0,.151,2.771.045.045,0,0,1-.033.055H46.86" transform="translate(-33.745 -41.511)" fill="#fff"/>
              <path id="Path_6843-3" data-name="Path 6843" d="M33.033,61.529a.047.047,0,0,1-.02,0,5.07,5.07,0,0,0-2.58-.506.046.046,0,0,1-.048-.042.045.045,0,0,1,.041-.048h0a5.165,5.165,0,0,1,2.626.515.045.045,0,0,1-.02.086" transform="translate(-22 -44.107)" fill="#fff"/>
              <path id="Path_6844-3" data-name="Path 6844" d="M29.457,44.761a.046.046,0,0,1-.04-.026,12.431,12.431,0,0,1-.906-2.7.045.045,0,1,1,.087-.025v.006a12.327,12.327,0,0,0,.9,2.686.044.044,0,0,1-.02.059h0a.046.046,0,0,1-.019,0" transform="translate(-20.642 -30.391)" fill="#fff"/>
              <path id="Path_6845-3" data-name="Path 6845" d="M13.8,48.943a.045.045,0,0,1-.045-.045.044.044,0,0,1,.02-.037,3.634,3.634,0,0,1,2.641-.579.045.045,0,0,1-.007.09H16.4a3.544,3.544,0,0,0-2.575.566.049.049,0,0,1-.025.007" transform="translate(-9.962 -34.922)" fill="#fff"/>
              <path id="Path_6846-3" data-name="Path 6846" d="M16.716,40.081a.046.046,0,0,1-.034-.015,4.828,4.828,0,0,1-.676-1.019.045.045,0,1,1,.079-.04,4.762,4.762,0,0,0,.664,1,.045.045,0,0,1,0,.063.044.044,0,0,1-.03.011" transform="translate(-11.583 -28.22)" fill="#fff"/>
              <path id="Path_6847-3" data-name="Path 6847" d="M8.131,40.941a.045.045,0,0,1-.046-.044.044.044,0,0,1,.027-.042A1.635,1.635,0,0,1,9,40.726a.045.045,0,0,1-.012.09h0a1.562,1.562,0,0,0-.836.123.05.05,0,0,1-.019,0" transform="translate(-5.854 -29.477)" fill="#fff"/>
              <path id="Path_6848-3" data-name="Path 6848" d="M45.384,92.744h0a6.666,6.666,0,0,1-6.666-6.666V83.186H52.05v2.893a6.666,6.666,0,0,1-6.666,6.666" transform="translate(-28.034 -60.231)" fill="#fff"/>
              <path id="Path_6849-3" data-name="Path 6849" d="M96.559,42.963a.19.19,0,0,1-.19-.19V39.309a4.164,4.164,0,1,0-8.328,0v3.463a.19.19,0,1,1-.38,0V39.309a4.544,4.544,0,1,1,9.088,0v3.463a.19.19,0,0,1-.19.19" transform="translate(-63.471 -25.171)" fill="#767676"/>
              <path id="Path_6850-3" data-name="Path 6850" d="M65.229,56.857H44.461L42.511,84.3H63.279Z" transform="translate(-30.78 -41.167)" fill="#ddd"/>
              <path id="Path_6851-3" data-name="Path 6851" d="M117.77,84.3h7.5l-1.446-27.439h-4.512Z" transform="translate(-85.271 -41.167)" fill="#ccc"/>
              <path id="Path_6852-3" data-name="Path 6852" d="M125.271,143.883l-4.043-4.729-3.458,4.729Z" transform="translate(-85.271 -100.754)" fill="#ccc"/>
              <path id="Path_6853-3" data-name="Path 6853" d="M130.3,79.567V56.857h2.6L134.345,84.3Z" transform="translate(-94.345 -41.167)" fill="#ddd"/>
              <path id="Path_6854-3" data-name="Path 6854" d="M70.294,61.435a.9.9,0,1,1-.9-.9.9.9,0,0,1,.9.9" transform="translate(-49.599 -43.833)" fill="#fff"/>
              <path id="Path_6855-3" data-name="Path 6855" d="M101.857,61.435a.9.9,0,1,1-.9-.9.9.9,0,0,1,.9.9" transform="translate(-72.453 -43.833)" fill="#fff"/>
              <path id="Path_6856-3" data-name="Path 6856" d="M79.962,42.963a.19.19,0,0,1-.19-.19V39.309a4.164,4.164,0,1,0-8.328,0v3.463a.19.19,0,1,1-.38,0V39.309a4.544,4.544,0,1,1,9.088,0v3.463a.19.19,0,0,1-.19.19" transform="translate(-51.454 -25.171)" fill="#767676"/>
              <path id="Path_6857-3" data-name="Path 6857" d="M51.238,115.04v10.47a.91.91,0,0,1-.909.913H35.54a.911.911,0,0,1-.913-.913V115.04Z" transform="translate(-25.072 -83.295)" fill="#ccc"/>
              <path id="Path_6858-3" data-name="Path 6858" d="M49.527,111.32l1.71.623H34.626l1.714-.623-1.714-.557H51.237Z" transform="translate(-25.071 -80.197)" fill="#b9b9b9"/>
              <path id="Path_6859-3" data-name="Path 6859" d="M36.339,112.789v.62H34.627Z" transform="translate(-25.072 -81.665)" fill="#767676"/>
              <path id="Path_6860-3" data-name="Path 6860" d="M34.624,110.766v1.18l1.713-.621Z" transform="translate(-25.07 -80.2)" fill="#b9b9b9"/>
              <path id="Path_6861-3" data-name="Path 6861" d="M88.62,112.79v.621h1.713Z" transform="translate(-64.165 -81.665)" fill="#767676"/>
              <path id="Path_6862-3" data-name="Path 6862" d="M90.333,110.766v1.18l-1.713-.621Z" transform="translate(-64.165 -80.2)" fill="#b9b9b9"/>
              <path id="Path_6863-3" data-name="Path 6863" d="M47.388,120.022a.683.683,0,1,1-.683-.683.683.683,0,0,1,.683.683" transform="translate(-33.322 -86.407)" fill="#fff"/>
              <path id="Path_6864-3" data-name="Path 6864" d="M79.841,120.022a.683.683,0,1,1-.683-.683.683.683,0,0,1,.683.683" transform="translate(-56.82 -86.407)" fill="#fff"/>
              <path id="Path_6865-3" data-name="Path 6865" d="M56.9,104a.209.209,0,0,1-.209-.209v-2.181a4.269,4.269,0,1,0-8.537,0V103.8a.209.209,0,1,1-.418,0v-2.181a4.687,4.687,0,0,1,9.374,0V103.8A.209.209,0,0,1,56.9,104" transform="translate(-34.566 -70.181)" fill="#767676"/>
            </g>
          </g>
        </g>
        <g transform="translate(132 -498)">
          <rect id="Rectangle_3406-3" data-name="Rectangle 3406" width="64" height="64" transform="translate(20 498)" fill="#f5f5f5"/>
          <g id="Group_6743-3" data-name="Group 6743" transform="translate(32 508)">
            <g id="Group_6742-4" data-name="Group 6742" clip-path="url(#clip-path-3)">
              <path id="Path_6820-4" data-name="Path 6820" d="M60.61,41.9c.442-.807,1.4-1.2,1.926-1.954a5.267,5.267,0,0,0,.631-2.5,3.186,3.186,0,0,1,1.016-2.321c.855-.622,2.083-.364,3.035-.826a4.98,4.98,0,0,0,1.841-2.221,3.242,3.242,0,0,1,2.131-1.855c.781-.1,1.564.336,2.341.2a4.653,4.653,0,0,0,1.9-1.227,1.793,1.793,0,0,1,2.1-.347c.711.543.414,1.722-.216,2.358a20.947,20.947,0,0,0-2.042,1.73c-.543.712-.7,1.679-1.369,2.268-.988.875-2.752.62-3.492,1.711-.625.924-.116,2.3-.749,3.216-.759,1.1-2.721.929-3.292,2.141-.3.635-.067,1.386-.183,2.076a4.188,4.188,0,0,1-1.586,2.232,6.969,6.969,0,0,1-1.591,1.168c-1.246.592-2.858.146-2.691-1.383.148-1.347-.374-3.256.286-4.466" transform="translate(-43.635 -20.723)" fill="#eaeaea"/>
              <path id="Path_6821-4" data-name="Path 6821" d="M64.153,50.2a.051.051,0,0,1-.017,0,.044.044,0,0,1-.025-.057h0a30.514,30.514,0,0,1,15.159-16.1.045.045,0,0,1,.062.011.046.046,0,0,1-.011.063l-.012.006A30.425,30.425,0,0,0,64.194,50.169a.044.044,0,0,1-.039.028" transform="translate(-46.417 -24.638)" fill="#fff"/>
              <path id="Path_6822-4" data-name="Path 6822" d="M74.633,72.433a.045.045,0,0,1-.021-.085,10.875,10.875,0,0,1,3.293-1.092.045.045,0,0,1,.017.088h0a10.779,10.779,0,0,0-3.265,1.083.052.052,0,0,1-.021.006" transform="translate(-54.005 -51.592)" fill="#fff"/>
              <path id="Path_6823-4" data-name="Path 6823" d="M77.6,58.618H77.59a.045.045,0,0,1-.035-.052h0a8.1,8.1,0,0,0,.075-2.773.045.045,0,1,1,.089-.013,8.177,8.177,0,0,1-.076,2.8.045.045,0,0,1-.044.036" transform="translate(-56.153 -40.359)" fill="#fff"/>
              <path id="Path_6824-4" data-name="Path 6824" d="M85.006,59.572a.045.045,0,0,1-.021-.085A5.176,5.176,0,0,1,87.6,58.9a.045.045,0,0,1,.043.047.046.046,0,0,1-.047.042,5.077,5.077,0,0,0-2.566.576.047.047,0,0,1-.021,0" transform="translate(-61.516 -42.644)" fill="#fff"/>
              <path id="Path_6825-4" data-name="Path 6825" d="M92.738,42.7a.046.046,0,0,1-.018,0,.045.045,0,0,1-.022-.059h0a12.332,12.332,0,0,0,.825-2.709.045.045,0,0,1,.055-.033h0a.045.045,0,0,1,.034.049,12.4,12.4,0,0,1-.832,2.729.045.045,0,0,1-.04.028" transform="translate(-67.115 -28.886)" fill="#fff"/>
              <path id="Path_6826-4" data-name="Path 6826" d="M103.838,46.586a.044.044,0,0,1-.024-.007,3.545,3.545,0,0,0-2.589-.493.045.045,0,0,1-.018-.088,3.636,3.636,0,0,1,2.655.506.044.044,0,0,1,.014.062h0a.044.044,0,0,1-.04.021" transform="translate(-73.253 -33.256)" fill="#fff"/>
              <path id="Path_6827-4" data-name="Path 6827" d="M105.83,37.673a.044.044,0,0,1-.045-.044h0a.042.042,0,0,1,.01-.029,4.75,4.75,0,0,0,.636-1.018.045.045,0,1,1,.083.036v0a4.825,4.825,0,0,1-.648,1.037.044.044,0,0,1-.035.017" transform="translate(-76.593 -26.467)" fill="#fff"/>
              <path id="Path_6828-4" data-name="Path 6828" d="M113.858,38.336a.043.043,0,0,1-.018,0,1.567,1.567,0,0,0-.841-.1.044.044,0,0,1-.052-.034h0a.045.045,0,0,1,.035-.053h0a1.634,1.634,0,0,1,.889.1.045.045,0,0,1-.018.087" transform="translate(-81.778 -27.603)" fill="#fff"/>
              <path id="Path_6829-4" data-name="Path 6829" d="M49.663,22.515a5.222,5.222,0,0,0,.785-2.323c-.11-1.126-1.344-1.83-1.646-2.92a3.634,3.634,0,0,1,1.034-3A4.69,4.69,0,0,0,51.2,11.35c-.06-1.026-.839-1.918-.844-2.944a3.419,3.419,0,0,1,1.233-2.318A9.02,9.02,0,0,0,53.4,4.1a27.427,27.427,0,0,0,.869-2.646C54.63.6,55.5-.205,56.391.048a1.928,1.928,0,0,1,1.171,1.86c.033.784-.18,1.561-.15,2.344.062,1.584,1.1,3.2.461,4.655-.522,1.187-2.058,1.882-2.117,3.176-.045.982.816,1.773,1.028,2.732C57.2,16.7,55.07,18.3,55.065,20.231c0,1.141.74,2.149.955,3.267a3.682,3.682,0,0,1-1.269,3.486c-3.077,2.5-6.366-1.309-5.088-4.47" transform="translate(-35.282 0)" fill="#ddd"/>
              <path id="Path_6830-4" data-name="Path 6830" d="M61.035,30.343h0a.045.045,0,0,1-.042-.048A113,113,0,0,1,64.962,7.4a.046.046,0,0,1,.055-.031.045.045,0,0,1,.031.055A112.882,112.882,0,0,0,61.08,30.3a.045.045,0,0,1-.045.042" transform="translate(-44.159 -5.337)" fill="#fff"/>
              <path id="Path_6831-4" data-name="Path 6831" d="M63.586,74.867a.045.045,0,0,1-.022-.006.045.045,0,0,1-.019-.06,12.655,12.655,0,0,1,1.836-2.571.046.046,0,0,1,.063-.006.045.045,0,0,1,.006.063l0,0a12.548,12.548,0,0,0-1.823,2.553.047.047,0,0,1-.04.023" transform="translate(-46.006 -52.286)" fill="#fff"/>
              <path id="Path_6832-4" data-name="Path 6832" d="M57.318,58.394a.045.045,0,0,1-.044-.036,11.187,11.187,0,0,0-1.448-3.709A.045.045,0,0,1,55.9,54.6a11.284,11.284,0,0,1,1.459,3.74.045.045,0,0,1-.035.053h-.009" transform="translate(-40.417 -39.521)" fill="#fff"/>
              <path id="Path_6833-4" data-name="Path 6833" d="M65.377,54.479a.046.046,0,0,1-.045-.046.048.048,0,0,1,.007-.023,13.766,13.766,0,0,1,2.4-2.933.045.045,0,0,1,.063,0,.046.046,0,0,1,0,.064,13.709,13.709,0,0,0-2.383,2.914.046.046,0,0,1-.04.022" transform="translate(-47.304 -37.263)" fill="#fff"/>
              <path id="Path_6834-4" data-name="Path 6834" d="M61.64,35.052a.045.045,0,0,1-.044-.036,13.861,13.861,0,0,0-1.327-3.752.045.045,0,0,1,.072-.054.039.039,0,0,1,.007.012A13.965,13.965,0,0,1,61.682,35a.045.045,0,0,1-.035.053h-.009" transform="translate(-43.631 -22.585)" fill="#fff"/>
              <path id="Path_6835-4" data-name="Path 6835" d="M69.661,32.39a.045.045,0,0,1-.045-.044h0a.047.047,0,0,1,.008-.026,7.475,7.475,0,0,1,2.29-2.192.045.045,0,0,1,.047.077A7.385,7.385,0,0,0,69.7,32.368a.044.044,0,0,1-.038.02" transform="translate(-50.405 -21.81)" fill="#fff"/>
              <path id="Path_6836-4" data-name="Path 6836" d="M66.6,21.835a.045.045,0,0,1-.045-.043A6.66,6.66,0,0,0,66,19.364a.045.045,0,1,1,.083-.036,6.757,6.757,0,0,1,.557,2.462.045.045,0,0,1-.043.046h0Z" transform="translate(-47.785 -13.974)" fill="#fff"/>
              <path id="Path_6837-4" data-name="Path 6837" d="M73.831,15.251a.045.045,0,0,1-.039-.067,3.068,3.068,0,0,1,1.283-1.251.045.045,0,0,1,.04.08,2.973,2.973,0,0,0-1.245,1.214.044.044,0,0,1-.04.023" transform="translate(-53.425 -10.087)" fill="#fff"/>
              <path id="Path_6838-4" data-name="Path 6838" d="M17.664,44.215c-.463-.8-1.432-1.16-1.98-1.9a5.259,5.259,0,0,1-.7-2.485,3.185,3.185,0,0,0-1.08-2.293c-.872-.6-2.092-.306-3.056-.742a4.957,4.957,0,0,1-1.9-2.17,3.232,3.232,0,0,0-2.18-1.8c-.784-.077-1.555.379-2.334.266A4.671,4.671,0,0,1,2.5,31.922a1.793,1.793,0,0,0-2.106-.29c-.7.563-.368,1.733.277,2.352a21.506,21.506,0,0,1,2.088,1.671c.562.695.751,1.658,1.432,2.228,1.011.849,2.768.544,3.538,1.616.651.906.18,2.292.835,3.194.789,1.083,2.745.854,3.35,2.05.316.625.1,1.384.239,2.07A4.186,4.186,0,0,0,13.8,49a6.936,6.936,0,0,0,1.622,1.123c1.262.557,2.861.068,2.651-1.456-.185-1.343.285-3.266-.407-4.457" transform="translate(0 -22.728)" fill="#ccc"/>
              <path id="Path_6839-4" data-name="Path 6839" d="M20.711,52.518a.046.046,0,0,1-.04-.028A30.423,30.423,0,0,0,5.121,36.862.045.045,0,0,1,5.1,36.8a.045.045,0,0,1,.059-.023h0a30.517,30.517,0,0,1,15.6,15.676.045.045,0,0,1-.023.059.04.04,0,0,1-.018,0" transform="translate(-3.688 -26.627)" fill="#fff"/>
              <path id="Path_6840-4" data-name="Path 6840" d="M57.286,76.626h0a.045.045,0,0,1-.04-.049l.172-1.656a.045.045,0,0,1,.09.009l-.173,1.656a.045.045,0,0,1-.045.04" transform="translate(-41.446 -54.219)" fill="#fff"/>
              <path id="Path_6841-4" data-name="Path 6841" d="M41.949,74.175a.044.044,0,0,1-.02,0,10.781,10.781,0,0,0-3.3-.991.046.046,0,0,1,.012-.09,10.89,10.89,0,0,1,3.321,1,.044.044,0,0,1,.021.059h0a.044.044,0,0,1-.041.026" transform="translate(-27.947 -52.92)" fill="#fff"/>
              <path id="Path_6842-4" data-name="Path 6842" d="M46.86,60.208a.045.045,0,0,1-.044-.035,8.2,8.2,0,0,1-.153-2.8.046.046,0,0,1,.05-.04.045.045,0,0,1,.039.05,8.1,8.1,0,0,0,.151,2.771.045.045,0,0,1-.033.055H46.86" transform="translate(-33.745 -41.511)" fill="#fff"/>
              <path id="Path_6843-4" data-name="Path 6843" d="M33.033,61.529a.047.047,0,0,1-.02,0,5.07,5.07,0,0,0-2.58-.506.046.046,0,0,1-.048-.042.045.045,0,0,1,.041-.048h0a5.165,5.165,0,0,1,2.626.515.045.045,0,0,1-.02.086" transform="translate(-22 -44.107)" fill="#fff"/>
              <path id="Path_6844-4" data-name="Path 6844" d="M29.457,44.761a.046.046,0,0,1-.04-.026,12.431,12.431,0,0,1-.906-2.7.045.045,0,1,1,.087-.025v.006a12.327,12.327,0,0,0,.9,2.686.044.044,0,0,1-.02.059h0a.046.046,0,0,1-.019,0" transform="translate(-20.642 -30.391)" fill="#fff"/>
              <path id="Path_6845-4" data-name="Path 6845" d="M13.8,48.943a.045.045,0,0,1-.045-.045.044.044,0,0,1,.02-.037,3.634,3.634,0,0,1,2.641-.579.045.045,0,0,1-.007.09H16.4a3.544,3.544,0,0,0-2.575.566.049.049,0,0,1-.025.007" transform="translate(-9.962 -34.922)" fill="#fff"/>
              <path id="Path_6846-4" data-name="Path 6846" d="M16.716,40.081a.046.046,0,0,1-.034-.015,4.828,4.828,0,0,1-.676-1.019.045.045,0,1,1,.079-.04,4.762,4.762,0,0,0,.664,1,.045.045,0,0,1,0,.063.044.044,0,0,1-.03.011" transform="translate(-11.583 -28.22)" fill="#fff"/>
              <path id="Path_6847-4" data-name="Path 6847" d="M8.131,40.941a.045.045,0,0,1-.046-.044.044.044,0,0,1,.027-.042A1.635,1.635,0,0,1,9,40.726a.045.045,0,0,1-.012.09h0a1.562,1.562,0,0,0-.836.123.05.05,0,0,1-.019,0" transform="translate(-5.854 -29.477)" fill="#fff"/>
              <path id="Path_6848-4" data-name="Path 6848" d="M45.384,92.744h0a6.666,6.666,0,0,1-6.666-6.666V83.186H52.05v2.893a6.666,6.666,0,0,1-6.666,6.666" transform="translate(-28.034 -60.231)" fill="#fff"/>
              <path id="Path_6849-4" data-name="Path 6849" d="M96.559,42.963a.19.19,0,0,1-.19-.19V39.309a4.164,4.164,0,1,0-8.328,0v3.463a.19.19,0,1,1-.38,0V39.309a4.544,4.544,0,1,1,9.088,0v3.463a.19.19,0,0,1-.19.19" transform="translate(-63.471 -25.171)" fill="#767676"/>
              <path id="Path_6850-4" data-name="Path 6850" d="M65.229,56.857H44.461L42.511,84.3H63.279Z" transform="translate(-30.78 -41.167)" fill="#ddd"/>
              <path id="Path_6851-4" data-name="Path 6851" d="M117.77,84.3h7.5l-1.446-27.439h-4.512Z" transform="translate(-85.271 -41.167)" fill="#ccc"/>
              <path id="Path_6852-4" data-name="Path 6852" d="M125.271,143.883l-4.043-4.729-3.458,4.729Z" transform="translate(-85.271 -100.754)" fill="#ccc"/>
              <path id="Path_6853-4" data-name="Path 6853" d="M130.3,79.567V56.857h2.6L134.345,84.3Z" transform="translate(-94.345 -41.167)" fill="#ddd"/>
              <path id="Path_6854-4" data-name="Path 6854" d="M70.294,61.435a.9.9,0,1,1-.9-.9.9.9,0,0,1,.9.9" transform="translate(-49.599 -43.833)" fill="#fff"/>
              <path id="Path_6855-4" data-name="Path 6855" d="M101.857,61.435a.9.9,0,1,1-.9-.9.9.9,0,0,1,.9.9" transform="translate(-72.453 -43.833)" fill="#fff"/>
              <path id="Path_6856-4" data-name="Path 6856" d="M79.962,42.963a.19.19,0,0,1-.19-.19V39.309a4.164,4.164,0,1,0-8.328,0v3.463a.19.19,0,1,1-.38,0V39.309a4.544,4.544,0,1,1,9.088,0v3.463a.19.19,0,0,1-.19.19" transform="translate(-51.454 -25.171)" fill="#767676"/>
              <path id="Path_6857-4" data-name="Path 6857" d="M51.238,115.04v10.47a.91.91,0,0,1-.909.913H35.54a.911.911,0,0,1-.913-.913V115.04Z" transform="translate(-25.072 -83.295)" fill="#ccc"/>
              <path id="Path_6858-4" data-name="Path 6858" d="M49.527,111.32l1.71.623H34.626l1.714-.623-1.714-.557H51.237Z" transform="translate(-25.071 -80.197)" fill="#b9b9b9"/>
              <path id="Path_6859-4" data-name="Path 6859" d="M36.339,112.789v.62H34.627Z" transform="translate(-25.072 -81.665)" fill="#767676"/>
              <path id="Path_6860-4" data-name="Path 6860" d="M34.624,110.766v1.18l1.713-.621Z" transform="translate(-25.07 -80.2)" fill="#b9b9b9"/>
              <path id="Path_6861-4" data-name="Path 6861" d="M88.62,112.79v.621h1.713Z" transform="translate(-64.165 -81.665)" fill="#767676"/>
              <path id="Path_6862-4" data-name="Path 6862" d="M90.333,110.766v1.18l-1.713-.621Z" transform="translate(-64.165 -80.2)" fill="#b9b9b9"/>
              <path id="Path_6863-4" data-name="Path 6863" d="M47.388,120.022a.683.683,0,1,1-.683-.683.683.683,0,0,1,.683.683" transform="translate(-33.322 -86.407)" fill="#fff"/>
              <path id="Path_6864-4" data-name="Path 6864" d="M79.841,120.022a.683.683,0,1,1-.683-.683.683.683,0,0,1,.683.683" transform="translate(-56.82 -86.407)" fill="#fff"/>
              <path id="Path_6865-4" data-name="Path 6865" d="M56.9,104a.209.209,0,0,1-.209-.209v-2.181a4.269,4.269,0,1,0-8.537,0V103.8a.209.209,0,1,1-.418,0v-2.181a4.687,4.687,0,0,1,9.374,0V103.8A.209.209,0,0,1,56.9,104" transform="translate(-34.566 -70.181)" fill="#767676"/>
            </g>
          </g>
        </g>
        <g transform="translate(208 -498)">
          <rect id="Rectangle_3406-4" data-name="Rectangle 3406" width="64" height="64" transform="translate(20 498)" fill="#f5f5f5"/>
          <g id="Group_6743-4" data-name="Group 6743" transform="translate(32 508)">
            <g id="Group_6742-5" data-name="Group 6742" clip-path="url(#clip-path-3)">
              <path id="Path_6820-5" data-name="Path 6820" d="M60.61,41.9c.442-.807,1.4-1.2,1.926-1.954a5.267,5.267,0,0,0,.631-2.5,3.186,3.186,0,0,1,1.016-2.321c.855-.622,2.083-.364,3.035-.826a4.98,4.98,0,0,0,1.841-2.221,3.242,3.242,0,0,1,2.131-1.855c.781-.1,1.564.336,2.341.2a4.653,4.653,0,0,0,1.9-1.227,1.793,1.793,0,0,1,2.1-.347c.711.543.414,1.722-.216,2.358a20.947,20.947,0,0,0-2.042,1.73c-.543.712-.7,1.679-1.369,2.268-.988.875-2.752.62-3.492,1.711-.625.924-.116,2.3-.749,3.216-.759,1.1-2.721.929-3.292,2.141-.3.635-.067,1.386-.183,2.076a4.188,4.188,0,0,1-1.586,2.232,6.969,6.969,0,0,1-1.591,1.168c-1.246.592-2.858.146-2.691-1.383.148-1.347-.374-3.256.286-4.466" transform="translate(-43.635 -20.723)" fill="#eaeaea"/>
              <path id="Path_6821-5" data-name="Path 6821" d="M64.153,50.2a.051.051,0,0,1-.017,0,.044.044,0,0,1-.025-.057h0a30.514,30.514,0,0,1,15.159-16.1.045.045,0,0,1,.062.011.046.046,0,0,1-.011.063l-.012.006A30.425,30.425,0,0,0,64.194,50.169a.044.044,0,0,1-.039.028" transform="translate(-46.417 -24.638)" fill="#fff"/>
              <path id="Path_6822-5" data-name="Path 6822" d="M74.633,72.433a.045.045,0,0,1-.021-.085,10.875,10.875,0,0,1,3.293-1.092.045.045,0,0,1,.017.088h0a10.779,10.779,0,0,0-3.265,1.083.052.052,0,0,1-.021.006" transform="translate(-54.005 -51.592)" fill="#fff"/>
              <path id="Path_6823-5" data-name="Path 6823" d="M77.6,58.618H77.59a.045.045,0,0,1-.035-.052h0a8.1,8.1,0,0,0,.075-2.773.045.045,0,1,1,.089-.013,8.177,8.177,0,0,1-.076,2.8.045.045,0,0,1-.044.036" transform="translate(-56.153 -40.359)" fill="#fff"/>
              <path id="Path_6824-5" data-name="Path 6824" d="M85.006,59.572a.045.045,0,0,1-.021-.085A5.176,5.176,0,0,1,87.6,58.9a.045.045,0,0,1,.043.047.046.046,0,0,1-.047.042,5.077,5.077,0,0,0-2.566.576.047.047,0,0,1-.021,0" transform="translate(-61.516 -42.644)" fill="#fff"/>
              <path id="Path_6825-5" data-name="Path 6825" d="M92.738,42.7a.046.046,0,0,1-.018,0,.045.045,0,0,1-.022-.059h0a12.332,12.332,0,0,0,.825-2.709.045.045,0,0,1,.055-.033h0a.045.045,0,0,1,.034.049,12.4,12.4,0,0,1-.832,2.729.045.045,0,0,1-.04.028" transform="translate(-67.115 -28.886)" fill="#fff"/>
              <path id="Path_6826-5" data-name="Path 6826" d="M103.838,46.586a.044.044,0,0,1-.024-.007,3.545,3.545,0,0,0-2.589-.493.045.045,0,0,1-.018-.088,3.636,3.636,0,0,1,2.655.506.044.044,0,0,1,.014.062h0a.044.044,0,0,1-.04.021" transform="translate(-73.253 -33.256)" fill="#fff"/>
              <path id="Path_6827-5" data-name="Path 6827" d="M105.83,37.673a.044.044,0,0,1-.045-.044h0a.042.042,0,0,1,.01-.029,4.75,4.75,0,0,0,.636-1.018.045.045,0,1,1,.083.036v0a4.825,4.825,0,0,1-.648,1.037.044.044,0,0,1-.035.017" transform="translate(-76.593 -26.467)" fill="#fff"/>
              <path id="Path_6828-5" data-name="Path 6828" d="M113.858,38.336a.043.043,0,0,1-.018,0,1.567,1.567,0,0,0-.841-.1.044.044,0,0,1-.052-.034h0a.045.045,0,0,1,.035-.053h0a1.634,1.634,0,0,1,.889.1.045.045,0,0,1-.018.087" transform="translate(-81.778 -27.603)" fill="#fff"/>
              <path id="Path_6829-5" data-name="Path 6829" d="M49.663,22.515a5.222,5.222,0,0,0,.785-2.323c-.11-1.126-1.344-1.83-1.646-2.92a3.634,3.634,0,0,1,1.034-3A4.69,4.69,0,0,0,51.2,11.35c-.06-1.026-.839-1.918-.844-2.944a3.419,3.419,0,0,1,1.233-2.318A9.02,9.02,0,0,0,53.4,4.1a27.427,27.427,0,0,0,.869-2.646C54.63.6,55.5-.205,56.391.048a1.928,1.928,0,0,1,1.171,1.86c.033.784-.18,1.561-.15,2.344.062,1.584,1.1,3.2.461,4.655-.522,1.187-2.058,1.882-2.117,3.176-.045.982.816,1.773,1.028,2.732C57.2,16.7,55.07,18.3,55.065,20.231c0,1.141.74,2.149.955,3.267a3.682,3.682,0,0,1-1.269,3.486c-3.077,2.5-6.366-1.309-5.088-4.47" transform="translate(-35.282 0)" fill="#ddd"/>
              <path id="Path_6830-5" data-name="Path 6830" d="M61.035,30.343h0a.045.045,0,0,1-.042-.048A113,113,0,0,1,64.962,7.4a.046.046,0,0,1,.055-.031.045.045,0,0,1,.031.055A112.882,112.882,0,0,0,61.08,30.3a.045.045,0,0,1-.045.042" transform="translate(-44.159 -5.337)" fill="#fff"/>
              <path id="Path_6831-5" data-name="Path 6831" d="M63.586,74.867a.045.045,0,0,1-.022-.006.045.045,0,0,1-.019-.06,12.655,12.655,0,0,1,1.836-2.571.046.046,0,0,1,.063-.006.045.045,0,0,1,.006.063l0,0a12.548,12.548,0,0,0-1.823,2.553.047.047,0,0,1-.04.023" transform="translate(-46.006 -52.286)" fill="#fff"/>
              <path id="Path_6832-5" data-name="Path 6832" d="M57.318,58.394a.045.045,0,0,1-.044-.036,11.187,11.187,0,0,0-1.448-3.709A.045.045,0,0,1,55.9,54.6a11.284,11.284,0,0,1,1.459,3.74.045.045,0,0,1-.035.053h-.009" transform="translate(-40.417 -39.521)" fill="#fff"/>
              <path id="Path_6833-5" data-name="Path 6833" d="M65.377,54.479a.046.046,0,0,1-.045-.046.048.048,0,0,1,.007-.023,13.766,13.766,0,0,1,2.4-2.933.045.045,0,0,1,.063,0,.046.046,0,0,1,0,.064,13.709,13.709,0,0,0-2.383,2.914.046.046,0,0,1-.04.022" transform="translate(-47.304 -37.263)" fill="#fff"/>
              <path id="Path_6834-5" data-name="Path 6834" d="M61.64,35.052a.045.045,0,0,1-.044-.036,13.861,13.861,0,0,0-1.327-3.752.045.045,0,0,1,.072-.054.039.039,0,0,1,.007.012A13.965,13.965,0,0,1,61.682,35a.045.045,0,0,1-.035.053h-.009" transform="translate(-43.631 -22.585)" fill="#fff"/>
              <path id="Path_6835-5" data-name="Path 6835" d="M69.661,32.39a.045.045,0,0,1-.045-.044h0a.047.047,0,0,1,.008-.026,7.475,7.475,0,0,1,2.29-2.192.045.045,0,0,1,.047.077A7.385,7.385,0,0,0,69.7,32.368a.044.044,0,0,1-.038.02" transform="translate(-50.405 -21.81)" fill="#fff"/>
              <path id="Path_6836-5" data-name="Path 6836" d="M66.6,21.835a.045.045,0,0,1-.045-.043A6.66,6.66,0,0,0,66,19.364a.045.045,0,1,1,.083-.036,6.757,6.757,0,0,1,.557,2.462.045.045,0,0,1-.043.046h0Z" transform="translate(-47.785 -13.974)" fill="#fff"/>
              <path id="Path_6837-5" data-name="Path 6837" d="M73.831,15.251a.045.045,0,0,1-.039-.067,3.068,3.068,0,0,1,1.283-1.251.045.045,0,0,1,.04.08,2.973,2.973,0,0,0-1.245,1.214.044.044,0,0,1-.04.023" transform="translate(-53.425 -10.087)" fill="#fff"/>
              <path id="Path_6838-5" data-name="Path 6838" d="M17.664,44.215c-.463-.8-1.432-1.16-1.98-1.9a5.259,5.259,0,0,1-.7-2.485,3.185,3.185,0,0,0-1.08-2.293c-.872-.6-2.092-.306-3.056-.742a4.957,4.957,0,0,1-1.9-2.17,3.232,3.232,0,0,0-2.18-1.8c-.784-.077-1.555.379-2.334.266A4.671,4.671,0,0,1,2.5,31.922a1.793,1.793,0,0,0-2.106-.29c-.7.563-.368,1.733.277,2.352a21.506,21.506,0,0,1,2.088,1.671c.562.695.751,1.658,1.432,2.228,1.011.849,2.768.544,3.538,1.616.651.906.18,2.292.835,3.194.789,1.083,2.745.854,3.35,2.05.316.625.1,1.384.239,2.07A4.186,4.186,0,0,0,13.8,49a6.936,6.936,0,0,0,1.622,1.123c1.262.557,2.861.068,2.651-1.456-.185-1.343.285-3.266-.407-4.457" transform="translate(0 -22.728)" fill="#ccc"/>
              <path id="Path_6839-5" data-name="Path 6839" d="M20.711,52.518a.046.046,0,0,1-.04-.028A30.423,30.423,0,0,0,5.121,36.862.045.045,0,0,1,5.1,36.8a.045.045,0,0,1,.059-.023h0a30.517,30.517,0,0,1,15.6,15.676.045.045,0,0,1-.023.059.04.04,0,0,1-.018,0" transform="translate(-3.688 -26.627)" fill="#fff"/>
              <path id="Path_6840-5" data-name="Path 6840" d="M57.286,76.626h0a.045.045,0,0,1-.04-.049l.172-1.656a.045.045,0,0,1,.09.009l-.173,1.656a.045.045,0,0,1-.045.04" transform="translate(-41.446 -54.219)" fill="#fff"/>
              <path id="Path_6841-5" data-name="Path 6841" d="M41.949,74.175a.044.044,0,0,1-.02,0,10.781,10.781,0,0,0-3.3-.991.046.046,0,0,1,.012-.09,10.89,10.89,0,0,1,3.321,1,.044.044,0,0,1,.021.059h0a.044.044,0,0,1-.041.026" transform="translate(-27.947 -52.92)" fill="#fff"/>
              <path id="Path_6842-5" data-name="Path 6842" d="M46.86,60.208a.045.045,0,0,1-.044-.035,8.2,8.2,0,0,1-.153-2.8.046.046,0,0,1,.05-.04.045.045,0,0,1,.039.05,8.1,8.1,0,0,0,.151,2.771.045.045,0,0,1-.033.055H46.86" transform="translate(-33.745 -41.511)" fill="#fff"/>
              <path id="Path_6843-5" data-name="Path 6843" d="M33.033,61.529a.047.047,0,0,1-.02,0,5.07,5.07,0,0,0-2.58-.506.046.046,0,0,1-.048-.042.045.045,0,0,1,.041-.048h0a5.165,5.165,0,0,1,2.626.515.045.045,0,0,1-.02.086" transform="translate(-22 -44.107)" fill="#fff"/>
              <path id="Path_6844-5" data-name="Path 6844" d="M29.457,44.761a.046.046,0,0,1-.04-.026,12.431,12.431,0,0,1-.906-2.7.045.045,0,1,1,.087-.025v.006a12.327,12.327,0,0,0,.9,2.686.044.044,0,0,1-.02.059h0a.046.046,0,0,1-.019,0" transform="translate(-20.642 -30.391)" fill="#fff"/>
              <path id="Path_6845-5" data-name="Path 6845" d="M13.8,48.943a.045.045,0,0,1-.045-.045.044.044,0,0,1,.02-.037,3.634,3.634,0,0,1,2.641-.579.045.045,0,0,1-.007.09H16.4a3.544,3.544,0,0,0-2.575.566.049.049,0,0,1-.025.007" transform="translate(-9.962 -34.922)" fill="#fff"/>
              <path id="Path_6846-5" data-name="Path 6846" d="M16.716,40.081a.046.046,0,0,1-.034-.015,4.828,4.828,0,0,1-.676-1.019.045.045,0,1,1,.079-.04,4.762,4.762,0,0,0,.664,1,.045.045,0,0,1,0,.063.044.044,0,0,1-.03.011" transform="translate(-11.583 -28.22)" fill="#fff"/>
              <path id="Path_6847-5" data-name="Path 6847" d="M8.131,40.941a.045.045,0,0,1-.046-.044.044.044,0,0,1,.027-.042A1.635,1.635,0,0,1,9,40.726a.045.045,0,0,1-.012.09h0a1.562,1.562,0,0,0-.836.123.05.05,0,0,1-.019,0" transform="translate(-5.854 -29.477)" fill="#fff"/>
              <path id="Path_6848-5" data-name="Path 6848" d="M45.384,92.744h0a6.666,6.666,0,0,1-6.666-6.666V83.186H52.05v2.893a6.666,6.666,0,0,1-6.666,6.666" transform="translate(-28.034 -60.231)" fill="#fff"/>
              <path id="Path_6849-5" data-name="Path 6849" d="M96.559,42.963a.19.19,0,0,1-.19-.19V39.309a4.164,4.164,0,1,0-8.328,0v3.463a.19.19,0,1,1-.38,0V39.309a4.544,4.544,0,1,1,9.088,0v3.463a.19.19,0,0,1-.19.19" transform="translate(-63.471 -25.171)" fill="#767676"/>
              <path id="Path_6850-5" data-name="Path 6850" d="M65.229,56.857H44.461L42.511,84.3H63.279Z" transform="translate(-30.78 -41.167)" fill="#ddd"/>
              <path id="Path_6851-5" data-name="Path 6851" d="M117.77,84.3h7.5l-1.446-27.439h-4.512Z" transform="translate(-85.271 -41.167)" fill="#ccc"/>
              <path id="Path_6852-5" data-name="Path 6852" d="M125.271,143.883l-4.043-4.729-3.458,4.729Z" transform="translate(-85.271 -100.754)" fill="#ccc"/>
              <path id="Path_6853-5" data-name="Path 6853" d="M130.3,79.567V56.857h2.6L134.345,84.3Z" transform="translate(-94.345 -41.167)" fill="#ddd"/>
              <path id="Path_6854-5" data-name="Path 6854" d="M70.294,61.435a.9.9,0,1,1-.9-.9.9.9,0,0,1,.9.9" transform="translate(-49.599 -43.833)" fill="#fff"/>
              <path id="Path_6855-5" data-name="Path 6855" d="M101.857,61.435a.9.9,0,1,1-.9-.9.9.9,0,0,1,.9.9" transform="translate(-72.453 -43.833)" fill="#fff"/>
              <path id="Path_6856-5" data-name="Path 6856" d="M79.962,42.963a.19.19,0,0,1-.19-.19V39.309a4.164,4.164,0,1,0-8.328,0v3.463a.19.19,0,1,1-.38,0V39.309a4.544,4.544,0,1,1,9.088,0v3.463a.19.19,0,0,1-.19.19" transform="translate(-51.454 -25.171)" fill="#767676"/>
              <path id="Path_6857-5" data-name="Path 6857" d="M51.238,115.04v10.47a.91.91,0,0,1-.909.913H35.54a.911.911,0,0,1-.913-.913V115.04Z" transform="translate(-25.072 -83.295)" fill="#ccc"/>
              <path id="Path_6858-5" data-name="Path 6858" d="M49.527,111.32l1.71.623H34.626l1.714-.623-1.714-.557H51.237Z" transform="translate(-25.071 -80.197)" fill="#b9b9b9"/>
              <path id="Path_6859-5" data-name="Path 6859" d="M36.339,112.789v.62H34.627Z" transform="translate(-25.072 -81.665)" fill="#767676"/>
              <path id="Path_6860-5" data-name="Path 6860" d="M34.624,110.766v1.18l1.713-.621Z" transform="translate(-25.07 -80.2)" fill="#b9b9b9"/>
              <path id="Path_6861-5" data-name="Path 6861" d="M88.62,112.79v.621h1.713Z" transform="translate(-64.165 -81.665)" fill="#767676"/>
              <path id="Path_6862-5" data-name="Path 6862" d="M90.333,110.766v1.18l-1.713-.621Z" transform="translate(-64.165 -80.2)" fill="#b9b9b9"/>
              <path id="Path_6863-5" data-name="Path 6863" d="M47.388,120.022a.683.683,0,1,1-.683-.683.683.683,0,0,1,.683.683" transform="translate(-33.322 -86.407)" fill="#fff"/>
              <path id="Path_6864-5" data-name="Path 6864" d="M79.841,120.022a.683.683,0,1,1-.683-.683.683.683,0,0,1,.683.683" transform="translate(-56.82 -86.407)" fill="#fff"/>
              <path id="Path_6865-5" data-name="Path 6865" d="M56.9,104a.209.209,0,0,1-.209-.209v-2.181a4.269,4.269,0,1,0-8.537,0V103.8a.209.209,0,1,1-.418,0v-2.181a4.687,4.687,0,0,1,9.374,0V103.8A.209.209,0,0,1,56.9,104" transform="translate(-34.566 -70.181)" fill="#767676"/>
            </g>
          </g>
        </g>
      </g>
      <g id="Group_6651" data-name="Group 6651" transform="translate(328 11462)">
        <path id="Path_6738" data-name="Path 6738" d="M3.415,15.732l-.218.218.218.22L17.441,30.237l.01-.01,1.733-1.754-1.739-1.744L6.7,15.951,17.489,5.127l1.74-1.745L17.495,1.628l-.007-.007Z" transform="translate(0.771 0.391)" fill="#fff"/>
        <path id="Path_6739" data-name="Path 6739" d="M16.268,0,14.517,1.759.265,16.075,0,16.342H0L14.472,30.882l1.751,1.759.01-.01,1.98-2L4.186,16.56l-.218-.218.218-.218L18.259,2.012l-1.983-2Z" transform="translate(0 0)" fill="#575a5d"/>
      </g>
      <g id="Group_6655" data-name="Group 6655" transform="translate(987 11494.641) rotate(180)">
        <path id="Path_6738-2" data-name="Path 6738" d="M3.415,15.732l-.218.218.218.22L17.441,30.237l.01-.01,1.733-1.754-1.739-1.744L6.7,15.951,17.489,5.127l1.74-1.745L17.495,1.628l-.007-.007Z" transform="translate(0.771 0.391)" fill="#fff"/>
        <path id="Path_6739-2" data-name="Path 6739" d="M16.268,0,14.517,1.759.265,16.075,0,16.342H0L14.472,30.882l1.751,1.759.01-.01,1.98-2L4.186,16.56l-.218-.218.218-.218L18.259,2.012l-1.983-2Z" transform="translate(0 0)" fill="#575a5d"/>
      </g>
    </g>
  </g>
</svg>