<svg xmlns="http://www.w3.org/2000/svg" xmlns:xlink="http://www.w3.org/1999/xlink" width="1344" height="660" viewBox="0 0 1344 660">
  <defs>
    <clipPath id="clip-path">
      <rect id="Rectangle_3697" data-name="Rectangle 3697" width="1264" height="500" transform="translate(328 3558)" fill="#c7c7c7"/>
    </clipPath>
    <linearGradient id="linear-gradient" x1="0.408" y1="1.091" x2="0.334" y2="0.431" gradientUnits="objectBoundingBox">
      <stop offset="0" stop-color="#ababab"/>
      <stop offset="1" stop-color="#d5d5d5"/>
    </linearGradient>
    <linearGradient id="linear-gradient-2" x1="0.659" y1="1.841" x2="0.252" y2="2.645" gradientUnits="objectBoundingBox">
      <stop offset="0" stop-color="#939393"/>
      <stop offset="1" stop-color="#bebebe"/>
    </linearGradient>
    <linearGradient id="linear-gradient-3" x1="0.381" y1="0.033" x2="0.253" y2="-0.477" gradientUnits="objectBoundingBox">
      <stop offset="0" stop-color="#6a6a6a"/>
      <stop offset="1" stop-color="#6a6a6a"/>
    </linearGradient>
    <linearGradient id="linear-gradient-4" x1="0.151" y1="-0.165" x2="0.167" y2="0.296" gradientUnits="objectBoundingBox">
      <stop offset="0" stop-color="#c7c7c7"/>
      <stop offset="1" stop-color="#747474"/>
    </linearGradient>
  </defs>
  <g id="Group_6954" data-name="Group 6954" transform="translate(-288 -4187)">
    <g id="Group_6934" data-name="Group 6934">
      <g id="Rectangle_3655" data-name="Rectangle 3655" transform="translate(288 4187)" fill="#fff" stroke="#ddd" stroke-width="1">
        <rect width="1344" height="660" rx="15" stroke="none"/>
        <rect x="0.5" y="0.5" width="1343" height="659" rx="14.5" fill="none"/>
      </g>
      <g id="Group_6907" data-name="Group 6907">
        <g id="Mask_Group_49" data-name="Mask Group 49" transform="translate(0 709)" clip-path="url(#clip-path)">
          <g id="Group_6929" data-name="Group 6929" transform="translate(16700 19646)">
            <rect id="Rectangle_3695" data-name="Rectangle 3695" width="1268" height="712" transform="translate(-16372.001 -16225)" fill="#fff"/>
            <g id="Background-2" transform="translate(-16372 -16225)" opacity="0.35">
              <rect id="Rectangle_3696" data-name="Rectangle 3696" width="1268" height="712" transform="translate(0)" fill="#b5b5b5"/>
              <path id="Path_18000" data-name="Path 18000" d="M2818.6,977.209c0-10.645,25.212-18.29,32.364-20.465,11.9-3.626,40.866-9.92,46.138-.033,5.075,9.459-11.336,34.142-33.516,39.152C2842.79,1000.575,2818.635,987.623,2818.6,977.209Z" transform="translate(-1889.698 -637.86)" fill="#929292"/>
              <path id="Path_18001" data-name="Path 18001" d="M2927.59,1022.69c1.514-1.812,5.206-.89,4.217,1.812-2.472,6-10.38,21.158-17.96,16.379-3.428-2.7-8.141-5.4-11.5-7.646-2.934-3.362,3.394-5.669,5.174-5.57C2917.866,1026.183,2924.656,1024.865,2927.59,1022.69Z" transform="translate(-1945.332 -685.021)" fill="#545454"/>
              <path id="Path_18002" data-name="Path 18002" d="M2379.472,895.528a3.775,3.775,0,0,1,1.516,1.252,3.357,3.357,0,0,1-.66,4.482c-14.006,11.633-50.521,46.8-57.738,49.995-17.534,7.81-72.374-4.021-103.089-7.877-23.629-2.966-53.158-62.155-57.542-87.235-.791-4.614,5.407-7.053,10.678-10.15,32-18.785,72.569-8.7,102.987-1.154,66.836,16.577,98.079,48.248,103.779,50.654Z" transform="translate(-1449.415 -560.002)" fill="#a1a1a1"/>
              <path id="Path_18003" data-name="Path 18003" d="M2287.648,1041.591c1.055-1.418,8.4,1.911,9.921,2.4,5.734,2.274,13.38,5.274,19.576,7.712,14.137,5.569,28.242,9.986,43.337,11.338,18.423,1.615,36.383-1.747,53.619-7.943a52.158,52.158,0,0,1,6.229-1.978c3.725-.724.495,2.8-.527,3.988a56.353,56.353,0,0,0-11.5,17.533c-1.219,2.8-1.945,5.767-2.933,8.7-.627,1.812-1.285,3.987-3.131,4.581-1.351.494-3.361-.033-5.207-.2-24.421-2.6-48.38-8.634-72.965-9.689a155.381,155.381,0,0,0-22.509.164c-1.186.1-2.67.066-3.263-.659-.858-.956-.922-2.538-1.187-3.889-.56-2.8-1.351-5.5-2.01-8.273a154.509,154.509,0,0,0-6.658-20.828c-.427-.89-1.087-2.175-.791-2.933h0Z" transform="translate(-1533.678 -698.089)" fill="#929292"/>
              <path id="Path_18004" data-name="Path 18004" d="M1427.647,779.037c42.348-36.186,90.2-39.449,109.183-39.086,7.843.165,53.059,1.615,92.771,31.308a143.985,143.985,0,0,1,36.647,39.086,139.651,139.651,0,0,1,13.084,26.629,146.058,146.058,0,0,1,8.7,30.154c.56,3.2.989,6.295,1.318,9.294a491.083,491.083,0,0,1-195.957,64.034,55.91,55.91,0,0,0-14.7-22.64c-24.09-21.949-56.157-7.877-81.5-29.3-5.4-4.548-12.787-12.655-17.9-27.452C1384.244,828.833,1403.193,799.93,1427.647,779.037Z" transform="translate(-924.735 -496.075)" fill="#e5e5e5"/>
              <path id="Path_18005" data-name="Path 18005" d="M1380.066,1058.053c41.591-37.735,79.886-19.675,121.444,6.129,35.56,18.291,78.666,6.657,107.667-18.554a95.752,95.752,0,0,1,10.546-5.932,110.121,110.121,0,0,1,11.206-4.548c8.437-2.768,26.793-3.724,49.8.429a143.483,143.483,0,0,1,10.579,36.944,233.257,233.257,0,0,0-32.99,5.339c-46.434,11.007-64.758,30.485-109.809,46.073a277.512,277.512,0,0,1-54.674,12.82,55.777,55.777,0,0,0-14.7-22.641c-24.059-21.916-56.223-7.843-81.533-29.3-5.405-4.581-12.556-12.556-17.6-26.76Z" transform="translate(-925.205 -692.404)" fill="url(#linear-gradient)"/>
              <path id="Path_18006" data-name="Path 18006" d="M2593.523,331.375c-29.167,10.183-92.9,27.815-170.318,11.172a311.7,311.7,0,0,1-107.964-45.908c-8.864-13.182-8.47-20.8-6.623-25.244,12.06-29.2,112.148-3.922,135.415-38.064,1.484-2.175,2.835-5.108,2.241-7.811-8.832-17.9-39.712-8.074-54.839-4.515,63.64-45.216,144.447-40.437,218.136-51.543,71.548-21.784,201.3-111.26,201.759-27.387.262,46.369,1.02,93.431,1.384,139.668-16.215-2.175-31.967,8.6-37.274,23.959-40.6,9.953-97.649,30.682-150.28,76.656a336.674,336.674,0,0,0-32,32,47.686,47.686,0,0,0-16.808-.857,44.629,44.629,0,0,0-16.379,5.174c-7.614,4.251-12.2,10.184-21.323,21.982-1.68,2.175-3.032,4.021-3.921,5.273l-13.051-18.093c.727-3.032,5.965-23.794,26.892-34.6,19.774-10.216,38.591-3.823,41.723-2.7a55.94,55.94,0,0,1,3.2-59.123Z" transform="translate(-1547.066 -71.648)" fill="#cecece"/>
              <path id="Path_18007" data-name="Path 18007" d="M3403.462,269.888c-37.207-7.151-80.479-1.022-106.613,28.936-7.151,6-13.182,10.084-22.081,12.952-25.177,8.206-49.763-5.174-75.47,9.162-10.249,4.845-13.906,14.5-6.558,23.827,15.226,20.6,58.332,20.993,53.553,55.366-.658,4.581-3,9.689-6.952,12.326a65.253,65.253,0,0,1,14.73,4.12c-6.657-81.4,70.757-143.03,149.357-124.212V269.855Z" transform="translate(-2137.946 -179.127)" fill="#b5b5b5"/>
              <path id="Path_18008" data-name="Path 18008" d="M3246.8,335.5a118.979,118.979,0,0,0-41.2-3.493c-33.615,3.1-56.618,19.939-66.012,27.782-7.051,5.9-32.561,27.848-40.469,65.616a112.676,112.676,0,0,0-1.714,34.34,67.511,67.511,0,0,0-14.731-4.119c-25.375-2.735-42.019,8.5-56.156,28.342a55.227,55.227,0,0,0-8.733,20.7,57.334,57.334,0,0,0,4.909,35.724c-3.162-.923-24.584-6.822-44.818,6.36-16.777,10.909-21.588,27.651-22.675,31.737,2.241,2.669,4.548,5.6,6.822,8.766q3.907,5.388,6.921,10.381a55.762,55.762,0,0,1,10.809-16.972c3.13-3.362,16.544-17.7,35.495-16.709a37.8,37.8,0,0,1,14.235,3.691c5.834-9.425,13.118-21.059,21.62-34.373,15.62-24.354,19.575-30.056,25.837-36.417a114.033,114.033,0,0,1,33.647-23.4c-.723-8.964-4.349-63.276,32.53-96.561,14.4-12.985,30.879-19.049,37.537-21.454a130.828,130.828,0,0,1,66.11-5.471v-14.5Z" transform="translate(-1981.28 -222.262)" fill="#e5e5e5"/>
              <path id="Path_18009" data-name="Path 18009" d="M3175.745,842.176a46.06,46.06,0,0,1-5.7-15.292c-.527-2.867-1.78-11.337,2.108-24.519,3.2-10.843,8.076-27.453,23.2-37.834,23.3-15.984,52.3-4.416,54.872-3.328a104.317,104.317,0,0,0-20.893,13.183,118.318,118.318,0,0,0-21.522,23.6c-10.71,15.259-10.974,22.542-22.8,35.428a96.192,96.192,0,0,1-9.228,8.8Z" transform="translate(-2124.906 -506.947)" fill="#cecece"/>
              <path id="Path_18010" data-name="Path 18010" d="M3560.17,379.388c-10.02-2.142-62.914-10.941-103.45,27.98-39.812,38.229-33.912,90.135-33.187,95.606a148.208,148.208,0,0,1,98.078-15.621,35.538,35.538,0,0,1,38.559-23.465v-84.5Z" transform="translate(-2294.787 -252.77)" fill="#cecece"/>
              <path id="Path_18011" data-name="Path 18011" d="M0,0H1213.345a142.466,142.466,0,0,1-33.912,16.841c-15.786,5.372-28.342,6.888-41.492,7.514-29.825,1.384-60.277-2.571-89.08,7.547-19.74,7.119-36.548,19.411-51.708,33.714-8.865,8.338-17.3,17.961-28.507,23.168-19.279,8.964-42.744,5.6-63.506,7.514a221.1,221.1,0,0,0-59.552,13.578c-60.079,21.751-107.074,71.416-169.823,86.51-103.911,15.489-112.15-66.769-272.152-5.174,28.375,15.061-9.656,27.848-24.124,29.891-27.815,6.163-57.541,5.6-85.686,1.549-7.679-.791-35.724-4.746-43.766-6.031-42.25-2.175-81.665,11.93-118.181,32.165A149.994,149.994,0,0,0,81.2,178.325,150.249,150.249,0,0,0,0,147.94Z" transform="translate(0.001)" fill="url(#linear-gradient-2)"/>
              <path id="Path_18012" data-name="Path 18012" d="M0,161.274c55.7-31.209,123.783-36.944,185.378-22.048,27.189,8.437,118.378,29.43,126.584,57.706-2.208,6.394-11.469,5.9-17.038,6.361-67.362-.989-135.911-45.545-202.449-14.665-15.16,6.492-30.682,25.706-6.262,32.264,8.931,2.043,19.312,0,28.309-.758,35.23-3.79,70.526,8.8,96.858,32.165,17.3,15.852,34.011,35.428,58.893,38.1,45.875,9.92,88.652-30.88,133.143-11.139,28.342,15.028-9.623,27.881-24.157,29.891-27.815,6.2-57.607,5.6-85.752,1.549-7.316-.461-36.021-4.976-43.8-6.031-42.283-2.175-81.731,11.93-118.279,32.165C111.359,281.629,60.013,237.7,0,236.018Z" transform="translate(0.001 -88.078)" fill="#cecece"/>
              <path id="Path_18013" data-name="Path 18013" d="M310.5,584.161c48.017-23.3,101.472.264,147.347,17.533-42.283-2.208-81.731,11.93-118.28,32.165C332.679,615.964,323.122,598.695,310.5,584.161Z" transform="translate(-208.17 -385.106)" fill="#b5b5b5"/>
              <path id="Path_18014" data-name="Path 18014" d="M826.4,0h803.569c-46.8,13.281-84.005,26.793-110.073,37.043-48.248,18.983-71.285,31.836-103.186,25.475-27.98-5.6-35.692-20.861-55.069-28.408-76.26-29.693-121.608,58.431-180.369,87-35.3,12.82-72.668-4.35-108.821,2.8-59.651,9.887-119.1,54.971-180.2,26.2,34.274-5.734,53.718-14.7,80.116-37.405,32.857-27.617,70.625-48.083,114.357-49.9,10.282-.923,46.765.132,53.455-6.426,1.944-2.076.56-5.174-1.45-6.69-39.251,10.513-119.466,25.838-211.874-2.043A373.378,373.378,0,0,1,826.4,0Z" transform="translate(-554.05)" fill="#7e7e7e"/>
              <path id="Path_18015" data-name="Path 18015" d="M0,843.661a349.455,349.455,0,0,1,53.686-8.569c214.05-17.137,453.608,163.825,435.844,274.294C474.6,1202.256,272.547,1277.594,0,1270.969Z" transform="translate(0.001 -559.117)" fill="#7a7a7a"/>
              <path id="Path_18016" data-name="Path 18016" d="M234.1,1157.159c59.585-30.715,91.915-26.431,110.6-15.786,29.628,16.873,23.728,49.071,65.715,86.312,9.228,8.173,35,30.55,73.426,39.943,46.633,11.4,74.679-5.438,101.8,15.127,14.072,10.71,20.466,25.838,23.564,35.79a455.418,455.418,0,0,1-117.752-9.26c-133.769-28.474-219.949-110.93-257.354-152.158Z" transform="translate(-156.949 -759.906)" fill="#5a5a5a"/>
              <path id="Path_18017" data-name="Path 18017" d="M0,448.9c60.013,1.681,111.359,45.611,131.4,100.813,72.569-1.912,134.79,61.76,148.6,130.078,24.552-17.862,57.311-18.62,81.336-2.175,20.861,14.27,32.2,39.449,29.562,65.352A94.175,94.175,0,0,1,521.86,845.329q-21.455,4.844-42.942,9.689c-37.273-47.127-72.833-64.528-98.868-71.58-22.575-6.1-42.612-4.845-64.594-21.488-23.135-17.533-30.122-37.273-40.931-56.421-49.138-86.938-168.7-110.5-191.277-114.951A316.619,316.619,0,0,0,0,585.536V448.9Z" transform="translate(0.001 -300.96)" fill="#a5a5a5"/>
              <path id="Path_18018" data-name="Path 18018" d="M731.333,874.125c78.27-31.769,154.926-24.42,191.837,18.423,7.711,8.964,16.939,23.234,21.718,45.315,8.47,15.918,17.995,24.948,23.993,29.759a52.738,52.738,0,0,0,7.843,5.339c10.348,5.669,18.851,5.372,28.738,6.46,12.26,1.351,23.069,2.57,33.022,8.7,2.6,1.582,17.962,11.073,20.5,29.133a39.609,39.609,0,0,1-4.186,23.267c4.251-1.879,24.684-10.282,47.457-1.384,31.275,12.26,37.965,45.842,38.328,47.951a33.2,33.2,0,0,1-2.241,3.428,34.263,34.263,0,0,1-2.768,3.1c-28.243,4.877-94.65,17.9-123.388,23.662,6-69.307-63.9-131.165-130.968-102.329,9.327-58.794-65.022-92.244-110.93-63.177a184.893,184.893,0,0,0-17.236-45.677A182.7,182.7,0,0,0,731.3,874.158Z" transform="translate(-490.291 -572.907)" fill="#7e7e7e"/>
              <path id="Path_18019" data-name="Path 18019" d="M835.3,1095.355c88.586-6.987,124.871,8.832,141.217,25.738,4.35,4.515,13.018,14.9,28.837,23.465,15.885,8.6,32.561,11.238,55.794,15.555,20.071,4.977,38.625,18.686,45.842,38.526,6.987,16.379-5.174,39.482,14.567,49.434,12.227,5.471,30.385-1.054,37.108,14.369l-76.722,15.127c.3-3.065,4.581-55.4-38.065-87.959-41.557-31.77-89.509-15.555-92.87-14.369-.164-3.3-2.966-45.183-36.449-64.265-18.357-10.447-37.636-9.326-42.612-8.9a76.966,76.966,0,0,0-31.836,10.019q-2.373-8.355-4.713-16.71Z" transform="translate(-560.017 -733.233)" fill="#545454"/>
              <path id="Path_18020" data-name="Path 18020" d="M398.7,698.93c44.227-23.3,80.347-27.716,105.2-27.453,55.827.626,83.84,25.343,161.056,45.084a562.813,562.813,0,0,0,105.295,16.544,151.4,151.4,0,0,0-48.05,82.687c-1.912-5.042-9.623-23.531-29.858-34.077a62.813,62.813,0,0,0-31.9-6.921,210.536,210.536,0,0,0-152.126-23.432,159.448,159.448,0,0,0-20.5-20.037,150.786,150.786,0,0,0-28.672-18.554A141.4,141.4,0,0,0,423.351,701.2a144.913,144.913,0,0,0-24.651-2.34Z" transform="translate(-267.303 -450.178)" fill="#a1a1a1"/>
              <path id="Path_18021" data-name="Path 18021" d="M667.4,831.861a157.265,157.265,0,0,1,173.152,43.9c-16.445,11.337-29.628,13.183-38.724,12.688-29.2-1.615-40.668-28.606-76.425-36.219a90.621,90.621,0,0,0-36.944.132c-2.9-3.329-6.163-6.822-9.788-10.381C674.815,838.189,670.992,834.828,667.4,831.861Z" transform="translate(-447.45 -551.141)" fill="#b5b5b5"/>
              <path id="Path_18022" data-name="Path 18022" d="M0,1167c195.5,5.735,196.221,180.105,452.257,174.107C314.863,1370.6,0,1494.584,0,1494.584Z" transform="translate(0.001 -782.402)" fill="#848484"/>
              <path id="Path_18023" data-name="Path 18023" d="M0,1374.582c62.748-5.536,105.723,7.745,133.934,21.652,52.466,25.87,71.383,62.484,136.57,88.256a282.393,282.393,0,0,0,77.678,18.389q-50.077,15.078-100.187,30.155c-29.232-28.672-81.863-72.042-158.947-96.43A389.085,389.085,0,0,0,0,1419.567Z" transform="translate(0.001 -920.71)" fill="#757575"/>
              <path id="Path_18024" data-name="Path 18024" d="M0,1513.8a364.017,364.017,0,0,1,122.234,26.959,364.969,364.969,0,0,1,125.76,86.51q-37.718,14.384-75.4,28.737a244.2,244.2,0,0,0-41.228-40.535c-24.289-18.786-46.04-28.244-62.155-35.1A337.425,337.425,0,0,0,0,1559.345v-45.512Z" transform="translate(0.001 -1014.91)" fill="#5a5a5a"/>
              <path id="Path_18025" data-name="Path 18025" d="M0,1651.9a307.268,307.268,0,0,1,93.562,31.868,306.842,306.842,0,0,1,81.9,63.473c-23.069,10.479-47.424,22.608-72.734,36.68-21.158,11.765-40.833,23.7-58.991,35.461H0V1651.9Z" transform="translate(0.001 -1107.499)" fill="#393939"/>
              <path id="Path_18026" data-name="Path 18026" d="M0,1811.3a215.774,215.774,0,0,1,61.925,26.892,216.692,216.692,0,0,1,52.2,46.732c-14.138,7.052-28.935,15.16-44.227,24.453-9.228,5.6-17.994,11.271-26.266,16.874H0V1811.3Z" transform="translate(0.001 -1214.366)" fill="#242424"/>
              <path id="Path_18027" data-name="Path 18027" d="M2245.629,1210.1v292.98H1461.9c34.275-55.235,123.024-181.324,290.277-259.727C1979.838,1136.609,2191.712,1193.788,2245.629,1210.1Z" transform="translate(-980.114 -791.228)" fill="url(#linear-gradient-3)"/>
              <path id="Path_18028" data-name="Path 18028" d="M2671.424,1159.892v18.818c-42.513-2.076-99.461,2.6-147.874,37.372-53.652,38.526-47.688,78.8-97.913,104.372-50.588,25.739-86.213-.1-177.8,2.57a483.237,483.237,0,0,0-150.84,29.1c24.255-34.7,120.356-163.4,299.209-205.613C2521.607,1116.917,2625.385,1144.5,2671.424,1159.892Z" transform="translate(-1405.909 -759.871)" fill="#7e7e7e"/>
              <path id="Path_18029" data-name="Path 18029" d="M1984.828,1173.865c-20.631-4.68-93.859-18.686-168.933,21.685-47.391,25.508-74.382,61.3-87,80.907-26.728,53.982-99.923,22.608-146.622,22.08-63.935-6.327-128.133,21.488-171.866,67.527a452.819,452.819,0,0,0-209.3,119.6H1072.9c5.965-43.271,37.669-73.59,70.691-74.382,27.782-.692,47.489,19.707,51.774,24.387,1.549-6,12.787-47.061,54.707-67.758,44.886-22.147,87.169-2.307,92.112.1,5.735-17.467,23.927-64.891,72.174-95.442,33.516-21.223,66.736-24.947,78.337-26.1,30.682-3.1,40.634,3.79,82.785,6.723,29.727,2.076,61.034,4.284,93.134-3.362,54.081-12.886,52.136-39.876,122.4-69.8,41.228-17.566,72.437-21.257,97.715-24.058,37.01-4.086,62.188-1.153,84.763,10.909a104.652,104.652,0,0,1,11.336,6.986Z" transform="translate(-719.313 -773.844)" fill="#9d9d9d"/>
              <path id="Path_18030" data-name="Path 18030" d="M2808.847,706.116c50.751-40.7,109.019-36.515,122.4-35.23q17.3-15.176,34.572-30.386.048,95.21.131,190.453c-68.022-20.664-116.8-14.468-148.829-4.91-64.792,19.312-86.116,59.75-155.916,79.787-49.764,14.27-94.913,9.788-124.9,3.921,7.151-9.557,19.51-23.1,38.492-30.583,28.046-11.007,39.448,3.527,64.429-7.744,28.474-12.82,46.765-46.6,51.544-55.4,5.9-10.908,6.525-15.39,12.886-21.916,14.665-15.028,36.91-17.335,54.115-16.742,5.734-15.423,19.674-46.105,51.114-71.284Z" transform="translate(-1700.434 -429.416)" fill="#7a7a7a"/>
              <path id="Path_18031" data-name="Path 18031" d="M2927.259,663.327a35.649,35.649,0,0,1,38.689-23.5v23.959a25.583,25.583,0,0,0-11.5,7.613,26.242,26.242,0,0,0-5.669,11.239C2872.419,678.224,2839,698.558,2822.59,717.9c-19.773,23.267-18.752,49.7-48.973,69.57-23.466,15.457-32.956,5.306-58.827,21.059-36.779,22.344-26.4,48.116-57.442,63.638-31.869,15.918-58.663-3.362-86.28,19.246a65.3,65.3,0,0,0-16.51,20.7,71.746,71.746,0,0,1-10.15-1.055,62.213,62.213,0,0,1-8.108-1.977,62.918,62.918,0,0,1,6.526-22.64c26.991-52.466,115.874-32.331,144.579-83.478,4.02-7.151,7.777-17.4,19.279-26.233,14.865-11.469,32.758-13.018,44.657-12.754,4.152-11.37,22.606-57.969,73.887-85.159,45.71-24.223,89.013-17.928,102.1-15.489Z" transform="translate(-1700.434 -428.746)" fill="#a5a5a5"/>
              <path id="Path_18032" data-name="Path 18032" d="M3340.2,975.359c.954-8.635,7.448-59.024,52.926-93.4,49.039-37.042,103.977-25.639,111.786-23.893V974.8a284.759,284.759,0,0,0-164.712.527Z" transform="translate(-2239.398 -573.262)" fill="#a6a6a6"/>
              <path id="Path_18033" data-name="Path 18033" d="M3484.733,1067.042c2.076-5.669,13.974-36.45,48.116-51.939,32.989-14.995,62.979-4.878,68.943-2.736v64.3a284.839,284.839,0,0,0-117.092-9.656Z" transform="translate(-2336.278 -675.161)" fill="#a5a5a5"/>
              <path id="Path_18034" data-name="Path 18034" d="M2521.85,1633.773H1873.9c84.5-84.4,145.434-97.517,187.52-90.564,53.817,8.9,91.123,52.961,129.616,34.636,30.913-14.731,23.63-51.18,58.629-65.714,35.23-14.632,62.583,13.973,88.915-3.856,18.883-12.787,15.951-35.1,25.112-56.685,12.129-28.573,48.084-62.122,158.19-76.491" transform="translate(-1256.335 -921.92)" fill="#4c4c4c"/>
              <path id="Path_18035" data-name="Path 18035" d="M2567,1940.531a566.766,566.766,0,0,0,113.171-35.3c41.853-18.191,61.431-33.054,95.309-30.418,32.2,2.5,37.339,17.7,62.682,13.808,31.7-4.877,36.91-30.748,72.635-46.534,15.324-6.756,39.613-13.15,75.733-6.888v105.328Z" transform="translate(-1721.016 -1228.679)" fill="#393939"/>
              <path id="Path_18036" data-name="Path 18036" d="M3114.4,2021.889a192.873,192.873,0,0,1,70.657-23.4c34.8-4.219,50.852,4.086,79.227.956,21.849-2.406,53.125-11.831,89.244-45.446v67.856H3114.4Z" transform="translate(-2088.014 -1310.038)" fill="#242424"/>
              <path id="Path_18037" data-name="Path 18037" d="M1489.49,1058.437c-13.348,39.218-31.177,52.565-44.656,57.707-24.915,9.491-44.557-5.668-69.9,5.47-20.466,9-31.242,29.232-37.01,43.766-12.853-3.2-70.591-16.083-130.506,16.939-57.31,31.6-77.776,83.807-82.456,96.891-6.459-2.6-46.106-17.7-89.08,2.7-41.69,19.774-55.432,58.168-57.739,64.956-4.614-2.208-39.745-18.257-77.183-.4-31.9,15.226-43.139,44.425-45.282,50.423H748.9a349.784,349.784,0,0,1,57.278-58.925c40.931-33.155,80.973-49.9,213.193-92.343,34.6-11.106,77.875-24.75,128-39.91,1.12-1.515,2.9-3.757,5.009-6.492,27.716-35.856,59.025-54.312,80.512-67.3,54.806-33.088,112.974-50.192,137.493-56.75.4-2.274,7.25-37.306,37.636-49.434C1435.837,1014.605,1471.5,1027.425,1489.49,1058.437Z" transform="translate(-502.091 -685.044)" fill="#cecece"/>
              <path id="Path_18038" data-name="Path 18038" d="M2150.557,1296.3c17.171-.527,29.562,8.4,33.715,11.7a62.8,62.8,0,0,1,11.8-28.242c1.449-1.911,21.982-28.145,50.06-23.828a45.7,45.7,0,0,1,20.662,9.031c-2.768-.758-34.5-9.031-59.089,12.193-15.786,13.611-19.445,31.474-20.367,37.175-6.593-2.867-31.145-12.524-57.409-2.142A68.98,68.98,0,0,0,2109,1325.331a30.716,30.716,0,0,1,2.537-7.679c7.218-14.764,25.608-20.927,38.987-21.323Z" transform="translate(-1413.955 -841.7)" fill="#e5e5e5"/>
              <path id="Path_18039" data-name="Path 18039" d="M2291.245,1148a201.318,201.318,0,0,1,102.231,9.788c-.3,7.679-.626,15.357-.923,23.068a14.139,14.139,0,0,0-14.6,10.316,53.319,53.319,0,0,0-30.023-7.514c-20.7,1.187-33.484,14.6-37.24,18.687a61.34,61.34,0,0,0-15.259,31.868,54.942,54.942,0,0,0-10.646-6.327,53.025,53.025,0,0,0-9.986-3.362,115.481,115.481,0,0,0,8.932-18.026,124.121,124.121,0,0,0,7.481-58.464Z" transform="translate(-1525.113 -767.881)" fill="#545454"/>
              <path id="Path_18040" data-name="Path 18040" d="M1717.085,1217.631a241.933,241.933,0,0,0,51.312-11.963c38.46-13.545,51.873-29.364,88.256-41.558a214.255,214.255,0,0,1,57.871-10.71,119.4,119.4,0,0,1-16.444,76.491,51.207,51.207,0,0,0-30.584,3.889,51.752,51.752,0,0,0-24.024,23.135,62.817,62.817,0,0,0-44.788,30.551c-7.25-7.679-15.457-21.916-19.543-28.376-6.3-9.853-11.37-13.841-17.137-17.466-16.808-10.579-38.724-4.482-49.1-.724a46.26,46.26,0,0,0,3.723-11.9A44.733,44.733,0,0,0,1717.085,1217.631Z" transform="translate(-1148.394 -773.284)" fill="url(#linear-gradient-4)"/>
              <path id="Path_18041" data-name="Path 18041" d="M1953.333,1477.762c.593-2.274,4.614-16.742,19.345-24.321,16.083-8.272,31.506-1.483,33.352-.626-.461.857-.955,1.713-1.417,2.571a95.405,95.405,0,0,0-44.787,30.55,16.072,16.072,0,0,1-6.525-8.141Z" transform="translate(-1309.568 -971.722)" fill="#e5e5e5"/>
              <path id="Path_18042" data-name="Path 18042" d="M734.014,1579.9a111.09,111.09,0,0,0-29.067,49.83c-5.636-2.867-45.644-22.246-90.333-3.263-40.964,17.368-55.663,54.147-58.135,60.64a226.025,226.025,0,0,0-220.872,83.971H132.4c201.3-108.624,294.858-138.876,342.414-143.952,9-.956,32.725-2.8,66.209-9.195,51.576-9.887,70.526-19.972,118.477-29.034a573.124,573.124,0,0,1,74.547-9Z" transform="translate(-88.765 -1059.226)" fill="#cecece"/>
              <path id="Path_18043" data-name="Path 18043" d="M541.09,1695.2a738.323,738.323,0,0,0-326.331,153.18H132.5A705.719,705.719,0,0,1,541.09,1695.2Z" transform="translate(-88.833 -1136.528)" fill="#b5b5b5"/>
            </g>
          </g>
        </g>
        <g id="Arrow-left" transform="translate(348 4494.485)">
          <g id="Group_1453" data-name="Group 1453">
            <g id="Ellipse_82" data-name="Ellipse 82" fill="#fff" stroke="#ddd" stroke-width="1">
              <circle cx="22.515" cy="22.515" r="22.515" stroke="none"/>
              <circle cx="22.515" cy="22.515" r="22.015" fill="none"/>
            </g>
          </g>
          <g id="Left-arrow" transform="translate(18.014 16.272)">
            <path id="Icons-07" d="M1.31,0,0,1.3,5.916,7.2l5.916-5.9L10.521,0,5.916,4.606Z" transform="translate(7.197) rotate(90)" fill="#575a5d"/>
          </g>
        </g>
        <g id="Group_6848" data-name="Group 6848" transform="translate(23 601)">
          <rect id="Rectangle_3191" data-name="Rectangle 3191" width="484" height="353" rx="4" transform="translate(400 3740)" fill="#fff"/>
          <g id="Group_5249" data-name="Group 5249" transform="translate(332 3500)">
            <text id="Subheading_Goes_Here" data-name="Subheading Goes Here" transform="translate(120 312)" fill="#575a5d" font-size="18" font-family="Helvetica"><tspan x="0" y="0">Subheading Goes Here</tspan></text>
            <text id="Heading_Goes_In_This_Space" data-name="Heading Goes
In This Space" transform="translate(120 367)" fill="#111" font-size="48" font-family="Helvetica-Bold, Helvetica" font-weight="700"><tspan x="0" y="0">Heading Goes</tspan><tspan x="0" y="56">In This Space</tspan></text>
            <text id="Lorem_ipsum_dolor_sit_amet_consectetur_adipiscing_elit." data-name="Lorem ipsum dolor sit amet, consectetur adipiscing elit." transform="translate(120 451)" fill="#575a5d" font-size="14" font-family="Helvetica"><tspan x="0" y="11">Lorem ipsum dolor sit amet, consectetur adipiscing elit.</tspan></text>
            <g id="Primary_Button_CTA" data-name="Primary Button CTA" transform="translate(120 492)">
              <rect id="Rectangle_3062" data-name="Rectangle 3062" width="120" height="48" rx="4" fill="#111"/>
              <text id="Shop_Now" data-name="Shop Now" transform="translate(60 29)" fill="#fff" font-size="13" font-family="Helvetica"><tspan x="-29.99" y="0">Shop Now</tspan></text>
            </g>
          </g>
        </g>
        <g id="Arrow-left-2" data-name="Arrow-left" transform="translate(1572 4539.515) rotate(180)">
          <g id="Group_1453-2" data-name="Group 1453">
            <g id="Ellipse_82-2" data-name="Ellipse 82" fill="#fff" stroke="#ddd" stroke-width="1">
              <circle cx="22.515" cy="22.515" r="22.515" stroke="none"/>
              <circle cx="22.515" cy="22.515" r="22.015" fill="none"/>
            </g>
          </g>
          <g id="Left-arrow-2" data-name="Left-arrow" transform="translate(18.014 16.272)">
            <path id="Icons-07-2" data-name="Icons-07" d="M1.31,0,0,1.3,5.916,7.2l5.916-5.9L10.521,0,5.916,4.606Z" transform="translate(7.197) rotate(90)" fill="#575a5d"/>
          </g>
        </g>
        <g id="Group_6849" data-name="Group 6849" transform="translate(-1908 36)">
          <circle id="Ellipse_621" data-name="Ellipse 621" cx="4" cy="4" r="4" transform="translate(2864 4703)" fill="#969da8"/>
          <circle id="Ellipse_622" data-name="Ellipse 622" cx="4" cy="4" r="4" transform="translate(2844 4703)" fill="#969da8"/>
          <circle id="Ellipse_623" data-name="Ellipse 623" cx="4" cy="4" r="4" transform="translate(2884 4703)" fill="#969da8"/>
        </g>
      </g>
    </g>
  </g>
</svg>