<svg xmlns="http://www.w3.org/2000/svg" xmlns:xlink="http://www.w3.org/1999/xlink" width="1600" height="279" viewBox="0 0 1600 279">
	<text transform="translate(588.43 80.76)"
		style="fill:#494a53; font-family:Helvetica-Bold, Helvetica; font-size:32px; font-weight:700; isolation:isolate;">
		<tspan x="0" y="0">Combination Facet Heading</tspan>
	</text>
	<path id="b"
		d="M96,121.8h1408c8.8,0,16,4.7,16,10.4v73.1c0,5.8-7.2,10.4-16,10.4H96c-8.8,0-16-4.7-16-10.4v-73.1c0-5.8,7.2-10.4,16-10.4h0Z"
		style="fill:#cfd2d6; stroke-width:0px;" />
	<g id="c">
		<g id="d">
			<path id="e"
				d="M1384.8,141.8h112c2.2,0,4,2.1,4,4.7v46.7c0,2.6-1.8,4.7-4,4.7h-112c-2.2,0-4-2.1-4-4.7v-46.7c0-2.7,1.8-4.7,4-4.7Z"
				style="fill:#494a53; stroke-width:0px;" />
		</g>
		<path id="f"
			d="M1413.8,163.9h54c2.8,0,5,2.6,5,5.8h0c0,3.2-2.2,5.8-5,5.8h-54c-2.8,0-5-2.6-5-5.8h0c0-3.2,2.2-5.8,5-5.8Z"
			style="fill:#fff; stroke-width:0px;" />
	</g>
	<g id="g">
		<path
			d="M103.9,139.8h392.3c2.1,0,3.9,1.8,3.9,4v50c0,2.2-1.7,4-3.9,4H103.9c-2.1,0-3.9-1.8-3.9-4v-50c0-2.3,1.7-4,3.9-4Z"
			style="fill:#fff; stroke-width:0px;" />
		<path
			d="M103.9,140.8h392.3c1.6,0,2.9,1.3,2.9,3v50c0,1.7-1.3,3-2.9,3H103.9c-1.6,0-2.9-1.3-2.9-3v-50c0-1.7,1.3-3,2.9-3Z"
			style="fill:none; stroke:#cfd2d6; stroke-width:2px;" />
	</g>
	<g id="h">
		<path id="i" d="M468.6,163.8l-1.4,1.4,6.4,6.6,6.4-6.6-1.4-1.4-5,5.1-5-5.1Z"
			style="fill:#494a53; stroke-width:0px;" />
	</g>
	<path id="j"
		d="M121.3,163.8h125.6c2.7,0,4.8,2.2,4.8,5h0c0,2.8-2.2,5-4.8,5h-125.6c-2.7,0-4.8-2.2-4.8-5h0c-.1-2.8,2.1-5,4.8-5Z"
		style="fill:#969da8; stroke-width:0px;" />
	<g id="k">
		<path
			d="M530.8,139.8h392.3c2.1,0,3.9,1.8,3.9,4v50c0,2.2-1.7,4-3.9,4h-392.3c-2.1,0-3.9-1.8-3.9-4v-50c0-2.3,1.8-4,3.9-4Z"
			style="fill:#fff; stroke-width:0px;" />
		<path
			d="M530.8,140.8h392.3c1.6,0,2.9,1.3,2.9,3v50c0,1.7-1.3,3-2.9,3h-392.3c-1.6,0-2.9-1.3-2.9-3v-50c0-1.7,1.3-3,2.9-3Z"
			style="fill:none; stroke:#cfd2d6; stroke-width:2px;" />
	</g>
	<g id="l">
		<path id="m" d="M895.5,163.8l-1.4,1.4,6.4,6.6,6.4-6.6-1.4-1.4-5,5.1-5-5.1Z"
			style="fill:#494a53; stroke-width:0px;" />
	</g>
	<path id="n"
		d="M548.2,163.8h125.6c2.7,0,4.8,2.2,4.8,5h0c0,2.8-2.2,5-4.8,5h-125.6c-2.7,0-4.8-2.2-4.8-5h0c0-2.8,2.1-5,4.8-5Z"
		style="fill:#969da8; stroke-width:0px;" />
	<g id="o">
		<path
			d="M957.7,139.8h392.3c2.1,0,3.9,1.8,3.9,4v50c0,2.2-1.7,4-3.9,4h-392.3c-2.1,0-3.9-1.8-3.9-4v-50c.1-2.3,1.8-4,3.9-4Z"
			style="fill:#fff; stroke-width:0px;" />
		<path
			d="M957.7,140.8h392.3c1.6,0,2.9,1.3,2.9,3v50c0,1.7-1.3,3-2.9,3h-392.3c-1.6,0-2.9-1.3-2.9-3v-50c0-1.7,1.3-3,2.9-3Z"
			style="fill:none; stroke:#cfd2d6; stroke-width:2px;" />
	</g>
	<g id="p">
		<path id="q" d="M1322.4,163.8l-1.4,1.4,6.4,6.6,6.4-6.6-1.4-1.4-5,5.1-5-5.1Z"
			style="fill:#494a53; stroke-width:0px;" />
	</g>
	<path id="r"
		d="M975.1,163.8h125.6c2.7,0,4.8,2.2,4.8,5h0c0,2.8-2.2,5-4.8,5h-125.6c-2.7,0-4.8-2.2-4.8-5h0c0-2.8,2.1-5,4.8-5Z"
		style="fill:#969da8; stroke-width:0px;" />
</svg>