<svg xmlns="http://www.w3.org/2000/svg" xmlns:xlink="http://www.w3.org/1999/xlink" width="1344" height="810" viewBox="0 0 1344 810">
  <defs>
    <clipPath id="clip-path">
      <rect id="Rectangle_3559" data-name="Rectangle 3559" width="324.868" height="350.277" fill="none"/>
    </clipPath>
  </defs>
  <g id="Group_6952" data-name="Group 6952" transform="translate(-288 -2617)">
    <g id="Group_6935" data-name="Group 6935">
      <g id="Rectangle_3572" data-name="Rectangle 3572" transform="translate(288 2617)" fill="#fff" stroke="#ddd" stroke-width="1">
        <rect width="1344" height="810" rx="15" stroke="none"/>
        <rect x="0.5" y="0.5" width="1343" height="809" rx="14.5" fill="none"/>
      </g>
      <rect id="Rectangle_3232" data-name="Rectangle 3232" width="650" height="650" transform="translate(328 2697)" fill="#f5f5f5"/>
      <text id="Product_Name_Goes_Here_Up_to_Two_Lines" data-name="Product Name Goes 
Here &amp; Up to Two Lines" transform="translate(1060 2858)" fill="#111" font-size="40" font-family="Helvetica-Bold, Helvetica" font-weight="700"><tspan x="0" y="0">Product Name Goes </tspan><tspan x="0" y="48">Here &amp; Up to Two Lines</tspan></text>
      <text id="SKU_OR_BRAND_NAME" data-name="SKU OR BRAND NAME" transform="translate(1060 2811)" fill="#111" font-size="13" font-family="Helvetica"><tspan x="0" y="0">SKU OR BRAND NAME</tspan></text>
      <text id="Lorem_ipsum_dolor_sit_amet_consectetur_adipiscing_elit._Nam_condimentum_ex_et_nunc_interdum_eu_porttitor_ipsum_facilisis._Proin_pellentesque_sapien_a_ultricies." data-name="Lorem ipsum dolor sit amet, consectetur adipiscing elit. Nam condimentum ex et nunc interdum, eu porttitor ipsum facilisis. Proin pellentesque sapien a ultricies." transform="translate(1060 3097)" fill="#575a5d" font-size="16" font-family="Helvetica"><tspan x="0" y="12">Lorem ipsum dolor sit amet, consectetur adipiscing elit. Nam </tspan><tspan x="0" y="36">condimentum ex et nunc interdum, eu porttitor ipsum facilisis. </tspan><tspan x="0" y="60">Proin pellentesque sapien a ultricies.</tspan></text>
      <text id="_99.00" data-name="$99.00" transform="translate(1060 2959)" fill="#111" font-size="24" font-family="Helvetica-Bold, Helvetica" font-weight="700"><tspan x="0" y="0">$99.00</tspan></text>
      <text id="_149.00" data-name="$149.00" transform="translate(1166 2959)" fill="#ccc" font-size="24" font-family="Helvetica" text-decoration="line-through"><tspan x="0" y="0">$149.00</tspan></text>
      <g id="Primary_Button_CTA" data-name="Primary Button CTA" transform="translate(1060 3198)">
        <rect id="Rectangle_3062" data-name="Rectangle 3062" width="130" height="48" rx="4" fill="#111"/>
        <text id="Add_to_Cart" data-name="Add to Cart" transform="translate(65 29)" fill="#fff" font-size="13" font-family="Helvetica"><tspan x="-34.208" y="0">Add To Cart</tspan></text>
      </g>
      <g id="Group_6486" data-name="Group 6486" transform="translate(1060 3005)">
        <g id="Rectangle_3070" data-name="Rectangle 3070" transform="translate(0 22)" fill="none" stroke="#ccc" stroke-width="1">
          <rect width="456" height="48" rx="4" stroke="none"/>
          <rect x="0.5" y="0.5" width="455" height="47" rx="3.5" fill="none"/>
        </g>
        <text id="Small" transform="translate(17 51)" fill="#111" font-size="13" font-family="Helvetica"><tspan x="0" y="0">Small</tspan></text>
        <g id="Left-arrow" transform="translate(413.796 48.491) rotate(-90)">
          <path id="Icons-07" d="M.817,0,0,.808,3.692,4.492,7.384.808,6.566,0,3.692,2.875Z" transform="translate(4.492) rotate(90)" fill="#2c2a29"/>
        </g>
        <text id="Size" transform="translate(0 13)" fill="#111" font-size="13" font-family="Helvetica"><tspan x="0" y="0">Size</tspan></text>
      </g>
      <g id="Group_6743" data-name="Group 6743" transform="translate(475.996 2826.947)">
        <g id="Group_6742" data-name="Group 6742" clip-path="url(#clip-path)">
          <path id="Path_6820" data-name="Path 6820" d="M63.063,136.444c3.586-6.555,11.374-9.742,15.646-15.87,4.048-5.816,4.359-13.3,5.126-20.334s2.535-14.7,8.252-18.853c6.948-5.049,16.921-2.956,24.653-6.708,7.14-3.467,10.982-11.152,14.953-18.037S141.118,42.57,149,41.575c6.343-.8,12.7,2.73,19.01,1.638,6.118-1.058,10.6-6.11,15.464-9.967s12.1-6.6,17.033-2.822c5.771,4.413,3.362,13.987-1.75,19.151s-12.179,8.27-16.585,14.05-5.724,13.633-11.121,18.418c-8.021,7.109-22.347,5.031-28.362,13.9-5.074,7.5-.946,18.651-6.08,26.119-6.163,8.965-22.1,7.544-26.733,17.389-2.423,5.155-.545,11.253-1.484,16.863-1.251,7.461-7.237,13.089-12.878,18.129a56.6,56.6,0,0,1-12.925,9.485c-10.121,4.805-23.214,1.186-21.854-11.233,1.2-10.937-3.041-26.446,2.32-36.271" transform="translate(74.802 35.525)" fill="#eaeaea"/>
          <path id="Path_6821" data-name="Path 6821" d="M64.475,165.351a.409.409,0,0,1-.137-.025.358.358,0,0,1-.206-.464l0-.011A247.829,247.829,0,0,1,187.25,34.093a.366.366,0,0,1,.507.092.373.373,0,0,1-.09.509.616.616,0,0,1-.094.047A247.106,247.106,0,0,0,64.809,165.115a.358.358,0,0,1-.32.224" transform="translate(79.571 42.236)" fill="#fff"/>
          <path id="Path_6822" data-name="Path 6822" d="M74.956,80.822a.365.365,0,0,1-.168-.69,88.323,88.323,0,0,1,26.744-8.871.365.365,0,0,1,.139.717h-.022a87.541,87.541,0,0,0-26.52,8.792.419.419,0,0,1-.173.045" transform="translate(92.578 88.442)" fill="#fff"/>
          <path id="Path_6823" data-name="Path 6823" d="M77.917,79.115h-.069a.363.363,0,0,1-.287-.426v0a65.781,65.781,0,0,0,.607-22.524.366.366,0,1,1,.724-.108,66.411,66.411,0,0,1-.614,22.777.365.365,0,0,1-.359.294" transform="translate(96.26 69.185)" fill="#fff"/>
          <path id="Path_6824" data-name="Path 6824" d="M85.329,64.386a.364.364,0,0,1-.17-.688,42.04,42.04,0,0,1,21.22-4.767.366.366,0,0,1,.347.379.37.37,0,0,1-.379.345A41.232,41.232,0,0,0,85.5,64.337a.38.38,0,0,1-.17.04" transform="translate(105.453 73.102)" fill="#fff"/>
          <path id="Path_6825" data-name="Path 6825" d="M93.052,62.692a.37.37,0,0,1-.146-.031.365.365,0,0,1-.179-.482l0,0a100.157,100.157,0,0,0,6.7-22,.367.367,0,0,1,.446-.267h0a.363.363,0,0,1,.276.394A100.694,100.694,0,0,1,93.4,62.464a.365.365,0,0,1-.323.224" transform="translate(115.052 49.518)" fill="#fff"/>
          <path id="Path_6826" data-name="Path 6826" d="M122.834,51.25a.36.36,0,0,1-.2-.056,28.789,28.789,0,0,0-21.029-4,.366.366,0,0,1-.143-.717,29.528,29.528,0,0,1,21.565,4.11.361.361,0,0,1,.114.5v0a.361.361,0,0,1-.323.168" transform="translate(125.573 57.009)" fill="#fff"/>
          <path id="Path_6827" data-name="Path 6827" d="M106.153,45.642a.361.361,0,0,1-.368-.354v-.007a.339.339,0,0,1,.083-.238,38.575,38.575,0,0,0,5.166-8.268.366.366,0,0,1,.672.291v.016a39.184,39.184,0,0,1-5.265,8.422.356.356,0,0,1-.282.137" transform="translate(131.3 45.371)" fill="#fff"/>
          <path id="Path_6828" data-name="Path 6828" d="M120.351,39.848a.35.35,0,0,1-.143-.029,12.724,12.724,0,0,0-6.827-.811.36.36,0,0,1-.426-.28l0-.007a.366.366,0,0,1,.287-.428h.022a13.271,13.271,0,0,1,7.221.852.365.365,0,0,1-.143.706" transform="translate(140.188 47.318)" fill="#fff"/>
          <path id="Path_6829" data-name="Path 6829" d="M56.31,182.861c2.526-6.233,7.031-12.174,6.376-18.866-.9-9.144-10.915-14.864-13.371-23.716-2.391-8.608,2.956-17.32,8.4-24.393s11.634-14.792,11.112-23.71c-.484-8.333-6.818-15.579-6.856-23.914-.031-7.311,4.794-13.723,10.016-18.826s11.206-9.722,14.691-16.159c3.622-6.654,4.146-14.534,7.06-21.486S103.7-1.668,110.958.385c6.141,1.728,9.238,8.741,9.507,15.106S119,28.165,119.245,34.525c.5,12.862,8.929,26,3.745,37.807-4.24,9.637-16.713,15.285-17.192,25.8-.363,7.979,6.625,14.4,8.346,22.188,3.389,15.3-13.918,28.313-13.963,43.988-.022,9.263,6.011,17.45,7.755,26.536a29.906,29.906,0,0,1-10.31,28.309c-24.992,20.274-51.7-10.628-41.321-36.307" transform="translate(60.483 0)" fill="#ddd"/>
          <path id="Path_6830" data-name="Path 6830" d="M61.358,193.939h-.022a.369.369,0,0,1-.345-.392A917.775,917.775,0,0,1,93.255,7.635a.375.375,0,0,1,.448-.253.365.365,0,0,1,.251.448A916.79,916.79,0,0,0,61.726,193.6a.366.366,0,0,1-.368.341" transform="translate(75.7 9.149)" fill="#fff"/>
          <path id="Path_6831" data-name="Path 6831" d="M63.91,93.761a.369.369,0,0,1-.175-.045.364.364,0,0,1-.152-.491A102.783,102.783,0,0,1,78.493,72.346a.371.371,0,0,1,.515-.052.366.366,0,0,1,.045.515l-.022.029A101.907,101.907,0,0,0,64.223,93.575a.378.378,0,0,1-.323.19" transform="translate(78.866 89.632)" fill="#fff"/>
          <path id="Path_6832" data-name="Path 6832" d="M67.979,85.531a.365.365,0,0,1-.359-.294A90.861,90.861,0,0,0,55.863,55.118a.365.365,0,0,1,.623-.379A91.642,91.642,0,0,1,68.336,85.112a.363.363,0,0,1-.285.428h-.072" transform="translate(69.285 67.749)" fill="#fff"/>
          <path id="Path_6833" data-name="Path 6833" d="M65.7,75.945a.372.372,0,0,1-.368-.372.391.391,0,0,1,.054-.188A111.8,111.8,0,0,1,84.877,51.563a.365.365,0,0,1,.515.018.371.371,0,0,1-.018.522A111.343,111.343,0,0,0,66.022,75.768a.371.371,0,0,1-.323.175" transform="translate(81.09 63.879)" fill="#fff"/>
          <path id="Path_6834" data-name="Path 6834" d="M71.471,62.539a.365.365,0,0,1-.359-.294,112.579,112.579,0,0,0-10.78-30.469.365.365,0,1,1,.585-.437.314.314,0,0,1,.054.1A113.422,113.422,0,0,1,71.816,62.109a.365.365,0,0,1-.285.43H71.46" transform="translate(74.794 38.716)" fill="#fff"/>
          <path id="Path_6835" data-name="Path 6835" d="M69.984,48.54a.364.364,0,0,1-.368-.359v0a.385.385,0,0,1,.063-.208,60.709,60.709,0,0,1,18.6-17.8.365.365,0,0,1,.379.623A59.979,59.979,0,0,0,70.293,48.365a.355.355,0,0,1-.3.161" transform="translate(86.407 37.388)" fill="#fff"/>
          <path id="Path_6836" data-name="Path 6836" d="M70.866,39.885a.365.365,0,0,1-.368-.352,54.087,54.087,0,0,0-4.471-19.718.367.367,0,1,1,.672-.294,54.875,54.875,0,0,1,4.521,20,.363.363,0,0,1-.35.377h0Z" transform="translate(81.914 23.956)" fill="#fff"/>
          <path id="Path_6837" data-name="Path 6837" d="M74.151,24.648a.366.366,0,0,1-.32-.545A24.922,24.922,0,0,1,84.253,13.947a.367.367,0,0,1,.323.648,24.146,24.146,0,0,0-10.115,9.861.359.359,0,0,1-.323.19" transform="translate(91.583 17.291)" fill="#fff"/>
          <path id="Path_6838" data-name="Path 6838" d="M143.456,135.549c-3.758-6.464-11.634-9.424-16.078-15.433-4.2-5.686-4.724-13.178-5.679-20.182s-2.938-14.622-8.77-18.622c-7.084-4.848-16.993-2.488-24.817-6.024C80.875,72.016,76.8,64.443,72.668,57.665S62.856,43.857,54.963,43.086C48.6,42.463,42.336,46.166,36,45.247c-6.139-.9-10.758-5.816-15.733-9.536S7.992,29.435,3.164,33.353c-5.664,4.57-2.988,14.075,2.25,19.1s12.4,7.929,16.961,13.57,6.1,13.47,11.63,18.1c8.209,6.892,22.479,4.417,28.732,13.124,5.285,7.362,1.461,18.615,6.784,25.937,6.41,8.8,22.3,6.932,27.206,16.648,2.566,5.079.852,11.237,1.939,16.809,1.455,7.432,7.593,12.887,13.371,17.773a56.334,56.334,0,0,0,13.172,9.124c10.249,4.525,23.237.551,21.533-11.829-1.5-10.9,2.313-26.529-3.308-36.2" transform="translate(0 38.962)" fill="#ccc"/>
          <path id="Path_6839" data-name="Path 6839" d="M131.925,164.635a.372.372,0,0,1-.323-.224A247.087,247.087,0,0,0,5.311,37.476a.367.367,0,0,1-.186-.482.362.362,0,0,1,.477-.188l0,0A247.851,247.851,0,0,1,132.273,164.124a.367.367,0,0,1-.186.482.328.328,0,0,1-.146.031" transform="translate(6.323 45.645)" fill="#fff"/>
          <path id="Path_6840" data-name="Path 6840" d="M57.606,89.04h-.038a.363.363,0,0,1-.325-.394l1.4-13.447a.368.368,0,0,1,.731.076L57.967,88.722a.366.366,0,0,1-.363.323" transform="translate(71.048 92.945)" fill="#fff"/>
          <path id="Path_6841" data-name="Path 6841" d="M65.815,81.911a.354.354,0,0,1-.159-.038A87.559,87.559,0,0,0,38.889,73.82a.37.37,0,0,1,.1-.731,88.445,88.445,0,0,1,26.975,8.127.361.361,0,0,1,.173.48l0,0a.356.356,0,0,1-.329.213" transform="translate(47.908 90.718)" fill="#fff"/>
          <path id="Path_6842" data-name="Path 6842" d="M48.667,80.7a.365.365,0,0,1-.359-.285,66.579,66.579,0,0,1-1.244-22.755.373.373,0,0,1,.408-.323.366.366,0,0,1,.32.408,65.783,65.783,0,0,0,1.228,22.5.367.367,0,0,1-.264.446l-.007,0a.545.545,0,0,1-.085,0" transform="translate(57.848 71.159)" fill="#fff"/>
          <path id="Path_6843" data-name="Path 6843" d="M51.9,65.89a.381.381,0,0,1-.164-.038,41.182,41.182,0,0,0-20.955-4.106.37.37,0,0,1-.392-.341.364.364,0,0,1,.334-.39h.007A41.945,41.945,0,0,1,52.054,65.2a.365.365,0,0,1-.164.7" transform="translate(37.713 75.61)" fill="#fff"/>
          <path id="Path_6844" data-name="Path 6844" d="M36.207,64.615a.372.372,0,0,1-.323-.208,100.958,100.958,0,0,1-7.36-21.964.367.367,0,1,1,.706-.2l.011.052A100.114,100.114,0,0,0,36.547,64.1a.358.358,0,0,1-.166.48l0,0a.372.372,0,0,1-.155.036" transform="translate(35.386 52.097)" fill="#fff"/>
          <path id="Path_6845" data-name="Path 6845" d="M14.122,54.006a.365.365,0,0,1-.363-.368.357.357,0,0,1,.159-.3,29.516,29.516,0,0,1,21.446-4.707.365.365,0,0,1-.058.728.3.3,0,0,1-.065-.011,28.785,28.785,0,0,0-20.915,4.594.4.4,0,0,1-.206.061" transform="translate(17.078 59.865)" fill="#fff"/>
          <path id="Path_6846" data-name="Path 6846" d="M21.833,47.955a.371.371,0,0,1-.276-.126,39.211,39.211,0,0,1-5.493-8.277.366.366,0,1,1,.645-.327A38.675,38.675,0,0,0,22.1,47.349a.365.365,0,0,1-.038.513.36.36,0,0,1-.24.092" transform="translate(19.856 48.376)" fill="#fff"/>
          <path id="Path_6847" data-name="Path 6847" d="M8.459,42.58a.365.365,0,0,1-.374-.356.361.361,0,0,1,.222-.345A13.277,13.277,0,0,1,15.5,40.827a.367.367,0,0,1-.094.728h0a12.687,12.687,0,0,0-6.786,1,.4.4,0,0,1-.152.031" transform="translate(10.035 50.531)" fill="#fff"/>
          <path id="Path_6848" data-name="Path 6848" d="M92.856,160.812h0a54.138,54.138,0,0,1-54.138-54.136V83.186H146.995V106.68a54.138,54.138,0,0,1-54.138,54.138" transform="translate(48.057 103.25)" fill="#fff"/>
          <path id="Path_6849" data-name="Path 6849" d="M159.926,101.354a1.544,1.544,0,0,1-1.544-1.544V71.681a33.817,33.817,0,1,0-67.635,0V99.81a1.543,1.543,0,1,1-3.086,0V71.681a36.9,36.9,0,1,1,73.809,0V99.81a1.544,1.544,0,0,1-1.544,1.544" transform="translate(108.805 43.149)" fill="#767676"/>
          <path id="Path_6850" data-name="Path 6850" d="M227.017,56.857H58.35L42.511,279.706h168.67Z" transform="translate(52.764 70.57)" fill="#ddd"/>
          <path id="Path_6851" data-name="Path 6851" d="M117.77,279.706h60.925L166.948,56.857H130.3Z" transform="translate(146.175 70.571)" fill="#ccc"/>
          <path id="Path_6852" data-name="Path 6852" d="M178.694,177.559l-32.838-38.405L117.77,177.559Z" transform="translate(146.175 172.717)" fill="#ccc"/>
          <path id="Path_6853" data-name="Path 6853" d="M130.3,241.3V56.857h21.092L163.14,279.706Z" transform="translate(161.73 70.57)" fill="#ddd"/>
          <path id="Path_6854" data-name="Path 6854" d="M83.053,67.814a7.275,7.275,0,1,1-7.275-7.275,7.274,7.274,0,0,1,7.275,7.275" transform="translate(85.026 75.141)" fill="#fff"/>
          <path id="Path_6855" data-name="Path 6855" d="M114.616,67.814a7.275,7.275,0,1,1-7.275-7.275,7.274,7.274,0,0,1,7.275,7.275" transform="translate(124.202 75.141)" fill="#fff"/>
          <path id="Path_6856" data-name="Path 6856" d="M143.329,101.354a1.544,1.544,0,0,1-1.544-1.544V71.681a33.817,33.817,0,1,0-67.635,0V99.81a1.543,1.543,0,1,1-3.086,0V71.681a36.9,36.9,0,1,1,73.809,0V99.81a1.544,1.544,0,0,1-1.544,1.544" transform="translate(88.204 43.149)" fill="#767676"/>
          <path id="Path_6857" data-name="Path 6857" d="M169.534,115.04v85.033a7.394,7.394,0,0,1-7.38,7.416H42.043a7.4,7.4,0,0,1-7.416-7.416V115.04Z" transform="translate(42.979 142.787)" fill="#ccc"/>
          <path id="Path_6858" data-name="Path 6858" d="M155.65,115.29l13.884,5.058H34.626l13.922-5.058-13.922-4.527H169.535Z" transform="translate(42.978 137.478)" fill="#b9b9b9"/>
          <path id="Path_6859" data-name="Path 6859" d="M48.532,112.789v5.031h-13.9Z" transform="translate(42.979 139.994)" fill="#767676"/>
          <path id="Path_6860" data-name="Path 6860" d="M34.624,110.766v9.581L48.533,115.3Z" transform="translate(42.975 137.483)" fill="#b9b9b9"/>
          <path id="Path_6861" data-name="Path 6861" d="M88.62,112.789v5.047h13.909Z" transform="translate(109.995 139.994)" fill="#767676"/>
          <path id="Path_6862" data-name="Path 6862" d="M102.529,110.766v9.581L88.62,115.3Z" transform="translate(109.995 137.483)" fill="#b9b9b9"/>
          <path id="Path_6863" data-name="Path 6863" d="M57.116,124.886a5.547,5.547,0,1,1-5.547-5.547,5.547,5.547,0,0,1,5.547,5.547" transform="translate(57.122 148.123)" fill="#fff"/>
          <path id="Path_6864" data-name="Path 6864" d="M89.569,124.886a5.547,5.547,0,1,1-5.547-5.547,5.547,5.547,0,0,1,5.547,5.547" transform="translate(97.403 148.123)" fill="#fff"/>
          <path id="Path_6865" data-name="Path 6865" d="M122.17,154.4a1.7,1.7,0,0,1-1.7-1.7v-17.71a34.668,34.668,0,1,0-69.336,0V152.7a1.7,1.7,0,1,1-3.4,0v-17.71a38.064,38.064,0,0,1,76.129,0V152.7a1.7,1.7,0,0,1-1.7,1.7" transform="translate(59.255 120.307)" fill="#767676"/>
        </g>
      </g>
    </g>
  </g>
</svg>