<svg xmlns="http://www.w3.org/2000/svg" xmlns:xlink="http://www.w3.org/1999/xlink" width="1344" height="560" viewBox="0 0 1344 560">
  <defs>
    <clipPath id="clip-path">
      <rect id="Rectangle_3693" data-name="Rectangle 3693" width="797" height="400" transform="translate(795 5661)" fill="#c1c1c1"/>
    </clipPath>
    <linearGradient id="linear-gradient" x1="0.408" y1="1.091" x2="0.334" y2="0.431" gradientUnits="objectBoundingBox">
      <stop offset="0" stop-color="#ababab"/>
      <stop offset="1" stop-color="#d5d5d5"/>
    </linearGradient>
    <linearGradient id="linear-gradient-2" x1="0.659" y1="1.841" x2="0.252" y2="2.645" gradientUnits="objectBoundingBox">
      <stop offset="0" stop-color="#939393"/>
      <stop offset="1" stop-color="#bebebe"/>
    </linearGradient>
    <linearGradient id="linear-gradient-3" x1="0.381" y1="0.033" x2="0.253" y2="-0.477" gradientUnits="objectBoundingBox">
      <stop offset="0" stop-color="#6a6a6a"/>
      <stop offset="1" stop-color="#6a6a6a"/>
    </linearGradient>
    <linearGradient id="linear-gradient-4" x1="0.151" y1="-0.165" x2="0.167" y2="0.296" gradientUnits="objectBoundingBox">
      <stop offset="0" stop-color="#c7c7c7"/>
      <stop offset="1" stop-color="#747474"/>
    </linearGradient>
  </defs>
  <g id="Group_6956" data-name="Group 6956" transform="translate(-288 -5581)">
    <g id="Group_6940" data-name="Group 6940">
      <g id="Rectangle_3577" data-name="Rectangle 3577" transform="translate(288 5581)" fill="#fff" stroke="#ddd" stroke-width="1">
        <rect width="1344" height="560" rx="15" stroke="none"/>
        <rect x="0.5" y="0.5" width="1343" height="559" rx="14.5" fill="none"/>
      </g>
      <g id="Group_6139" data-name="Group 6139" transform="translate(-264 5468)">
        <text id="Heading_Goes_Here" data-name="Heading Goes Here" transform="translate(612 335)" fill="#111" font-size="32" font-family="Helvetica-Bold, Helvetica" font-weight="700"><tspan x="0" y="0">Heading Goes Here</tspan></text>
        <text id="Lorem_ipsum_dolor_sit_amet_consectetur_adipiscing_elit._Nam_condimentum_ex_et_nunc_interdum_eu_porttitor_ipsum." data-name="Lorem ipsum dolor sit amet, consectetur adipiscing elit. Nam condimentum ex et nunc interdum, eu porttitor ipsum." transform="translate(612 367)" fill="#575a5d" font-size="16" font-family="Helvetica"><tspan x="0" y="12">Lorem ipsum dolor sit amet, consectetur </tspan><tspan x="0" y="36">adipiscing elit. Nam condimentum ex et nunc </tspan><tspan x="0" y="60">interdum, eu porttitor ipsum.</tspan></text>
        <g id="Primary_Button_CTA" data-name="Primary Button CTA" transform="translate(612 468)">
          <rect id="Rectangle_3062" data-name="Rectangle 3062" width="120" height="48" rx="4" fill="#111"/>
          <text id="Shop_Now" data-name="Shop Now" transform="translate(60 29)" fill="#fff" font-size="13" font-family="Helvetica"><tspan x="-29.99" y="0">Shop Now</tspan></text>
        </g>
      </g>
      <g id="Mask_Group_46" data-name="Mask Group 46" clip-path="url(#clip-path)">
        <g id="Group_6924" data-name="Group 6924" transform="translate(17167 21845)">
          <rect id="Rectangle_3691" data-name="Rectangle 3691" width="797" height="448" transform="translate(-16372 -16225)" fill="#fff"/>
          <g id="Background-2" transform="translate(-16372 -16225)" opacity="0.35">
            <rect id="Rectangle_3692" data-name="Rectangle 3692" width="797" height="448" transform="translate(0)" fill="#b5b5b5"/>
            <path id="Path_17956" data-name="Path 17956" d="M2818.6,967.627c0-6.692,15.849-11.5,20.345-12.865,7.479-2.279,25.689-6.236,29-.021,3.19,5.946-7.126,21.463-21.069,24.612C2833.807,982.316,2818.622,974.174,2818.6,967.627Z" transform="translate(-2234.657 -754.299)" fill="#929292"/>
            <path id="Path_17957" data-name="Path 17957" d="M2917.93,1022.341c.952-1.139,3.273-.559,2.651,1.139-1.554,3.771-6.525,13.3-11.291,10.3-2.154-1.7-5.117-3.4-7.229-4.806-1.844-2.114,2.134-3.564,3.252-3.5C2911.818,1024.537,2916.086,1023.708,2917.93,1022.341Z" transform="translate(-2300.446 -810.07)" fill="#545454"/>
            <path id="Path_17958" data-name="Path 17958" d="M2298.67,873.153a2.374,2.374,0,0,1,.953.787,2.11,2.11,0,0,1-.415,2.817c-8.8,7.313-31.759,29.419-36.3,31.428-11.021,4.91-45.5-2.528-64.8-4.951-14.854-1.865-33.417-39.073-36.173-54.839-.5-2.9,3.4-4.433,6.713-6.381,20.117-11.809,45.62-5.469,64.742-.725,42.016,10.421,61.656,30.33,65.24,31.843Z" transform="translate(-1714.002 -662.228)" fill="#a1a1a1"/>
            <path id="Path_17959" data-name="Path 17959" d="M2287.622,1041.461c.663-.891,5.283,1.2,6.236,1.512,3.605,1.429,8.412,3.315,12.307,4.848,8.888,3.5,17.754,6.277,27.244,7.127,11.581,1.015,22.872-1.1,33.707-4.993a32.741,32.741,0,0,1,3.916-1.243c2.341-.456.311,1.761-.332,2.507a35.426,35.426,0,0,0-7.23,11.022c-.767,1.761-1.222,3.625-1.844,5.469-.394,1.139-.808,2.507-1.968,2.88-.849.311-2.113-.021-3.273-.124-15.352-1.637-30.414-5.428-45.869-6.091a97.739,97.739,0,0,0-14.149.1c-.746.062-1.679.042-2.051-.414a5.146,5.146,0,0,1-.747-2.445c-.352-1.761-.849-3.46-1.264-5.2a97.119,97.119,0,0,0-4.185-13.093c-.269-.559-.684-1.368-.5-1.844h0Z" transform="translate(-1813.647 -825.523)" fill="#929292"/>
            <path id="Path_17960" data-name="Path 17960" d="M1409.692,764.512c26.622-22.748,56.7-24.8,68.637-24.571,4.931.1,33.355,1.015,58.32,19.682a90.508,90.508,0,0,1,23.038,24.571,87.79,87.79,0,0,1,8.225,16.74,91.815,91.815,0,0,1,5.469,18.957c.352,2.01.622,3.957.829,5.842a308.716,308.716,0,0,1-123.187,40.254,35.149,35.149,0,0,0-9.24-14.233c-15.145-13.8-35.3-4.952-51.234-18.418-3.4-2.859-8.038-7.955-11.25-17.258C1382.408,795.817,1394.32,777.647,1409.692,764.512Z" transform="translate(-1093.543 -586.632)" fill="#e5e5e5"/>
            <path id="Path_17961" data-name="Path 17961" d="M1380.041,1048.662c26.146-23.722,50.219-12.369,76.344,3.853,22.354,11.5,49.452,4.185,67.684-11.664a60.208,60.208,0,0,1,6.629-3.729,69.215,69.215,0,0,1,7.044-2.859c5.3-1.74,16.843-2.341,31.3.269a90.207,90.207,0,0,1,6.65,23.225,146.626,146.626,0,0,0-20.738,3.356c-29.191,6.92-40.71,19.164-69.03,28.963a174.437,174.437,0,0,1-34.371,8.059,35.066,35.066,0,0,0-9.24-14.233c-15.125-13.777-35.344-4.93-51.255-18.417-3.4-2.88-7.894-7.893-11.063-16.823Z" transform="translate(-1094.098 -818.801)" fill="url(#linear-gradient)"/>
            <path id="Path_17962" data-name="Path 17962" d="M2487.321,248c-18.335,6.4-58.4,17.486-107.068,7.023a195.944,195.944,0,0,1-67.87-28.859c-5.573-8.287-5.325-13.073-4.165-15.87,7.582-18.356,70.5-2.465,85.128-23.929.933-1.367,1.782-3.211,1.409-4.91-5.552-11.25-24.965-5.076-34.474-2.838,40.005-28.424,90.8-25.42,137.129-32.4,44.978-13.694,126.542-69.942,126.833-17.216.166,29.15.642,58.734.87,87.8-10.193-1.367-20.1,5.407-23.431,15.062-25.524,6.257-61.386,19.288-94.472,48.189a211.644,211.644,0,0,0-20.117,20.117,29.974,29.974,0,0,0-10.565-.539,28.061,28.061,0,0,0-10.3,3.253c-4.786,2.673-7.666,6.4-13.4,13.819-1.057,1.367-1.906,2.528-2.465,3.315l-8.2-11.374c.456-1.906,3.75-14.958,16.906-21.753a33.773,33.773,0,0,1,26.228-1.7,35.171,35.171,0,0,1,2.009-37.167Z" transform="translate(-1829.479 -84.727)" fill="#cecece"/>
            <path id="Path_17963" data-name="Path 17963" d="M3323.773,268.882c-23.39-4.5-50.592-.642-67.021,18.19-4.5,3.771-8.287,6.34-13.881,8.142-15.828,5.159-31.283-3.253-47.443,5.759-6.443,3.045-8.742,9.116-4.122,14.979,9.571,12.948,36.67,13.2,33.666,34.805-.414,2.88-1.886,6.091-4.372,7.748a41,41,0,0,1,9.261,2.59c-4.185-51.172,44.481-89.914,93.892-78.084v-14.15Z" transform="translate(-2528.222 -211.826)" fill="#b5b5b5"/>
            <path id="Path_17964" data-name="Path 17964" d="M3138.508,334.02a74.8,74.8,0,0,0-25.9-2.2,76.237,76.237,0,0,0-41.5,17.465c-4.433,3.708-20.469,17.506-25.44,41.249a70.836,70.836,0,0,0-1.077,21.588,42.443,42.443,0,0,0-9.261-2.59c-15.953-1.719-26.415,5.345-35.3,17.817a34.722,34.722,0,0,0-5.49,13.011,36.037,36.037,0,0,0,3.087,22.458c-1.989-.58-15.455-4.289-28.176,4A34.562,34.562,0,0,0,2955.2,486.77c1.409,1.678,2.859,3.522,4.289,5.511q2.455,3.387,4.351,6.526a35.061,35.061,0,0,1,6.795-10.67c1.969-2.113,10.4-11.125,22.313-10.5a23.761,23.761,0,0,1,8.949,2.32c3.667-5.925,8.246-13.238,13.591-21.608,9.82-15.31,12.307-18.894,16.242-22.893a71.677,71.677,0,0,1,21.152-14.709c-.455-5.635-2.734-39.777,20.448-60.7,9.054-8.163,19.412-11.975,23.6-13.487a82.245,82.245,0,0,1,41.56-3.439V334Z" transform="translate(-2342.957 -262.835)" fill="#e5e5e5"/>
            <path id="Path_17965" data-name="Path 17965" d="M3173.4,810.227a28.95,28.95,0,0,1-3.584-9.613c-.331-1.8-1.118-7.127,1.326-15.414,2.01-6.816,5.076-17.258,14.585-23.784,14.647-10.048,32.879-2.776,34.5-2.093a65.619,65.619,0,0,0-13.136,8.287,74.42,74.42,0,0,0-13.528,14.834c-6.733,9.592-6.9,14.171-14.336,22.271a60.412,60.412,0,0,1-5.8,5.531Z" transform="translate(-2512.801 -599.488)" fill="#cecece"/>
            <path id="Path_17966" data-name="Path 17966" d="M3509.162,378.509c-6.3-1.347-39.551-6.878-65.033,17.589-25.026,24.032-21.317,56.662-20.862,60.1a93.171,93.171,0,0,1,61.656-9.82,22.34,22.34,0,0,1,24.239-14.751v-53.12Z" transform="translate(-2713.693 -298.913)" fill="#cecece"/>
            <path id="Path_17967" data-name="Path 17967" d="M0,0H762.756a89.563,89.563,0,0,1-21.318,10.587,88.878,88.878,0,0,1-26.083,4.724c-18.749.87-37.892-1.616-56,4.744-12.41,4.475-22.976,12.2-32.506,21.194-5.573,5.242-10.877,11.291-17.921,14.564-12.12,5.635-26.871,3.522-39.923,4.724a138.991,138.991,0,0,0-37.436,8.536c-37.768,13.674-67.311,44.895-106.757,54.383-65.322,9.737-70.5-41.974-171.085-3.253,17.838,9.468-6.07,17.506-15.165,18.791-17.486,3.874-36.173,3.522-53.865.974-4.827-.5-22.458-2.983-27.513-3.791-26.56-1.367-51.338,7.5-74.293,20.22A94.292,94.292,0,0,0,51.048,112.1,94.453,94.453,0,0,0,0,93Z" transform="translate(0)" fill="url(#linear-gradient-2)"/>
            <path id="Path_17968" data-name="Path 17968" d="M0,150.17c35.013-19.619,77.815-23.224,116.536-13.86,17.092,5.3,74.417,18.5,79.576,36.276-1.388,4.019-7.21,3.708-10.711,4-42.347-.622-85.439-28.632-127.268-9.219-9.53,4.081-19.288,16.16-3.936,20.282,5.614,1.284,12.14,0,17.8-.477,22.147-2.383,44.335,5.532,60.889,20.22,10.877,9.965,21.38,22.271,37.022,23.949,28.839,6.236,55.73-19.412,83.7-7,17.817,9.447-6.049,17.527-15.186,18.791-17.486,3.895-36.214,3.522-53.907.974-4.6-.29-22.644-3.128-27.534-3.791-26.581-1.367-51.379,7.5-74.355,20.22C70,225.83,37.727,198.214,0,197.157Z" transform="translate(0 -104.156)" fill="#cecece"/>
            <path id="Path_17969" data-name="Path 17969" d="M310.5,580.539c30.185-14.647,63.789.166,92.628,11.022-26.581-1.388-51.379,7.5-74.355,20.22A105.286,105.286,0,0,0,310.5,580.539Z" transform="translate(-246.172 -455.406)" fill="#b5b5b5"/>
            <path id="Path_17970" data-name="Path 17970" d="M826.4,0h505.155c-29.419,8.349-52.809,16.843-69.2,23.286-30.33,11.933-44.812,20.013-64.866,16.015-17.589-3.522-22.437-13.114-34.619-17.858-47.94-18.666-76.448,36.732-113.387,54.694C1027.3,84.2,1003.8,73.4,981.077,77.9c-37.5,6.215-74.873,34.557-113.283,16.47,21.546-3.6,33.77-9.24,50.364-23.514,20.655-17.361,44.4-30.227,71.89-31.366,6.464-.58,29.4.083,33.6-4.04,1.222-1.305.352-3.253-.912-4.206-24.674,6.609-75.1,16.243-133.192-1.284A234.726,234.726,0,0,1,826.4,0Z" transform="translate(-655.191)" fill="#7e7e7e"/>
            <path id="Path_17971" data-name="Path 17971" d="M0,840.057a219.626,219.626,0,0,1,33.749-5.387C168.309,823.9,318.9,937.657,307.738,1007.1,298.353,1065.484,171.334,1112.844,0,1108.68Z" transform="translate(0 -661.182)" fill="#7a7a7a"/>
            <path id="Path_17972" data-name="Path 17972" d="M234.1,1148.353c37.457-19.309,57.781-16.615,69.528-9.924,18.625,10.607,14.917,30.848,41.311,54.259,5.8,5.138,22,19.205,46.159,25.11,29.315,7.168,46.946-3.418,64,9.509,8.846,6.733,12.866,16.242,14.813,22.5a286.277,286.277,0,0,1-74.024-5.822c-84.092-17.9-138.269-69.735-161.783-95.653Z" transform="translate(-185.6 -898.624)" fill="#5a5a5a"/>
            <path id="Path_17973" data-name="Path 17973" d="M0,448.9c37.727,1.057,70,28.673,82.6,63.375,45.62-1.2,84.735,38.824,93.415,81.772,15.435-11.229,36.028-11.705,51.131-1.367,13.114,8.971,20.241,24.8,18.584,41.083a59.2,59.2,0,0,1,82.331,64.349q-13.487,3.045-26.995,6.091c-23.431-29.626-45.786-40.565-62.152-45-14.191-3.833-26.788-3.046-40.606-13.508-14.544-11.022-18.936-23.431-25.731-35.468-30.89-54.653-106.053-69.466-120.244-72.263A199.041,199.041,0,0,0,0,534.795V448.9Z" transform="translate(0 -355.899)" fill="#a5a5a5"/>
            <path id="Path_17974" data-name="Path 17974" d="M731.321,866.847c49.2-19.972,97.393-15.352,120.6,11.581,4.848,5.635,10.649,14.606,13.653,28.487a58.892,58.892,0,0,0,15.083,18.708,33.171,33.171,0,0,0,4.931,3.356c6.505,3.563,11.85,3.377,18.066,4.061,7.707.849,14.5,1.616,20.759,5.469,1.637.994,11.291,6.961,12.886,18.314a24.9,24.9,0,0,1-2.631,14.626c2.673-1.181,15.517-6.464,29.833-.87,19.661,7.707,23.866,28.818,24.094,30.144a20.944,20.944,0,0,1-1.409,2.155,21.517,21.517,0,0,1-1.74,1.947c-17.755,3.066-59.5,11.25-77.566,14.875,3.771-43.569-40.171-82.456-82.331-64.328,5.863-36.96-40.876-57.988-69.735-39.715a116.247,116.247,0,0,0-10.835-28.715A114.861,114.861,0,0,0,731.3,866.867Z" transform="translate(-579.793 -677.489)" fill="#7e7e7e"/>
            <path id="Path_17975" data-name="Path 17975" d="M835.3,1094.726c55.688-4.392,78.5,5.552,88.774,16.18,2.735,2.838,8.183,9.365,18.128,14.751,9.986,5.407,20.469,7.064,35.075,9.779,12.617,3.128,24.281,11.747,28.818,24.219,4.392,10.3-3.253,24.819,9.157,31.076,7.686,3.439,19.1-.663,23.328,9.033l-48.23,9.509c.187-1.927,2.88-34.826-23.929-55.295-26.125-19.972-56.269-9.779-58.382-9.033-.1-2.072-1.865-28.4-22.914-40.4-11.54-6.567-23.659-5.863-26.788-5.594a48.381,48.381,0,0,0-20.013,6.3q-1.492-5.252-2.963-10.5Z" transform="translate(-662.247 -867.083)" fill="#545454"/>
            <path id="Path_17976" data-name="Path 17976" d="M398.7,688.732c27.8-14.647,50.509-17.423,66.13-17.258,35.1.394,52.705,15.932,101.246,28.342a353.841,353.841,0,0,0,66.192,10.4,95.178,95.178,0,0,0-30.206,51.98c-1.2-3.17-6.049-14.792-18.77-21.422a39.485,39.485,0,0,0-20.055-4.351,132.351,132.351,0,0,0-95.632-14.73,100.214,100.214,0,0,0-12.886-12.6A94.776,94.776,0,0,0,436.7,697.433a88.882,88.882,0,0,0-22.5-7.272,91.093,91.093,0,0,0-15.5-1.471Z" transform="translate(-316.099 -532.356)" fill="#a1a1a1"/>
            <path id="Path_17977" data-name="Path 17977" d="M667.4,828.222a98.861,98.861,0,0,1,108.85,27.6c-10.338,7.127-18.625,8.287-24.343,7.976-18.356-1.015-25.565-17.983-48.044-22.768a56.968,56.968,0,0,0-23.224.083c-1.823-2.093-3.874-4.289-6.153-6.526C672.062,832.2,669.658,830.086,667.4,828.222Z" transform="translate(-529.131 -651.75)" fill="#b5b5b5"/>
            <path id="Path_17978" data-name="Path 17978" d="M0,1167c122.9,3.6,123.352,113.221,284.306,109.451C197.935,1294.992,0,1372.932,0,1372.932Z" transform="translate(0 -925.227)" fill="#848484"/>
            <path id="Path_17979" data-name="Path 17979" d="M0,1374.1c39.446-3.48,66.462,4.869,84.2,13.612,32.982,16.263,44.874,39.28,85.853,55.481a177.552,177.552,0,0,0,48.831,11.561q-31.48,9.478-62.981,18.956c-18.376-18.024-51.462-45.288-99.92-60.619A244.573,244.573,0,0,0,0,1402.384Z" transform="translate(0 -1088.783)" fill="#757575"/>
            <path id="Path_17980" data-name="Path 17980" d="M0,1513.8a228.822,228.822,0,0,1,76.841,16.947A229.445,229.445,0,0,1,155.9,1585.13q-23.711,9.043-47.4,18.066a153.518,153.518,0,0,0-25.918-25.482c-15.269-11.809-28.942-17.755-39.073-22.064A212.105,212.105,0,0,0,0,1542.432v-28.611Z" transform="translate(0 -1200.179)" fill="#5a5a5a"/>
            <path id="Path_17981" data-name="Path 17981" d="M0,1651.9a193.159,193.159,0,0,1,58.817,20.034,192.9,192.9,0,0,1,51.483,39.9c-14.5,6.588-29.812,14.212-45.723,23.059-13.3,7.4-25.669,14.9-37.084,22.292H0V1651.9Z" transform="translate(0 -1309.668)" fill="#393939"/>
            <path id="Path_17982" data-name="Path 17982" d="M0,1811.3a135.63,135.63,0,0,1,38.928,16.905,136.214,136.214,0,0,1,32.816,29.378c-8.888,4.433-18.19,9.53-27.8,15.372-5.8,3.522-11.312,7.085-16.512,10.607H0V1811.3Z" transform="translate(0 -1436.044)" fill="#242424"/>
            <path id="Path_17983" data-name="Path 17983" d="M1954.583,1198.984v184.178H1461.9c21.546-34.722,77.338-113.988,182.48-163.275C1787.5,1152.784,1920.688,1188.729,1954.583,1198.984Z" transform="translate(-1159.031 -935.665)" fill="url(#linear-gradient-3)"/>
            <path id="Path_17984" data-name="Path 17984" d="M2458.105,1150.052v11.83c-26.725-1.305-62.525,1.637-92.959,23.494-33.728,24.219-29.979,49.535-61.552,65.612-31.8,16.18-54.2-.062-111.771,1.616A303.765,303.765,0,0,0,2097,1270.9c15.248-21.816,75.66-102.718,188.094-129.257C2363.924,1123.036,2429.163,1140.376,2458.105,1150.052Z" transform="translate(-1662.554 -898.583)" fill="#7e7e7e"/>
            <path id="Path_17985" data-name="Path 17985" d="M1646.174,1166.575c-12.969-2.942-59-11.747-106.2,13.632a149.965,149.965,0,0,0-54.694,50.862c-16.8,33.935-62.815,14.212-92.172,13.881-40.192-3.978-80.55,13.508-108.042,42.45a284.659,284.659,0,0,0-131.577,75.184H1072.9c3.75-27.2,23.68-46.262,44.439-46.759,17.465-.435,29.854,12.389,32.547,15.331.974-3.771,8.038-29.584,34.391-42.6,28.217-13.922,54.8-1.45,57.905.062,3.6-10.98,15.041-40.793,45.371-60,21.07-13.342,41.953-15.683,49.246-16.408,19.288-1.948,25.545,2.382,52.042,4.227,18.688,1.305,38.369,2.693,58.548-2.113,34-8.1,32.775-25.068,76.945-43.88,25.917-11.042,45.537-13.363,61.427-15.124,23.266-2.569,39.094-.725,53.285,6.858a65.809,65.809,0,0,1,7.127,4.392Z" transform="translate(-850.622 -915.107)" fill="#9d9d9d"/>
            <path id="Path_17986" data-name="Path 17986" d="M2707.634,681.749c31.9-25.586,68.534-22.955,76.944-22.147q10.876-9.541,21.733-19.1.031,59.853.083,119.726c-42.761-12.99-73.422-9.095-93.56-3.087C2672.1,769.28,2658.7,794.7,2614.819,807.3c-31.283,8.971-59.666,6.153-78.519,2.466,4.5-6.008,12.265-14.523,24.2-19.226,17.63-6.92,24.8,2.217,40.5-4.869,17.9-8.059,29.4-29.294,32.4-34.826,3.708-6.857,4.1-9.675,8.1-13.777,9.219-9.447,23.2-10.9,34.018-10.524a103.9,103.9,0,0,1,32.132-44.812Z" transform="translate(-2010.842 -507.804)" fill="#7a7a7a"/>
            <path id="Path_17987" data-name="Path 17987" d="M2782.072,654.479a22.411,22.411,0,0,1,24.322-14.772v15.062a16.08,16.08,0,0,0-7.23,4.786,16.489,16.489,0,0,0-3.563,7.065c-48-2.776-69.01,10.006-79.327,22.168-12.431,14.627-11.789,31.242-30.787,43.735-14.751,9.717-20.717,3.336-36.98,13.239-23.121,14.046-16.595,30.248-36.111,40.005-20.034,10.007-36.877-2.113-54.238,12.1a41.042,41.042,0,0,0-10.379,13.011,45.173,45.173,0,0,1-6.381-.663,39.1,39.1,0,0,1-5.1-1.243,39.556,39.556,0,0,1,4.1-14.233c16.968-32.982,72.843-20.324,90.888-52.477,2.527-4.5,4.889-10.939,12.119-16.491,9.344-7.21,20.594-8.183,28.073-8.018,2.61-7.148,14.212-36.442,46.449-53.534a99.774,99.774,0,0,1,64.182-9.737Z" transform="translate(-2010.842 -507.012)" fill="#a5a5a5"/>
            <path id="Path_17988" data-name="Path 17988" d="M3340.2,930.683c.6-5.428,4.683-37.105,33.272-58.714,30.827-23.286,65.363-16.118,70.273-15.02V930.33a179.015,179.015,0,0,0-103.546.332Z" transform="translate(-2648.194 -677.909)" fill="#a6a6a6"/>
            <path id="Path_17989" data-name="Path 17989" d="M3484.72,1044.76c1.306-3.563,8.784-22.914,30.247-32.651,20.738-9.427,39.592-3.066,43.342-1.72v40.42a179.064,179.064,0,0,0-73.609-6.07Z" transform="translate(-2762.758 -798.409)" fill="#a5a5a5"/>
            <path id="Path_17990" data-name="Path 17990" d="M2281.227,1537.712H1873.9c53.12-53.058,91.426-61.3,117.882-56.932,33.832,5.594,57.284,33.293,81.482,21.774,19.433-9.261,14.854-32.174,36.856-41.311,22.147-9.2,39.342,8.784,55.9-2.424,11.871-8.038,10.027-22.064,15.786-35.634,7.625-17.962,30.227-39.052,99.444-48.085" transform="translate(-1485.675 -1090.214)" fill="#4c4c4c"/>
            <path id="Path_17991" data-name="Path 17991" d="M2567,1900.467a356.29,356.29,0,0,0,71.143-22.189c26.312-11.436,38.618-20.779,59.916-19.122,20.241,1.575,23.473,11.125,39.4,8.681,19.93-3.066,23.2-19.329,45.662-29.253,9.633-4.247,24.9-8.266,47.608-4.33v66.213Z" transform="translate(-2035.182 -1452.969)" fill="#393939"/>
            <path id="Path_17992" data-name="Path 17992" d="M3114.4,1996.678a121.254,121.254,0,0,1,44.418-14.709c21.878-2.652,31.968,2.569,49.806.6,13.735-1.512,33.4-7.437,56.1-28.569v42.657H3114.4Z" transform="translate(-2469.174 -1549.181)" fill="#242424"/>
            <path id="Path_17993" data-name="Path 17993" d="M1214.463,1044.826c-8.391,24.654-19.6,33.044-28.072,36.276-15.663,5.967-28.01-3.563-43.942,3.439-12.865,5.656-19.64,18.377-23.266,27.513-8.08-2.01-44.377-10.11-82.042,10.649-36.028,19.868-48.893,52.685-51.835,60.909-4.061-1.637-28.984-11.125-56,1.7-26.208,12.43-34.847,36.566-36.3,40.834-2.9-1.388-24.985-11.477-48.521-.249-20.054,9.572-27.119,27.927-28.466,31.7H748.9a219.884,219.884,0,0,1,36.007-37.043c25.731-20.842,50.9-31.366,134.021-58.051,21.753-6.981,48.955-15.559,80.467-25.089.7-.953,1.823-2.362,3.149-4.081,17.423-22.541,37.105-34.142,50.613-42.305,34.453-20.8,71.02-31.552,86.433-35.675.249-1.43,4.558-23.452,23.659-31.076C1180.735,1017.271,1203.152,1025.33,1214.463,1044.826Z" transform="translate(-593.747 -810.096)" fill="#cecece"/>
            <path id="Path_17994" data-name="Path 17994" d="M2135.125,1281.126c10.793-.331,18.583,5.283,21.194,7.355a39.48,39.48,0,0,1,7.417-17.755c.911-1.2,13.818-17.693,31.469-14.979a28.731,28.731,0,0,1,12.99,5.677c-1.74-.477-21.691-5.677-37.146,7.666a39.471,39.471,0,0,0-12.8,23.369c-4.144-1.8-19.578-7.873-36.09-1.347a43.37,43.37,0,0,0-13.156,8.266,19.324,19.324,0,0,1,1.6-4.827c4.537-9.281,16.1-13.156,24.509-13.4Z" transform="translate(-1672.068 -995.349)" fill="#e5e5e5"/>
            <path id="Path_17995" data-name="Path 17995" d="M2285.138,1147.011a126.548,126.548,0,0,1,64.266,6.153c-.187,4.827-.394,9.654-.58,14.5a8.888,8.888,0,0,0-9.178,6.485,33.523,33.523,0,0,0-18.874-4.724c-13.011.746-21.049,9.178-23.411,11.747a38.562,38.562,0,0,0-9.592,20.034,34.5,34.5,0,0,0-6.692-3.978,33.324,33.324,0,0,0-6.277-2.114,72.737,72.737,0,0,0,5.615-11.332,78.027,78.027,0,0,0,4.7-36.753Z" transform="translate(-1803.519 -908.055)" fill="#545454"/>
            <path id="Path_17996" data-name="Path 17996" d="M1715.531,1193.778a152.051,152.051,0,0,0,32.257-7.521c24.177-8.515,32.609-18.459,55.481-26.125a134.668,134.668,0,0,1,36.38-6.733,75.054,75.054,0,0,1-10.338,48.085,32.19,32.19,0,0,0-19.226,2.445,32.534,32.534,0,0,0-15.1,14.543,39.49,39.49,0,0,0-28.155,19.205c-4.558-4.827-9.717-13.777-12.286-17.838-3.957-6.194-7.147-8.7-10.773-10.98-10.566-6.65-24.343-2.817-30.869-.456a29.036,29.036,0,0,0,2.341-7.479A28.11,28.11,0,0,0,1715.531,1193.778Z" transform="translate(-1358.03 -914.444)" fill="url(#linear-gradient-4)"/>
            <path id="Path_17997" data-name="Path 17997" d="M1953.321,1467.223a24.631,24.631,0,0,1,12.161-15.29c10.11-5.2,19.806-.932,20.966-.394-.29.539-.6,1.077-.891,1.616a59.985,59.985,0,0,0-28.155,19.205,10.1,10.1,0,0,1-4.1-5.117Z" transform="translate(-1548.625 -1149.106)" fill="#e5e5e5"/>
            <path id="Path_17998" data-name="Path 17998" d="M510.6,1579.9a69.838,69.838,0,0,0-18.273,31.325c-3.543-1.8-28.694-13.984-56.787-2.051-25.752,10.918-34.992,34.039-36.546,38.121a142.086,142.086,0,0,0-138.849,52.788H132.4c126.542-68.285,185.359-87.3,215.255-90.494,5.656-.6,20.572-1.761,41.621-5.78,32.423-6.215,44.335-12.555,74.479-18.252a360.387,360.387,0,0,1,46.863-5.656Z" transform="translate(-104.97 -1252.584)" fill="#cecece"/>
            <path id="Path_17999" data-name="Path 17999" d="M389.355,1695.2a464.144,464.144,0,0,0-205.145,96.295H132.5A443.647,443.647,0,0,1,389.355,1695.2Z" transform="translate(-105.049 -1343.997)" fill="#b5b5b5"/>
          </g>
        </g>
      </g>
    </g>
  </g>
</svg>