<svg xmlns="http://www.w3.org/2000/svg" width="1600" height="523" viewBox="0 0 1600 523">
  <g id="Text_Area" data-name="Text Area" transform="translate(0 -3615)">
    <g id="Group_6585" data-name="Group 6585">
      <rect id="Rectangle_3504" data-name="Rectangle 3504" width="1600" height="523" transform="translate(0 3615)" fill="none"/>
      <g id="Text_Area-2" data-name="Text Area" transform="translate(190 3655)">
        <text id="Fitment" transform="translate(610 39)" fill="#494a53" font-size="40" font-family="Helvetica, Helvetica-Bold" font-weight="700"><tspan x="-75.307" y="0">Fitment</tspan></text>
        <rect id="Rectangle_3483" data-name="Rectangle 3483" width="190" height="12" rx="6" transform="translate(30 155)" fill="#969da8"/>
        <rect id="Rectangle_3712" data-name="Rectangle 3712" width="219" height="12" rx="6" transform="translate(30 235)" fill="#969da8"/>
        <rect id="Rectangle_3717" data-name="Rectangle 3717" width="190" height="12" rx="6" transform="translate(30 315)" fill="#969da8"/>
        <rect id="Rectangle_3722" data-name="Rectangle 3722" width="140" height="12" rx="6" transform="translate(30 395)" fill="#969da8"/>
        <rect id="Rectangle_3709" data-name="Rectangle 3709" width="241" height="12" rx="6" transform="translate(356 155)" fill="#969da8"/>
        <rect id="Rectangle_3714" data-name="Rectangle 3714" width="120" height="12" rx="6" transform="translate(356 235)" fill="#969da8"/>
        <rect id="Rectangle_3719" data-name="Rectangle 3719" width="187" height="12" rx="6" transform="translate(356 315)" fill="#969da8"/>
        <rect id="Rectangle_3724" data-name="Rectangle 3724" width="286" height="12" rx="6" transform="translate(356 395)" fill="#969da8"/>
        <rect id="Rectangle_3710" data-name="Rectangle 3710" width="96" height="12" rx="6" transform="translate(713 155)" fill="#969da8"/>
        <rect id="Rectangle_3715" data-name="Rectangle 3715" width="120" height="12" rx="6" transform="translate(713 235)" fill="#969da8"/>
        <rect id="Rectangle_3720" data-name="Rectangle 3720" width="96" height="12" rx="6" transform="translate(713 315)" fill="#969da8"/>
        <rect id="Rectangle_3725" data-name="Rectangle 3725" width="151" height="12" rx="6" transform="translate(713 395)" fill="#969da8"/>
        <rect id="Rectangle_3711" data-name="Rectangle 3711" width="100" height="12" rx="6" transform="translate(1070 155)" fill="#969da8"/>
        <rect id="Rectangle_3716" data-name="Rectangle 3716" width="120" height="12" rx="6" transform="translate(1070 235)" fill="#969da8"/>
        <rect id="Rectangle_3721" data-name="Rectangle 3721" width="100" height="12" rx="6" transform="translate(1070 315)" fill="#969da8"/>
        <rect id="Rectangle_3726" data-name="Rectangle 3726" width="120" height="12" rx="6" transform="translate(1070 395)" fill="#969da8"/>
        <rect id="Rectangle_3705" data-name="Rectangle 3705" width="120" height="12" rx="6" transform="translate(30 79)" fill="#494a53"/>
        <rect id="Rectangle_3706" data-name="Rectangle 3706" width="160" height="12" rx="6" transform="translate(356 79)" fill="#494a53"/>
        <rect id="Rectangle_3707" data-name="Rectangle 3707" width="160" height="12" rx="6" transform="translate(713 79)" fill="#494a53"/>
        <rect id="Rectangle_3708" data-name="Rectangle 3708" width="120" height="12" rx="6" transform="translate(1070 79)" fill="#494a53"/>
        <rect id="Rectangle_3062" data-name="Rectangle 3062" width="1220" height="4" rx="2" transform="translate(0 123)" fill="#cfd2d6"/>
        <rect id="Rectangle_3609" data-name="Rectangle 3609" width="1220" height="4" rx="2" transform="translate(0 199)" fill="#cfd2d6"/>
        <rect id="Rectangle_3713" data-name="Rectangle 3713" width="1220" height="4" rx="2" transform="translate(0 279)" fill="#cfd2d6"/>
        <rect id="Rectangle_3718" data-name="Rectangle 3718" width="1220" height="4" rx="2" transform="translate(0 359)" fill="#cfd2d6"/>
        <rect id="Rectangle_3723" data-name="Rectangle 3723" width="1220" height="4" rx="2" transform="translate(0 439)" fill="#cfd2d6"/>
      </g>
    </g>
  </g>
</svg>