<svg xmlns="http://www.w3.org/2000/svg" xmlns:xlink="http://www.w3.org/1999/xlink" width="1344" height="660" viewBox="0 0 1344 660">
  <defs>
    <clipPath id="clip-path">
      <rect id="Rectangle_3694" data-name="Rectangle 3694" width="1264" height="500" transform="translate(328 3558)" fill="#c7c7c7"/>
    </clipPath>
    <linearGradient id="linear-gradient" x1="0.408" y1="1.091" x2="0.334" y2="0.431" gradientUnits="objectBoundingBox">
      <stop offset="0" stop-color="#ababab"/>
      <stop offset="1" stop-color="#d5d5d5"/>
    </linearGradient>
    <linearGradient id="linear-gradient-2" x1="0.659" y1="1.841" x2="0.252" y2="2.645" gradientUnits="objectBoundingBox">
      <stop offset="0" stop-color="#939393"/>
      <stop offset="1" stop-color="#bebebe"/>
    </linearGradient>
    <linearGradient id="linear-gradient-3" x1="0.381" y1="0.033" x2="0.253" y2="-0.477" gradientUnits="objectBoundingBox">
      <stop offset="0" stop-color="#6a6a6a"/>
      <stop offset="1" stop-color="#6a6a6a"/>
    </linearGradient>
    <linearGradient id="linear-gradient-4" x1="0.151" y1="-0.165" x2="0.167" y2="0.296" gradientUnits="objectBoundingBox">
      <stop offset="0" stop-color="#c7c7c7"/>
      <stop offset="1" stop-color="#747474"/>
    </linearGradient>
  </defs>
  <g id="Group_6953" data-name="Group 6953" transform="translate(-288 -3477)">
    <g id="Group_6859" data-name="Group 6859">
      <g id="Rectangle_3573" data-name="Rectangle 3573" transform="translate(288 3477)" fill="#fff" stroke="#ddd" stroke-width="1">
        <rect width="1344" height="660" rx="15" stroke="none"/>
        <rect x="0.5" y="0.5" width="1343" height="659" rx="14.5" fill="none"/>
      </g>
      <g id="Mask_Group_48" data-name="Mask Group 48" clip-path="url(#clip-path)">
        <g id="Group_6902" data-name="Group 6902" transform="translate(16700 19646)">
          <rect id="Rectangle_3665" data-name="Rectangle 3665" width="1268" height="712" transform="translate(-16372.001 -16225)" fill="#fff"/>
          <g id="Background-2" transform="translate(-16372 -16225)" opacity="0.35">
            <rect id="Rectangle_3663" data-name="Rectangle 3663" width="1268" height="712" transform="translate(0)" fill="#b5b5b5"/>
            <path id="Path_8722" data-name="Path 8722" d="M2818.6,977.215c0-10.647,25.218-18.294,32.372-20.47,11.9-3.627,40.875-9.922,46.148-.033,5.076,9.461-11.339,34.15-33.524,39.161C2842.8,1000.587,2818.635,987.632,2818.6,977.215Z" transform="translate(-1889.48 -637.786)" fill="#929292"/>
            <path id="Path_8723" data-name="Path 8723" d="M2927.6,1022.69c1.515-1.813,5.207-.89,4.218,1.813-2.473,6-10.383,21.163-17.964,16.383-3.428-2.7-8.143-5.406-11.5-7.647-2.934-3.363,3.395-5.67,5.175-5.571C2917.87,1026.184,2924.662,1024.865,2927.6,1022.69Z" transform="translate(-1945.107 -684.942)" fill="#545454"/>
            <path id="Path_8724" data-name="Path 8724" d="M2379.524,895.543a3.777,3.777,0,0,1,1.516,1.253,3.358,3.358,0,0,1-.66,4.483c-14.01,11.636-50.532,46.809-57.751,50.006-17.539,7.812-72.391-4.022-103.113-7.878-23.635-2.967-53.171-62.17-57.555-87.255-.791-4.615,5.408-7.054,10.681-10.153,32.007-18.79,72.587-8.7,103.011-1.154,66.852,16.581,98.1,48.26,103.8,50.666Z" transform="translate(-1449.248 -559.937)" fill="#a1a1a1"/>
            <path id="Path_8725" data-name="Path 8725" d="M2287.648,1041.591c1.056-1.418,8.406,1.911,9.923,2.405,5.736,2.275,13.383,5.275,19.581,7.714,14.141,5.57,28.249,9.988,43.347,11.34,18.427,1.615,36.391-1.747,53.631-7.945a52.224,52.224,0,0,1,6.23-1.978c3.726-.724.5,2.8-.527,3.989a56.366,56.366,0,0,0-11.5,17.537c-1.219,2.8-1.945,5.769-2.934,8.7-.627,1.813-1.286,3.988-3.131,4.582-1.351.495-3.362-.033-5.208-.2-24.427-2.6-48.391-8.636-72.982-9.691a155.472,155.472,0,0,0-22.514.164c-1.186.1-2.671.066-3.264-.659-.858-.956-.922-2.539-1.187-3.89-.56-2.8-1.351-5.505-2.011-8.275a154.581,154.581,0,0,0-6.659-20.833c-.427-.89-1.088-2.176-.792-2.934h0Z" transform="translate(-1533.501 -698.009)" fill="#929292"/>
            <path id="Path_8726" data-name="Path 8726" d="M1427.658,779.046c42.358-36.194,90.222-39.458,109.209-39.1,7.845.165,53.072,1.615,92.793,31.315a144.022,144.022,0,0,1,36.656,39.1A139.689,139.689,0,0,1,1679.4,837a146.1,146.1,0,0,1,8.7,30.161c.56,3.2.989,6.3,1.318,9.3a491.195,491.195,0,0,1-196,64.049,55.923,55.923,0,0,0-14.7-22.646c-24.1-21.954-56.17-7.879-81.52-29.305-5.406-4.549-12.79-12.658-17.9-27.459C1384.245,828.854,1403.2,799.944,1427.658,779.046Z" transform="translate(-924.628 -496.018)" fill="#e5e5e5"/>
            <path id="Path_8727" data-name="Path 8727" d="M1380.066,1058.06c41.6-37.744,79.905-19.68,121.472,6.131,35.568,18.295,78.684,6.658,107.693-18.559a95.8,95.8,0,0,1,10.548-5.934,110.126,110.126,0,0,1,11.208-4.549c8.438-2.769,26.8-3.725,49.809.429a143.516,143.516,0,0,1,10.581,36.953,233.3,233.3,0,0,0-33,5.34c-46.445,11.01-64.773,30.492-109.834,46.084a277.582,277.582,0,0,1-54.687,12.823,55.79,55.79,0,0,0-14.7-22.647c-24.064-21.921-56.236-7.845-81.552-29.3-5.406-4.582-12.559-12.559-17.6-26.766Z" transform="translate(-925.098 -692.325)" fill="url(#linear-gradient)"/>
            <path id="Path_8728" data-name="Path 8728" d="M2593.59,331.428c-29.174,10.186-92.925,27.821-170.358,11.175a311.774,311.774,0,0,1-107.99-45.919c-8.866-13.186-8.472-20.8-6.625-25.25,12.063-29.206,112.175-3.923,135.447-38.073,1.485-2.176,2.836-5.109,2.242-7.812-8.833-17.9-39.722-8.076-54.852-4.516,63.654-45.226,144.48-40.447,218.187-51.555,71.565-21.789,201.345-111.286,201.807-27.393.262,46.38,1.02,93.453,1.384,139.7-16.219-2.176-31.974,8.6-37.282,23.965-40.611,9.955-97.672,30.689-150.315,76.674a336.747,336.747,0,0,0-32.007,32.008,47.7,47.7,0,0,0-16.812-.857,44.637,44.637,0,0,0-16.382,5.175c-7.616,4.252-12.2,10.186-21.329,21.987-1.68,2.176-3.033,4.022-3.922,5.274l-13.054-18.1c.727-3.033,5.966-23.8,26.9-34.612,19.779-10.219,38.6-3.824,41.733-2.7a55.954,55.954,0,0,1,3.2-59.137Z" transform="translate(-1546.888 -71.64)" fill="#cecece"/>
            <path id="Path_8729" data-name="Path 8729" d="M3403.513,269.888c-37.215-7.153-80.5-1.022-106.638,28.942-7.152,6-13.185,10.087-22.086,12.955-25.183,8.208-49.775-5.175-75.488,9.164-10.251,4.846-13.91,14.5-6.559,23.833,15.229,20.6,58.346,21,53.566,55.379-.658,4.582-3,9.691-6.954,12.328a65.264,65.264,0,0,1,14.734,4.121c-6.658-81.421,70.774-143.063,149.392-124.241V269.855Z" transform="translate(-2137.699 -179.106)" fill="#b5b5b5"/>
            <path id="Path_8730" data-name="Path 8730" d="M3246.865,335.5a119.007,119.007,0,0,0-41.205-3.494c-33.623,3.1-56.632,19.943-66.028,27.789-7.052,5.9-32.568,27.854-40.479,65.631a112.707,112.707,0,0,0-1.714,34.348,67.528,67.528,0,0,0-14.735-4.12c-25.381-2.736-42.029,8.5-56.17,28.349a55.236,55.236,0,0,0-8.735,20.7,57.347,57.347,0,0,0,4.91,35.733c-3.163-.923-24.59-6.823-44.829,6.362-16.781,10.911-21.593,27.657-22.68,31.744,2.241,2.67,4.549,5.6,6.823,8.768q3.908,5.39,6.923,10.384a55.783,55.783,0,0,1,10.812-16.976c3.131-3.362,16.548-17.7,35.5-16.713A37.81,37.81,0,0,1,3029.5,567.7c5.835-9.428,13.121-21.064,21.625-34.381,15.624-24.36,19.58-30.063,25.843-36.425a114.056,114.056,0,0,1,33.655-23.4c-.723-8.966-4.35-63.291,32.537-96.584,14.4-12.988,30.886-19.053,37.546-21.459a130.858,130.858,0,0,1,66.125-5.472v-14.5Z" transform="translate(-1981.051 -222.236)" fill="#e5e5e5"/>
            <path id="Path_8731" data-name="Path 8731" d="M3175.746,842.2a46.075,46.075,0,0,1-5.7-15.3c-.527-2.868-1.781-11.339,2.108-24.525,3.2-10.846,8.078-27.459,23.207-37.843,23.306-15.987,52.314-4.417,54.885-3.329a104.345,104.345,0,0,0-20.9,13.186,118.351,118.351,0,0,0-21.527,23.6c-10.712,15.262-10.976,22.548-22.809,35.436a96.205,96.205,0,0,1-9.23,8.8Z" transform="translate(-2124.66 -506.888)" fill="#cecece"/>
            <path id="Path_8732" data-name="Path 8732" d="M3560.2,379.388c-10.022-2.143-62.929-10.944-103.474,27.986-39.821,38.238-33.92,90.156-33.194,95.628a148.243,148.243,0,0,1,98.1-15.625,35.547,35.547,0,0,1,38.568-23.47V379.388Z" transform="translate(-2294.522 -252.741)" fill="#cecece"/>
            <path id="Path_8733" data-name="Path 8733" d="M0,0H1213.631a142.5,142.5,0,0,1-33.92,16.845c-15.79,5.373-28.349,6.889-41.5,7.516-29.832,1.384-60.291-2.571-89.1,7.549-19.745,7.12-36.557,19.416-51.72,33.722-8.867,8.34-17.306,17.965-28.514,23.174-19.284,8.966-42.754,5.6-63.521,7.516A221.151,221.151,0,0,0,845.787,109.9c-60.093,21.756-107.1,71.433-169.863,86.53-103.935,15.493-112.176-66.785-272.216-5.175,28.382,15.064-9.658,27.854-24.13,29.9-27.821,6.164-57.555,5.6-85.706,1.549-7.681-.791-35.733-4.747-43.776-6.032-42.26-2.176-81.684,11.933-118.208,32.173a150.03,150.03,0,0,0-50.665-70.477A150.285,150.285,0,0,0,0,147.975Z" transform="translate(0)" fill="url(#linear-gradient-2)"/>
            <path id="Path_8734" data-name="Path 8734" d="M0,161.281c55.709-31.217,123.812-36.953,185.422-22.053,27.2,8.439,118.406,29.437,126.614,57.72-2.209,6.4-11.471,5.9-17.042,6.362-67.378-.989-135.943-45.556-202.5-14.669-15.163,6.494-30.689,25.712-6.263,32.272,8.933,2.044,19.317,0,28.316-.758,35.238-3.791,70.543,8.8,96.881,32.173,17.306,15.856,34.019,35.436,58.906,38.106,45.886,9.922,88.673-30.887,133.174-11.142,28.349,15.031-9.625,27.887-24.163,29.9-27.822,6.2-57.621,5.6-85.772,1.549-7.318-.462-36.029-4.978-43.809-6.032-42.293-2.176-81.75,11.933-118.307,32.173C111.385,281.665,60.027,237.724,0,236.043Z" transform="translate(0 -88.068)" fill="#cecece"/>
            <path id="Path_8735" data-name="Path 8735" d="M310.5,584.163c48.028-23.305,101.5.264,147.382,17.537-42.293-2.208-81.751,11.933-118.307,32.173C332.685,615.974,323.125,598.7,310.5,584.163Z" transform="translate(-208.147 -385.062)" fill="#b5b5b5"/>
            <path id="Path_8736" data-name="Path 8736" d="M826.4,0h803.758c-46.809,13.284-84.025,26.8-110.1,37.051-48.26,18.987-71.3,31.843-103.211,25.481-27.986-5.6-35.7-20.866-55.082-28.415-76.278-29.7-121.637,58.445-180.412,87.025-35.3,12.823-72.685-4.351-108.846,2.8-59.665,9.889-119.132,54.984-180.247,26.206,34.282-5.736,53.731-14.7,80.135-37.414,32.865-27.624,70.641-48.094,114.384-49.907,10.285-.923,46.776.132,53.468-6.428,1.945-2.077.56-5.175-1.451-6.692-39.26,10.515-119.494,25.844-211.924-2.044A373.466,373.466,0,0,1,826.4,0Z" transform="translate(-553.986)" fill="#7e7e7e"/>
            <path id="Path_8737" data-name="Path 8737" d="M0,843.663a349.55,349.55,0,0,1,53.7-8.571c214.1-17.141,453.715,163.863,435.947,274.359C474.713,1202.343,272.611,1277.7,0,1271.072Z" transform="translate(0 -559.053)" fill="#7a7a7a"/>
            <path id="Path_8738" data-name="Path 8738" d="M234.1,1157.165c59.6-30.723,91.936-26.437,110.627-15.79,29.635,16.877,23.734,49.083,65.73,86.332,9.23,8.175,35.008,30.557,73.443,39.952,46.644,11.405,74.7-5.439,101.825,15.13,14.076,10.713,20.471,25.844,23.569,35.8a455.527,455.527,0,0,1-117.78-9.263c-133.8-28.481-220-110.956-257.415-152.194Z" transform="translate(-156.931 -759.818)" fill="#5a5a5a"/>
            <path id="Path_8739" data-name="Path 8739" d="M0,448.9c60.027,1.681,111.385,45.622,131.427,100.836,72.586-1.912,134.822,61.774,148.634,130.108,24.558-17.866,57.324-18.625,81.355-2.176,20.866,14.273,32.206,39.458,29.569,65.367a94.2,94.2,0,0,1,131,102.386q-21.46,4.846-42.952,9.691c-37.282-47.138-72.85-64.543-98.892-71.6-22.58-6.1-42.622-4.846-64.609-21.493-23.141-17.537-30.129-37.282-40.941-56.434C225.44,618.631,105.847,595.062,83.267,590.612A316.7,316.7,0,0,0,0,585.568V448.9Z" transform="translate(0.001 -300.925)" fill="#a5a5a5"/>
            <path id="Path_8740" data-name="Path 8740" d="M731.333,874.13C809.622,842.353,886.3,849.7,923.216,892.557c7.713,8.966,16.943,23.239,21.723,45.325,8.472,15.922,18,24.954,24,29.766a52.758,52.758,0,0,0,7.845,5.34c10.351,5.67,18.856,5.374,28.745,6.461,12.263,1.351,23.074,2.571,33.029,8.7,2.6,1.582,17.966,11.076,20.5,29.14a39.617,39.617,0,0,1-4.187,23.272c4.252-1.879,24.69-10.285,47.468-1.385,31.283,12.263,37.974,45.853,38.337,47.962a33.211,33.211,0,0,1-2.242,3.429,34.258,34.258,0,0,1-2.769,3.1c-28.25,4.878-94.672,17.9-123.417,23.668,6-69.323-63.917-131.2-131-102.353,9.329-58.808-65.038-92.266-110.956-63.192a184.94,184.94,0,0,0-17.24-45.688A182.739,182.739,0,0,0,731.3,874.163Z" transform="translate(-490.235 -572.84)" fill="#7e7e7e"/>
            <path id="Path_8741" data-name="Path 8741" d="M835.3,1095.355c88.607-6.988,124.9,8.834,141.25,25.745,4.351,4.516,13.021,14.9,28.843,23.47,15.889,8.6,32.569,11.241,55.808,15.559,20.075,4.978,38.634,18.691,45.853,38.535,6.989,16.383-5.176,39.491,14.57,49.445,12.23,5.472,30.392-1.054,37.117,14.373l-76.74,15.13c.3-3.065,4.582-55.412-38.073-87.98-41.567-31.778-89.53-15.559-92.892-14.372-.165-3.3-2.967-45.194-36.458-64.281-18.361-10.449-37.645-9.328-42.622-8.9a76.985,76.985,0,0,0-31.843,10.021q-2.373-8.357-4.714-16.714Z" transform="translate(-559.952 -733.148)" fill="#545454"/>
            <path id="Path_8742" data-name="Path 8742" d="M398.7,698.937c44.238-23.306,80.366-27.723,105.221-27.459,55.84.626,83.86,25.349,161.094,45.095A562.948,562.948,0,0,0,770.335,733.12a151.438,151.438,0,0,0-48.061,82.707c-1.912-5.044-9.625-23.537-29.865-34.085A62.828,62.828,0,0,0,660.5,774.82a210.586,210.586,0,0,0-152.161-23.438,159.487,159.487,0,0,0-20.5-20.042,150.822,150.822,0,0,0-28.679-18.559,141.428,141.428,0,0,0-35.8-11.57,144.951,144.951,0,0,0-24.657-2.341Z" transform="translate(-267.273 -450.126)" fill="#a1a1a1"/>
            <path id="Path_8743" data-name="Path 8743" d="M667.4,831.864a157.3,157.3,0,0,1,173.192,43.908c-16.449,11.339-29.635,13.186-38.733,12.691-29.206-1.615-40.677-28.613-76.443-36.227a90.645,90.645,0,0,0-36.952.132c-2.9-3.329-6.164-6.823-9.79-10.383C674.817,838.193,670.993,834.831,667.4,831.864Z" transform="translate(-447.399 -551.077)" fill="#b5b5b5"/>
            <path id="Path_8744" data-name="Path 8744" d="M0,1167c195.542,5.736,196.267,180.148,452.363,174.148C314.937,1370.651,0,1494.661,0,1494.661Z" transform="translate(0 -782.311)" fill="#848484"/>
            <path id="Path_8745" data-name="Path 8745" d="M0,1374.582c62.763-5.538,105.748,7.747,133.965,21.658,52.478,25.876,71.4,62.5,136.6,88.277a282.466,282.466,0,0,0,77.7,18.394q-50.089,15.081-100.21,30.162c-29.239-28.679-81.882-72.059-158.985-96.453A389.194,389.194,0,0,0,0,1419.578Z" transform="translate(0 -920.604)" fill="#757575"/>
            <path id="Path_8746" data-name="Path 8746" d="M0,1513.8a364.1,364.1,0,0,1,122.263,26.965,365.055,365.055,0,0,1,125.79,86.53q-37.727,14.388-75.421,28.744a244.263,244.263,0,0,0-41.238-40.545c-24.294-18.79-46.051-28.25-62.17-35.107A337.514,337.514,0,0,0,0,1559.356v-45.523Z" transform="translate(0 -1014.793)" fill="#5a5a5a"/>
            <path id="Path_8747" data-name="Path 8747" d="M0,1651.9a307.342,307.342,0,0,1,93.584,31.876,306.913,306.913,0,0,1,81.915,63.488c-23.075,10.482-47.435,22.613-72.751,36.689-21.163,11.768-40.842,23.7-59.005,35.469H0V1651.9Z" transform="translate(0 -1107.37)" fill="#393939"/>
            <path id="Path_8748" data-name="Path 8748" d="M0,1811.3a215.825,215.825,0,0,1,61.939,26.9,216.746,216.746,0,0,1,52.215,46.743C100.012,1892,85.212,1900.1,69.916,1909.4c-9.23,5.6-18,11.273-26.272,16.878H0V1811.3Z" transform="translate(0 -1214.226)" fill="#242424"/>
            <path id="Path_8749" data-name="Path 8749" d="M2245.814,1210.108v293.049H1461.9c34.283-55.248,123.053-181.367,290.346-259.788C1979.96,1136.6,2191.884,1193.791,2245.814,1210.108Z" transform="translate(-980.001 -791.137)" fill="url(#linear-gradient-3)"/>
            <path id="Path_8750" data-name="Path 8750" d="M2671.56,1159.9v18.822c-42.523-2.077-99.484,2.6-147.908,37.381-53.665,38.535-47.7,78.817-97.936,104.4-50.6,25.745-86.233-.1-177.84,2.571A483.346,483.346,0,0,0,2097,1352.177c24.261-34.711,120.384-163.435,299.28-205.662C2521.707,1116.914,2625.51,1144.5,2671.56,1159.9Z" transform="translate(-1405.747 -759.783)" fill="#7e7e7e"/>
            <path id="Path_8751" data-name="Path 8751" d="M1985.043,1173.87c-20.636-4.681-93.882-18.691-168.973,21.69-47.4,25.514-74.4,61.313-87.024,80.927-26.734,53.995-99.946,22.613-146.656,22.086-63.95-6.328-128.163,21.493-171.907,67.543a452.926,452.926,0,0,0-209.353,119.625H1072.9c5.967-43.281,37.678-73.608,70.708-74.4,27.789-.692,47.5,19.712,51.787,24.393,1.549-6,12.79-47.072,54.72-67.773,44.9-22.153,87.189-2.308,92.134.1,5.736-17.471,23.932-64.906,72.191-95.464,33.524-21.228,66.752-24.953,78.355-26.107,30.689-3.1,40.644,3.791,82.8,6.725,29.734,2.077,61.049,4.285,93.156-3.363,54.094-12.889,52.149-39.886,122.428-69.817,41.237-17.57,72.454-21.261,97.738-24.063,37.019-4.087,62.2-1.154,84.783,10.911a104.669,104.669,0,0,1,11.339,6.988Z" transform="translate(-719.23 -773.755)" fill="#9d9d9d"/>
            <path id="Path_8752" data-name="Path 8752" d="M2808.911,706.131c50.763-40.711,109.044-36.524,122.427-35.239q17.308-15.18,34.581-30.393.049,95.233.131,190.5c-68.038-20.668-116.823-14.471-148.865-4.911-64.807,19.317-86.136,59.764-155.952,79.806-49.775,14.273-94.936,9.79-124.933,3.922,7.152-9.56,19.514-23.108,38.5-30.591,28.052-11.01,39.457,3.527,64.444-7.746,28.481-12.823,46.776-46.611,51.556-55.412,5.9-10.911,6.527-15.394,12.89-21.921,14.668-15.032,36.919-17.339,54.127-16.746,5.735-15.427,19.678-46.116,51.126-71.3Z" transform="translate(-1700.237 -429.367)" fill="#7a7a7a"/>
            <path id="Path_8753" data-name="Path 8753" d="M2927.351,663.333a35.657,35.657,0,0,1,38.7-23.5v23.965a25.588,25.588,0,0,0-11.5,7.614,26.249,26.249,0,0,0-5.67,11.241c-76.377-4.417-109.8,15.921-126.218,35.271-19.778,23.273-18.757,49.71-48.985,69.587-23.471,15.46-32.964,5.307-58.841,21.064-36.788,22.349-26.4,48.127-57.456,63.653-31.876,15.921-58.676-3.362-86.3,19.251a65.312,65.312,0,0,0-16.514,20.7,71.754,71.754,0,0,1-10.153-1.055,62.214,62.214,0,0,1-8.11-1.978,62.926,62.926,0,0,1,6.527-22.646c27-52.479,115.9-32.338,144.613-83.5,4.021-7.153,7.779-17.4,19.283-26.239,14.868-11.471,32.766-13.021,44.667-12.757,4.153-11.373,22.612-57.983,73.9-85.179,45.721-24.228,89.034-17.932,102.122-15.493Z" transform="translate(-1700.237 -428.696)" fill="#a5a5a5"/>
            <path id="Path_8754" data-name="Path 8754" d="M3340.2,975.387c.955-8.637,7.45-59.038,52.939-93.42,49.051-37.051,104-25.646,111.813-23.9V974.827a284.827,284.827,0,0,0-164.751.528Z" transform="translate(-2239.14 -573.195)" fill="#a6a6a6"/>
            <path id="Path_8755" data-name="Path 8755" d="M3484.733,1067.056c2.077-5.67,13.977-36.458,48.127-51.951,33-15,62.994-4.879,68.96-2.736v64.313a284.9,284.9,0,0,0-117.12-9.658Z" transform="translate(-2336.008 -675.083)" fill="#a5a5a5"/>
            <path id="Path_8756" data-name="Path 8756" d="M2522,1633.834H1873.9c84.519-84.421,145.468-97.54,187.564-90.585,53.83,8.9,91.145,52.973,129.646,34.644,30.92-14.734,23.635-51.192,58.643-65.729,35.239-14.636,62.6,13.976,88.936-3.857,18.888-12.79,15.955-35.107,25.118-56.7,12.132-28.58,48.1-62.137,158.227-76.509" transform="translate(-1256.19 -921.814)" fill="#4c4c4c"/>
            <path id="Path_8757" data-name="Path 8757" d="M2567,1940.556a566.913,566.913,0,0,0,113.2-35.305c41.863-18.2,61.445-33.062,95.331-30.425,32.206,2.505,37.348,17.7,62.7,13.812,31.711-4.878,36.919-30.755,72.653-46.545,15.327-6.758,39.622-13.153,75.751-6.889v105.353Z" transform="translate(-1720.817 -1228.537)" fill="#393939"/>
            <path id="Path_8758" data-name="Path 8758" d="M3114.4,2021.9a192.917,192.917,0,0,1,70.674-23.4c34.81-4.22,50.863,4.087,79.245.956,21.855-2.406,53.138-11.833,89.265-45.457v67.872H3114.4Z" transform="translate(-2087.773 -1309.886)" fill="#242424"/>
            <path id="Path_8759" data-name="Path 8759" d="M1489.664,1058.445c-13.351,39.227-31.184,52.577-44.666,57.72-24.921,9.494-44.567-5.669-69.916,5.472-20.471,9-31.25,29.239-37.019,43.776-12.856-3.2-70.608-16.087-130.537,16.943-57.324,31.612-77.794,83.827-82.475,96.913-6.461-2.6-46.117-17.7-89.1,2.7-41.7,19.778-55.445,58.181-57.753,64.972-4.615-2.209-39.754-18.262-77.2-.4-31.909,15.229-43.149,44.435-45.292,50.435H748.9a349.864,349.864,0,0,1,57.291-58.939c40.941-33.162,80.992-49.908,213.243-92.365,34.612-11.109,77.893-24.756,128.032-39.919,1.12-1.516,2.9-3.758,5.01-6.494,27.723-35.865,59.039-54.324,80.531-67.312,54.819-33.1,113-50.2,137.525-56.764.4-2.275,7.252-37.315,37.645-49.446C1436,1014.6,1471.666,1027.426,1489.664,1058.445Z" transform="translate(-502.033 -684.965)" fill="#cecece"/>
            <path id="Path_8760" data-name="Path 8760" d="M2150.567,1296.306c17.175-.527,29.568,8.406,33.723,11.7a62.813,62.813,0,0,1,11.8-28.249c1.449-1.912,21.987-28.151,50.072-23.833a45.713,45.713,0,0,1,20.667,9.033c-2.769-.758-34.511-9.033-59.1,12.2-15.79,13.614-19.449,31.481-20.372,37.183-6.594-2.868-31.152-12.526-57.423-2.143A69,69,0,0,0,2109,1325.347a30.711,30.711,0,0,1,2.538-7.681c7.219-14.767,25.614-20.932,39-21.328Z" transform="translate(-1413.792 -841.602)" fill="#e5e5e5"/>
            <path id="Path_8761" data-name="Path 8761" d="M2291.249,1148a201.362,201.362,0,0,1,102.255,9.79c-.3,7.681-.626,15.361-.923,23.074a14.143,14.143,0,0,0-14.6,10.318,53.331,53.331,0,0,0-30.03-7.516c-20.7,1.187-33.492,14.6-37.25,18.691a61.355,61.355,0,0,0-15.262,31.876,54.939,54.939,0,0,0-10.648-6.329,53.039,53.039,0,0,0-9.989-3.363,115.539,115.539,0,0,0,8.935-18.03,124.15,124.15,0,0,0,7.482-58.478Z" transform="translate(-1524.937 -767.792)" fill="#545454"/>
            <path id="Path_8762" data-name="Path 8762" d="M1717.087,1217.647a241.989,241.989,0,0,0,51.324-11.966c38.469-13.548,51.885-29.371,88.277-41.568a214.3,214.3,0,0,1,57.884-10.713,119.424,119.424,0,0,1-16.448,76.509,51.219,51.219,0,0,0-30.591,3.89,51.765,51.765,0,0,0-24.03,23.14,62.833,62.833,0,0,0-44.8,30.558c-7.252-7.681-15.46-21.922-19.547-28.383-6.3-9.856-11.373-13.845-17.141-17.471-16.812-10.582-38.733-4.483-49.116-.724a46.266,46.266,0,0,0,3.724-11.9A44.739,44.739,0,0,0,1717.087,1217.647Z" transform="translate(-1148.261 -773.194)" fill="url(#linear-gradient-4)"/>
            <path id="Path_8763" data-name="Path 8763" d="M1953.333,1477.769c.594-2.274,4.615-16.746,19.35-24.327,16.087-8.274,31.514-1.484,33.359-.626-.461.857-.955,1.714-1.417,2.571a95.429,95.429,0,0,0-44.8,30.557,16.075,16.075,0,0,1-6.527-8.143Z" transform="translate(-1309.416 -971.609)" fill="#e5e5e5"/>
            <path id="Path_8764" data-name="Path 8764" d="M734.155,1579.9a111.116,111.116,0,0,0-29.074,49.842c-5.637-2.868-45.655-22.251-90.354-3.264-40.974,17.372-55.676,54.16-58.148,60.654a226.078,226.078,0,0,0-220.924,83.991H132.4c201.343-108.649,294.928-138.909,342.495-143.986,9-.956,32.733-2.8,66.224-9.2,51.589-9.889,70.543-19.976,118.505-29.041a573.269,573.269,0,0,1,74.564-9Z" transform="translate(-88.755 -1059.104)" fill="#cecece"/>
            <path id="Path_8765" data-name="Path 8765" d="M541.186,1695.2a738.5,738.5,0,0,0-326.408,153.216H132.5A705.884,705.884,0,0,1,541.186,1695.2Z" transform="translate(-88.822 -1136.397)" fill="#b5b5b5"/>
          </g>
        </g>
      </g>
      <g id="Group_6846" data-name="Group 6846" transform="translate(-2 -109)">
        <rect id="Rectangle_3191" data-name="Rectangle 3191" width="484" height="353" rx="4" transform="translate(400 3740)" fill="#fff"/>
        <text id="Subheading_Goes_Here" data-name="Subheading Goes Here" transform="translate(452 3812)" fill="#575a5d" font-size="18" font-family="Helvetica"><tspan x="0" y="0">Subheading Goes Here</tspan></text>
        <text id="Heading_Goes_In_This_Space" data-name="Heading Goes
In This Space" transform="translate(452 3867)" fill="#111" font-size="48" font-family="Helvetica-Bold, Helvetica" font-weight="700"><tspan x="0" y="0">Heading Goes</tspan><tspan x="0" y="56">In This Space</tspan></text>
        <text id="Lorem_ipsum_dolor_sit_amet_consectetur_adipiscing_elit." data-name="Lorem ipsum dolor sit amet, consectetur adipiscing elit." transform="translate(452 3951)" fill="#575a5d" font-size="14" font-family="Helvetica"><tspan x="0" y="11">Lorem ipsum dolor sit amet, consectetur adipiscing elit.</tspan></text>
        <rect id="Rectangle_3062" data-name="Rectangle 3062" width="120" height="48" rx="4" transform="translate(452 3992)" fill="#111"/>
        <text id="Shop_Now" data-name="Shop Now" transform="translate(512 4021)" fill="#fff" font-size="13" font-family="Helvetica"><tspan x="-29.99" y="0">Shop Now</tspan></text>
      </g>
    </g>
  </g>
</svg>