<svg xmlns="http://www.w3.org/2000/svg" xmlns:xlink="http://www.w3.org/1999/xlink" width="1344" height="604" viewBox="0 0 1344 604">
  <defs>
    <clipPath id="clip-path">
      <rect id="Rectangle_3559" data-name="Rectangle 3559" width="180" height="194.078" fill="none"/>
    </clipPath>
  </defs>
  <g id="Group_6949" data-name="Group 6949" transform="translate(-288 -750)">
    <g id="Group_6938" data-name="Group 6938">
      <g id="Rectangle_3504" data-name="Rectangle 3504" transform="translate(288 750)" fill="#fff" stroke="#ddd" stroke-width="1">
        <rect width="1344" height="604" rx="15" stroke="none"/>
        <rect x="0.5" y="0.5" width="1343" height="603" rx="14.5" fill="none"/>
      </g>
      <text id="Product_Carousel_Heading" data-name="Product Carousel Heading" transform="translate(704 869)" fill="#111" font-size="40" font-family="Helvetica-Bold, Helvetica" font-weight="700"><tspan x="0" y="0">Product Carousel Heading</tspan></text>
      <g id="Arrow-left" transform="translate(328 1072)">
        <g id="Group_1453" data-name="Group 1453">
          <g id="Ellipse_82" data-name="Ellipse 82" fill="#fff" stroke="#ddd" stroke-width="1">
            <circle cx="22.515" cy="22.515" r="22.515" stroke="none"/>
            <circle cx="22.515" cy="22.515" r="22.015" fill="none"/>
          </g>
        </g>
        <g id="Left-arrow" transform="translate(18.014 16.272)">
          <path id="Icons-07" d="M1.31,0,0,1.3,5.916,7.2l5.916-5.9L10.521,0,5.916,4.606Z" transform="translate(7.197) rotate(90)" fill="#575a5d"/>
        </g>
      </g>
      <g id="Group_6837" data-name="Group 6837" transform="translate(-127)">
        <rect id="_00-17ea9fe1-6803-4132-b7a8-ed5a1940bf05" data-name="00-17ea9fe1-6803-4132-b7a8-ed5a1940bf05" width="262" height="262" transform="translate(528 919)" fill="#f5f5f5"/>
        <g id="Group_5883" data-name="Group 5883" transform="translate(528 1205)">
          <text id="Featured_Product_Number_Two_Carousel_Item" data-name="Featured Product Number Two Carousel Item" fill="#575a5d" font-size="14" font-family="Helvetica"><tspan x="0" y="11">Featured Product Number Two </tspan><tspan x="0" y="32">Carousel Item</tspan></text>
          <text id="_99.95" data-name="$99.95" transform="translate(0 63)" fill="#111" font-size="13" font-family="Helvetica"><tspan x="0" y="0">$99.95</tspan></text>
        </g>
        <g id="Group_6744" data-name="Group 6744" transform="translate(569 952.961)">
          <g id="Group_6742" data-name="Group 6742" clip-path="url(#clip-path)">
            <path id="Path_6820" data-name="Path 6820" d="M61.816,88.363c1.987-3.632,6.3-5.4,8.669-8.793,2.243-3.222,2.415-7.37,2.84-11.267s1.4-8.142,4.572-10.446c3.85-2.8,9.375-1.638,13.66-3.717,3.956-1.921,6.085-6.179,8.285-9.994s5.222-7.8,9.589-8.348c3.514-.442,7.038,1.512,10.533.908,3.39-.586,5.871-3.385,8.568-5.522s6.706-3.655,9.438-1.563c3.2,2.445,1.863,7.75-.97,10.611s-6.748,4.582-9.189,7.785-3.172,7.554-6.162,10.2c-4.444,3.939-12.382,2.788-15.715,7.7-2.811,4.156-.524,10.334-3.369,14.472-3.415,4.967-12.245,4.18-14.812,9.635-1.342,2.856-.3,6.235-.822,9.343-.693,4.134-4.01,7.252-7.135,10.045a31.358,31.358,0,0,1-7.161,5.255c-5.608,2.662-12.862.657-12.109-6.224.664-6.06-1.685-14.653,1.285-20.1" transform="translate(14.571 6.92)" fill="#eaeaea"/>
            <path id="Path_6821" data-name="Path 6821" d="M64.312,106.79a.227.227,0,0,1-.076-.014.2.2,0,0,1-.114-.257l0-.006a137.315,137.315,0,0,1,68.214-72.449.2.2,0,0,1,.281.051.206.206,0,0,1-.05.282.341.341,0,0,1-.052.026A136.914,136.914,0,0,0,64.5,106.66a.2.2,0,0,1-.178.124" transform="translate(15.5 8.227)" fill="#fff"/>
            <path id="Path_6822" data-name="Path 6822" d="M74.792,76.556a.2.2,0,0,1-.093-.382,48.937,48.937,0,0,1,14.818-4.915.2.2,0,0,1,.077.4h-.012a48.5,48.5,0,0,0-14.694,4.872.233.233,0,0,1-.1.025" transform="translate(18.034 17.228)" fill="#fff"/>
            <path id="Path_6823" data-name="Path 6823" d="M77.755,68.692h-.039a.2.2,0,0,1-.159-.236v0a36.448,36.448,0,0,0,.337-12.48.2.2,0,1,1,.4-.06,36.8,36.8,0,0,1-.34,12.62.2.2,0,0,1-.2.163" transform="translate(18.751 13.477)" fill="#fff"/>
            <path id="Path_6824" data-name="Path 6824" d="M85.165,61.938a.2.2,0,0,1-.094-.381,23.293,23.293,0,0,1,11.757-2.641.2.2,0,0,1,.192.21.205.205,0,0,1-.21.191,22.846,22.846,0,0,0-11.549,2.594.211.211,0,0,1-.094.022" transform="translate(20.542 14.24)" fill="#fff"/>
            <path id="Path_6825" data-name="Path 6825" d="M92.893,52.526a.205.205,0,0,1-.081-.017.2.2,0,0,1-.1-.267h0a55.493,55.493,0,0,0,3.713-12.192.2.2,0,0,1,.247-.148h0a.2.2,0,0,1,.153.219A55.792,55.792,0,0,1,93.085,52.4a.2.2,0,0,1-.179.124" transform="translate(22.412 9.646)" fill="#fff"/>
            <path id="Path_6826" data-name="Path 6826" d="M113.174,48.878a.2.2,0,0,1-.109-.031,15.951,15.951,0,0,0-11.652-2.217.2.2,0,0,1-.079-.4,16.361,16.361,0,0,1,11.948,2.277.2.2,0,0,1,.063.277h0a.2.2,0,0,1-.179.093" transform="translate(24.461 11.105)" fill="#fff"/>
            <path id="Path_6827" data-name="Path 6827" d="M105.989,41.589a.2.2,0,0,1-.2-.2v0a.188.188,0,0,1,.046-.132,21.374,21.374,0,0,0,2.862-4.581.2.2,0,0,1,.373.161v.009a21.711,21.711,0,0,1-2.917,4.667.2.2,0,0,1-.156.076" transform="translate(25.577 8.838)" fill="#fff"/>
            <path id="Path_6828" data-name="Path 6828" d="M117.049,39.079a.194.194,0,0,1-.079-.016,7.05,7.05,0,0,0-3.782-.45.2.2,0,0,1-.236-.155v0a.2.2,0,0,1,.159-.237h.012a7.353,7.353,0,0,1,4,.472.2.2,0,0,1-.079.391" transform="translate(27.308 9.217)" fill="#fff"/>
            <path id="Path_6829" data-name="Path 6829" d="M52.93,101.318c1.4-3.453,3.9-6.745,3.533-10.453-.5-5.066-6.047-8.235-7.408-13.141-1.325-4.77,1.638-9.6,4.654-13.516s6.446-8.2,6.157-13.137c-.268-4.617-3.777-8.632-3.8-13.25-.017-4.051,2.656-7.6,5.55-10.431s6.209-5.387,8.14-8.953c2.007-3.687,2.3-8.053,3.912-11.9S79.186-.924,83.208.213c3.4.957,5.119,4.843,5.268,8.37s-.812,7.022-.676,10.546c.277,7.127,4.947,14.4,2.075,20.948-2.349,5.34-9.26,8.469-9.526,14.294-.2,4.421,3.671,7.978,4.624,12.294,1.878,8.476-7.711,15.687-7.736,24.372-.012,5.132,3.33,9.669,4.3,14.7a16.57,16.57,0,0,1-5.712,15.685c-13.847,11.233-28.647-5.889-22.895-20.117" transform="translate(11.782 0)" fill="#ddd"/>
            <path id="Path_6830" data-name="Path 6830" d="M61.194,110.743h-.012a.2.2,0,0,1-.191-.217A508.512,508.512,0,0,1,78.867,7.517a.208.208,0,0,1,.248-.14.2.2,0,0,1,.139.248A507.966,507.966,0,0,0,61.4,110.553a.2.2,0,0,1-.2.189" transform="translate(14.746 1.782)" fill="#fff"/>
            <path id="Path_6831" data-name="Path 6831" d="M63.745,84.153a.2.2,0,0,1-.1-.025.2.2,0,0,1-.084-.272,56.949,56.949,0,0,1,8.262-11.568.205.205,0,0,1,.286-.029.2.2,0,0,1,.025.286l-.012.016a56.464,56.464,0,0,0-8.2,11.489.209.209,0,0,1-.179.106" transform="translate(15.363 17.46)" fill="#fff"/>
            <path id="Path_6832" data-name="Path 6832" d="M62.558,71.731a.2.2,0,0,1-.2-.163A50.344,50.344,0,0,0,55.845,54.88a.2.2,0,0,1,.345-.21A50.776,50.776,0,0,1,62.755,71.5a.2.2,0,0,1-.158.237h-.04" transform="translate(13.497 13.197)" fill="#fff"/>
            <path id="Path_6833" data-name="Path 6833" d="M65.536,65.029a.206.206,0,0,1-.2-.206.216.216,0,0,1,.03-.1,61.947,61.947,0,0,1,10.8-13.2.2.2,0,0,1,.286.01.205.205,0,0,1-.01.289A61.692,61.692,0,0,0,65.714,64.931a.206.206,0,0,1-.179.1" transform="translate(15.796 12.443)" fill="#fff"/>
            <path id="Path_6834" data-name="Path 6834" d="M66.472,48.561a.2.2,0,0,1-.2-.163A62.376,62.376,0,0,0,60.3,31.516a.2.2,0,1,1,.324-.242.174.174,0,0,1,.03.056,62.844,62.844,0,0,1,6.009,16.993.2.2,0,0,1-.158.238h-.04" transform="translate(14.57 7.542)" fill="#fff"/>
            <path id="Path_6835" data-name="Path 6835" d="M69.82,40.327a.2.2,0,0,1-.2-.2v0a.213.213,0,0,1,.035-.115,33.637,33.637,0,0,1,10.307-9.865.2.2,0,0,1,.21.345A33.232,33.232,0,0,0,69.991,40.23a.2.2,0,0,1-.169.089" transform="translate(16.832 7.283)" fill="#fff"/>
            <path id="Path_6836" data-name="Path 6836" d="M68.694,30.706a.2.2,0,0,1-.2-.195,29.968,29.968,0,0,0-2.477-10.925.2.2,0,1,1,.373-.163,30.4,30.4,0,0,1,2.5,11.079.2.2,0,0,1-.194.209h0Z" transform="translate(15.957 4.666)" fill="#fff"/>
            <path id="Path_6837" data-name="Path 6837" d="M73.988,19.869a.2.2,0,0,1-.178-.3,13.808,13.808,0,0,1,5.774-5.628.2.2,0,0,1,.179.359,13.379,13.379,0,0,0-5.6,5.464.2.2,0,0,1-.179.106" transform="translate(17.84 3.368)" fill="#fff"/>
            <path id="Path_6838" data-name="Path 6838" d="M79.485,89.1c-2.082-3.581-6.446-5.222-8.909-8.551-2.328-3.15-2.618-7.3-3.147-11.182s-1.628-8.1-4.859-10.318c-3.925-2.686-9.415-1.378-13.75-3.338-4.01-1.813-6.267-6.009-8.557-9.764s-5.437-7.651-9.81-8.078c-3.527-.345-7,1.706-10.5,1.2-3.4-.5-5.961-3.222-8.717-5.284s-6.8-3.477-9.479-1.306C-1.385,35.01.1,40.276,3,43.06s6.868,4.393,9.4,7.519,3.38,7.463,6.444,10.027c4.549,3.818,12.455,2.448,15.92,7.272,2.928,4.079.81,10.314,3.759,14.371,3.551,4.874,12.353,3.841,15.074,9.224,1.422,2.814.472,6.226,1.074,9.313.806,4.118,4.207,7.14,7.408,9.847a31.213,31.213,0,0,0,7.3,5.055c5.679,2.507,12.875.305,11.931-6.554-.831-6.041,1.282-14.7-1.833-20.055" transform="translate(0 7.59)" fill="#ccc"/>
            <path id="Path_6839" data-name="Path 6839" d="M75.368,107.619a.206.206,0,0,1-.179-.124A136.9,136.9,0,0,0,5.214,37.164a.2.2,0,0,1-.1-.267.2.2,0,0,1,.264-.1h0A137.327,137.327,0,0,1,75.56,107.335a.2.2,0,0,1-.1.267.182.182,0,0,1-.081.017" transform="translate(1.232 8.892)" fill="#fff"/>
            <path id="Path_6840" data-name="Path 6840" d="M57.443,82.727h-.021a.2.2,0,0,1-.18-.219l.776-7.451a.2.2,0,0,1,.4.042l-.78,7.451a.2.2,0,0,1-.2.179" transform="translate(13.84 18.105)" fill="#fff"/>
            <path id="Path_6841" data-name="Path 6841" d="M53.678,77.977a.2.2,0,0,1-.088-.021,48.514,48.514,0,0,0-14.831-4.462.2.2,0,0,1,.055-.4,49.005,49.005,0,0,1,14.946,4.5.2.2,0,0,1,.1.266v0a.2.2,0,0,1-.183.118" transform="translate(9.332 17.672)" fill="#fff"/>
            <path id="Path_6842" data-name="Path 6842" d="M47.748,70.277a.2.2,0,0,1-.2-.158,36.889,36.889,0,0,1-.689-12.608.206.206,0,0,1,.226-.179.2.2,0,0,1,.178.226,36.448,36.448,0,0,0,.68,12.467.2.2,0,0,1-.147.247h0a.3.3,0,0,1-.047,0" transform="translate(11.269 13.862)" fill="#fff"/>
            <path id="Path_6843" data-name="Path 6843" d="M42.3,63.672a.211.211,0,0,1-.091-.021A22.818,22.818,0,0,0,30.6,61.376a.2.2,0,0,1-.217-.189.2.2,0,0,1,.185-.216h0a23.24,23.24,0,0,1,11.817,2.316.2.2,0,0,1-.091.386" transform="translate(7.346 14.729)" fill="#fff"/>
            <path id="Path_6844" data-name="Path 6844" d="M32.774,54.519A.206.206,0,0,1,32.6,54.4a55.938,55.938,0,0,1-4.078-12.169.2.2,0,0,1,.391-.113l.006.029a55.47,55.47,0,0,0,4.048,12.085.2.2,0,0,1-.092.266h0a.206.206,0,0,1-.086.02" transform="translate(6.893 10.148)" fill="#fff"/>
            <path id="Path_6845" data-name="Path 6845" d="M13.96,51.431a.2.2,0,0,1-.2-.2.2.2,0,0,1,.088-.165A16.354,16.354,0,0,1,25.73,48.454a.2.2,0,0,1-.032.4.168.168,0,0,1-.036-.006A15.949,15.949,0,0,0,14.073,51.4a.219.219,0,0,1-.114.034" transform="translate(3.327 11.662)" fill="#fff"/>
            <path id="Path_6846" data-name="Path 6846" d="M19.231,43.951a.205.205,0,0,1-.153-.07A21.726,21.726,0,0,1,16.034,39.3a.2.2,0,1,1,.358-.181,21.429,21.429,0,0,0,2.989,4.5.2.2,0,0,1-.021.284.2.2,0,0,1-.133.051" transform="translate(3.868 9.424)" fill="#fff"/>
            <path id="Path_6847" data-name="Path 6847" d="M8.292,41.747a.2.2,0,0,1-.207-.2.2.2,0,0,1,.123-.191,7.357,7.357,0,0,1,3.985-.582.2.2,0,0,1-.052.4h0a7.03,7.03,0,0,0-3.76.553.223.223,0,0,1-.084.017" transform="translate(1.955 9.843)" fill="#fff"/>
            <path id="Path_6848" data-name="Path 6848" d="M68.714,126.2h0a30,30,0,0,1-30-30V83.186H98.711V96.2a30,30,0,0,1-30,30" transform="translate(9.361 20.113)" fill="#fff"/>
            <path id="Path_6849" data-name="Path 6849" d="M127.7,71.66a.856.856,0,0,1-.856-.856V55.219a18.737,18.737,0,1,0-37.474,0V70.8a.855.855,0,1,1-1.71,0V55.219a20.448,20.448,0,1,1,40.9,0V70.8a.856.856,0,0,1-.856.856" transform="translate(21.195 8.405)" fill="#767676"/>
            <path id="Path_6850" data-name="Path 6850" d="M144.741,56.857H51.287L42.511,180.331h93.455Z" transform="translate(10.278 13.747)" fill="#ddd"/>
            <path id="Path_6851" data-name="Path 6851" d="M117.77,180.331h33.757L145.018,56.857H124.712Z" transform="translate(28.474 13.747)" fill="#ccc"/>
            <path id="Path_6852" data-name="Path 6852" d="M151.526,160.433l-18.195-21.279L117.77,160.433Z" transform="translate(28.475 33.645)" fill="#ccc"/>
            <path id="Path_6853" data-name="Path 6853" d="M130.3,159.052V56.857h11.686L148.5,180.331Z" transform="translate(31.504 13.747)" fill="#ddd"/>
            <path id="Path_6854" data-name="Path 6854" d="M76.565,64.57a4.031,4.031,0,1,1-4.031-4.031,4.03,4.03,0,0,1,4.031,4.031" transform="translate(16.563 14.637)" fill="#fff"/>
            <path id="Path_6855" data-name="Path 6855" d="M108.128,64.57a4.031,4.031,0,1,1-4.031-4.031,4.03,4.03,0,0,1,4.031,4.031" transform="translate(24.194 14.637)" fill="#fff"/>
            <path id="Path_6856" data-name="Path 6856" d="M111.1,71.66a.856.856,0,0,1-.856-.856V55.219a18.737,18.737,0,1,0-37.474,0V70.8a.855.855,0,1,1-1.71,0V55.219a20.448,20.448,0,1,1,40.9,0V70.8a.856.856,0,0,1-.856.856" transform="translate(17.182 8.405)" fill="#767676"/>
            <path id="Path_6857" data-name="Path 6857" d="M109.375,115.04v47.114a4.1,4.1,0,0,1-4.089,4.109H38.736a4.1,4.1,0,0,1-4.109-4.109V115.04Z" transform="translate(8.372 27.815)" fill="#ccc"/>
            <path id="Path_6858" data-name="Path 6858" d="M101.682,113.271l7.693,2.8H34.626l7.714-2.8-7.714-2.508h74.749Z" transform="translate(8.372 26.78)" fill="#b9b9b9"/>
            <path id="Path_6859" data-name="Path 6859" d="M42.331,112.789v2.788h-7.7Z" transform="translate(8.372 27.27)" fill="#767676"/>
            <path id="Path_6860" data-name="Path 6860" d="M34.624,110.766v5.309l7.707-2.8Z" transform="translate(8.371 26.781)" fill="#b9b9b9"/>
            <path id="Path_6861" data-name="Path 6861" d="M88.62,112.789v2.8h7.707Z" transform="translate(21.427 27.27)" fill="#767676"/>
            <path id="Path_6862" data-name="Path 6862" d="M96.327,110.766v5.309l-7.706-2.8Z" transform="translate(21.427 26.781)" fill="#b9b9b9"/>
            <path id="Path_6863" data-name="Path 6863" d="M52.169,122.412a3.073,3.073,0,1,1-3.073-3.073,3.073,3.073,0,0,1,3.073,3.073" transform="translate(11.127 28.854)" fill="#fff"/>
            <path id="Path_6864" data-name="Path 6864" d="M84.622,122.412a3.073,3.073,0,1,1-3.073-3.073,3.073,3.073,0,0,1,3.073,3.073" transform="translate(18.974 28.854)" fill="#fff"/>
            <path id="Path_6865" data-name="Path 6865" d="M88.98,128.772a.941.941,0,0,1-.941-.941v-9.813a19.209,19.209,0,1,0-38.417,0v9.813a.941.941,0,1,1-1.881,0v-9.813a21.09,21.09,0,1,1,42.181,0v9.813a.941.941,0,0,1-.941.941" transform="translate(11.543 23.435)" fill="#767676"/>
          </g>
        </g>
      </g>
      <g id="Group_6838" data-name="Group 6838" transform="translate(158)">
        <rect id="_00-17ea9fe1-6803-4132-b7a8-ed5a1940bf05-2" data-name="00-17ea9fe1-6803-4132-b7a8-ed5a1940bf05" width="262" height="262" transform="translate(528 919)" fill="#f5f5f5"/>
        <g id="Group_5883-2" data-name="Group 5883" transform="translate(528 1205)">
          <text id="Featured_Product_Number_Two_Carousel_Item-2" data-name="Featured Product Number Two Carousel Item" fill="#575a5d" font-size="14" font-family="Helvetica"><tspan x="0" y="11">Featured Product Number Two </tspan><tspan x="0" y="32">Carousel Item</tspan></text>
          <text id="_99.95-2" data-name="$99.95" transform="translate(0 63)" fill="#111" font-size="13" font-family="Helvetica"><tspan x="0" y="0">$99.95</tspan></text>
        </g>
        <g id="Group_6744-2" data-name="Group 6744" transform="translate(569 952.961)">
          <g id="Group_6742-2" data-name="Group 6742" clip-path="url(#clip-path)">
            <path id="Path_6820-2" data-name="Path 6820" d="M61.816,88.363c1.987-3.632,6.3-5.4,8.669-8.793,2.243-3.222,2.415-7.37,2.84-11.267s1.4-8.142,4.572-10.446c3.85-2.8,9.375-1.638,13.66-3.717,3.956-1.921,6.085-6.179,8.285-9.994s5.222-7.8,9.589-8.348c3.514-.442,7.038,1.512,10.533.908,3.39-.586,5.871-3.385,8.568-5.522s6.706-3.655,9.438-1.563c3.2,2.445,1.863,7.75-.97,10.611s-6.748,4.582-9.189,7.785-3.172,7.554-6.162,10.2c-4.444,3.939-12.382,2.788-15.715,7.7-2.811,4.156-.524,10.334-3.369,14.472-3.415,4.967-12.245,4.18-14.812,9.635-1.342,2.856-.3,6.235-.822,9.343-.693,4.134-4.01,7.252-7.135,10.045a31.358,31.358,0,0,1-7.161,5.255c-5.608,2.662-12.862.657-12.109-6.224.664-6.06-1.685-14.653,1.285-20.1" transform="translate(14.571 6.92)" fill="#eaeaea"/>
            <path id="Path_6821-2" data-name="Path 6821" d="M64.312,106.79a.227.227,0,0,1-.076-.014.2.2,0,0,1-.114-.257l0-.006a137.315,137.315,0,0,1,68.214-72.449.2.2,0,0,1,.281.051.206.206,0,0,1-.05.282.341.341,0,0,1-.052.026A136.914,136.914,0,0,0,64.5,106.66a.2.2,0,0,1-.178.124" transform="translate(15.5 8.227)" fill="#fff"/>
            <path id="Path_6822-2" data-name="Path 6822" d="M74.792,76.556a.2.2,0,0,1-.093-.382,48.937,48.937,0,0,1,14.818-4.915.2.2,0,0,1,.077.4h-.012a48.5,48.5,0,0,0-14.694,4.872.233.233,0,0,1-.1.025" transform="translate(18.034 17.228)" fill="#fff"/>
            <path id="Path_6823-2" data-name="Path 6823" d="M77.755,68.692h-.039a.2.2,0,0,1-.159-.236v0a36.448,36.448,0,0,0,.337-12.48.2.2,0,1,1,.4-.06,36.8,36.8,0,0,1-.34,12.62.2.2,0,0,1-.2.163" transform="translate(18.751 13.477)" fill="#fff"/>
            <path id="Path_6824-2" data-name="Path 6824" d="M85.165,61.938a.2.2,0,0,1-.094-.381,23.293,23.293,0,0,1,11.757-2.641.2.2,0,0,1,.192.21.205.205,0,0,1-.21.191,22.846,22.846,0,0,0-11.549,2.594.211.211,0,0,1-.094.022" transform="translate(20.542 14.24)" fill="#fff"/>
            <path id="Path_6825-2" data-name="Path 6825" d="M92.893,52.526a.205.205,0,0,1-.081-.017.2.2,0,0,1-.1-.267h0a55.493,55.493,0,0,0,3.713-12.192.2.2,0,0,1,.247-.148h0a.2.2,0,0,1,.153.219A55.792,55.792,0,0,1,93.085,52.4a.2.2,0,0,1-.179.124" transform="translate(22.412 9.646)" fill="#fff"/>
            <path id="Path_6826-2" data-name="Path 6826" d="M113.174,48.878a.2.2,0,0,1-.109-.031,15.951,15.951,0,0,0-11.652-2.217.2.2,0,0,1-.079-.4,16.361,16.361,0,0,1,11.948,2.277.2.2,0,0,1,.063.277h0a.2.2,0,0,1-.179.093" transform="translate(24.461 11.105)" fill="#fff"/>
            <path id="Path_6827-2" data-name="Path 6827" d="M105.989,41.589a.2.2,0,0,1-.2-.2v0a.188.188,0,0,1,.046-.132,21.374,21.374,0,0,0,2.862-4.581.2.2,0,0,1,.373.161v.009a21.711,21.711,0,0,1-2.917,4.667.2.2,0,0,1-.156.076" transform="translate(25.577 8.838)" fill="#fff"/>
            <path id="Path_6828-2" data-name="Path 6828" d="M117.049,39.079a.194.194,0,0,1-.079-.016,7.05,7.05,0,0,0-3.782-.45.2.2,0,0,1-.236-.155v0a.2.2,0,0,1,.159-.237h.012a7.353,7.353,0,0,1,4,.472.2.2,0,0,1-.079.391" transform="translate(27.308 9.217)" fill="#fff"/>
            <path id="Path_6829-2" data-name="Path 6829" d="M52.93,101.318c1.4-3.453,3.9-6.745,3.533-10.453-.5-5.066-6.047-8.235-7.408-13.141-1.325-4.77,1.638-9.6,4.654-13.516s6.446-8.2,6.157-13.137c-.268-4.617-3.777-8.632-3.8-13.25-.017-4.051,2.656-7.6,5.55-10.431s6.209-5.387,8.14-8.953c2.007-3.687,2.3-8.053,3.912-11.9S79.186-.924,83.208.213c3.4.957,5.119,4.843,5.268,8.37s-.812,7.022-.676,10.546c.277,7.127,4.947,14.4,2.075,20.948-2.349,5.34-9.26,8.469-9.526,14.294-.2,4.421,3.671,7.978,4.624,12.294,1.878,8.476-7.711,15.687-7.736,24.372-.012,5.132,3.33,9.669,4.3,14.7a16.57,16.57,0,0,1-5.712,15.685c-13.847,11.233-28.647-5.889-22.895-20.117" transform="translate(11.782 0)" fill="#ddd"/>
            <path id="Path_6830-2" data-name="Path 6830" d="M61.194,110.743h-.012a.2.2,0,0,1-.191-.217A508.512,508.512,0,0,1,78.867,7.517a.208.208,0,0,1,.248-.14.2.2,0,0,1,.139.248A507.966,507.966,0,0,0,61.4,110.553a.2.2,0,0,1-.2.189" transform="translate(14.746 1.782)" fill="#fff"/>
            <path id="Path_6831-2" data-name="Path 6831" d="M63.745,84.153a.2.2,0,0,1-.1-.025.2.2,0,0,1-.084-.272,56.949,56.949,0,0,1,8.262-11.568.205.205,0,0,1,.286-.029.2.2,0,0,1,.025.286l-.012.016a56.464,56.464,0,0,0-8.2,11.489.209.209,0,0,1-.179.106" transform="translate(15.363 17.46)" fill="#fff"/>
            <path id="Path_6832-2" data-name="Path 6832" d="M62.558,71.731a.2.2,0,0,1-.2-.163A50.344,50.344,0,0,0,55.845,54.88a.2.2,0,0,1,.345-.21A50.776,50.776,0,0,1,62.755,71.5a.2.2,0,0,1-.158.237h-.04" transform="translate(13.497 13.197)" fill="#fff"/>
            <path id="Path_6833-2" data-name="Path 6833" d="M65.536,65.029a.206.206,0,0,1-.2-.206.216.216,0,0,1,.03-.1,61.947,61.947,0,0,1,10.8-13.2.2.2,0,0,1,.286.01.205.205,0,0,1-.01.289A61.692,61.692,0,0,0,65.714,64.931a.206.206,0,0,1-.179.1" transform="translate(15.796 12.443)" fill="#fff"/>
            <path id="Path_6834-2" data-name="Path 6834" d="M66.472,48.561a.2.2,0,0,1-.2-.163A62.376,62.376,0,0,0,60.3,31.516a.2.2,0,1,1,.324-.242.174.174,0,0,1,.03.056,62.844,62.844,0,0,1,6.009,16.993.2.2,0,0,1-.158.238h-.04" transform="translate(14.57 7.542)" fill="#fff"/>
            <path id="Path_6835-2" data-name="Path 6835" d="M69.82,40.327a.2.2,0,0,1-.2-.2v0a.213.213,0,0,1,.035-.115,33.637,33.637,0,0,1,10.307-9.865.2.2,0,0,1,.21.345A33.232,33.232,0,0,0,69.991,40.23a.2.2,0,0,1-.169.089" transform="translate(16.832 7.283)" fill="#fff"/>
            <path id="Path_6836-2" data-name="Path 6836" d="M68.694,30.706a.2.2,0,0,1-.2-.195,29.968,29.968,0,0,0-2.477-10.925.2.2,0,1,1,.373-.163,30.4,30.4,0,0,1,2.5,11.079.2.2,0,0,1-.194.209h0Z" transform="translate(15.957 4.666)" fill="#fff"/>
            <path id="Path_6837-2" data-name="Path 6837" d="M73.988,19.869a.2.2,0,0,1-.178-.3,13.808,13.808,0,0,1,5.774-5.628.2.2,0,0,1,.179.359,13.379,13.379,0,0,0-5.6,5.464.2.2,0,0,1-.179.106" transform="translate(17.84 3.368)" fill="#fff"/>
            <path id="Path_6838-2" data-name="Path 6838" d="M79.485,89.1c-2.082-3.581-6.446-5.222-8.909-8.551-2.328-3.15-2.618-7.3-3.147-11.182s-1.628-8.1-4.859-10.318c-3.925-2.686-9.415-1.378-13.75-3.338-4.01-1.813-6.267-6.009-8.557-9.764s-5.437-7.651-9.81-8.078c-3.527-.345-7,1.706-10.5,1.2-3.4-.5-5.961-3.222-8.717-5.284s-6.8-3.477-9.479-1.306C-1.385,35.01.1,40.276,3,43.06s6.868,4.393,9.4,7.519,3.38,7.463,6.444,10.027c4.549,3.818,12.455,2.448,15.92,7.272,2.928,4.079.81,10.314,3.759,14.371,3.551,4.874,12.353,3.841,15.074,9.224,1.422,2.814.472,6.226,1.074,9.313.806,4.118,4.207,7.14,7.408,9.847a31.213,31.213,0,0,0,7.3,5.055c5.679,2.507,12.875.305,11.931-6.554-.831-6.041,1.282-14.7-1.833-20.055" transform="translate(0 7.59)" fill="#ccc"/>
            <path id="Path_6839-2" data-name="Path 6839" d="M75.368,107.619a.206.206,0,0,1-.179-.124A136.9,136.9,0,0,0,5.214,37.164a.2.2,0,0,1-.1-.267.2.2,0,0,1,.264-.1h0A137.327,137.327,0,0,1,75.56,107.335a.2.2,0,0,1-.1.267.182.182,0,0,1-.081.017" transform="translate(1.232 8.892)" fill="#fff"/>
            <path id="Path_6840-2" data-name="Path 6840" d="M57.443,82.727h-.021a.2.2,0,0,1-.18-.219l.776-7.451a.2.2,0,0,1,.4.042l-.78,7.451a.2.2,0,0,1-.2.179" transform="translate(13.84 18.105)" fill="#fff"/>
            <path id="Path_6841-2" data-name="Path 6841" d="M53.678,77.977a.2.2,0,0,1-.088-.021,48.514,48.514,0,0,0-14.831-4.462.2.2,0,0,1,.055-.4,49.005,49.005,0,0,1,14.946,4.5.2.2,0,0,1,.1.266v0a.2.2,0,0,1-.183.118" transform="translate(9.332 17.672)" fill="#fff"/>
            <path id="Path_6842-2" data-name="Path 6842" d="M47.748,70.277a.2.2,0,0,1-.2-.158,36.889,36.889,0,0,1-.689-12.608.206.206,0,0,1,.226-.179.2.2,0,0,1,.178.226,36.448,36.448,0,0,0,.68,12.467.2.2,0,0,1-.147.247h0a.3.3,0,0,1-.047,0" transform="translate(11.269 13.862)" fill="#fff"/>
            <path id="Path_6843-2" data-name="Path 6843" d="M42.3,63.672a.211.211,0,0,1-.091-.021A22.818,22.818,0,0,0,30.6,61.376a.2.2,0,0,1-.217-.189.2.2,0,0,1,.185-.216h0a23.24,23.24,0,0,1,11.817,2.316.2.2,0,0,1-.091.386" transform="translate(7.346 14.729)" fill="#fff"/>
            <path id="Path_6844-2" data-name="Path 6844" d="M32.774,54.519A.206.206,0,0,1,32.6,54.4a55.938,55.938,0,0,1-4.078-12.169.2.2,0,0,1,.391-.113l.006.029a55.47,55.47,0,0,0,4.048,12.085.2.2,0,0,1-.092.266h0a.206.206,0,0,1-.086.02" transform="translate(6.893 10.148)" fill="#fff"/>
            <path id="Path_6845-2" data-name="Path 6845" d="M13.96,51.431a.2.2,0,0,1-.2-.2.2.2,0,0,1,.088-.165A16.354,16.354,0,0,1,25.73,48.454a.2.2,0,0,1-.032.4.168.168,0,0,1-.036-.006A15.949,15.949,0,0,0,14.073,51.4a.219.219,0,0,1-.114.034" transform="translate(3.327 11.662)" fill="#fff"/>
            <path id="Path_6846-2" data-name="Path 6846" d="M19.231,43.951a.205.205,0,0,1-.153-.07A21.726,21.726,0,0,1,16.034,39.3a.2.2,0,1,1,.358-.181,21.429,21.429,0,0,0,2.989,4.5.2.2,0,0,1-.021.284.2.2,0,0,1-.133.051" transform="translate(3.868 9.424)" fill="#fff"/>
            <path id="Path_6847-2" data-name="Path 6847" d="M8.292,41.747a.2.2,0,0,1-.207-.2.2.2,0,0,1,.123-.191,7.357,7.357,0,0,1,3.985-.582.2.2,0,0,1-.052.4h0a7.03,7.03,0,0,0-3.76.553.223.223,0,0,1-.084.017" transform="translate(1.955 9.843)" fill="#fff"/>
            <path id="Path_6848-2" data-name="Path 6848" d="M68.714,126.2h0a30,30,0,0,1-30-30V83.186H98.711V96.2a30,30,0,0,1-30,30" transform="translate(9.361 20.113)" fill="#fff"/>
            <path id="Path_6849-2" data-name="Path 6849" d="M127.7,71.66a.856.856,0,0,1-.856-.856V55.219a18.737,18.737,0,1,0-37.474,0V70.8a.855.855,0,1,1-1.71,0V55.219a20.448,20.448,0,1,1,40.9,0V70.8a.856.856,0,0,1-.856.856" transform="translate(21.195 8.405)" fill="#767676"/>
            <path id="Path_6850-2" data-name="Path 6850" d="M144.741,56.857H51.287L42.511,180.331h93.455Z" transform="translate(10.278 13.747)" fill="#ddd"/>
            <path id="Path_6851-2" data-name="Path 6851" d="M117.77,180.331h33.757L145.018,56.857H124.712Z" transform="translate(28.474 13.747)" fill="#ccc"/>
            <path id="Path_6852-2" data-name="Path 6852" d="M151.526,160.433l-18.195-21.279L117.77,160.433Z" transform="translate(28.475 33.645)" fill="#ccc"/>
            <path id="Path_6853-2" data-name="Path 6853" d="M130.3,159.052V56.857h11.686L148.5,180.331Z" transform="translate(31.504 13.747)" fill="#ddd"/>
            <path id="Path_6854-2" data-name="Path 6854" d="M76.565,64.57a4.031,4.031,0,1,1-4.031-4.031,4.03,4.03,0,0,1,4.031,4.031" transform="translate(16.563 14.637)" fill="#fff"/>
            <path id="Path_6855-2" data-name="Path 6855" d="M108.128,64.57a4.031,4.031,0,1,1-4.031-4.031,4.03,4.03,0,0,1,4.031,4.031" transform="translate(24.194 14.637)" fill="#fff"/>
            <path id="Path_6856-2" data-name="Path 6856" d="M111.1,71.66a.856.856,0,0,1-.856-.856V55.219a18.737,18.737,0,1,0-37.474,0V70.8a.855.855,0,1,1-1.71,0V55.219a20.448,20.448,0,1,1,40.9,0V70.8a.856.856,0,0,1-.856.856" transform="translate(17.182 8.405)" fill="#767676"/>
            <path id="Path_6857-2" data-name="Path 6857" d="M109.375,115.04v47.114a4.1,4.1,0,0,1-4.089,4.109H38.736a4.1,4.1,0,0,1-4.109-4.109V115.04Z" transform="translate(8.372 27.815)" fill="#ccc"/>
            <path id="Path_6858-2" data-name="Path 6858" d="M101.682,113.271l7.693,2.8H34.626l7.714-2.8-7.714-2.508h74.749Z" transform="translate(8.372 26.78)" fill="#b9b9b9"/>
            <path id="Path_6859-2" data-name="Path 6859" d="M42.331,112.789v2.788h-7.7Z" transform="translate(8.372 27.27)" fill="#767676"/>
            <path id="Path_6860-2" data-name="Path 6860" d="M34.624,110.766v5.309l7.707-2.8Z" transform="translate(8.371 26.781)" fill="#b9b9b9"/>
            <path id="Path_6861-2" data-name="Path 6861" d="M88.62,112.789v2.8h7.707Z" transform="translate(21.427 27.27)" fill="#767676"/>
            <path id="Path_6862-2" data-name="Path 6862" d="M96.327,110.766v5.309l-7.706-2.8Z" transform="translate(21.427 26.781)" fill="#b9b9b9"/>
            <path id="Path_6863-2" data-name="Path 6863" d="M52.169,122.412a3.073,3.073,0,1,1-3.073-3.073,3.073,3.073,0,0,1,3.073,3.073" transform="translate(11.127 28.854)" fill="#fff"/>
            <path id="Path_6864-2" data-name="Path 6864" d="M84.622,122.412a3.073,3.073,0,1,1-3.073-3.073,3.073,3.073,0,0,1,3.073,3.073" transform="translate(18.974 28.854)" fill="#fff"/>
            <path id="Path_6865-2" data-name="Path 6865" d="M88.98,128.772a.941.941,0,0,1-.941-.941v-9.813a19.209,19.209,0,1,0-38.417,0v9.813a.941.941,0,1,1-1.881,0v-9.813a21.09,21.09,0,1,1,42.181,0v9.813a.941.941,0,0,1-.941.941" transform="translate(11.543 23.435)" fill="#767676"/>
          </g>
        </g>
      </g>
      <g id="Group_6839" data-name="Group 6839" transform="translate(444)">
        <rect id="_00-17ea9fe1-6803-4132-b7a8-ed5a1940bf05-3" data-name="00-17ea9fe1-6803-4132-b7a8-ed5a1940bf05" width="262" height="262" transform="translate(528 919)" fill="#f5f5f5"/>
        <g id="Group_5883-3" data-name="Group 5883" transform="translate(528 1205)">
          <text id="Featured_Product_Number_Two_Carousel_Item-3" data-name="Featured Product Number Two Carousel Item" fill="#575a5d" font-size="14" font-family="Helvetica"><tspan x="0" y="11">Featured Product Number Two </tspan><tspan x="0" y="32">Carousel Item</tspan></text>
          <text id="_99.95-3" data-name="$99.95" transform="translate(0 63)" fill="#111" font-size="13" font-family="Helvetica"><tspan x="0" y="0">$99.95</tspan></text>
        </g>
        <g id="Group_6744-3" data-name="Group 6744" transform="translate(569 952.961)">
          <g id="Group_6742-3" data-name="Group 6742" clip-path="url(#clip-path)">
            <path id="Path_6820-3" data-name="Path 6820" d="M61.816,88.363c1.987-3.632,6.3-5.4,8.669-8.793,2.243-3.222,2.415-7.37,2.84-11.267s1.4-8.142,4.572-10.446c3.85-2.8,9.375-1.638,13.66-3.717,3.956-1.921,6.085-6.179,8.285-9.994s5.222-7.8,9.589-8.348c3.514-.442,7.038,1.512,10.533.908,3.39-.586,5.871-3.385,8.568-5.522s6.706-3.655,9.438-1.563c3.2,2.445,1.863,7.75-.97,10.611s-6.748,4.582-9.189,7.785-3.172,7.554-6.162,10.2c-4.444,3.939-12.382,2.788-15.715,7.7-2.811,4.156-.524,10.334-3.369,14.472-3.415,4.967-12.245,4.18-14.812,9.635-1.342,2.856-.3,6.235-.822,9.343-.693,4.134-4.01,7.252-7.135,10.045a31.358,31.358,0,0,1-7.161,5.255c-5.608,2.662-12.862.657-12.109-6.224.664-6.06-1.685-14.653,1.285-20.1" transform="translate(14.571 6.92)" fill="#eaeaea"/>
            <path id="Path_6821-3" data-name="Path 6821" d="M64.312,106.79a.227.227,0,0,1-.076-.014.2.2,0,0,1-.114-.257l0-.006a137.315,137.315,0,0,1,68.214-72.449.2.2,0,0,1,.281.051.206.206,0,0,1-.05.282.341.341,0,0,1-.052.026A136.914,136.914,0,0,0,64.5,106.66a.2.2,0,0,1-.178.124" transform="translate(15.5 8.227)" fill="#fff"/>
            <path id="Path_6822-3" data-name="Path 6822" d="M74.792,76.556a.2.2,0,0,1-.093-.382,48.937,48.937,0,0,1,14.818-4.915.2.2,0,0,1,.077.4h-.012a48.5,48.5,0,0,0-14.694,4.872.233.233,0,0,1-.1.025" transform="translate(18.034 17.228)" fill="#fff"/>
            <path id="Path_6823-3" data-name="Path 6823" d="M77.755,68.692h-.039a.2.2,0,0,1-.159-.236v0a36.448,36.448,0,0,0,.337-12.48.2.2,0,1,1,.4-.06,36.8,36.8,0,0,1-.34,12.62.2.2,0,0,1-.2.163" transform="translate(18.751 13.477)" fill="#fff"/>
            <path id="Path_6824-3" data-name="Path 6824" d="M85.165,61.938a.2.2,0,0,1-.094-.381,23.293,23.293,0,0,1,11.757-2.641.2.2,0,0,1,.192.21.205.205,0,0,1-.21.191,22.846,22.846,0,0,0-11.549,2.594.211.211,0,0,1-.094.022" transform="translate(20.542 14.24)" fill="#fff"/>
            <path id="Path_6825-3" data-name="Path 6825" d="M92.893,52.526a.205.205,0,0,1-.081-.017.2.2,0,0,1-.1-.267h0a55.493,55.493,0,0,0,3.713-12.192.2.2,0,0,1,.247-.148h0a.2.2,0,0,1,.153.219A55.792,55.792,0,0,1,93.085,52.4a.2.2,0,0,1-.179.124" transform="translate(22.412 9.646)" fill="#fff"/>
            <path id="Path_6826-3" data-name="Path 6826" d="M113.174,48.878a.2.2,0,0,1-.109-.031,15.951,15.951,0,0,0-11.652-2.217.2.2,0,0,1-.079-.4,16.361,16.361,0,0,1,11.948,2.277.2.2,0,0,1,.063.277h0a.2.2,0,0,1-.179.093" transform="translate(24.461 11.105)" fill="#fff"/>
            <path id="Path_6827-3" data-name="Path 6827" d="M105.989,41.589a.2.2,0,0,1-.2-.2v0a.188.188,0,0,1,.046-.132,21.374,21.374,0,0,0,2.862-4.581.2.2,0,0,1,.373.161v.009a21.711,21.711,0,0,1-2.917,4.667.2.2,0,0,1-.156.076" transform="translate(25.577 8.838)" fill="#fff"/>
            <path id="Path_6828-3" data-name="Path 6828" d="M117.049,39.079a.194.194,0,0,1-.079-.016,7.05,7.05,0,0,0-3.782-.45.2.2,0,0,1-.236-.155v0a.2.2,0,0,1,.159-.237h.012a7.353,7.353,0,0,1,4,.472.2.2,0,0,1-.079.391" transform="translate(27.308 9.217)" fill="#fff"/>
            <path id="Path_6829-3" data-name="Path 6829" d="M52.93,101.318c1.4-3.453,3.9-6.745,3.533-10.453-.5-5.066-6.047-8.235-7.408-13.141-1.325-4.77,1.638-9.6,4.654-13.516s6.446-8.2,6.157-13.137c-.268-4.617-3.777-8.632-3.8-13.25-.017-4.051,2.656-7.6,5.55-10.431s6.209-5.387,8.14-8.953c2.007-3.687,2.3-8.053,3.912-11.9S79.186-.924,83.208.213c3.4.957,5.119,4.843,5.268,8.37s-.812,7.022-.676,10.546c.277,7.127,4.947,14.4,2.075,20.948-2.349,5.34-9.26,8.469-9.526,14.294-.2,4.421,3.671,7.978,4.624,12.294,1.878,8.476-7.711,15.687-7.736,24.372-.012,5.132,3.33,9.669,4.3,14.7a16.57,16.57,0,0,1-5.712,15.685c-13.847,11.233-28.647-5.889-22.895-20.117" transform="translate(11.782 0)" fill="#ddd"/>
            <path id="Path_6830-3" data-name="Path 6830" d="M61.194,110.743h-.012a.2.2,0,0,1-.191-.217A508.512,508.512,0,0,1,78.867,7.517a.208.208,0,0,1,.248-.14.2.2,0,0,1,.139.248A507.966,507.966,0,0,0,61.4,110.553a.2.2,0,0,1-.2.189" transform="translate(14.746 1.782)" fill="#fff"/>
            <path id="Path_6831-3" data-name="Path 6831" d="M63.745,84.153a.2.2,0,0,1-.1-.025.2.2,0,0,1-.084-.272,56.949,56.949,0,0,1,8.262-11.568.205.205,0,0,1,.286-.029.2.2,0,0,1,.025.286l-.012.016a56.464,56.464,0,0,0-8.2,11.489.209.209,0,0,1-.179.106" transform="translate(15.363 17.46)" fill="#fff"/>
            <path id="Path_6832-3" data-name="Path 6832" d="M62.558,71.731a.2.2,0,0,1-.2-.163A50.344,50.344,0,0,0,55.845,54.88a.2.2,0,0,1,.345-.21A50.776,50.776,0,0,1,62.755,71.5a.2.2,0,0,1-.158.237h-.04" transform="translate(13.497 13.197)" fill="#fff"/>
            <path id="Path_6833-3" data-name="Path 6833" d="M65.536,65.029a.206.206,0,0,1-.2-.206.216.216,0,0,1,.03-.1,61.947,61.947,0,0,1,10.8-13.2.2.2,0,0,1,.286.01.205.205,0,0,1-.01.289A61.692,61.692,0,0,0,65.714,64.931a.206.206,0,0,1-.179.1" transform="translate(15.796 12.443)" fill="#fff"/>
            <path id="Path_6834-3" data-name="Path 6834" d="M66.472,48.561a.2.2,0,0,1-.2-.163A62.376,62.376,0,0,0,60.3,31.516a.2.2,0,1,1,.324-.242.174.174,0,0,1,.03.056,62.844,62.844,0,0,1,6.009,16.993.2.2,0,0,1-.158.238h-.04" transform="translate(14.57 7.542)" fill="#fff"/>
            <path id="Path_6835-3" data-name="Path 6835" d="M69.82,40.327a.2.2,0,0,1-.2-.2v0a.213.213,0,0,1,.035-.115,33.637,33.637,0,0,1,10.307-9.865.2.2,0,0,1,.21.345A33.232,33.232,0,0,0,69.991,40.23a.2.2,0,0,1-.169.089" transform="translate(16.832 7.283)" fill="#fff"/>
            <path id="Path_6836-3" data-name="Path 6836" d="M68.694,30.706a.2.2,0,0,1-.2-.195,29.968,29.968,0,0,0-2.477-10.925.2.2,0,1,1,.373-.163,30.4,30.4,0,0,1,2.5,11.079.2.2,0,0,1-.194.209h0Z" transform="translate(15.957 4.666)" fill="#fff"/>
            <path id="Path_6837-3" data-name="Path 6837" d="M73.988,19.869a.2.2,0,0,1-.178-.3,13.808,13.808,0,0,1,5.774-5.628.2.2,0,0,1,.179.359,13.379,13.379,0,0,0-5.6,5.464.2.2,0,0,1-.179.106" transform="translate(17.84 3.368)" fill="#fff"/>
            <path id="Path_6838-3" data-name="Path 6838" d="M79.485,89.1c-2.082-3.581-6.446-5.222-8.909-8.551-2.328-3.15-2.618-7.3-3.147-11.182s-1.628-8.1-4.859-10.318c-3.925-2.686-9.415-1.378-13.75-3.338-4.01-1.813-6.267-6.009-8.557-9.764s-5.437-7.651-9.81-8.078c-3.527-.345-7,1.706-10.5,1.2-3.4-.5-5.961-3.222-8.717-5.284s-6.8-3.477-9.479-1.306C-1.385,35.01.1,40.276,3,43.06s6.868,4.393,9.4,7.519,3.38,7.463,6.444,10.027c4.549,3.818,12.455,2.448,15.92,7.272,2.928,4.079.81,10.314,3.759,14.371,3.551,4.874,12.353,3.841,15.074,9.224,1.422,2.814.472,6.226,1.074,9.313.806,4.118,4.207,7.14,7.408,9.847a31.213,31.213,0,0,0,7.3,5.055c5.679,2.507,12.875.305,11.931-6.554-.831-6.041,1.282-14.7-1.833-20.055" transform="translate(0 7.59)" fill="#ccc"/>
            <path id="Path_6839-3" data-name="Path 6839" d="M75.368,107.619a.206.206,0,0,1-.179-.124A136.9,136.9,0,0,0,5.214,37.164a.2.2,0,0,1-.1-.267.2.2,0,0,1,.264-.1h0A137.327,137.327,0,0,1,75.56,107.335a.2.2,0,0,1-.1.267.182.182,0,0,1-.081.017" transform="translate(1.232 8.892)" fill="#fff"/>
            <path id="Path_6840-3" data-name="Path 6840" d="M57.443,82.727h-.021a.2.2,0,0,1-.18-.219l.776-7.451a.2.2,0,0,1,.4.042l-.78,7.451a.2.2,0,0,1-.2.179" transform="translate(13.84 18.105)" fill="#fff"/>
            <path id="Path_6841-3" data-name="Path 6841" d="M53.678,77.977a.2.2,0,0,1-.088-.021,48.514,48.514,0,0,0-14.831-4.462.2.2,0,0,1,.055-.4,49.005,49.005,0,0,1,14.946,4.5.2.2,0,0,1,.1.266v0a.2.2,0,0,1-.183.118" transform="translate(9.332 17.672)" fill="#fff"/>
            <path id="Path_6842-3" data-name="Path 6842" d="M47.748,70.277a.2.2,0,0,1-.2-.158,36.889,36.889,0,0,1-.689-12.608.206.206,0,0,1,.226-.179.2.2,0,0,1,.178.226,36.448,36.448,0,0,0,.68,12.467.2.2,0,0,1-.147.247h0a.3.3,0,0,1-.047,0" transform="translate(11.269 13.862)" fill="#fff"/>
            <path id="Path_6843-3" data-name="Path 6843" d="M42.3,63.672a.211.211,0,0,1-.091-.021A22.818,22.818,0,0,0,30.6,61.376a.2.2,0,0,1-.217-.189.2.2,0,0,1,.185-.216h0a23.24,23.24,0,0,1,11.817,2.316.2.2,0,0,1-.091.386" transform="translate(7.346 14.729)" fill="#fff"/>
            <path id="Path_6844-3" data-name="Path 6844" d="M32.774,54.519A.206.206,0,0,1,32.6,54.4a55.938,55.938,0,0,1-4.078-12.169.2.2,0,0,1,.391-.113l.006.029a55.47,55.47,0,0,0,4.048,12.085.2.2,0,0,1-.092.266h0a.206.206,0,0,1-.086.02" transform="translate(6.893 10.148)" fill="#fff"/>
            <path id="Path_6845-3" data-name="Path 6845" d="M13.96,51.431a.2.2,0,0,1-.2-.2.2.2,0,0,1,.088-.165A16.354,16.354,0,0,1,25.73,48.454a.2.2,0,0,1-.032.4.168.168,0,0,1-.036-.006A15.949,15.949,0,0,0,14.073,51.4a.219.219,0,0,1-.114.034" transform="translate(3.327 11.662)" fill="#fff"/>
            <path id="Path_6846-3" data-name="Path 6846" d="M19.231,43.951a.205.205,0,0,1-.153-.07A21.726,21.726,0,0,1,16.034,39.3a.2.2,0,1,1,.358-.181,21.429,21.429,0,0,0,2.989,4.5.2.2,0,0,1-.021.284.2.2,0,0,1-.133.051" transform="translate(3.868 9.424)" fill="#fff"/>
            <path id="Path_6847-3" data-name="Path 6847" d="M8.292,41.747a.2.2,0,0,1-.207-.2.2.2,0,0,1,.123-.191,7.357,7.357,0,0,1,3.985-.582.2.2,0,0,1-.052.4h0a7.03,7.03,0,0,0-3.76.553.223.223,0,0,1-.084.017" transform="translate(1.955 9.843)" fill="#fff"/>
            <path id="Path_6848-3" data-name="Path 6848" d="M68.714,126.2h0a30,30,0,0,1-30-30V83.186H98.711V96.2a30,30,0,0,1-30,30" transform="translate(9.361 20.113)" fill="#fff"/>
            <path id="Path_6849-3" data-name="Path 6849" d="M127.7,71.66a.856.856,0,0,1-.856-.856V55.219a18.737,18.737,0,1,0-37.474,0V70.8a.855.855,0,1,1-1.71,0V55.219a20.448,20.448,0,1,1,40.9,0V70.8a.856.856,0,0,1-.856.856" transform="translate(21.195 8.405)" fill="#767676"/>
            <path id="Path_6850-3" data-name="Path 6850" d="M144.741,56.857H51.287L42.511,180.331h93.455Z" transform="translate(10.278 13.747)" fill="#ddd"/>
            <path id="Path_6851-3" data-name="Path 6851" d="M117.77,180.331h33.757L145.018,56.857H124.712Z" transform="translate(28.474 13.747)" fill="#ccc"/>
            <path id="Path_6852-3" data-name="Path 6852" d="M151.526,160.433l-18.195-21.279L117.77,160.433Z" transform="translate(28.475 33.645)" fill="#ccc"/>
            <path id="Path_6853-3" data-name="Path 6853" d="M130.3,159.052V56.857h11.686L148.5,180.331Z" transform="translate(31.504 13.747)" fill="#ddd"/>
            <path id="Path_6854-3" data-name="Path 6854" d="M76.565,64.57a4.031,4.031,0,1,1-4.031-4.031,4.03,4.03,0,0,1,4.031,4.031" transform="translate(16.563 14.637)" fill="#fff"/>
            <path id="Path_6855-3" data-name="Path 6855" d="M108.128,64.57a4.031,4.031,0,1,1-4.031-4.031,4.03,4.03,0,0,1,4.031,4.031" transform="translate(24.194 14.637)" fill="#fff"/>
            <path id="Path_6856-3" data-name="Path 6856" d="M111.1,71.66a.856.856,0,0,1-.856-.856V55.219a18.737,18.737,0,1,0-37.474,0V70.8a.855.855,0,1,1-1.71,0V55.219a20.448,20.448,0,1,1,40.9,0V70.8a.856.856,0,0,1-.856.856" transform="translate(17.182 8.405)" fill="#767676"/>
            <path id="Path_6857-3" data-name="Path 6857" d="M109.375,115.04v47.114a4.1,4.1,0,0,1-4.089,4.109H38.736a4.1,4.1,0,0,1-4.109-4.109V115.04Z" transform="translate(8.372 27.815)" fill="#ccc"/>
            <path id="Path_6858-3" data-name="Path 6858" d="M101.682,113.271l7.693,2.8H34.626l7.714-2.8-7.714-2.508h74.749Z" transform="translate(8.372 26.78)" fill="#b9b9b9"/>
            <path id="Path_6859-3" data-name="Path 6859" d="M42.331,112.789v2.788h-7.7Z" transform="translate(8.372 27.27)" fill="#767676"/>
            <path id="Path_6860-3" data-name="Path 6860" d="M34.624,110.766v5.309l7.707-2.8Z" transform="translate(8.371 26.781)" fill="#b9b9b9"/>
            <path id="Path_6861-3" data-name="Path 6861" d="M88.62,112.789v2.8h7.707Z" transform="translate(21.427 27.27)" fill="#767676"/>
            <path id="Path_6862-3" data-name="Path 6862" d="M96.327,110.766v5.309l-7.706-2.8Z" transform="translate(21.427 26.781)" fill="#b9b9b9"/>
            <path id="Path_6863-3" data-name="Path 6863" d="M52.169,122.412a3.073,3.073,0,1,1-3.073-3.073,3.073,3.073,0,0,1,3.073,3.073" transform="translate(11.127 28.854)" fill="#fff"/>
            <path id="Path_6864-3" data-name="Path 6864" d="M84.622,122.412a3.073,3.073,0,1,1-3.073-3.073,3.073,3.073,0,0,1,3.073,3.073" transform="translate(18.974 28.854)" fill="#fff"/>
            <path id="Path_6865-3" data-name="Path 6865" d="M88.98,128.772a.941.941,0,0,1-.941-.941v-9.813a19.209,19.209,0,1,0-38.417,0v9.813a.941.941,0,1,1-1.881,0v-9.813a21.09,21.09,0,1,1,42.181,0v9.813a.941.941,0,0,1-.941.941" transform="translate(11.543 23.435)" fill="#767676"/>
          </g>
        </g>
      </g>
      <g id="Group_6840" data-name="Group 6840" transform="translate(729)">
        <rect id="_00-17ea9fe1-6803-4132-b7a8-ed5a1940bf05-4" data-name="00-17ea9fe1-6803-4132-b7a8-ed5a1940bf05" width="262" height="262" transform="translate(528 919)" fill="#f5f5f5"/>
        <g id="Group_5883-4" data-name="Group 5883" transform="translate(528 1205)">
          <text id="Featured_Product_Number_Two_Carousel_Item-4" data-name="Featured Product Number Two Carousel Item" fill="#575a5d" font-size="14" font-family="Helvetica"><tspan x="0" y="11">Featured Product Number Two </tspan><tspan x="0" y="32">Carousel Item</tspan></text>
          <text id="_99.95-4" data-name="$99.95" transform="translate(0 63)" fill="#111" font-size="13" font-family="Helvetica"><tspan x="0" y="0">$99.95</tspan></text>
        </g>
        <g id="Group_6744-4" data-name="Group 6744" transform="translate(569 952.961)">
          <g id="Group_6742-4" data-name="Group 6742" clip-path="url(#clip-path)">
            <path id="Path_6820-4" data-name="Path 6820" d="M61.816,88.363c1.987-3.632,6.3-5.4,8.669-8.793,2.243-3.222,2.415-7.37,2.84-11.267s1.4-8.142,4.572-10.446c3.85-2.8,9.375-1.638,13.66-3.717,3.956-1.921,6.085-6.179,8.285-9.994s5.222-7.8,9.589-8.348c3.514-.442,7.038,1.512,10.533.908,3.39-.586,5.871-3.385,8.568-5.522s6.706-3.655,9.438-1.563c3.2,2.445,1.863,7.75-.97,10.611s-6.748,4.582-9.189,7.785-3.172,7.554-6.162,10.2c-4.444,3.939-12.382,2.788-15.715,7.7-2.811,4.156-.524,10.334-3.369,14.472-3.415,4.967-12.245,4.18-14.812,9.635-1.342,2.856-.3,6.235-.822,9.343-.693,4.134-4.01,7.252-7.135,10.045a31.358,31.358,0,0,1-7.161,5.255c-5.608,2.662-12.862.657-12.109-6.224.664-6.06-1.685-14.653,1.285-20.1" transform="translate(14.571 6.92)" fill="#eaeaea"/>
            <path id="Path_6821-4" data-name="Path 6821" d="M64.312,106.79a.227.227,0,0,1-.076-.014.2.2,0,0,1-.114-.257l0-.006a137.315,137.315,0,0,1,68.214-72.449.2.2,0,0,1,.281.051.206.206,0,0,1-.05.282.341.341,0,0,1-.052.026A136.914,136.914,0,0,0,64.5,106.66a.2.2,0,0,1-.178.124" transform="translate(15.5 8.227)" fill="#fff"/>
            <path id="Path_6822-4" data-name="Path 6822" d="M74.792,76.556a.2.2,0,0,1-.093-.382,48.937,48.937,0,0,1,14.818-4.915.2.2,0,0,1,.077.4h-.012a48.5,48.5,0,0,0-14.694,4.872.233.233,0,0,1-.1.025" transform="translate(18.034 17.228)" fill="#fff"/>
            <path id="Path_6823-4" data-name="Path 6823" d="M77.755,68.692h-.039a.2.2,0,0,1-.159-.236v0a36.448,36.448,0,0,0,.337-12.48.2.2,0,1,1,.4-.06,36.8,36.8,0,0,1-.34,12.62.2.2,0,0,1-.2.163" transform="translate(18.751 13.477)" fill="#fff"/>
            <path id="Path_6824-4" data-name="Path 6824" d="M85.165,61.938a.2.2,0,0,1-.094-.381,23.293,23.293,0,0,1,11.757-2.641.2.2,0,0,1,.192.21.205.205,0,0,1-.21.191,22.846,22.846,0,0,0-11.549,2.594.211.211,0,0,1-.094.022" transform="translate(20.542 14.24)" fill="#fff"/>
            <path id="Path_6825-4" data-name="Path 6825" d="M92.893,52.526a.205.205,0,0,1-.081-.017.2.2,0,0,1-.1-.267h0a55.493,55.493,0,0,0,3.713-12.192.2.2,0,0,1,.247-.148h0a.2.2,0,0,1,.153.219A55.792,55.792,0,0,1,93.085,52.4a.2.2,0,0,1-.179.124" transform="translate(22.412 9.646)" fill="#fff"/>
            <path id="Path_6826-4" data-name="Path 6826" d="M113.174,48.878a.2.2,0,0,1-.109-.031,15.951,15.951,0,0,0-11.652-2.217.2.2,0,0,1-.079-.4,16.361,16.361,0,0,1,11.948,2.277.2.2,0,0,1,.063.277h0a.2.2,0,0,1-.179.093" transform="translate(24.461 11.105)" fill="#fff"/>
            <path id="Path_6827-4" data-name="Path 6827" d="M105.989,41.589a.2.2,0,0,1-.2-.2v0a.188.188,0,0,1,.046-.132,21.374,21.374,0,0,0,2.862-4.581.2.2,0,0,1,.373.161v.009a21.711,21.711,0,0,1-2.917,4.667.2.2,0,0,1-.156.076" transform="translate(25.577 8.838)" fill="#fff"/>
            <path id="Path_6828-4" data-name="Path 6828" d="M117.049,39.079a.194.194,0,0,1-.079-.016,7.05,7.05,0,0,0-3.782-.45.2.2,0,0,1-.236-.155v0a.2.2,0,0,1,.159-.237h.012a7.353,7.353,0,0,1,4,.472.2.2,0,0,1-.079.391" transform="translate(27.308 9.217)" fill="#fff"/>
            <path id="Path_6829-4" data-name="Path 6829" d="M52.93,101.318c1.4-3.453,3.9-6.745,3.533-10.453-.5-5.066-6.047-8.235-7.408-13.141-1.325-4.77,1.638-9.6,4.654-13.516s6.446-8.2,6.157-13.137c-.268-4.617-3.777-8.632-3.8-13.25-.017-4.051,2.656-7.6,5.55-10.431s6.209-5.387,8.14-8.953c2.007-3.687,2.3-8.053,3.912-11.9S79.186-.924,83.208.213c3.4.957,5.119,4.843,5.268,8.37s-.812,7.022-.676,10.546c.277,7.127,4.947,14.4,2.075,20.948-2.349,5.34-9.26,8.469-9.526,14.294-.2,4.421,3.671,7.978,4.624,12.294,1.878,8.476-7.711,15.687-7.736,24.372-.012,5.132,3.33,9.669,4.3,14.7a16.57,16.57,0,0,1-5.712,15.685c-13.847,11.233-28.647-5.889-22.895-20.117" transform="translate(11.782 0)" fill="#ddd"/>
            <path id="Path_6830-4" data-name="Path 6830" d="M61.194,110.743h-.012a.2.2,0,0,1-.191-.217A508.512,508.512,0,0,1,78.867,7.517a.208.208,0,0,1,.248-.14.2.2,0,0,1,.139.248A507.966,507.966,0,0,0,61.4,110.553a.2.2,0,0,1-.2.189" transform="translate(14.746 1.782)" fill="#fff"/>
            <path id="Path_6831-4" data-name="Path 6831" d="M63.745,84.153a.2.2,0,0,1-.1-.025.2.2,0,0,1-.084-.272,56.949,56.949,0,0,1,8.262-11.568.205.205,0,0,1,.286-.029.2.2,0,0,1,.025.286l-.012.016a56.464,56.464,0,0,0-8.2,11.489.209.209,0,0,1-.179.106" transform="translate(15.363 17.46)" fill="#fff"/>
            <path id="Path_6832-4" data-name="Path 6832" d="M62.558,71.731a.2.2,0,0,1-.2-.163A50.344,50.344,0,0,0,55.845,54.88a.2.2,0,0,1,.345-.21A50.776,50.776,0,0,1,62.755,71.5a.2.2,0,0,1-.158.237h-.04" transform="translate(13.497 13.197)" fill="#fff"/>
            <path id="Path_6833-4" data-name="Path 6833" d="M65.536,65.029a.206.206,0,0,1-.2-.206.216.216,0,0,1,.03-.1,61.947,61.947,0,0,1,10.8-13.2.2.2,0,0,1,.286.01.205.205,0,0,1-.01.289A61.692,61.692,0,0,0,65.714,64.931a.206.206,0,0,1-.179.1" transform="translate(15.796 12.443)" fill="#fff"/>
            <path id="Path_6834-4" data-name="Path 6834" d="M66.472,48.561a.2.2,0,0,1-.2-.163A62.376,62.376,0,0,0,60.3,31.516a.2.2,0,1,1,.324-.242.174.174,0,0,1,.03.056,62.844,62.844,0,0,1,6.009,16.993.2.2,0,0,1-.158.238h-.04" transform="translate(14.57 7.542)" fill="#fff"/>
            <path id="Path_6835-4" data-name="Path 6835" d="M69.82,40.327a.2.2,0,0,1-.2-.2v0a.213.213,0,0,1,.035-.115,33.637,33.637,0,0,1,10.307-9.865.2.2,0,0,1,.21.345A33.232,33.232,0,0,0,69.991,40.23a.2.2,0,0,1-.169.089" transform="translate(16.832 7.283)" fill="#fff"/>
            <path id="Path_6836-4" data-name="Path 6836" d="M68.694,30.706a.2.2,0,0,1-.2-.195,29.968,29.968,0,0,0-2.477-10.925.2.2,0,1,1,.373-.163,30.4,30.4,0,0,1,2.5,11.079.2.2,0,0,1-.194.209h0Z" transform="translate(15.957 4.666)" fill="#fff"/>
            <path id="Path_6837-4" data-name="Path 6837" d="M73.988,19.869a.2.2,0,0,1-.178-.3,13.808,13.808,0,0,1,5.774-5.628.2.2,0,0,1,.179.359,13.379,13.379,0,0,0-5.6,5.464.2.2,0,0,1-.179.106" transform="translate(17.84 3.368)" fill="#fff"/>
            <path id="Path_6838-4" data-name="Path 6838" d="M79.485,89.1c-2.082-3.581-6.446-5.222-8.909-8.551-2.328-3.15-2.618-7.3-3.147-11.182s-1.628-8.1-4.859-10.318c-3.925-2.686-9.415-1.378-13.75-3.338-4.01-1.813-6.267-6.009-8.557-9.764s-5.437-7.651-9.81-8.078c-3.527-.345-7,1.706-10.5,1.2-3.4-.5-5.961-3.222-8.717-5.284s-6.8-3.477-9.479-1.306C-1.385,35.01.1,40.276,3,43.06s6.868,4.393,9.4,7.519,3.38,7.463,6.444,10.027c4.549,3.818,12.455,2.448,15.92,7.272,2.928,4.079.81,10.314,3.759,14.371,3.551,4.874,12.353,3.841,15.074,9.224,1.422,2.814.472,6.226,1.074,9.313.806,4.118,4.207,7.14,7.408,9.847a31.213,31.213,0,0,0,7.3,5.055c5.679,2.507,12.875.305,11.931-6.554-.831-6.041,1.282-14.7-1.833-20.055" transform="translate(0 7.59)" fill="#ccc"/>
            <path id="Path_6839-4" data-name="Path 6839" d="M75.368,107.619a.206.206,0,0,1-.179-.124A136.9,136.9,0,0,0,5.214,37.164a.2.2,0,0,1-.1-.267.2.2,0,0,1,.264-.1h0A137.327,137.327,0,0,1,75.56,107.335a.2.2,0,0,1-.1.267.182.182,0,0,1-.081.017" transform="translate(1.232 8.892)" fill="#fff"/>
            <path id="Path_6840-4" data-name="Path 6840" d="M57.443,82.727h-.021a.2.2,0,0,1-.18-.219l.776-7.451a.2.2,0,0,1,.4.042l-.78,7.451a.2.2,0,0,1-.2.179" transform="translate(13.84 18.105)" fill="#fff"/>
            <path id="Path_6841-4" data-name="Path 6841" d="M53.678,77.977a.2.2,0,0,1-.088-.021,48.514,48.514,0,0,0-14.831-4.462.2.2,0,0,1,.055-.4,49.005,49.005,0,0,1,14.946,4.5.2.2,0,0,1,.1.266v0a.2.2,0,0,1-.183.118" transform="translate(9.332 17.672)" fill="#fff"/>
            <path id="Path_6842-4" data-name="Path 6842" d="M47.748,70.277a.2.2,0,0,1-.2-.158,36.889,36.889,0,0,1-.689-12.608.206.206,0,0,1,.226-.179.2.2,0,0,1,.178.226,36.448,36.448,0,0,0,.68,12.467.2.2,0,0,1-.147.247h0a.3.3,0,0,1-.047,0" transform="translate(11.269 13.862)" fill="#fff"/>
            <path id="Path_6843-4" data-name="Path 6843" d="M42.3,63.672a.211.211,0,0,1-.091-.021A22.818,22.818,0,0,0,30.6,61.376a.2.2,0,0,1-.217-.189.2.2,0,0,1,.185-.216h0a23.24,23.24,0,0,1,11.817,2.316.2.2,0,0,1-.091.386" transform="translate(7.346 14.729)" fill="#fff"/>
            <path id="Path_6844-4" data-name="Path 6844" d="M32.774,54.519A.206.206,0,0,1,32.6,54.4a55.938,55.938,0,0,1-4.078-12.169.2.2,0,0,1,.391-.113l.006.029a55.47,55.47,0,0,0,4.048,12.085.2.2,0,0,1-.092.266h0a.206.206,0,0,1-.086.02" transform="translate(6.893 10.148)" fill="#fff"/>
            <path id="Path_6845-4" data-name="Path 6845" d="M13.96,51.431a.2.2,0,0,1-.2-.2.2.2,0,0,1,.088-.165A16.354,16.354,0,0,1,25.73,48.454a.2.2,0,0,1-.032.4.168.168,0,0,1-.036-.006A15.949,15.949,0,0,0,14.073,51.4a.219.219,0,0,1-.114.034" transform="translate(3.327 11.662)" fill="#fff"/>
            <path id="Path_6846-4" data-name="Path 6846" d="M19.231,43.951a.205.205,0,0,1-.153-.07A21.726,21.726,0,0,1,16.034,39.3a.2.2,0,1,1,.358-.181,21.429,21.429,0,0,0,2.989,4.5.2.2,0,0,1-.021.284.2.2,0,0,1-.133.051" transform="translate(3.868 9.424)" fill="#fff"/>
            <path id="Path_6847-4" data-name="Path 6847" d="M8.292,41.747a.2.2,0,0,1-.207-.2.2.2,0,0,1,.123-.191,7.357,7.357,0,0,1,3.985-.582.2.2,0,0,1-.052.4h0a7.03,7.03,0,0,0-3.76.553.223.223,0,0,1-.084.017" transform="translate(1.955 9.843)" fill="#fff"/>
            <path id="Path_6848-4" data-name="Path 6848" d="M68.714,126.2h0a30,30,0,0,1-30-30V83.186H98.711V96.2a30,30,0,0,1-30,30" transform="translate(9.361 20.113)" fill="#fff"/>
            <path id="Path_6849-4" data-name="Path 6849" d="M127.7,71.66a.856.856,0,0,1-.856-.856V55.219a18.737,18.737,0,1,0-37.474,0V70.8a.855.855,0,1,1-1.71,0V55.219a20.448,20.448,0,1,1,40.9,0V70.8a.856.856,0,0,1-.856.856" transform="translate(21.195 8.405)" fill="#767676"/>
            <path id="Path_6850-4" data-name="Path 6850" d="M144.741,56.857H51.287L42.511,180.331h93.455Z" transform="translate(10.278 13.747)" fill="#ddd"/>
            <path id="Path_6851-4" data-name="Path 6851" d="M117.77,180.331h33.757L145.018,56.857H124.712Z" transform="translate(28.474 13.747)" fill="#ccc"/>
            <path id="Path_6852-4" data-name="Path 6852" d="M151.526,160.433l-18.195-21.279L117.77,160.433Z" transform="translate(28.475 33.645)" fill="#ccc"/>
            <path id="Path_6853-4" data-name="Path 6853" d="M130.3,159.052V56.857h11.686L148.5,180.331Z" transform="translate(31.504 13.747)" fill="#ddd"/>
            <path id="Path_6854-4" data-name="Path 6854" d="M76.565,64.57a4.031,4.031,0,1,1-4.031-4.031,4.03,4.03,0,0,1,4.031,4.031" transform="translate(16.563 14.637)" fill="#fff"/>
            <path id="Path_6855-4" data-name="Path 6855" d="M108.128,64.57a4.031,4.031,0,1,1-4.031-4.031,4.03,4.03,0,0,1,4.031,4.031" transform="translate(24.194 14.637)" fill="#fff"/>
            <path id="Path_6856-4" data-name="Path 6856" d="M111.1,71.66a.856.856,0,0,1-.856-.856V55.219a18.737,18.737,0,1,0-37.474,0V70.8a.855.855,0,1,1-1.71,0V55.219a20.448,20.448,0,1,1,40.9,0V70.8a.856.856,0,0,1-.856.856" transform="translate(17.182 8.405)" fill="#767676"/>
            <path id="Path_6857-4" data-name="Path 6857" d="M109.375,115.04v47.114a4.1,4.1,0,0,1-4.089,4.109H38.736a4.1,4.1,0,0,1-4.109-4.109V115.04Z" transform="translate(8.372 27.815)" fill="#ccc"/>
            <path id="Path_6858-4" data-name="Path 6858" d="M101.682,113.271l7.693,2.8H34.626l7.714-2.8-7.714-2.508h74.749Z" transform="translate(8.372 26.78)" fill="#b9b9b9"/>
            <path id="Path_6859-4" data-name="Path 6859" d="M42.331,112.789v2.788h-7.7Z" transform="translate(8.372 27.27)" fill="#767676"/>
            <path id="Path_6860-4" data-name="Path 6860" d="M34.624,110.766v5.309l7.707-2.8Z" transform="translate(8.371 26.781)" fill="#b9b9b9"/>
            <path id="Path_6861-4" data-name="Path 6861" d="M88.62,112.789v2.8h7.707Z" transform="translate(21.427 27.27)" fill="#767676"/>
            <path id="Path_6862-4" data-name="Path 6862" d="M96.327,110.766v5.309l-7.706-2.8Z" transform="translate(21.427 26.781)" fill="#b9b9b9"/>
            <path id="Path_6863-4" data-name="Path 6863" d="M52.169,122.412a3.073,3.073,0,1,1-3.073-3.073,3.073,3.073,0,0,1,3.073,3.073" transform="translate(11.127 28.854)" fill="#fff"/>
            <path id="Path_6864-4" data-name="Path 6864" d="M84.622,122.412a3.073,3.073,0,1,1-3.073-3.073,3.073,3.073,0,0,1,3.073,3.073" transform="translate(18.974 28.854)" fill="#fff"/>
            <path id="Path_6865-4" data-name="Path 6865" d="M88.98,128.772a.941.941,0,0,1-.941-.941v-9.813a19.209,19.209,0,1,0-38.417,0v9.813a.941.941,0,1,1-1.881,0v-9.813a21.09,21.09,0,1,1,42.181,0v9.813a.941.941,0,0,1-.941.941" transform="translate(11.543 23.435)" fill="#767676"/>
          </g>
        </g>
      </g>
      <g id="Arrow-left-2" data-name="Arrow-left" transform="translate(1592 1117.029) rotate(180)">
        <g id="Group_1453-2" data-name="Group 1453">
          <g id="Ellipse_82-2" data-name="Ellipse 82" fill="#fff" stroke="#ddd" stroke-width="1">
            <circle cx="22.515" cy="22.515" r="22.515" stroke="none"/>
            <circle cx="22.515" cy="22.515" r="22.015" fill="none"/>
          </g>
        </g>
        <g id="Left-arrow-2" data-name="Left-arrow" transform="translate(18.014 16.272)">
          <path id="Icons-07-2" data-name="Icons-07" d="M1.31,0,0,1.3,5.916,7.2l5.916-5.9L10.521,0,5.916,4.606Z" transform="translate(7.197) rotate(90)" fill="#575a5d"/>
        </g>
      </g>
    </g>
  </g>
</svg>