<svg xmlns="http://www.w3.org/2000/svg" xmlns:xlink="http://www.w3.org/1999/xlink" width="1600" height="507" viewBox="0 0 1600 507">
  <defs>
    <clipPath id="clip-path">
      <rect width="1438" height="338" fill="none"/>
    </clipPath>
  </defs>
  <g id="Product_Carousel" data-name="Product Carousel" transform="translate(0 -1917)">
    <g id="Product_Carousel-2" data-name="Product Carousel" transform="translate(0 -337)">
      <text id="Product_Carousel_Heading" data-name="Product Carousel Heading" transform="translate(800 2333)" fill="#494a53" font-size="40" font-family="Helvetica-Bold, Helvetica" font-weight="700"><tspan x="-251.152" y="0">Product Carousel Heading</tspan></text>
      <g id="Repeat_Grid_244" data-name="Repeat Grid 244" transform="translate(81 2383)" clip-path="url(#clip-path)">
        <g id="Group_4462" data-name="Group 4462">
          <rect id="_0d367bee-2150-44fe-b46c-dba210b5b7ca" data-name="0d367bee-2150-44fe-b46c-dba210b5b7ca" width="262" height="262" rx="16" fill="#cfd2d6"/>
          <rect id="Rectangle_3472" data-name="Rectangle 3472" width="115" height="10" rx="5" transform="translate(0 286)" fill="#969da8"/>
          <rect id="Rectangle_3499" data-name="Rectangle 3499" width="68" height="10" rx="5" transform="translate(121 286)" fill="#969da8"/>
          <rect id="Rectangle_3473" data-name="Rectangle 3473" width="72" height="16" rx="8" transform="translate(0 322)" fill="#494a53"/>
        </g>
        <g id="Group_4462-2" data-name="Group 4462" transform="translate(294)">
          <rect id="_0d367bee-2150-44fe-b46c-dba210b5b7ca-2" data-name="0d367bee-2150-44fe-b46c-dba210b5b7ca" width="262" height="262" rx="16" fill="#cfd2d6"/>
          <rect id="Rectangle_3472-2" data-name="Rectangle 3472" width="115" height="10" rx="5" transform="translate(0 286)" fill="#969da8"/>
          <rect id="Rectangle_3499-2" data-name="Rectangle 3499" width="68" height="10" rx="5" transform="translate(121 286)" fill="#969da8"/>
          <rect id="Rectangle_3473-2" data-name="Rectangle 3473" width="72" height="16" rx="8" transform="translate(0 322)" fill="#494a53"/>
        </g>
        <g id="Group_4462-3" data-name="Group 4462" transform="translate(588)">
          <rect id="_0d367bee-2150-44fe-b46c-dba210b5b7ca-3" data-name="0d367bee-2150-44fe-b46c-dba210b5b7ca" width="262" height="262" rx="16" fill="#cfd2d6"/>
          <rect id="Rectangle_3472-3" data-name="Rectangle 3472" width="115" height="10" rx="5" transform="translate(0 286)" fill="#969da8"/>
          <rect id="Rectangle_3499-3" data-name="Rectangle 3499" width="68" height="10" rx="5" transform="translate(121 286)" fill="#969da8"/>
          <rect id="Rectangle_3473-3" data-name="Rectangle 3473" width="72" height="16" rx="8" transform="translate(0 322)" fill="#494a53"/>
        </g>
        <g id="Group_4462-4" data-name="Group 4462" transform="translate(882)">
          <rect id="_0d367bee-2150-44fe-b46c-dba210b5b7ca-4" data-name="0d367bee-2150-44fe-b46c-dba210b5b7ca" width="262" height="262" rx="16" fill="#cfd2d6"/>
          <rect id="Rectangle_3472-4" data-name="Rectangle 3472" width="115" height="10" rx="5" transform="translate(0 286)" fill="#969da8"/>
          <rect id="Rectangle_3499-4" data-name="Rectangle 3499" width="68" height="10" rx="5" transform="translate(121 286)" fill="#969da8"/>
          <rect id="Rectangle_3473-4" data-name="Rectangle 3473" width="72" height="16" rx="8" transform="translate(0 322)" fill="#494a53"/>
        </g>
        <g id="Group_4462-5" data-name="Group 4462" transform="translate(1176)">
          <rect id="_0d367bee-2150-44fe-b46c-dba210b5b7ca-5" data-name="0d367bee-2150-44fe-b46c-dba210b5b7ca" width="262" height="262" rx="16" fill="#cfd2d6"/>
          <rect id="Rectangle_3472-5" data-name="Rectangle 3472" width="115" height="10" rx="5" transform="translate(0 286)" fill="#969da8"/>
          <rect id="Rectangle_3499-5" data-name="Rectangle 3499" width="68" height="10" rx="5" transform="translate(121 286)" fill="#969da8"/>
          <rect id="Rectangle_3473-5" data-name="Rectangle 3473" width="72" height="16" rx="8" transform="translate(0 322)" fill="#494a53"/>
        </g>
      </g>
      <g id="Arrow-left" transform="translate(19.971 2493.002)">
        <g id="Group_1453" data-name="Group 1453">
          <g id="Ellipse_82" data-name="Ellipse 82" fill="#fff" stroke="#cfd2d6" stroke-width="2">
            <circle cx="22.515" cy="22.515" r="22.515" stroke="none"/>
            <circle cx="22.515" cy="22.515" r="21.515" fill="none"/>
          </g>
        </g>
        <g id="Left-arrow" transform="translate(18.014 16.272)">
          <path id="Icons-07" d="M1.31,0,0,1.3,5.916,7.2l5.916-5.9L10.521,0,5.916,4.606Z" transform="translate(7.197) rotate(90)" fill="#494a53"/>
        </g>
      </g>
      <g id="Arrow-left-2" data-name="Arrow-left" transform="translate(1580 2538.031) rotate(180)">
        <g id="Group_1453-2" data-name="Group 1453">
          <g id="Ellipse_82-2" data-name="Ellipse 82" fill="#fff" stroke="#cfd2d6" stroke-width="2">
            <circle cx="22.515" cy="22.515" r="22.515" stroke="none"/>
            <circle cx="22.515" cy="22.515" r="21.515" fill="none"/>
          </g>
        </g>
        <g id="Left-arrow-2" data-name="Left-arrow" transform="translate(18.014 16.272)">
          <path id="Icons-07-2" data-name="Icons-07" d="M1.31,0,0,1.3,5.916,7.2l5.916-5.9L10.521,0,5.916,4.606Z" transform="translate(7.197) rotate(90)" fill="#494a53"/>
        </g>
      </g>
    </g>
    <rect id="Rectangle_3501" data-name="Rectangle 3501" width="1600" height="507" transform="translate(0 1917)" fill="none"/>
  </g>
</svg>